# MagicaVoxel @ Ephtracy

# group
g blaster58

# material
mtllib blaster58.mtl
usemtl palette

# normals
vn -1 0 0
vn 1 0 0
vn 0 0 1
vn 0 0 -1
vn 0 -1 0
vn 0 1 0

# texcoords
vt 0.0214844 0.5
vt 0.962891 0.5
vt 0.966797 0.5
vt 0.970703 0.5
vt 0.982422 0.5
vt 0.986328 0.5
vt 0.990234 0.5

# verts
v -15 5 -1
v -15 5 -4
v -15 6 -1
v -15 6 -2
v -15 6 -3
v -15 6 -4
v -15 7 -2
v -15 7 -3
v -14 6 -1
v -14 6 -2
v -14 6 -3
v -14 6 -4
v -14 7 -1
v -14 7 -2
v -14 7 -3
v -14 7 -4
v -13 3 -1
v -13 3 -4
v -13 5 -1
v -13 5 -4
v -11 2 -1
v -11 2 -4
v -11 3 -1
v -11 3 -4
v -10 1 -1
v -10 1 -4
v -10 2 -1
v -10 2 -4
v -10 7 -2
v -10 7 -3
v -10 8 -2
v -10 8 -3
v -9 7 -1
v -9 7 -2
v -9 7 -3
v -9 7 -4
v -9 8 -1
v -9 8 -2
v -9 8 -3
v -9 8 -4
v -8 8 -2
v -8 8 -3
v -8 9 -2
v -8 9 -3
v -7 2 -2
v -7 2 -3
v -7 5 -2
v -7 5 -3
v -7 8 -1
v -7 8 -2
v -7 8 -3
v -7 8 -4
v -7 9 -1
v -7 9 -2
v -7 9 -3
v -7 9 -4
v -7 10 -2
v -7 10 -3
v -4 9 -1
v -4 9 -2
v -4 9 -3
v -4 9 -4
v -4 10 -1
v -4 10 -2
v -4 10 -3
v -4 10 -4
v -4 11 -2
v -4 11 -3
v -2 0 -1
v -2 0 -4
v -2 5 -1
v -2 5 -4
v 3 6 -2
v 3 6 -3
v 3 7 -2
v 3 7 -3
v 4 6 -1
v 4 6 -2
v 4 6 -3
v 4 6 -4
v 4 7 -1
v 4 7 -2
v 4 7 -3
v 4 7 -4
v 5 5 -1
v 5 5 -4
v 5 6 -1
v 5 6 -4
v 7 9 -1
v 7 9 -4
v 7 10 -1
v 7 10 -2
v 7 10 -3
v 7 10 -4
v -11 4 -1
v -11 4 -4
v -11 5 -1
v -11 5 -4
v -10 3 -1
v -10 3 -4
v -10 4 -1
v -10 4 -4
v -9 2 -1
v -9 2 -4
v -9 3 -1
v -9 3 -4
v -8 1 -1
v -8 1 -2
v -8 1 -3
v -8 1 -4
v -8 2 -1
v -8 2 -2
v -8 2 -3
v -8 2 -4
v -5 1 -2
v -5 1 -3
v -5 5 -2
v -5 5 -3
v 0 0 -1
v 0 0 -4
v 0 5 -1
v 0 5 -4
v 0 6 -1
v 0 6 -4
v 1 6 -1
v 1 6 -2
v 1 6 -3
v 1 6 -4
v 1 7 -1
v 1 7 -2
v 1 7 -3
v 1 7 -4
v 1 9 -1
v 1 9 -4
v 1 10 -1
v 1 10 -2
v 1 10 -3
v 1 10 -4
v 2 6 -2
v 2 6 -3
v 2 7 -2
v 2 7 -3
v 9 10 -2
v 9 10 -3
v 9 11 -2
v 9 11 -3
v 10 5 -1
v 10 5 -2
v 10 5 -3
v 10 5 -4
v 10 6 -2
v 10 6 -3
v 10 7 -1
v 10 7 -2
v 10 7 -3
v 10 7 -4
v 10 8 -1
v 10 8 -2
v 10 8 -3
v 10 8 -4
v 10 9 -2
v 10 9 -3
v 10 10 -1
v 10 10 -2
v 10 10 -3
v 10 10 -4
v 11 5 -2
v 11 5 -3
v 11 6 -2
v 11 6 -3
v 11 7 -2
v 11 7 -3
v 11 8 -2
v 11 8 -3
v 11 9 -2
v 11 9 -3
v 11 10 -2
v 11 10 -3
v -15 5 -1
v -15 6 -1
v -14 6 -1
v -14 7 -1
v -13 3 -1
v -13 5 -1
v -11 2 -1
v -11 3 -1
v -11 4 -1
v -11 5 -1
v -10 1 -1
v -10 2 -1
v -10 3 -1
v -10 4 -1
v -9 2 -1
v -9 3 -1
v -9 7 -1
v -9 8 -1
v -8 1 -1
v -8 2 -1
v -7 8 -1
v -7 9 -1
v -5 5 -1
v -5 7 -1
v -4 9 -1
v -4 10 -1
v -3 8 -1
v -3 9 -1
v -2 0 -1
v -2 5 -1
v -2 8 -1
v -2 9 -1
v -1 7 -1
v -1 8 -1
v 0 0 -1
v 0 5 -1
v 0 6 -1
v 1 6 -1
v 1 7 -1
v 1 9 -1
v 1 10 -1
v 4 6 -1
v 4 7 -1
v 5 5 -1
v 5 6 -1
v 7 9 -1
v 7 10 -1
v 10 5 -1
v 10 7 -1
v 10 8 -1
v 10 10 -1
v -15 6 -2
v -15 7 -2
v -14 6 -2
v -14 7 -2
v -10 7 -2
v -10 8 -2
v -9 7 -2
v -9 8 -2
v -8 1 -2
v -8 2 -2
v -8 8 -2
v -8 9 -2
v -7 1 -2
v -7 2 -2
v -7 5 -2
v -7 8 -2
v -7 9 -2
v -7 10 -2
v -5 1 -2
v -5 5 -2
v -4 9 -2
v -4 10 -2
v -4 11 -2
v 1 6 -2
v 1 7 -2
v 1 10 -2
v 2 6 -2
v 2 7 -2
v 3 6 -2
v 3 7 -2
v 4 6 -2
v 4 7 -2
v 7 10 -2
v 9 10 -2
v 9 11 -2
v 10 5 -2
v 10 6 -2
v 10 7 -2
v 10 8 -2
v 10 9 -2
v 10 10 -2
v 11 5 -2
v 11 6 -2
v 11 7 -2
v 11 8 -2
v 11 9 -2
v 11 10 -2
v -15 6 -3
v -15 7 -3
v -14 6 -3
v -14 7 -3
v -10 7 -3
v -10 8 -3
v -9 7 -3
v -9 8 -3
v -8 1 -3
v -8 2 -3
v -8 8 -3
v -8 9 -3
v -7 1 -3
v -7 2 -3
v -7 5 -3
v -7 8 -3
v -7 9 -3
v -7 10 -3
v -5 1 -3
v -5 5 -3
v -4 9 -3
v -4 10 -3
v -4 11 -3
v 1 6 -3
v 1 7 -3
v 1 10 -3
v 2 6 -3
v 2 7 -3
v 3 6 -3
v 3 7 -3
v 4 6 -3
v 4 7 -3
v 7 10 -3
v 9 10 -3
v 9 11 -3
v 10 5 -3
v 10 6 -3
v 10 7 -3
v 10 8 -3
v 10 9 -3
v 10 10 -3
v 11 5 -3
v 11 6 -3
v 11 7 -3
v 11 8 -3
v 11 9 -3
v 11 10 -3
v -15 5 -4
v -15 6 -4
v -14 6 -4
v -14 7 -4
v -13 3 -4
v -13 5 -4
v -11 2 -4
v -11 3 -4
v -11 4 -4
v -11 5 -4
v -10 1 -4
v -10 2 -4
v -10 3 -4
v -10 4 -4
v -9 2 -4
v -9 3 -4
v -9 7 -4
v -9 8 -4
v -8 1 -4
v -8 2 -4
v -7 8 -4
v -7 9 -4
v -5 5 -4
v -5 7 -4
v -4 9 -4
v -4 10 -4
v -3 8 -4
v -3 9 -4
v -2 0 -4
v -2 5 -4
v -2 8 -4
v -2 9 -4
v -1 7 -4
v -1 8 -4
v 0 0 -4
v 0 5 -4
v 0 6 -4
v 1 6 -4
v 1 7 -4
v 1 9 -4
v 1 10 -4
v 4 6 -4
v 4 7 -4
v 5 5 -4
v 5 6 -4
v 7 9 -4
v 7 10 -4
v 10 5 -4
v 10 7 -4
v 10 8 -4
v 10 10 -4
v -2 0 -1
v 0 0 -1
v -2 0 -4
v 0 0 -4
v -10 1 -1
v -8 1 -1
v -8 1 -2
v -7 1 -2
v -5 1 -2
v -8 1 -3
v -7 1 -3
v -5 1 -3
v -10 1 -4
v -8 1 -4
v -11 2 -1
v -10 2 -1
v -11 2 -4
v -10 2 -4
v -13 3 -1
v -11 3 -1
v -13 3 -4
v -11 3 -4
v -15 5 -1
v -13 5 -1
v -11 5 -1
v -5 5 -1
v -2 5 -1
v 5 5 -1
v 10 5 -1
v -7 5 -2
v -5 5 -2
v 10 5 -2
v 11 5 -2
v -7 5 -3
v -5 5 -3
v 10 5 -3
v 11 5 -3
v -15 5 -4
v -13 5 -4
v -11 5 -4
v -5 5 -4
v -2 5 -4
v 5 5 -4
v 10 5 -4
v 0 6 -1
v 1 6 -1
v 4 6 -1
v 5 6 -1
v 1 6 -2
v 2 6 -2
v 3 6 -2
v 4 6 -2
v 1 6 -3
v 2 6 -3
v 3 6 -3
v 4 6 -3
v 0 6 -4
v 1 6 -4
v 4 6 -4
v 5 6 -4
v 1 7 -1
v 4 7 -1
v 1 7 -2
v 2 7 -2
v 3 7 -2
v 4 7 -2
v 10 7 -2
v 11 7 -2
v 1 7 -3
v 2 7 -3
v 3 7 -3
v 4 7 -3
v 10 7 -3
v 11 7 -3
v 1 7 -4
v 4 7 -4
v 10 9 -2
v 11 9 -2
v 10 9 -3
v 11 9 -3
v 1 10 -2
v 7 10 -2
v 1 10 -3
v 7 10 -3
v -9 2 -1
v -8 2 -1
v -8 2 -2
v -7 2 -2
v -8 2 -3
v -7 2 -3
v -9 2 -4
v -8 2 -4
v -10 3 -1
v -9 3 -1
v -10 3 -4
v -9 3 -4
v -11 4 -1
v -10 4 -1
v -11 4 -4
v -10 4 -4
v -15 6 -1
v -14 6 -1
v -15 6 -2
v -14 6 -2
v 10 6 -2
v 11 6 -2
v -15 6 -3
v -14 6 -3
v 10 6 -3
v 11 6 -3
v -15 6 -4
v -14 6 -4
v -14 7 -1
v -9 7 -1
v -15 7 -2
v -14 7 -2
v -10 7 -2
v -9 7 -2
v -15 7 -3
v -14 7 -3
v -10 7 -3
v -9 7 -3
v -14 7 -4
v -9 7 -4
v -9 8 -1
v -7 8 -1
v -10 8 -2
v -9 8 -2
v -8 8 -2
v -7 8 -2
v 10 8 -2
v 11 8 -2
v -10 8 -3
v -9 8 -3
v -8 8 -3
v -7 8 -3
v 10 8 -3
v 11 8 -3
v -9 8 -4
v -7 8 -4
v -7 9 -1
v -4 9 -1
v 1 9 -1
v 7 9 -1
v -8 9 -2
v -7 9 -2
v -4 9 -2
v -8 9 -3
v -7 9 -3
v -4 9 -3
v -7 9 -4
v -4 9 -4
v 1 9 -4
v 7 9 -4
v -4 10 -1
v 1 10 -1
v 7 10 -1
v 10 10 -1
v -7 10 -2
v -4 10 -2
v 1 10 -2
v 7 10 -2
v 9 10 -2
v 10 10 -2
v 11 10 -2
v -7 10 -3
v -4 10 -3
v 1 10 -3
v 7 10 -3
v 9 10 -3
v 10 10 -3
v 11 10 -3
v -4 10 -4
v 1 10 -4
v 7 10 -4
v 10 10 -4
v -4 11 -2
v 9 11 -2
v -4 11 -3
v 9 11 -3

# faces
f 3/6/1 2/6/1 1/6/1
f 4/6/1 2/6/1 3/6/1
f 5/6/1 2/6/1 4/6/1
f 6/6/1 2/6/1 5/6/1
f 7/6/1 5/6/1 4/6/1
f 8/6/1 5/6/1 7/6/1
f 13/6/1 10/6/1 9/6/1
f 14/6/1 10/6/1 13/6/1
f 15/6/1 12/6/1 11/6/1
f 16/6/1 12/6/1 15/6/1
f 19/5/1 18/5/1 17/5/1
f 20/5/1 18/5/1 19/5/1
f 23/5/1 22/5/1 21/5/1
f 24/5/1 22/5/1 23/5/1
f 27/5/1 26/5/1 25/5/1
f 28/5/1 26/5/1 27/5/1
f 31/2/1 30/2/1 29/2/1
f 32/2/1 30/2/1 31/2/1
f 37/2/1 34/2/1 33/2/1
f 38/2/1 34/2/1 37/2/1
f 39/2/1 36/2/1 35/2/1
f 40/2/1 36/2/1 39/2/1
f 43/3/1 42/3/1 41/3/1
f 44/3/1 42/3/1 43/3/1
f 47/7/1 46/7/1 45/7/1
f 48/7/1 46/7/1 47/7/1
f 53/3/1 50/3/1 49/3/1
f 54/3/1 50/3/1 53/3/1
f 55/3/1 52/3/1 51/3/1
f 56/3/1 52/3/1 55/3/1
f 57/1/1 55/1/1 54/1/1
f 58/1/1 55/1/1 57/1/1
f 63/3/1 60/3/1 59/3/1
f 64/3/1 60/3/1 63/3/1
f 65/3/1 62/3/1 61/3/1
f 66/3/1 62/3/1 65/3/1
f 67/4/1 65/4/1 64/4/1
f 68/4/1 65/4/1 67/4/1
f 71/6/1 70/6/1 69/6/1
f 72/6/1 70/6/1 71/6/1
f 75/3/1 74/3/1 73/3/1
f 76/3/1 74/3/1 75/3/1
f 81/3/1 78/3/1 77/3/1
f 82/3/1 78/3/1 81/3/1
f 83/3/1 80/3/1 79/3/1
f 84/3/1 80/3/1 83/3/1
f 87/3/1 86/3/1 85/3/1
f 88/3/1 86/3/1 87/3/1
f 91/3/1 90/3/1 89/3/1
f 92/3/1 90/3/1 91/3/1
f 93/3/1 90/3/1 92/3/1
f 94/3/1 90/3/1 93/3/1
f 95/5/2 96/5/2 97/5/2
f 97/5/2 96/5/2 98/5/2
f 99/5/2 100/5/2 101/5/2
f 101/5/2 100/5/2 102/5/2
f 103/5/2 104/5/2 105/5/2
f 105/5/2 104/5/2 106/5/2
f 107/5/2 108/5/2 111/5/2
f 111/5/2 108/5/2 112/5/2
f 109/5/2 110/5/2 113/5/2
f 113/5/2 110/5/2 114/5/2
f 115/7/2 116/7/2 117/7/2
f 117/7/2 116/7/2 118/7/2
f 119/6/2 120/6/2 121/6/2
f 121/6/2 120/6/2 122/6/2
f 121/3/2 122/3/2 123/3/2
f 123/3/2 122/3/2 124/3/2
f 125/3/2 126/3/2 129/3/2
f 129/3/2 126/3/2 130/3/2
f 127/3/2 128/3/2 131/3/2
f 131/3/2 128/3/2 132/3/2
f 133/3/2 134/3/2 135/3/2
f 135/3/2 134/3/2 136/3/2
f 136/3/2 134/3/2 137/3/2
f 137/3/2 134/3/2 138/3/2
f 139/3/2 140/3/2 141/3/2
f 141/3/2 140/3/2 142/3/2
f 143/4/2 144/4/2 145/4/2
f 145/4/2 144/4/2 146/4/2
f 147/3/2 148/3/2 151/3/2
f 149/3/2 150/3/2 152/3/2
f 147/3/2 151/3/2 153/3/2
f 151/3/2 152/3/2 153/3/2
f 153/3/2 152/3/2 154/3/2
f 152/3/2 150/3/2 155/3/2
f 154/3/2 152/3/2 155/3/2
f 155/3/2 150/3/2 156/3/2
f 153/5/2 154/5/2 157/5/2
f 157/5/2 154/5/2 158/5/2
f 155/5/2 156/5/2 159/5/2
f 159/5/2 156/5/2 160/5/2
f 157/3/2 158/3/2 161/3/2
f 158/3/2 159/3/2 161/3/2
f 159/3/2 160/3/2 161/3/2
f 161/3/2 160/3/2 162/3/2
f 157/3/2 161/3/2 163/3/2
f 163/3/2 161/3/2 164/3/2
f 162/3/2 160/3/2 165/3/2
f 165/3/2 160/3/2 166/3/2
f 167/3/2 168/3/2 169/3/2
f 169/3/2 168/3/2 170/3/2
f 171/5/2 172/5/2 173/5/2
f 173/5/2 172/5/2 174/5/2
f 175/3/2 176/3/2 177/3/2
f 177/3/2 176/3/2 178/3/2
f 181/6/3 180/6/3 179/6/3
f 184/6/3 181/6/3 179/6/3
f 184/6/3 182/6/3 181/6/3
f 186/5/3 184/5/3 183/5/3
f 187/5/3 184/5/3 186/5/3
f 188/6/3 182/6/3 184/6/3
f 188/5/3 184/5/3 187/5/3
f 190/5/3 187/5/3 186/5/3
f 190/5/3 186/5/3 185/5/3
f 191/5/3 187/5/3 190/5/3
f 192/5/3 187/5/3 191/5/3
f 193/5/3 190/5/3 189/5/3
f 193/5/3 191/5/3 190/5/3
f 194/5/3 191/5/3 193/5/3
f 195/6/3 182/6/3 188/6/3
f 197/5/3 193/5/3 189/5/3
f 198/5/3 193/5/3 197/5/3
f 199/2/3 196/2/3 195/2/3
f 201/6/3 195/6/3 188/6/3
f 202/2/3 199/2/3 195/2/3
f 202/6/3 195/6/3 201/6/3
f 203/3/3 200/3/3 199/3/3
f 205/2/3 199/2/3 202/2/3
f 205/3/3 204/3/3 203/3/3
f 205/3/3 203/3/3 199/3/3
f 206/3/3 204/3/3 205/3/3
f 208/3/3 202/3/3 201/3/3
f 209/2/3 205/2/3 202/2/3
f 209/6/3 206/6/3 205/6/3
f 210/3/3 204/3/3 206/3/3
f 210/6/3 206/6/3 209/6/3
f 211/2/3 209/2/3 202/2/3
f 211/3/3 202/3/3 208/3/3
f 212/3/3 210/3/3 209/3/3
f 212/2/3 209/2/3 211/2/3
f 213/6/3 208/6/3 207/6/3
f 214/3/3 211/3/3 208/3/3
f 214/6/3 208/6/3 213/6/3
f 215/3/3 211/3/3 214/3/3
f 216/3/3 211/3/3 215/3/3
f 217/5/3 212/5/3 211/5/3
f 217/3/3 211/3/3 216/3/3
f 218/3/3 204/3/3 210/3/3
f 218/3/3 210/3/3 212/3/3
f 219/3/3 204/3/3 218/3/3
f 221/5/3 212/5/3 217/5/3
f 223/3/3 221/3/3 220/3/3
f 224/3/3 218/3/3 212/3/3
f 226/3/3 223/3/3 222/3/3
f 227/5/3 212/5/3 221/5/3
f 227/3/3 223/3/3 226/3/3
f 227/3/3 221/3/3 223/3/3
f 228/3/3 225/3/3 224/3/3
f 228/5/3 212/5/3 227/5/3
f 228/3/3 224/3/3 212/3/3
f 229/3/3 225/3/3 228/3/3
f 232/6/3 231/6/3 230/6/3
f 233/6/3 231/6/3 232/6/3
f 236/2/3 235/2/3 234/2/3
f 237/2/3 235/2/3 236/2/3
f 242/5/3 239/5/3 238/5/3
f 243/5/3 239/5/3 242/5/3
f 245/3/3 241/3/3 240/3/3
f 246/3/3 241/3/3 245/3/3
f 248/7/3 244/7/3 243/7/3
f 248/7/3 243/7/3 242/7/3
f 249/7/3 244/7/3 248/7/3
f 250/1/3 247/1/3 246/1/3
f 251/1/3 247/1/3 250/1/3
f 255/4/3 252/4/3 251/4/3
f 256/3/3 254/3/3 253/3/3
f 257/3/3 254/3/3 256/3/3
f 260/3/3 259/3/3 258/3/3
f 261/3/3 259/3/3 260/3/3
f 262/4/3 252/4/3 255/4/3
f 263/4/3 252/4/3 262/4/3
f 264/4/3 252/4/3 263/4/3
f 271/3/3 266/3/3 265/3/3
f 272/3/3 266/3/3 271/3/3
f 273/5/3 268/5/3 267/5/3
f 274/5/3 268/5/3 273/5/3
f 275/3/3 270/3/3 269/3/3
f 276/3/3 270/3/3 275/3/3
f 277/6/4 278/6/4 279/6/4
f 279/6/4 278/6/4 280/6/4
f 281/2/4 282/2/4 283/2/4
f 283/2/4 282/2/4 284/2/4
f 285/5/4 286/5/4 289/5/4
f 289/5/4 286/5/4 290/5/4
f 287/3/4 288/3/4 292/3/4
f 292/3/4 288/3/4 293/3/4
f 290/7/4 291/7/4 295/7/4
f 289/7/4 290/7/4 295/7/4
f 295/7/4 291/7/4 296/7/4
f 293/1/4 294/1/4 297/1/4
f 297/1/4 294/1/4 298/1/4
f 298/4/4 299/4/4 302/4/4
f 300/3/4 301/3/4 303/3/4
f 303/3/4 301/3/4 304/3/4
f 305/3/4 306/3/4 307/3/4
f 307/3/4 306/3/4 308/3/4
f 302/4/4 299/4/4 309/4/4
f 309/4/4 299/4/4 310/4/4
f 310/4/4 299/4/4 311/4/4
f 312/3/4 313/3/4 318/3/4
f 318/3/4 313/3/4 319/3/4
f 314/5/4 315/5/4 320/5/4
f 320/5/4 315/5/4 321/5/4
f 316/3/4 317/3/4 322/3/4
f 322/3/4 317/3/4 323/3/4
f 324/6/4 325/6/4 326/6/4
f 324/6/4 326/6/4 329/6/4
f 326/6/4 327/6/4 329/6/4
f 328/5/4 329/5/4 331/5/4
f 331/5/4 329/5/4 332/5/4
f 329/6/4 327/6/4 333/6/4
f 332/5/4 329/5/4 333/5/4
f 331/5/4 332/5/4 335/5/4
f 330/5/4 331/5/4 335/5/4
f 335/5/4 332/5/4 336/5/4
f 336/5/4 332/5/4 337/5/4
f 334/5/4 335/5/4 338/5/4
f 335/5/4 336/5/4 338/5/4
f 338/5/4 336/5/4 339/5/4
f 333/6/4 327/6/4 340/6/4
f 334/5/4 338/5/4 342/5/4
f 342/5/4 338/5/4 343/5/4
f 340/2/4 341/2/4 344/2/4
f 333/6/4 340/6/4 346/6/4
f 340/2/4 344/2/4 347/2/4
f 346/6/4 340/6/4 347/6/4
f 344/3/4 345/3/4 348/3/4
f 347/2/4 344/2/4 350/2/4
f 348/3/4 349/3/4 350/3/4
f 344/3/4 348/3/4 350/3/4
f 350/3/4 349/3/4 351/3/4
f 346/3/4 347/3/4 353/3/4
f 347/2/4 350/2/4 354/2/4
f 350/6/4 351/6/4 354/6/4
f 351/3/4 349/3/4 355/3/4
f 354/6/4 351/6/4 355/6/4
f 347/2/4 354/2/4 356/2/4
f 353/3/4 347/3/4 356/3/4
f 354/3/4 355/3/4 357/3/4
f 356/2/4 354/2/4 357/2/4
f 352/6/4 353/6/4 358/6/4
f 353/3/4 356/3/4 359/3/4
f 358/6/4 353/6/4 359/6/4
f 359/3/4 356/3/4 360/3/4
f 360/3/4 356/3/4 361/3/4
f 356/5/4 357/5/4 362/5/4
f 361/3/4 356/3/4 362/3/4
f 355/3/4 349/3/4 363/3/4
f 357/3/4 355/3/4 363/3/4
f 363/3/4 349/3/4 364/3/4
f 362/5/4 357/5/4 366/5/4
f 365/3/4 366/3/4 368/3/4
f 357/3/4 363/3/4 369/3/4
f 367/3/4 368/3/4 371/3/4
f 366/5/4 357/5/4 372/5/4
f 371/3/4 368/3/4 372/3/4
f 368/3/4 366/3/4 372/3/4
f 369/3/4 370/3/4 373/3/4
f 372/5/4 357/5/4 373/5/4
f 357/3/4 369/3/4 373/3/4
f 373/3/4 370/3/4 374/3/4
f 377/6/5 376/6/5 375/6/5
f 378/6/5 376/6/5 377/6/5
f 381/5/5 380/5/5 379/5/5
f 384/5/5 381/5/5 379/5/5
f 384/5/5 382/5/5 381/5/5
f 385/7/5 383/7/5 382/7/5
f 385/5/5 382/5/5 384/5/5
f 386/7/5 383/7/5 385/7/5
f 387/5/5 384/5/5 379/5/5
f 388/5/5 384/5/5 387/5/5
f 391/5/5 390/5/5 389/5/5
f 392/5/5 390/5/5 391/5/5
f 395/5/5 394/5/5 393/5/5
f 396/5/5 394/5/5 395/5/5
f 404/6/5 400/6/5 399/6/5
f 405/3/5 401/3/5 400/3/5
f 405/6/5 400/6/5 404/6/5
f 406/3/5 403/3/5 402/3/5
f 408/6/5 404/6/5 399/6/5
f 409/3/5 401/3/5 405/3/5
f 410/3/5 407/3/5 406/3/5
f 410/3/5 406/3/5 402/3/5
f 411/3/5 407/3/5 410/3/5
f 412/6/5 398/6/5 397/6/5
f 413/6/5 398/6/5 412/6/5
f 414/6/5 408/6/5 399/6/5
f 414/6/5 409/6/5 408/6/5
f 415/3/5 401/3/5 409/3/5
f 415/6/5 409/6/5 414/6/5
f 416/3/5 401/3/5 415/3/5
f 417/3/5 410/3/5 402/3/5
f 418/3/5 410/3/5 417/3/5
f 423/3/5 420/3/5 419/3/5
f 426/3/5 422/3/5 421/3/5
f 427/3/5 424/3/5 423/3/5
f 427/3/5 423/3/5 419/3/5
f 428/3/5 424/3/5 427/3/5
f 429/3/5 426/3/5 425/3/5
f 430/3/5 422/3/5 426/3/5
f 430/3/5 426/3/5 429/3/5
f 431/3/5 427/3/5 419/3/5
f 432/3/5 427/3/5 431/3/5
f 433/3/5 422/3/5 430/3/5
f 434/3/5 422/3/5 433/3/5
f 437/5/5 436/5/5 435/5/5
f 438/5/5 436/5/5 437/5/5
f 439/5/5 436/5/5 438/5/5
f 440/5/5 436/5/5 439/5/5
f 444/5/5 439/5/5 438/5/5
f 445/5/5 439/5/5 444/5/5
f 447/5/5 442/5/5 441/5/5
f 448/5/5 442/5/5 447/5/5
f 449/5/5 446/5/5 445/5/5
f 449/5/5 444/5/5 443/5/5
f 449/5/5 445/5/5 444/5/5
f 450/5/5 446/5/5 449/5/5
f 453/3/5 452/3/5 451/3/5
f 454/3/5 452/3/5 453/3/5
f 457/4/5 456/4/5 455/4/5
f 458/4/5 456/4/5 457/4/5
f 459/5/6 460/5/6 461/5/6
f 459/5/6 461/5/6 463/5/6
f 461/5/6 462/5/6 463/5/6
f 463/5/6 462/5/6 464/5/6
f 459/5/6 463/5/6 465/5/6
f 465/5/6 463/5/6 466/5/6
f 467/5/6 468/5/6 469/5/6
f 469/5/6 468/5/6 470/5/6
f 471/5/6 472/5/6 473/5/6
f 473/5/6 472/5/6 474/5/6
f 475/6/6 476/6/6 477/6/6
f 477/6/6 476/6/6 478/6/6
f 479/3/6 480/3/6 483/3/6
f 483/3/6 480/3/6 484/3/6
f 481/6/6 482/6/6 485/6/6
f 485/6/6 482/6/6 486/6/6
f 487/6/6 488/6/6 490/6/6
f 490/6/6 488/6/6 491/6/6
f 491/6/6 488/6/6 492/6/6
f 489/6/6 490/6/6 493/6/6
f 490/6/6 491/6/6 493/6/6
f 493/6/6 491/6/6 494/6/6
f 494/6/6 491/6/6 495/6/6
f 495/6/6 496/6/6 497/6/6
f 494/6/6 495/6/6 497/6/6
f 497/6/6 496/6/6 498/6/6
f 499/2/6 500/2/6 502/2/6
f 502/2/6 500/2/6 503/2/6
f 503/2/6 500/2/6 504/2/6
f 501/2/6 502/2/6 507/2/6
f 502/2/6 503/2/6 507/2/6
f 507/2/6 503/2/6 508/2/6
f 508/2/6 503/2/6 509/2/6
f 505/5/6 506/5/6 511/5/6
f 511/5/6 506/5/6 512/5/6
f 509/2/6 510/2/6 513/2/6
f 508/2/6 509/2/6 513/2/6
f 513/2/6 510/2/6 514/2/6
f 515/3/6 516/3/6 520/3/6
f 520/3/6 516/3/6 521/3/6
f 519/3/6 520/3/6 522/3/6
f 522/3/6 520/3/6 523/3/6
f 523/3/6 524/3/6 525/3/6
f 525/3/6 524/3/6 526/3/6
f 517/3/6 518/3/6 527/3/6
f 527/3/6 518/3/6 528/3/6
f 529/3/6 530/3/6 534/3/6
f 534/3/6 530/3/6 535/3/6
f 531/3/6 532/3/6 536/3/6
f 536/3/6 532/3/6 537/3/6
f 537/3/6 532/3/6 538/3/6
f 533/1/6 534/1/6 540/1/6
f 540/1/6 534/1/6 541/1/6
f 538/3/6 539/3/6 544/3/6
f 537/3/6 538/3/6 544/3/6
f 544/3/6 539/3/6 545/3/6
f 545/3/6 539/3/6 546/3/6
f 541/3/6 542/3/6 547/3/6
f 547/3/6 542/3/6 548/3/6
f 544/3/6 545/3/6 549/3/6
f 543/3/6 544/3/6 549/3/6
f 549/3/6 545/3/6 550/3/6
f 551/4/6 552/4/6 553/4/6
f 553/4/6 552/4/6 554/4/6
