# MagicaVoxel @ Ephtracy

# group
g blaster75

# material
mtllib blaster75.mtl
usemtl palette

# normals
vn -1 0 0
vn 1 0 0
vn 0 0 1
vn 0 0 -1
vn 0 -1 0
vn 0 1 0

# texcoords
vt 0.537109 0.5
vt 0.705078 0.5
vt 0.978516 0.5
vt 0.982422 0.5
vt 0.986328 0.5
vt 0.990234 0.5

# verts
v -16 9 7
v -16 9 4
v -16 11 7
v -16 11 4
v -15 8 7
v -15 8 4
v -15 9 7
v -15 9 4
v -14 11 7
v -14 11 4
v -14 12 7
v -14 12 4
v -13 0 6
v -13 0 5
v -13 1 7
v -13 1 6
v -13 1 5
v -13 1 4
v -13 4 7
v -13 4 4
v -12 0 7
v -12 0 6
v -12 0 5
v -12 0 4
v -12 1 7
v -12 1 6
v -12 1 5
v -12 1 4
v -12 4 7
v -12 4 4
v -12 6 7
v -12 6 4
v -12 8 8
v -12 8 7
v -12 8 4
v -12 8 3
v -12 11 7
v -12 11 4
v -12 12 7
v -12 12 4
v -12 13 8
v -12 13 3
v -11 6 7
v -11 6 4
v -11 8 7
v -11 8 4
v -7 12 8
v -7 12 7
v -7 12 4
v -7 12 3
v -7 13 8
v -7 13 3
v -2 12 8
v -2 12 7
v -2 12 4
v -2 12 3
v -2 13 8
v -2 13 3
v 0 0 7
v 0 0 4
v 0 5 6
v 0 5 5
v 0 6 6
v 0 6 5
v 0 8 7
v 0 8 4
v 2 12 6
v 2 12 5
v 2 13 6
v 2 13 5
v 3 12 8
v 3 12 7
v 3 12 6
v 3 12 5
v 3 12 4
v 3 12 3
v 3 13 8
v 3 13 6
v 3 13 5
v 3 13 3
v 3 14 6
v 3 14 5
v 9 8 7
v 9 8 4
v 9 9 7
v 9 9 4
v 9 12 7
v 9 12 6
v 9 12 5
v 9 12 4
v 9 13 7
v 9 13 6
v 9 13 5
v 9 13 4
v 10 9 8
v 10 9 7
v 10 9 4
v 10 9 3
v 10 12 8
v 10 12 7
v 10 12 4
v 10 12 3
v 11 14 6
v 11 14 5
v 11 15 6
v 11 15 5
v 13 7 7
v 13 7 4
v 13 8 8
v 13 8 7
v 13 8 4
v 13 8 3
v 13 9 8
v 13 9 7
v 13 9 4
v 13 9 3
v 13 12 8
v 13 12 7
v 13 12 4
v 13 12 3
v 13 13 8
v 13 13 7
v 13 13 6
v 13 13 5
v 13 13 4
v 13 13 3
v 13 14 7
v 13 14 6
v 13 14 5
v 13 14 4
v 13 15 6
v 13 15 5
v 14 6 6
v 14 6 5
v 14 7 6
v 14 7 5
v 14 9 9
v 14 9 8
v 14 9 3
v 14 9 2
v 14 12 9
v 14 12 8
v 14 12 3
v 14 12 2
v 15 5 6
v 15 5 5
v 15 6 6
v 15 6 5
v 15 14 6
v 15 14 5
v 15 15 6
v 15 15 5
v 16 4 6
v 16 4 5
v 16 5 6
v 16 5 5
v 17 3 6
v 17 3 5
v 17 4 6
v 17 4 5
v 17 14 6
v 17 14 5
v 17 15 6
v 17 15 5
v -10 0 7
v -10 0 4
v -10 2 7
v -10 2 4
v -10 12 8
v -10 12 7
v -10 12 4
v -10 12 3
v -10 13 8
v -10 13 3
v -9 2 7
v -9 2 4
v -9 4 7
v -9 4 4
v -8 4 7
v -8 4 4
v -8 5 6
v -8 5 5
v -8 6 6
v -8 6 5
v -8 8 7
v -8 8 4
v -5 12 8
v -5 12 7
v -5 12 4
v -5 12 3
v -5 13 8
v -5 13 3
v 0 12 8
v 0 12 7
v 0 12 4
v 0 12 3
v 0 13 8
v 0 13 3
v 2 0 7
v 2 0 4
v 2 8 7
v 2 8 4
v 5 8 8
v 5 8 7
v 5 8 4
v 5 8 3
v 5 9 7
v 5 9 4
v 5 12 7
v 5 12 6
v 5 12 5
v 5 12 4
v 5 13 8
v 5 13 6
v 5 13 5
v 5 13 3
v 12 14 6
v 12 14 5
v 12 15 6
v 12 15 5
v 14 14 6
v 14 14 5
v 14 15 6
v 14 15 5
v 16 14 6
v 16 14 5
v 16 15 6
v 16 15 5
v 18 3 6
v 18 3 5
v 18 7 7
v 18 7 6
v 18 7 5
v 18 7 4
v 18 8 8
v 18 8 7
v 18 8 6
v 18 8 5
v 18 8 4
v 18 8 3
v 18 9 9
v 18 9 8
v 18 9 7
v 18 9 6
v 18 9 5
v 18 9 4
v 18 9 3
v 18 9 2
v 18 10 8
v 18 10 7
v 18 10 4
v 18 10 3
v 18 11 8
v 18 11 7
v 18 11 4
v 18 11 3
v 18 12 9
v 18 12 8
v 18 12 7
v 18 12 6
v 18 12 5
v 18 12 4
v 18 12 3
v 18 12 2
v 18 13 8
v 18 13 7
v 18 13 6
v 18 13 5
v 18 13 4
v 18 13 3
v 18 14 7
v 18 14 6
v 18 14 5
v 18 14 4
v 18 15 6
v 18 15 5
v 14 9 9
v 14 12 9
v 18 9 9
v 18 12 9
v -12 8 8
v -12 13 8
v -10 9 8
v -10 10 8
v -10 12 8
v -10 13 8
v -7 12 8
v -7 13 8
v -5 12 8
v -5 13 8
v -2 12 8
v -2 13 8
v 0 12 8
v 0 13 8
v 3 9 8
v 3 10 8
v 3 12 8
v 3 13 8
v 5 8 8
v 5 13 8
v 10 9 8
v 10 12 8
v 13 8 8
v 13 9 8
v 13 12 8
v 13 13 8
v 14 9 8
v 14 12 8
v 18 8 8
v 18 9 8
v 18 12 8
v 18 13 8
v -16 9 7
v -16 11 7
v -15 8 7
v -15 9 7
v -14 11 7
v -14 12 7
v -13 1 7
v -13 4 7
v -12 0 7
v -12 1 7
v -12 4 7
v -12 6 7
v -12 8 7
v -12 11 7
v -12 12 7
v -11 6 7
v -11 8 7
v -10 0 7
v -10 2 7
v -9 2 7
v -9 4 7
v -8 4 7
v -8 8 7
v 0 0 7
v 0 8 7
v 2 0 7
v 2 8 7
v 5 9 7
v 5 12 7
v 9 8 7
v 9 9 7
v 9 12 7
v 9 13 7
v 10 9 7
v 10 12 7
v 13 7 7
v 13 8 7
v 13 9 7
v 13 12 7
v 13 13 7
v 13 14 7
v 18 7 7
v 18 8 7
v 18 13 7
v 18 14 7
v -13 0 6
v -13 1 6
v -12 0 6
v -12 1 6
v -8 5 6
v -8 6 6
v 0 5 6
v 0 6 6
v 2 12 6
v 2 13 6
v 3 12 6
v 3 13 6
v 3 14 6
v 5 12 6
v 5 13 6
v 9 12 6
v 9 13 6
v 11 14 6
v 11 15 6
v 12 14 6
v 12 15 6
v 13 13 6
v 13 14 6
v 13 15 6
v 14 6 6
v 14 7 6
v 14 14 6
v 14 15 6
v 15 5 6
v 15 6 6
v 15 14 6
v 15 15 6
v 16 4 6
v 16 5 6
v 16 14 6
v 16 15 6
v 17 3 6
v 17 4 6
v 17 14 6
v 17 15 6
v 18 3 6
v 18 7 6
v 18 14 6
v 18 15 6
v -13 0 5
v -13 1 5
v -12 0 5
v -12 1 5
v -8 5 5
v -8 6 5
v 0 5 5
v 0 6 5
v 2 12 5
v 2 13 5
v 3 12 5
v 3 13 5
v 3 14 5
v 5 12 5
v 5 13 5
v 9 12 5
v 9 13 5
v 11 14 5
v 11 15 5
v 12 14 5
v 12 15 5
v 13 13 5
v 13 14 5
v 13 15 5
v 14 6 5
v 14 7 5
v 14 14 5
v 14 15 5
v 15 5 5
v 15 6 5
v 15 14 5
v 15 15 5
v 16 4 5
v 16 5 5
v 16 14 5
v 16 15 5
v 17 3 5
v 17 4 5
v 17 14 5
v 17 15 5
v 18 3 5
v 18 7 5
v 18 14 5
v 18 15 5
v -16 9 4
v -16 11 4
v -15 8 4
v -15 9 4
v -14 11 4
v -14 12 4
v -13 1 4
v -13 4 4
v -12 0 4
v -12 1 4
v -12 4 4
v -12 6 4
v -12 8 4
v -12 11 4
v -12 12 4
v -11 6 4
v -11 8 4
v -10 0 4
v -10 2 4
v -9 2 4
v -9 4 4
v -8 4 4
v -8 8 4
v 0 0 4
v 0 8 4
v 2 0 4
v 2 8 4
v 5 9 4
v 5 12 4
v 9 8 4
v 9 9 4
v 9 12 4
v 9 13 4
v 10 9 4
v 10 12 4
v 13 7 4
v 13 8 4
v 13 9 4
v 13 12 4
v 13 13 4
v 13 14 4
v 18 7 4
v 18 8 4
v 18 13 4
v 18 14 4
v -12 8 3
v -12 13 3
v -10 9 3
v -10 10 3
v -10 12 3
v -10 13 3
v -7 12 3
v -7 13 3
v -5 12 3
v -5 13 3
v -2 12 3
v -2 13 3
v 0 12 3
v 0 13 3
v 3 9 3
v 3 10 3
v 3 12 3
v 3 13 3
v 5 8 3
v 5 13 3
v 10 9 3
v 10 12 3
v 13 8 3
v 13 9 3
v 13 12 3
v 13 13 3
v 14 9 3
v 14 12 3
v 18 8 3
v 18 9 3
v 18 12 3
v 18 13 3
v 14 9 2
v 14 12 2
v 18 9 2
v 18 12 2
v -12 0 7
v -10 0 7
v 0 0 7
v 2 0 7
v -13 0 6
v -12 0 6
v -13 0 5
v -12 0 5
v -12 0 4
v -10 0 4
v 0 0 4
v 2 0 4
v -13 1 7
v -12 1 7
v -13 1 6
v -12 1 6
v -13 1 5
v -12 1 5
v -13 1 4
v -12 1 4
v -10 2 7
v -9 2 7
v -10 2 4
v -9 2 4
v 17 3 6
v 18 3 6
v 17 3 5
v 18 3 5
v -9 4 7
v -8 4 7
v 16 4 6
v 17 4 6
v 16 4 5
v 17 4 5
v -9 4 4
v -8 4 4
v -8 5 6
v 0 5 6
v 15 5 6
v 16 5 6
v -8 5 5
v 0 5 5
v 15 5 5
v 16 5 5
v 14 6 6
v 15 6 6
v 14 6 5
v 15 6 5
v 13 7 7
v 18 7 7
v 14 7 6
v 18 7 6
v 14 7 5
v 18 7 5
v 13 7 4
v 18 7 4
v -12 8 8
v 5 8 8
v 13 8 8
v 18 8 8
v -15 8 7
v -12 8 7
v -11 8 7
v -8 8 7
v 0 8 7
v 2 8 7
v 5 8 7
v 9 8 7
v 13 8 7
v 18 8 7
v -15 8 4
v -12 8 4
v -11 8 4
v -8 8 4
v 0 8 4
v 2 8 4
v 5 8 4
v 9 8 4
v 13 8 4
v 18 8 4
v -12 8 3
v 5 8 3
v 13 8 3
v 18 8 3
v 14 9 9
v 18 9 9
v 10 9 8
v 13 9 8
v 14 9 8
v 18 9 8
v -16 9 7
v -15 9 7
v 5 9 7
v 9 9 7
v 10 9 7
v 13 9 7
v -16 9 4
v -15 9 4
v 5 9 4
v 9 9 4
v 10 9 4
v 13 9 4
v 10 9 3
v 13 9 3
v 14 9 3
v 18 9 3
v 14 9 2
v 18 9 2
v -13 4 7
v -12 4 7
v -13 4 4
v -12 4 4
v -12 6 7
v -11 6 7
v -8 6 6
v 0 6 6
v -8 6 5
v 0 6 5
v -12 6 4
v -11 6 4
v -16 11 7
v -14 11 7
v -16 11 4
v -14 11 4
v 14 12 9
v 18 12 9
v -10 12 8
v -7 12 8
v -5 12 8
v -2 12 8
v 0 12 8
v 3 12 8
v 10 12 8
v 13 12 8
v 14 12 8
v 18 12 8
v -14 12 7
v -12 12 7
v -10 12 7
v -7 12 7
v -5 12 7
v -2 12 7
v 0 12 7
v 3 12 7
v 5 12 7
v 9 12 7
v 10 12 7
v 13 12 7
v 2 12 6
v 3 12 6
v 5 12 6
v 9 12 6
v 2 12 5
v 3 12 5
v 5 12 5
v 9 12 5
v -14 12 4
v -12 12 4
v -10 12 4
v -7 12 4
v -5 12 4
v -2 12 4
v 0 12 4
v 3 12 4
v 5 12 4
v 9 12 4
v 10 12 4
v 13 12 4
v -10 12 3
v -7 12 3
v -5 12 3
v -2 12 3
v 0 12 3
v 3 12 3
v 10 12 3
v 13 12 3
v 14 12 3
v 18 12 3
v 14 12 2
v 18 12 2
v -12 13 8
v -10 13 8
v -7 13 8
v -5 13 8
v -2 13 8
v 0 13 8
v 3 13 8
v 5 13 8
v 13 13 8
v 18 13 8
v 9 13 7
v 13 13 7
v 18 13 7
v 2 13 6
v 3 13 6
v 5 13 6
v 9 13 6
v 13 13 6
v 2 13 5
v 3 13 5
v 5 13 5
v 9 13 5
v 13 13 5
v 9 13 4
v 13 13 4
v 18 13 4
v -12 13 3
v -10 13 3
v -7 13 3
v -5 13 3
v -2 13 3
v 0 13 3
v 3 13 3
v 5 13 3
v 13 13 3
v 18 13 3
v 13 14 7
v 18 14 7
v 3 14 6
v 11 14 6
v 12 14 6
v 13 14 6
v 14 14 6
v 15 14 6
v 16 14 6
v 17 14 6
v 18 14 6
v 3 14 5
v 11 14 5
v 12 14 5
v 13 14 5
v 14 14 5
v 15 14 5
v 16 14 5
v 17 14 5
v 18 14 5
v 13 14 4
v 18 14 4
v 11 15 6
v 12 15 6
v 13 15 6
v 14 15 6
v 15 15 6
v 16 15 6
v 17 15 6
v 18 15 6
v 11 15 5
v 12 15 5
v 13 15 5
v 14 15 5
v 15 15 5
v 16 15 5
v 17 15 5
v 18 15 5

# faces
f 3/5/1 2/5/1 1/5/1
f 4/5/1 2/5/1 3/5/1
f 7/5/1 6/5/1 5/5/1
f 8/5/1 6/5/1 7/5/1
f 11/4/1 10/4/1 9/4/1
f 12/4/1 10/4/1 11/4/1
f 16/1/1 14/1/1 13/1/1
f 17/1/1 14/1/1 16/1/1
f 19/1/1 16/1/1 15/1/1
f 19/1/1 18/1/1 17/1/1
f 19/1/1 17/1/1 16/1/1
f 20/1/1 18/1/1 19/1/1
f 25/1/1 22/1/1 21/1/1
f 26/1/1 22/1/1 25/1/1
f 27/1/1 24/1/1 23/1/1
f 28/1/1 24/1/1 27/1/1
f 31/1/1 30/1/1 29/1/1
f 32/1/1 30/1/1 31/1/1
f 37/3/1 34/3/1 33/3/1
f 38/3/1 36/3/1 35/3/1
f 39/3/1 37/3/1 33/3/1
f 40/3/1 36/3/1 38/3/1
f 41/3/1 39/3/1 33/3/1
f 41/3/1 40/3/1 39/3/1
f 42/3/1 36/3/1 40/3/1
f 42/3/1 40/3/1 41/3/1
f 45/1/1 44/1/1 43/1/1
f 46/1/1 44/1/1 45/1/1
f 51/3/1 48/3/1 47/3/1
f 51/3/1 50/3/1 49/3/1
f 51/3/1 49/3/1 48/3/1
f 52/3/1 50/3/1 51/3/1
f 57/3/1 54/3/1 53/3/1
f 57/3/1 56/3/1 55/3/1
f 57/3/1 55/3/1 54/3/1
f 58/3/1 56/3/1 57/3/1
f 61/6/1 60/6/1 59/6/1
f 62/6/1 60/6/1 61/6/1
f 63/6/1 61/6/1 59/6/1
f 64/6/1 60/6/1 62/6/1
f 65/6/1 63/6/1 59/6/1
f 65/6/1 64/6/1 63/6/1
f 66/6/1 60/6/1 64/6/1
f 66/6/1 64/6/1 65/6/1
f 69/4/1 68/4/1 67/4/1
f 70/4/1 68/4/1 69/4/1
f 77/3/1 72/3/1 71/3/1
f 77/3/1 73/3/1 72/3/1
f 78/3/1 73/3/1 77/3/1
f 79/3/1 76/3/1 75/3/1
f 79/3/1 75/3/1 74/3/1
f 80/3/1 76/3/1 79/3/1
f 81/4/1 79/4/1 78/4/1
f 82/4/1 79/4/1 81/4/1
f 85/4/1 84/4/1 83/4/1
f 86/4/1 84/4/1 85/4/1
f 91/4/1 88/4/1 87/4/1
f 92/4/1 88/4/1 91/4/1
f 93/4/1 90/4/1 89/4/1
f 94/4/1 90/4/1 93/4/1
f 99/4/1 96/4/1 95/4/1
f 100/4/1 96/4/1 99/4/1
f 101/4/1 98/4/1 97/4/1
f 102/4/1 98/4/1 101/4/1
f 105/4/1 104/4/1 103/4/1
f 106/4/1 104/4/1 105/4/1
f 110/4/1 108/4/1 107/4/1
f 111/4/1 108/4/1 110/4/1
f 113/4/1 110/4/1 109/4/1
f 114/4/1 110/4/1 113/4/1
f 115/4/1 112/4/1 111/4/1
f 116/4/1 112/4/1 115/4/1
f 121/4/1 118/4/1 117/4/1
f 122/4/1 118/4/1 121/4/1
f 125/4/1 120/4/1 119/4/1
f 126/4/1 120/4/1 125/4/1
f 127/4/1 123/4/1 122/4/1
f 128/4/1 123/4/1 127/4/1
f 129/4/1 125/4/1 124/4/1
f 130/4/1 125/4/1 129/4/1
f 131/4/1 129/4/1 128/4/1
f 132/4/1 129/4/1 131/4/1
f 135/4/1 134/4/1 133/4/1
f 136/4/1 134/4/1 135/4/1
f 141/4/1 138/4/1 137/4/1
f 142/4/1 138/4/1 141/4/1
f 143/4/1 140/4/1 139/4/1
f 144/4/1 140/4/1 143/4/1
f 147/4/1 146/4/1 145/4/1
f 148/4/1 146/4/1 147/4/1
f 151/4/1 150/4/1 149/4/1
f 152/4/1 150/4/1 151/4/1
f 155/4/1 154/4/1 153/4/1
f 156/4/1 154/4/1 155/4/1
f 159/4/1 158/4/1 157/4/1
f 160/4/1 158/4/1 159/4/1
f 163/4/1 162/4/1 161/4/1
f 164/4/1 162/4/1 163/4/1
f 165/1/2 166/1/2 167/1/2
f 167/1/2 166/1/2 168/1/2
f 170/3/2 171/3/2 173/3/2
f 171/3/2 172/3/2 173/3/2
f 169/3/2 170/3/2 173/3/2
f 173/3/2 172/3/2 174/3/2
f 175/1/2 176/1/2 177/1/2
f 177/1/2 176/1/2 178/1/2
f 179/1/2 180/1/2 181/1/2
f 181/1/2 180/1/2 182/1/2
f 179/1/2 181/1/2 183/1/2
f 182/1/2 180/1/2 184/1/2
f 179/1/2 183/1/2 185/1/2
f 183/1/2 184/1/2 185/1/2
f 184/1/2 180/1/2 186/1/2
f 185/1/2 184/1/2 186/1/2
f 187/3/2 188/3/2 191/3/2
f 189/3/2 190/3/2 191/3/2
f 188/3/2 189/3/2 191/3/2
f 191/3/2 190/3/2 192/3/2
f 193/3/2 194/3/2 197/3/2
f 195/3/2 196/3/2 197/3/2
f 194/3/2 195/3/2 197/3/2
f 197/3/2 196/3/2 198/3/2
f 199/6/2 200/6/2 201/6/2
f 201/6/2 200/6/2 202/6/2
f 203/3/2 204/3/2 207/3/2
f 204/5/2 205/5/2 207/5/2
f 205/3/2 206/3/2 208/3/2
f 207/5/2 205/5/2 208/5/2
f 203/3/2 207/3/2 209/3/2
f 208/3/2 206/3/2 212/3/2
f 209/3/2 210/3/2 213/3/2
f 203/3/2 209/3/2 213/3/2
f 213/3/2 210/3/2 214/3/2
f 211/3/2 212/3/2 215/3/2
f 212/3/2 206/3/2 216/3/2
f 215/3/2 212/3/2 216/3/2
f 217/4/2 218/4/2 219/4/2
f 219/4/2 218/4/2 220/4/2
f 221/4/2 222/4/2 223/4/2
f 223/4/2 222/4/2 224/4/2
f 225/4/2 226/4/2 227/4/2
f 227/4/2 226/4/2 228/4/2
f 229/4/2 230/4/2 232/4/2
f 232/4/2 230/4/2 233/4/2
f 231/4/2 232/4/2 236/4/2
f 233/4/2 234/4/2 236/4/2
f 232/4/2 233/4/2 236/4/2
f 236/4/2 234/4/2 237/4/2
f 237/4/2 234/4/2 238/4/2
f 238/4/2 234/4/2 239/4/2
f 235/4/2 236/4/2 242/4/2
f 236/4/2 237/4/2 242/4/2
f 242/4/2 237/4/2 243/4/2
f 237/6/2 238/6/2 244/6/2
f 243/4/2 237/4/2 244/4/2
f 239/4/2 240/4/2 245/4/2
f 244/6/2 238/6/2 245/6/2
f 238/4/2 239/4/2 245/4/2
f 245/4/2 240/4/2 246/4/2
f 246/4/2 240/4/2 247/4/2
f 241/4/2 242/4/2 249/4/2
f 242/4/2 243/4/2 249/4/2
f 243/6/2 244/6/2 250/6/2
f 249/4/2 243/4/2 250/4/2
f 244/6/2 245/6/2 250/6/2
f 245/6/2 246/6/2 250/6/2
f 247/4/2 248/4/2 251/4/2
f 250/6/2 246/6/2 251/6/2
f 246/4/2 247/4/2 251/4/2
f 251/4/2 248/4/2 252/4/2
f 241/4/2 249/4/2 253/4/2
f 249/6/2 250/6/2 253/6/2
f 251/6/2 252/6/2 253/6/2
f 250/6/2 251/6/2 253/6/2
f 253/6/2 252/6/2 254/6/2
f 254/6/2 252/6/2 255/6/2
f 252/4/2 248/4/2 256/4/2
f 255/6/2 252/6/2 256/6/2
f 241/4/2 253/4/2 257/4/2
f 253/4/2 254/4/2 257/4/2
f 257/4/2 254/4/2 258/4/2
f 254/6/2 255/6/2 259/6/2
f 258/4/2 254/4/2 259/4/2
f 259/6/2 255/6/2 260/6/2
f 260/6/2 255/6/2 261/6/2
f 255/4/2 256/4/2 262/4/2
f 261/6/2 255/6/2 262/6/2
f 256/4/2 248/4/2 263/4/2
f 262/4/2 256/4/2 263/4/2
f 263/4/2 248/4/2 264/4/2
f 258/4/2 259/4/2 265/4/2
f 259/4/2 260/4/2 265/4/2
f 265/4/2 260/4/2 266/4/2
f 260/6/2 261/6/2 267/6/2
f 266/4/2 260/4/2 267/4/2
f 261/4/2 262/4/2 268/4/2
f 267/6/2 261/6/2 268/6/2
f 262/4/2 263/4/2 268/4/2
f 268/4/2 263/4/2 269/4/2
f 269/4/2 263/4/2 270/4/2
f 266/4/2 267/4/2 271/4/2
f 268/4/2 269/4/2 271/4/2
f 267/4/2 268/4/2 271/4/2
f 271/4/2 269/4/2 272/4/2
f 272/4/2 269/4/2 273/4/2
f 273/4/2 269/4/2 274/4/2
f 272/4/2 273/4/2 275/4/2
f 275/4/2 273/4/2 276/4/2
f 279/4/3 278/4/3 277/4/3
f 280/4/3 278/4/3 279/4/3
f 283/3/3 282/3/3 281/3/3
f 284/3/3 282/3/3 283/3/3
f 285/3/3 282/3/3 284/3/3
f 286/3/3 282/3/3 285/3/3
f 287/3/3 285/3/3 284/3/3
f 289/3/3 287/3/3 284/3/3
f 289/3/3 288/3/3 287/3/3
f 290/3/3 288/3/3 289/3/3
f 291/3/3 289/3/3 284/3/3
f 293/3/3 291/3/3 284/3/3
f 293/3/3 292/3/3 291/3/3
f 294/3/3 292/3/3 293/3/3
f 295/3/3 283/3/3 281/3/3
f 295/2/3 284/2/3 283/2/3
f 296/3/3 293/3/3 284/3/3
f 296/2/3 284/2/3 295/2/3
f 297/3/3 293/3/3 296/3/3
f 299/3/3 295/3/3 281/3/3
f 299/3/3 298/3/3 297/3/3
f 299/3/3 297/3/3 296/3/3
f 299/3/3 296/3/3 295/3/3
f 300/3/3 298/3/3 299/3/3
f 304/4/3 302/4/3 301/4/3
f 305/4/3 302/4/3 304/4/3
f 307/4/3 304/4/3 303/4/3
f 307/4/3 306/4/3 305/4/3
f 307/4/3 305/4/3 304/4/3
f 308/4/3 306/4/3 307/4/3
f 309/4/3 307/4/3 303/4/3
f 310/4/3 307/4/3 309/4/3
f 311/4/3 306/4/3 308/4/3
f 312/4/3 306/4/3 311/4/3
f 316/5/3 314/5/3 313/5/3
f 317/5/3 314/5/3 316/5/3
f 317/5/3 316/5/3 315/5/3
f 322/1/3 320/1/3 319/1/3
f 323/1/3 320/1/3 322/1/3
f 325/5/3 317/5/3 315/5/3
f 326/4/3 318/4/3 317/4/3
f 326/5/3 317/5/3 325/5/3
f 327/4/3 318/4/3 326/4/3
f 328/1/3 324/1/3 323/1/3
f 328/1/3 322/1/3 321/1/3
f 328/1/3 323/1/3 322/1/3
f 330/1/3 328/1/3 321/1/3
f 330/1/3 329/1/3 328/1/3
f 331/1/3 329/1/3 330/1/3
f 332/1/3 329/1/3 331/1/3
f 333/1/3 329/1/3 332/1/3
f 334/1/3 329/1/3 333/1/3
f 335/1/3 329/1/3 334/1/3
f 338/6/3 337/6/3 336/6/3
f 339/6/3 337/6/3 338/6/3
f 343/4/3 341/4/3 340/4/3
f 344/4/3 341/4/3 343/4/3
f 346/4/3 344/4/3 343/4/3
f 346/4/3 345/4/3 344/4/3
f 346/4/3 343/4/3 342/4/3
f 347/4/3 345/4/3 346/4/3
f 349/4/3 346/4/3 342/4/3
f 350/4/3 346/4/3 349/4/3
f 351/4/3 345/4/3 347/4/3
f 352/4/3 345/4/3 351/4/3
f 354/4/3 349/4/3 348/4/3
f 355/4/3 349/4/3 354/4/3
f 356/4/3 353/4/3 352/4/3
f 357/4/3 353/4/3 356/4/3
f 360/1/3 359/1/3 358/1/3
f 361/1/3 359/1/3 360/1/3
f 364/5/3 363/5/3 362/5/3
f 365/5/3 363/5/3 364/5/3
f 368/4/3 367/4/3 366/4/3
f 369/4/3 367/4/3 368/4/3
f 372/4/3 370/4/3 369/4/3
f 373/4/3 372/4/3 371/4/3
f 374/4/3 370/4/3 372/4/3
f 374/4/3 372/4/3 373/4/3
f 375/4/3 370/4/3 374/4/3
f 377/4/3 375/4/3 374/4/3
f 377/4/3 376/4/3 375/4/3
f 378/4/3 376/4/3 377/4/3
f 379/4/3 377/4/3 374/4/3
f 380/4/3 377/4/3 379/4/3
f 384/4/3 381/4/3 380/4/3
f 385/4/3 381/4/3 384/4/3
f 387/4/3 383/4/3 382/4/3
f 391/4/3 387/4/3 386/4/3
f 392/4/3 389/4/3 388/4/3
f 393/4/3 389/4/3 392/4/3
f 395/4/3 391/4/3 390/4/3
f 398/4/3 395/4/3 394/4/3
f 399/4/3 383/4/3 387/4/3
f 399/4/3 395/4/3 398/4/3
f 399/4/3 387/4/3 391/4/3
f 399/4/3 391/4/3 395/4/3
f 400/4/3 397/4/3 396/4/3
f 401/4/3 397/4/3 400/4/3
f 402/1/4 403/1/4 404/1/4
f 404/1/4 403/1/4 405/1/4
f 406/5/4 407/5/4 408/5/4
f 408/5/4 407/5/4 409/5/4
f 410/4/4 411/4/4 412/4/4
f 412/4/4 411/4/4 413/4/4
f 413/4/4 414/4/4 416/4/4
f 415/4/4 416/4/4 417/4/4
f 416/4/4 414/4/4 418/4/4
f 417/4/4 416/4/4 418/4/4
f 418/4/4 414/4/4 419/4/4
f 418/4/4 419/4/4 421/4/4
f 419/4/4 420/4/4 421/4/4
f 421/4/4 420/4/4 422/4/4
f 418/4/4 421/4/4 423/4/4
f 423/4/4 421/4/4 424/4/4
f 424/4/4 425/4/4 428/4/4
f 428/4/4 425/4/4 429/4/4
f 426/4/4 427/4/4 431/4/4
f 430/4/4 431/4/4 435/4/4
f 432/4/4 433/4/4 436/4/4
f 436/4/4 433/4/4 437/4/4
f 434/4/4 435/4/4 439/4/4
f 438/4/4 439/4/4 442/4/4
f 431/4/4 427/4/4 443/4/4
f 442/4/4 439/4/4 443/4/4
f 435/4/4 431/4/4 443/4/4
f 439/4/4 435/4/4 443/4/4
f 440/4/4 441/4/4 444/4/4
f 444/4/4 441/4/4 445/4/4
f 446/5/4 447/5/4 449/5/4
f 449/5/4 447/5/4 450/5/4
f 448/5/4 449/5/4 450/5/4
f 452/1/4 453/1/4 455/1/4
f 455/1/4 453/1/4 456/1/4
f 448/5/4 450/5/4 458/5/4
f 450/4/4 451/4/4 459/4/4
f 458/5/4 450/5/4 459/5/4
f 459/4/4 451/4/4 460/4/4
f 456/1/4 457/1/4 461/1/4
f 454/1/4 455/1/4 461/1/4
f 455/1/4 456/1/4 461/1/4
f 454/1/4 461/1/4 463/1/4
f 461/1/4 462/1/4 463/1/4
f 463/1/4 462/1/4 464/1/4
f 464/1/4 462/1/4 465/1/4
f 465/1/4 462/1/4 466/1/4
f 466/1/4 462/1/4 467/1/4
f 467/1/4 462/1/4 468/1/4
f 469/6/4 470/6/4 471/6/4
f 471/6/4 470/6/4 472/6/4
f 473/4/4 474/4/4 476/4/4
f 476/4/4 474/4/4 477/4/4
f 476/4/4 477/4/4 479/4/4
f 477/4/4 478/4/4 479/4/4
f 475/4/4 476/4/4 479/4/4
f 479/4/4 478/4/4 480/4/4
f 475/4/4 479/4/4 482/4/4
f 482/4/4 479/4/4 483/4/4
f 480/4/4 478/4/4 484/4/4
f 484/4/4 478/4/4 485/4/4
f 481/4/4 482/4/4 487/4/4
f 487/4/4 482/4/4 488/4/4
f 485/4/4 486/4/4 489/4/4
f 489/4/4 486/4/4 490/4/4
f 491/3/4 492/3/4 493/3/4
f 493/3/4 492/3/4 494/3/4
f 494/3/4 492/3/4 495/3/4
f 495/3/4 492/3/4 496/3/4
f 494/3/4 495/3/4 497/3/4
f 494/3/4 497/3/4 499/3/4
f 497/3/4 498/3/4 499/3/4
f 499/3/4 498/3/4 500/3/4
f 494/3/4 499/3/4 501/3/4
f 494/3/4 501/3/4 503/3/4
f 501/3/4 502/3/4 503/3/4
f 503/3/4 502/3/4 504/3/4
f 491/3/4 493/3/4 505/3/4
f 493/2/4 494/2/4 505/2/4
f 494/3/4 503/3/4 506/3/4
f 505/2/4 494/2/4 506/2/4
f 506/3/4 503/3/4 507/3/4
f 491/3/4 505/3/4 509/3/4
f 507/3/4 508/3/4 509/3/4
f 506/3/4 507/3/4 509/3/4
f 505/3/4 506/3/4 509/3/4
f 509/3/4 508/3/4 510/3/4
f 511/4/4 512/4/4 514/4/4
f 514/4/4 512/4/4 515/4/4
f 513/4/4 514/4/4 517/4/4
f 515/4/4 516/4/4 517/4/4
f 514/4/4 515/4/4 517/4/4
f 517/4/4 516/4/4 518/4/4
f 513/4/4 517/4/4 519/4/4
f 519/4/4 517/4/4 520/4/4
f 518/4/4 516/4/4 521/4/4
f 521/4/4 516/4/4 522/4/4
f 523/4/4 524/4/4 525/4/4
f 525/4/4 524/4/4 526/4/4
f 532/1/5 528/1/5 527/1/5
f 533/1/5 532/1/5 531/1/5
f 534/1/5 528/1/5 532/1/5
f 534/1/5 532/1/5 533/1/5
f 535/1/5 528/1/5 534/1/5
f 536/1/5 528/1/5 535/1/5
f 537/6/5 530/6/5 529/6/5
f 538/6/5 530/6/5 537/6/5
f 541/1/5 540/1/5 539/1/5
f 542/1/5 540/1/5 541/1/5
f 545/1/5 544/1/5 543/1/5
f 546/1/5 544/1/5 545/1/5
f 549/1/5 548/1/5 547/1/5
f 550/1/5 548/1/5 549/1/5
f 553/4/5 552/4/5 551/4/5
f 554/4/5 552/4/5 553/4/5
f 559/4/5 558/4/5 557/4/5
f 560/4/5 558/4/5 559/4/5
f 561/1/5 556/1/5 555/1/5
f 562/1/5 556/1/5 561/1/5
f 567/5/5 564/5/5 563/5/5
f 568/5/5 564/5/5 567/5/5
f 569/4/5 566/4/5 565/4/5
f 570/4/5 566/4/5 569/4/5
f 573/4/5 572/4/5 571/4/5
f 574/4/5 572/4/5 573/4/5
f 577/4/5 576/4/5 575/4/5
f 578/4/5 576/4/5 577/4/5
f 579/4/5 577/4/5 575/4/5
f 581/4/5 579/4/5 575/4/5
f 581/4/5 580/4/5 579/4/5
f 582/4/5 580/4/5 581/4/5
f 588/3/5 584/3/5 583/3/5
f 589/3/5 584/3/5 588/3/5
f 590/3/5 584/3/5 589/3/5
f 591/3/5 584/3/5 590/3/5
f 592/3/5 584/3/5 591/3/5
f 593/3/5 584/3/5 592/3/5
f 595/4/5 586/4/5 585/4/5
f 596/4/5 586/4/5 595/4/5
f 597/5/5 588/5/5 587/5/5
f 597/5/5 589/5/5 588/5/5
f 598/5/5 589/5/5 597/5/5
f 599/5/5 589/5/5 598/5/5
f 600/5/5 591/5/5 590/5/5
f 601/5/5 591/5/5 600/5/5
f 602/5/5 593/5/5 592/5/5
f 603/5/5 593/5/5 602/5/5
f 604/4/5 595/4/5 594/4/5
f 605/4/5 595/4/5 604/4/5
f 607/3/5 601/3/5 600/3/5
f 607/3/5 603/3/5 602/3/5
f 607/3/5 599/3/5 598/3/5
f 607/3/5 602/3/5 601/3/5
f 607/3/5 600/3/5 599/3/5
f 608/3/5 603/3/5 607/3/5
f 609/4/5 606/4/5 605/4/5
f 610/4/5 606/4/5 609/4/5
f 615/4/5 612/4/5 611/4/5
f 616/4/5 612/4/5 615/4/5
f 621/4/5 614/4/5 613/4/5
f 622/4/5 614/4/5 621/4/5
f 623/5/5 618/5/5 617/5/5
f 624/5/5 618/5/5 623/5/5
f 625/4/5 620/4/5 619/4/5
f 626/4/5 620/4/5 625/4/5
f 629/4/5 628/4/5 627/4/5
f 630/4/5 628/4/5 629/4/5
f 633/4/5 632/4/5 631/4/5
f 634/4/5 632/4/5 633/4/5
f 635/1/6 636/1/6 637/1/6
f 637/1/6 636/1/6 638/1/6
f 641/5/6 642/5/6 643/5/6
f 643/5/6 642/5/6 644/5/6
f 639/1/6 640/1/6 645/1/6
f 645/1/6 640/1/6 646/1/6
f 647/5/6 648/5/6 649/5/6
f 649/5/6 648/5/6 650/5/6
f 651/4/6 652/4/6 661/4/6
f 661/4/6 652/4/6 662/4/6
f 653/3/6 654/3/6 665/3/6
f 665/3/6 654/3/6 666/3/6
f 655/3/6 656/3/6 667/3/6
f 667/3/6 656/3/6 668/3/6
f 657/3/6 658/3/6 669/3/6
f 669/3/6 658/3/6 670/3/6
f 659/4/6 660/4/6 673/4/6
f 673/4/6 660/4/6 674/4/6
f 669/4/6 670/4/6 675/4/6
f 675/4/6 670/4/6 676/4/6
f 671/4/6 672/4/6 677/4/6
f 677/4/6 672/4/6 678/4/6
f 669/4/6 675/4/6 679/4/6
f 663/4/6 664/4/6 683/4/6
f 683/4/6 664/4/6 684/4/6
f 665/4/6 666/4/6 685/4/6
f 685/4/6 666/4/6 686/4/6
f 667/4/6 668/4/6 687/4/6
f 687/4/6 668/4/6 688/4/6
f 669/4/6 679/4/6 689/4/6
f 679/4/6 680/4/6 689/4/6
f 689/4/6 680/4/6 690/4/6
f 681/4/6 682/4/6 691/4/6
f 691/4/6 682/4/6 692/4/6
f 685/3/6 686/3/6 695/3/6
f 695/3/6 686/3/6 696/3/6
f 687/3/6 688/3/6 697/3/6
f 697/3/6 688/3/6 698/3/6
f 689/3/6 690/3/6 699/3/6
f 699/3/6 690/3/6 700/3/6
f 693/4/6 694/4/6 701/4/6
f 701/4/6 694/4/6 702/4/6
f 703/4/6 704/4/6 705/4/6
f 705/4/6 704/4/6 706/4/6
f 715/4/6 716/4/6 718/4/6
f 718/4/6 716/4/6 719/4/6
f 713/3/6 714/3/6 721/3/6
f 721/3/6 714/3/6 722/3/6
f 717/4/6 718/4/6 723/4/6
f 723/4/6 718/4/6 724/4/6
f 720/4/6 721/4/6 725/4/6
f 725/4/6 721/4/6 726/4/6
f 728/4/6 729/4/6 730/4/6
f 730/4/6 729/4/6 731/4/6
f 707/3/6 708/3/6 733/3/6
f 733/3/6 708/3/6 734/3/6
f 709/3/6 710/3/6 735/3/6
f 735/3/6 710/3/6 736/3/6
f 711/3/6 712/3/6 737/3/6
f 737/3/6 712/3/6 738/3/6
f 726/3/6 727/3/6 739/3/6
f 739/3/6 727/3/6 740/3/6
f 731/4/6 732/4/6 741/4/6
f 741/4/6 732/4/6 742/4/6
f 743/4/6 744/4/6 748/4/6
f 748/4/6 744/4/6 749/4/6
f 749/4/6 744/4/6 750/4/6
f 750/4/6 744/4/6 751/4/6
f 751/4/6 744/4/6 752/4/6
f 752/4/6 744/4/6 753/4/6
f 745/4/6 746/4/6 754/4/6
f 754/4/6 746/4/6 755/4/6
f 747/4/6 748/4/6 756/4/6
f 756/4/6 748/4/6 757/4/6
f 749/4/6 750/4/6 758/4/6
f 758/4/6 750/4/6 759/4/6
f 751/4/6 752/4/6 760/4/6
f 760/4/6 752/4/6 761/4/6
f 761/4/6 762/4/6 763/4/6
f 760/4/6 761/4/6 763/4/6
f 759/4/6 760/4/6 763/4/6
f 758/4/6 759/4/6 763/4/6
f 757/4/6 758/4/6 763/4/6
f 763/4/6 762/4/6 764/4/6
f 765/4/6 766/4/6 773/4/6
f 773/4/6 766/4/6 774/4/6
f 767/4/6 768/4/6 775/4/6
f 775/4/6 768/4/6 776/4/6
f 769/4/6 770/4/6 777/4/6
f 777/4/6 770/4/6 778/4/6
f 771/4/6 772/4/6 779/4/6
f 779/4/6 772/4/6 780/4/6
