# MagicaVoxel @ Ephtracy

# group
g blaster73

# material
mtllib blaster73.mtl
usemtl palette

# normals
vn -1 0 0
vn 1 0 0
vn 0 0 1
vn 0 0 -1
vn 0 -1 0
vn 0 1 0

# texcoords
vt 0.537109 0.5
vt 0.978516 0.5
vt 0.982422 0.5
vt 0.986328 0.5
vt 0.990234 0.5

# verts
v -16 8 7
v -16 8 4
v -16 10 7
v -16 10 4
v -15 7 7
v -15 7 4
v -15 8 7
v -15 8 4
v -14 10 7
v -14 10 4
v -14 11 7
v -14 11 4
v -13 0 7
v -13 0 4
v -13 3 7
v -13 3 4
v -12 3 7
v -12 3 4
v -12 5 7
v -12 5 4
v -12 7 8
v -12 7 7
v -12 7 4
v -12 7 3
v -12 10 7
v -12 10 4
v -12 11 7
v -12 11 4
v -12 12 8
v -12 12 3
v -11 5 7
v -11 5 4
v -11 7 7
v -11 7 4
v -7 11 8
v -7 11 7
v -7 11 4
v -7 11 3
v -7 12 8
v -7 12 3
v -2 11 8
v -2 11 7
v -2 11 4
v -2 11 3
v -2 12 8
v -2 12 3
v 0 1 7
v 0 1 4
v 0 7 7
v 0 7 4
v -11 0 7
v -11 0 6
v -11 0 5
v -11 0 4
v -11 1 7
v -11 1 6
v -11 1 5
v -11 1 4
v -10 0 6
v -10 0 5
v -10 1 7
v -10 1 6
v -10 1 5
v -10 1 4
v -10 2 7
v -10 2 6
v -10 2 5
v -10 2 4
v -10 11 8
v -10 11 7
v -10 11 4
v -10 11 3
v -10 12 8
v -10 12 3
v -9 1 6
v -9 1 5
v -9 2 7
v -9 2 6
v -9 2 5
v -9 2 4
v -9 3 6
v -9 3 5
v -9 4 7
v -9 4 6
v -9 4 5
v -9 4 4
v -8 3 6
v -8 3 5
v -8 4 7
v -8 4 6
v -8 4 5
v -8 4 4
v -8 7 7
v -8 7 4
v -5 11 8
v -5 11 7
v -5 11 4
v -5 11 3
v -5 12 8
v -5 12 3
v 0 7 8
v 0 7 7
v 0 7 4
v 0 7 3
v 0 10 7
v 0 10 4
v 0 11 7
v 0 11 4
v 0 12 8
v 0 12 3
v 1 1 7
v 1 1 6
v 1 1 5
v 1 1 4
v 1 2 7
v 1 2 6
v 1 2 5
v 1 2 4
v 2 1 6
v 2 1 5
v 2 2 7
v 2 2 6
v 2 2 5
v 2 2 4
v 2 7 7
v 2 7 4
v 5 7 7
v 5 7 4
v 5 8 7
v 5 8 4
v 9 8 7
v 9 8 4
v 9 9 7
v 9 9 4
v 10 9 7
v 10 9 4
v 10 11 7
v 10 11 4
v -12 7 8
v -12 12 8
v -10 11 8
v -10 12 8
v -7 11 8
v -7 12 8
v -5 11 8
v -5 12 8
v -2 11 8
v -2 12 8
v 0 7 8
v 0 12 8
v -16 8 7
v -16 10 7
v -15 7 7
v -15 8 7
v -14 10 7
v -14 11 7
v -13 0 7
v -13 3 7
v -12 3 7
v -12 5 7
v -12 7 7
v -12 10 7
v -12 11 7
v -11 0 7
v -11 1 7
v -11 5 7
v -11 7 7
v -10 1 7
v -10 2 7
v -9 2 7
v -9 4 7
v -8 4 7
v -8 7 7
v 0 1 7
v 0 7 7
v 0 10 7
v 0 11 7
v 1 1 7
v 1 2 7
v 2 2 7
v 2 7 7
v 5 7 7
v 5 8 7
v 5 10 7
v 9 8 7
v 9 9 7
v 10 9 7
v 10 11 7
v -11 0 6
v -11 1 6
v -10 0 6
v -10 1 6
v -10 2 6
v -9 1 6
v -9 2 6
v -9 3 6
v -9 4 6
v -8 3 6
v -8 4 6
v 1 1 6
v 1 2 6
v 2 1 6
v 2 2 6
v -11 0 5
v -11 1 5
v -10 0 5
v -10 1 5
v -10 2 5
v -9 1 5
v -9 2 5
v -9 3 5
v -9 4 5
v -8 3 5
v -8 4 5
v 1 1 5
v 1 2 5
v 2 1 5
v 2 2 5
v -16 8 4
v -16 10 4
v -15 7 4
v -15 8 4
v -14 10 4
v -14 11 4
v -13 0 4
v -13 3 4
v -12 3 4
v -12 5 4
v -12 7 4
v -12 10 4
v -12 11 4
v -11 0 4
v -11 1 4
v -11 5 4
v -11 7 4
v -10 1 4
v -10 2 4
v -9 2 4
v -9 4 4
v -8 4 4
v -8 7 4
v 0 1 4
v 0 7 4
v 0 10 4
v 0 11 4
v 1 1 4
v 1 2 4
v 2 2 4
v 2 7 4
v 5 7 4
v 5 8 4
v 5 10 4
v 9 8 4
v 9 9 4
v 10 9 4
v 10 11 4
v -12 7 3
v -12 12 3
v -10 11 3
v -10 12 3
v -7 11 3
v -7 12 3
v -5 11 3
v -5 12 3
v -2 11 3
v -2 12 3
v 0 7 3
v 0 12 3
v -13 0 7
v -11 0 7
v -11 0 6
v -10 0 6
v -11 0 5
v -10 0 5
v -13 0 4
v -11 0 4
v -11 1 7
v -10 1 7
v 0 1 7
v 1 1 7
v -11 1 6
v -10 1 6
v -9 1 6
v 1 1 6
v 2 1 6
v -11 1 5
v -10 1 5
v -9 1 5
v 1 1 5
v 2 1 5
v -11 1 4
v -10 1 4
v 0 1 4
v 1 1 4
v -10 2 7
v -9 2 7
v 1 2 7
v 2 2 7
v -10 2 6
v -9 2 6
v 1 2 6
v 2 2 6
v -10 2 5
v -9 2 5
v 1 2 5
v 2 2 5
v -10 2 4
v -9 2 4
v 1 2 4
v 2 2 4
v -9 3 6
v -8 3 6
v -9 3 5
v -8 3 5
v -9 4 7
v -8 4 7
v -9 4 6
v -8 4 6
v -9 4 5
v -8 4 5
v -9 4 4
v -8 4 4
v -12 7 8
v 0 7 8
v -15 7 7
v -12 7 7
v -11 7 7
v -8 7 7
v 0 7 7
v 2 7 7
v 5 7 7
v -15 7 4
v -12 7 4
v -11 7 4
v -8 7 4
v 0 7 4
v 2 7 4
v 5 7 4
v -12 7 3
v 0 7 3
v -16 8 7
v -15 8 7
v 5 8 7
v 9 8 7
v -16 8 4
v -15 8 4
v 5 8 4
v 9 8 4
v 9 9 7
v 10 9 7
v 9 9 4
v 10 9 4
v -13 3 7
v -12 3 7
v -13 3 4
v -12 3 4
v -12 5 7
v -11 5 7
v -12 5 4
v -11 5 4
v -16 10 7
v -14 10 7
v -16 10 4
v -14 10 4
v -10 11 8
v -7 11 8
v -5 11 8
v -2 11 8
v -14 11 7
v -12 11 7
v -10 11 7
v -7 11 7
v -5 11 7
v -2 11 7
v 0 11 7
v 10 11 7
v -14 11 4
v -12 11 4
v -10 11 4
v -7 11 4
v -5 11 4
v -2 11 4
v 0 11 4
v 10 11 4
v -10 11 3
v -7 11 3
v -5 11 3
v -2 11 3
v -12 12 8
v -10 12 8
v -7 12 8
v -5 12 8
v -2 12 8
v 0 12 8
v -12 12 3
v -10 12 3
v -7 12 3
v -5 12 3
v -2 12 3
v 0 12 3

# faces
f 3/4/1 2/4/1 1/4/1
f 4/4/1 2/4/1 3/4/1
f 7/4/1 6/4/1 5/4/1
f 8/4/1 6/4/1 7/4/1
f 11/3/1 10/3/1 9/3/1
f 12/3/1 10/3/1 11/3/1
f 15/1/1 14/1/1 13/1/1
f 16/1/1 14/1/1 15/1/1
f 19/1/1 18/1/1 17/1/1
f 20/1/1 18/1/1 19/1/1
f 25/2/1 22/2/1 21/2/1
f 26/2/1 24/2/1 23/2/1
f 27/2/1 25/2/1 21/2/1
f 28/2/1 24/2/1 26/2/1
f 29/2/1 27/2/1 21/2/1
f 29/2/1 28/2/1 27/2/1
f 30/2/1 24/2/1 28/2/1
f 30/2/1 28/2/1 29/2/1
f 33/1/1 32/1/1 31/1/1
f 34/1/1 32/1/1 33/1/1
f 39/2/1 36/2/1 35/2/1
f 39/2/1 38/2/1 37/2/1
f 39/2/1 37/2/1 36/2/1
f 40/2/1 38/2/1 39/2/1
f 45/2/1 42/2/1 41/2/1
f 45/2/1 44/2/1 43/2/1
f 45/2/1 43/2/1 42/2/1
f 46/2/1 44/2/1 45/2/1
f 49/5/1 48/5/1 47/5/1
f 50/5/1 48/5/1 49/5/1
f 51/1/2 52/1/2 55/1/2
f 55/1/2 52/1/2 56/1/2
f 53/1/2 54/1/2 57/1/2
f 57/1/2 54/1/2 58/1/2
f 59/1/2 60/1/2 62/1/2
f 62/1/2 60/1/2 63/1/2
f 61/1/2 62/1/2 65/1/2
f 65/1/2 62/1/2 66/1/2
f 63/1/2 64/1/2 67/1/2
f 67/1/2 64/1/2 68/1/2
f 70/2/2 71/2/2 73/2/2
f 71/2/2 72/2/2 73/2/2
f 69/2/2 70/2/2 73/2/2
f 73/2/2 72/2/2 74/2/2
f 75/1/2 76/1/2 78/1/2
f 78/1/2 76/1/2 79/1/2
f 77/1/2 78/1/2 81/1/2
f 79/1/2 80/1/2 81/1/2
f 78/1/2 79/1/2 81/1/2
f 81/1/2 80/1/2 82/1/2
f 77/1/2 81/1/2 83/1/2
f 83/1/2 81/1/2 84/1/2
f 82/1/2 80/1/2 85/1/2
f 85/1/2 80/1/2 86/1/2
f 87/1/2 88/1/2 90/1/2
f 90/1/2 88/1/2 91/1/2
f 89/1/2 90/1/2 93/1/2
f 91/1/2 92/1/2 93/1/2
f 90/1/2 91/1/2 93/1/2
f 93/1/2 92/1/2 94/1/2
f 95/2/2 96/2/2 99/2/2
f 97/2/2 98/2/2 99/2/2
f 96/2/2 97/2/2 99/2/2
f 99/2/2 98/2/2 100/2/2
f 101/2/2 102/2/2 105/2/2
f 103/2/2 104/2/2 106/2/2
f 101/2/2 105/2/2 107/2/2
f 106/2/2 104/2/2 108/2/2
f 101/2/2 107/2/2 109/2/2
f 107/2/2 108/2/2 109/2/2
f 108/2/2 104/2/2 110/2/2
f 109/2/2 108/2/2 110/2/2
f 111/5/2 112/5/2 115/5/2
f 115/5/2 112/5/2 116/5/2
f 113/5/2 114/5/2 117/5/2
f 117/5/2 114/5/2 118/5/2
f 119/5/2 120/5/2 122/5/2
f 122/5/2 120/5/2 123/5/2
f 121/5/2 122/5/2 125/5/2
f 123/5/2 124/5/2 125/5/2
f 122/5/2 123/5/2 125/5/2
f 125/5/2 124/5/2 126/5/2
f 127/4/2 128/4/2 129/4/2
f 129/4/2 128/4/2 130/4/2
f 131/3/2 132/3/2 133/3/2
f 133/3/2 132/3/2 134/3/2
f 135/3/2 136/3/2 137/3/2
f 137/3/2 136/3/2 138/3/2
f 141/2/3 140/2/3 139/2/3
f 142/2/3 140/2/3 141/2/3
f 143/2/3 141/2/3 139/2/3
f 145/2/3 143/2/3 139/2/3
f 145/2/3 144/2/3 143/2/3
f 146/2/3 144/2/3 145/2/3
f 147/2/3 145/2/3 139/2/3
f 149/2/3 147/2/3 139/2/3
f 149/2/3 148/2/3 147/2/3
f 150/2/3 148/2/3 149/2/3
f 154/4/3 152/4/3 151/4/3
f 155/4/3 152/4/3 154/4/3
f 155/4/3 154/4/3 153/4/3
f 159/1/3 158/1/3 157/1/3
f 161/4/3 155/4/3 153/4/3
f 162/3/3 156/3/3 155/3/3
f 162/4/3 155/4/3 161/4/3
f 163/3/3 156/3/3 162/3/3
f 164/1/3 160/1/3 159/1/3
f 164/1/3 159/1/3 157/1/3
f 165/1/3 160/1/3 164/1/3
f 166/1/3 160/1/3 165/1/3
f 168/1/3 167/1/3 166/1/3
f 168/1/3 166/1/3 165/1/3
f 169/1/3 167/1/3 168/1/3
f 170/1/3 167/1/3 169/1/3
f 171/1/3 167/1/3 170/1/3
f 172/1/3 167/1/3 171/1/3
f 173/1/3 167/1/3 172/1/3
f 178/5/3 175/5/3 174/5/3
f 179/5/3 175/5/3 178/5/3
f 180/5/3 175/5/3 179/5/3
f 181/4/3 176/4/3 175/4/3
f 181/5/3 175/5/3 180/5/3
f 182/4/3 176/4/3 181/4/3
f 183/4/3 176/4/3 182/4/3
f 184/3/3 177/3/3 176/3/3
f 184/4/3 176/4/3 183/4/3
f 185/3/3 184/3/3 183/3/3
f 186/3/3 184/3/3 185/3/3
f 187/3/3 184/3/3 186/3/3
f 188/3/3 177/3/3 184/3/3
f 188/3/3 184/3/3 187/3/3
f 191/1/3 190/1/3 189/1/3
f 192/1/3 190/1/3 191/1/3
f 194/1/3 193/1/3 192/1/3
f 195/1/3 193/1/3 194/1/3
f 198/1/3 197/1/3 196/1/3
f 199/1/3 197/1/3 198/1/3
f 202/5/3 201/5/3 200/5/3
f 203/5/3 201/5/3 202/5/3
f 204/1/4 205/1/4 206/1/4
f 206/1/4 205/1/4 207/1/4
f 207/1/4 208/1/4 209/1/4
f 209/1/4 208/1/4 210/1/4
f 211/1/4 212/1/4 213/1/4
f 213/1/4 212/1/4 214/1/4
f 215/5/4 216/5/4 217/5/4
f 217/5/4 216/5/4 218/5/4
f 219/4/4 220/4/4 222/4/4
f 222/4/4 220/4/4 223/4/4
f 221/4/4 222/4/4 223/4/4
f 225/1/4 226/1/4 227/1/4
f 221/4/4 223/4/4 229/4/4
f 223/3/4 224/3/4 230/3/4
f 229/4/4 223/4/4 230/4/4
f 230/3/4 224/3/4 231/3/4
f 227/1/4 228/1/4 232/1/4
f 225/1/4 227/1/4 232/1/4
f 232/1/4 228/1/4 233/1/4
f 233/1/4 228/1/4 234/1/4
f 234/1/4 235/1/4 236/1/4
f 233/1/4 234/1/4 236/1/4
f 236/1/4 235/1/4 237/1/4
f 237/1/4 235/1/4 238/1/4
f 238/1/4 235/1/4 239/1/4
f 239/1/4 235/1/4 240/1/4
f 240/1/4 235/1/4 241/1/4
f 242/5/4 243/5/4 246/5/4
f 246/5/4 243/5/4 247/5/4
f 247/5/4 243/5/4 248/5/4
f 243/4/4 244/4/4 249/4/4
f 248/5/4 243/5/4 249/5/4
f 249/4/4 244/4/4 250/4/4
f 250/4/4 244/4/4 251/4/4
f 244/3/4 245/3/4 252/3/4
f 251/4/4 244/4/4 252/4/4
f 251/3/4 252/3/4 253/3/4
f 253/3/4 252/3/4 254/3/4
f 254/3/4 252/3/4 255/3/4
f 252/3/4 245/3/4 256/3/4
f 255/3/4 252/3/4 256/3/4
f 257/2/4 258/2/4 259/2/4
f 259/2/4 258/2/4 260/2/4
f 257/2/4 259/2/4 261/2/4
f 257/2/4 261/2/4 263/2/4
f 261/2/4 262/2/4 263/2/4
f 263/2/4 262/2/4 264/2/4
f 257/2/4 263/2/4 265/2/4
f 257/2/4 265/2/4 267/2/4
f 265/2/4 266/2/4 267/2/4
f 267/2/4 266/2/4 268/2/4
f 271/1/5 270/1/5 269/1/5
f 273/1/5 271/1/5 269/1/5
f 273/1/5 272/1/5 271/1/5
f 274/1/5 272/1/5 273/1/5
f 275/1/5 273/1/5 269/1/5
f 276/1/5 273/1/5 275/1/5
f 281/1/5 278/1/5 277/1/5
f 282/1/5 278/1/5 281/1/5
f 284/5/5 280/5/5 279/5/5
f 287/1/5 283/1/5 282/1/5
f 288/1/5 283/1/5 287/1/5
f 289/5/5 284/5/5 279/5/5
f 289/5/5 285/5/5 284/5/5
f 290/5/5 285/5/5 289/5/5
f 291/1/5 287/1/5 286/1/5
f 292/1/5 287/1/5 291/1/5
f 293/5/5 289/5/5 279/5/5
f 294/5/5 289/5/5 293/5/5
f 299/1/5 296/1/5 295/1/5
f 300/1/5 296/1/5 299/1/5
f 301/5/5 298/5/5 297/5/5
f 302/5/5 298/5/5 301/5/5
f 307/1/5 304/1/5 303/1/5
f 308/1/5 304/1/5 307/1/5
f 309/5/5 306/5/5 305/5/5
f 310/5/5 306/5/5 309/5/5
f 313/1/5 312/1/5 311/1/5
f 314/1/5 312/1/5 313/1/5
f 317/1/5 316/1/5 315/1/5
f 318/1/5 316/1/5 317/1/5
f 321/1/5 320/1/5 319/1/5
f 322/1/5 320/1/5 321/1/5
f 326/2/5 324/2/5 323/2/5
f 327/2/5 324/2/5 326/2/5
f 328/2/5 324/2/5 327/2/5
f 329/2/5 324/2/5 328/2/5
f 332/4/5 326/4/5 325/4/5
f 332/4/5 327/4/5 326/4/5
f 333/4/5 327/4/5 332/4/5
f 334/4/5 327/4/5 333/4/5
f 335/4/5 329/4/5 328/4/5
f 336/4/5 329/4/5 335/4/5
f 337/4/5 331/4/5 330/4/5
f 338/4/5 331/4/5 337/4/5
f 339/2/5 336/2/5 335/2/5
f 339/2/5 334/2/5 333/2/5
f 339/2/5 335/2/5 334/2/5
f 340/2/5 336/2/5 339/2/5
f 345/4/5 342/4/5 341/4/5
f 346/4/5 342/4/5 345/4/5
f 347/3/5 344/3/5 343/3/5
f 348/3/5 344/3/5 347/3/5
f 351/3/5 350/3/5 349/3/5
f 352/3/5 350/3/5 351/3/5
f 353/1/6 354/1/6 355/1/6
f 355/1/6 354/1/6 356/1/6
f 357/1/6 358/1/6 359/1/6
f 359/1/6 358/1/6 360/1/6
f 361/4/6 362/4/6 363/4/6
f 363/4/6 362/4/6 364/4/6
f 365/2/6 366/2/6 371/2/6
f 371/2/6 366/2/6 372/2/6
f 367/2/6 368/2/6 373/2/6
f 373/2/6 368/2/6 374/2/6
f 369/3/6 370/3/6 377/3/6
f 377/3/6 370/3/6 378/3/6
f 371/3/6 372/3/6 379/3/6
f 379/3/6 372/3/6 380/3/6
f 373/3/6 374/3/6 381/3/6
f 381/3/6 374/3/6 382/3/6
f 375/3/6 376/3/6 383/3/6
f 383/3/6 376/3/6 384/3/6
f 379/2/6 380/2/6 385/2/6
f 385/2/6 380/2/6 386/2/6
f 381/2/6 382/2/6 387/2/6
f 387/2/6 382/2/6 388/2/6
f 389/2/6 390/2/6 395/2/6
f 395/2/6 390/2/6 396/2/6
f 391/2/6 392/2/6 397/2/6
f 397/2/6 392/2/6 398/2/6
f 393/2/6 394/2/6 399/2/6
f 399/2/6 394/2/6 400/2/6
