# MagicaVoxel @ Ephtracy

# group
g blaster74

# material
mtllib blaster74.mtl
usemtl palette

# normals
vn -1 0 0
vn 1 0 0
vn 0 0 1
vn 0 0 -1
vn 0 -1 0
vn 0 1 0

# texcoords
vt 0.537109 0.5
vt 0.978516 0.5
vt 0.982422 0.5
vt 0.986328 0.5
vt 0.990234 0.5

# verts
v -16 9 7
v -16 9 4
v -16 11 7
v -16 11 4
v -15 8 7
v -15 8 4
v -15 9 7
v -15 9 4
v -14 11 7
v -14 11 4
v -14 12 7
v -14 12 4
v -13 0 6
v -13 0 5
v -13 1 7
v -13 1 6
v -13 1 5
v -13 1 4
v -13 4 7
v -13 4 4
v -12 0 7
v -12 0 6
v -12 0 5
v -12 0 4
v -12 1 7
v -12 1 6
v -12 1 5
v -12 1 4
v -12 4 7
v -12 4 4
v -12 6 7
v -12 6 4
v -12 8 8
v -12 8 7
v -12 8 4
v -12 8 3
v -12 11 7
v -12 11 4
v -12 12 7
v -12 12 4
v -12 13 8
v -12 13 3
v -11 6 7
v -11 6 4
v -11 8 7
v -11 8 4
v -7 12 8
v -7 12 7
v -7 12 4
v -7 12 3
v -7 13 8
v -7 13 3
v -2 12 8
v -2 12 7
v -2 12 4
v -2 12 3
v -2 13 8
v -2 13 3
v 0 2 7
v 0 2 4
v 0 5 6
v 0 5 5
v 0 6 6
v 0 6 5
v 0 8 7
v 0 8 4
v 9 8 7
v 9 8 4
v 9 9 7
v 9 9 4
v 9 12 7
v 9 12 4
v 9 13 7
v 9 13 4
v 10 9 8
v 10 9 7
v 10 9 4
v 10 9 3
v 10 12 8
v 10 12 7
v 10 12 4
v 10 12 3
v 13 7 7
v 13 7 4
v 13 8 8
v 13 8 7
v 13 8 4
v 13 8 3
v 13 9 8
v 13 9 7
v 13 9 4
v 13 9 3
v 13 12 8
v 13 12 7
v 13 12 4
v 13 12 3
v 13 13 8
v 13 13 7
v 13 13 4
v 13 13 3
v 13 14 7
v 13 14 4
v 14 9 9
v 14 9 8
v 14 9 3
v 14 9 2
v 14 12 9
v 14 12 8
v 14 12 3
v 14 12 2
v -10 0 7
v -10 0 4
v -10 2 7
v -10 2 4
v -10 12 8
v -10 12 7
v -10 12 4
v -10 12 3
v -10 13 8
v -10 13 3
v -9 2 7
v -9 2 4
v -9 4 7
v -9 4 4
v -8 4 7
v -8 4 4
v -8 5 6
v -8 5 5
v -8 6 6
v -8 6 5
v -8 8 7
v -8 8 4
v -5 12 8
v -5 12 7
v -5 12 4
v -5 12 3
v -5 13 8
v -5 13 3
v 0 8 8
v 0 8 7
v 0 8 4
v 0 8 3
v 0 11 7
v 0 11 4
v 0 12 7
v 0 12 4
v 0 13 8
v 0 13 3
v 1 2 7
v 1 2 6
v 1 2 5
v 1 2 4
v 1 3 7
v 1 3 6
v 1 3 5
v 1 3 4
v 2 2 6
v 2 2 5
v 2 3 7
v 2 3 6
v 2 3 5
v 2 3 4
v 2 8 7
v 2 8 4
v 5 8 7
v 5 8 4
v 5 9 7
v 5 9 4
v 18 7 7
v 18 7 4
v 18 8 8
v 18 8 7
v 18 8 6
v 18 8 5
v 18 8 4
v 18 8 3
v 18 9 9
v 18 9 8
v 18 9 7
v 18 9 6
v 18 9 5
v 18 9 4
v 18 9 3
v 18 9 2
v 18 10 8
v 18 10 7
v 18 10 4
v 18 10 3
v 18 11 8
v 18 11 7
v 18 11 4
v 18 11 3
v 18 12 9
v 18 12 8
v 18 12 7
v 18 12 6
v 18 12 5
v 18 12 4
v 18 12 3
v 18 12 2
v 18 13 8
v 18 13 7
v 18 13 6
v 18 13 5
v 18 13 4
v 18 13 3
v 18 14 7
v 18 14 4
v 14 9 9
v 14 12 9
v 18 9 9
v 18 12 9
v -12 8 8
v -12 13 8
v -10 12 8
v -10 13 8
v -7 12 8
v -7 13 8
v -5 12 8
v -5 13 8
v -2 12 8
v -2 13 8
v 0 8 8
v 0 13 8
v 10 9 8
v 10 12 8
v 13 8 8
v 13 9 8
v 13 12 8
v 13 13 8
v 14 9 8
v 14 12 8
v 18 8 8
v 18 9 8
v 18 12 8
v 18 13 8
v -16 9 7
v -16 11 7
v -15 8 7
v -15 9 7
v -14 11 7
v -14 12 7
v -13 1 7
v -13 4 7
v -12 0 7
v -12 1 7
v -12 4 7
v -12 6 7
v -12 8 7
v -12 11 7
v -12 12 7
v -11 6 7
v -11 8 7
v -10 0 7
v -10 2 7
v -9 2 7
v -9 4 7
v -8 4 7
v -8 8 7
v 0 2 7
v 0 8 7
v 0 11 7
v 0 12 7
v 1 2 7
v 1 3 7
v 2 3 7
v 2 8 7
v 5 8 7
v 5 9 7
v 5 11 7
v 9 8 7
v 9 9 7
v 9 12 7
v 9 13 7
v 10 9 7
v 10 12 7
v 13 7 7
v 13 8 7
v 13 9 7
v 13 12 7
v 13 13 7
v 13 14 7
v 18 7 7
v 18 8 7
v 18 13 7
v 18 14 7
v -13 0 6
v -13 1 6
v -12 0 6
v -12 1 6
v -8 5 6
v -8 6 6
v 0 5 6
v 0 6 6
v 1 2 6
v 1 3 6
v 2 2 6
v 2 3 6
v -13 0 5
v -13 1 5
v -12 0 5
v -12 1 5
v -8 5 5
v -8 6 5
v 0 5 5
v 0 6 5
v 1 2 5
v 1 3 5
v 2 2 5
v 2 3 5
v -16 9 4
v -16 11 4
v -15 8 4
v -15 9 4
v -14 11 4
v -14 12 4
v -13 1 4
v -13 4 4
v -12 0 4
v -12 1 4
v -12 4 4
v -12 6 4
v -12 8 4
v -12 11 4
v -12 12 4
v -11 6 4
v -11 8 4
v -10 0 4
v -10 2 4
v -9 2 4
v -9 4 4
v -8 4 4
v -8 8 4
v 0 2 4
v 0 8 4
v 0 11 4
v 0 12 4
v 1 2 4
v 1 3 4
v 2 3 4
v 2 8 4
v 5 8 4
v 5 9 4
v 5 11 4
v 9 8 4
v 9 9 4
v 9 12 4
v 9 13 4
v 10 9 4
v 10 12 4
v 13 7 4
v 13 8 4
v 13 9 4
v 13 12 4
v 13 13 4
v 13 14 4
v 18 7 4
v 18 8 4
v 18 13 4
v 18 14 4
v -12 8 3
v -12 13 3
v -10 12 3
v -10 13 3
v -7 12 3
v -7 13 3
v -5 12 3
v -5 13 3
v -2 12 3
v -2 13 3
v 0 8 3
v 0 13 3
v 10 9 3
v 10 12 3
v 13 8 3
v 13 9 3
v 13 12 3
v 13 13 3
v 14 9 3
v 14 12 3
v 18 8 3
v 18 9 3
v 18 12 3
v 18 13 3
v 14 9 2
v 14 12 2
v 18 9 2
v 18 12 2
v -12 0 7
v -10 0 7
v -13 0 6
v -12 0 6
v -13 0 5
v -12 0 5
v -12 0 4
v -10 0 4
v -13 1 7
v -12 1 7
v -13 1 6
v -12 1 6
v -13 1 5
v -12 1 5
v -13 1 4
v -12 1 4
v -10 2 7
v -9 2 7
v 0 2 7
v 1 2 7
v 1 2 6
v 2 2 6
v 1 2 5
v 2 2 5
v -10 2 4
v -9 2 4
v 0 2 4
v 1 2 4
v 1 3 7
v 2 3 7
v 1 3 6
v 2 3 6
v 1 3 5
v 2 3 5
v 1 3 4
v 2 3 4
v -9 4 7
v -8 4 7
v -9 4 4
v -8 4 4
v -8 5 6
v 0 5 6
v -8 5 5
v 0 5 5
v 13 7 7
v 18 7 7
v 13 7 4
v 18 7 4
v -12 8 8
v 0 8 8
v 13 8 8
v 18 8 8
v -15 8 7
v -12 8 7
v -11 8 7
v -8 8 7
v 0 8 7
v 2 8 7
v 5 8 7
v 9 8 7
v 13 8 7
v 18 8 7
v -15 8 4
v -12 8 4
v -11 8 4
v -8 8 4
v 0 8 4
v 2 8 4
v 5 8 4
v 9 8 4
v 13 8 4
v 18 8 4
v -12 8 3
v 0 8 3
v 13 8 3
v 18 8 3
v 14 9 9
v 18 9 9
v 10 9 8
v 13 9 8
v 14 9 8
v 18 9 8
v -16 9 7
v -15 9 7
v 5 9 7
v 9 9 7
v 10 9 7
v 13 9 7
v -16 9 4
v -15 9 4
v 5 9 4
v 9 9 4
v 10 9 4
v 13 9 4
v 10 9 3
v 13 9 3
v 14 9 3
v 18 9 3
v 14 9 2
v 18 9 2
v -13 4 7
v -12 4 7
v -13 4 4
v -12 4 4
v -12 6 7
v -11 6 7
v -8 6 6
v 0 6 6
v -8 6 5
v 0 6 5
v -12 6 4
v -11 6 4
v -16 11 7
v -14 11 7
v -16 11 4
v -14 11 4
v 14 12 9
v 18 12 9
v -10 12 8
v -7 12 8
v -5 12 8
v -2 12 8
v 10 12 8
v 13 12 8
v 14 12 8
v 18 12 8
v -14 12 7
v -12 12 7
v -10 12 7
v -7 12 7
v -5 12 7
v -2 12 7
v 0 12 7
v 9 12 7
v 10 12 7
v 13 12 7
v -14 12 4
v -12 12 4
v -10 12 4
v -7 12 4
v -5 12 4
v -2 12 4
v 0 12 4
v 9 12 4
v 10 12 4
v 13 12 4
v -10 12 3
v -7 12 3
v -5 12 3
v -2 12 3
v 10 12 3
v 13 12 3
v 14 12 3
v 18 12 3
v 14 12 2
v 18 12 2
v -12 13 8
v -10 13 8
v -7 13 8
v -5 13 8
v -2 13 8
v 0 13 8
v 13 13 8
v 18 13 8
v 9 13 7
v 13 13 7
v 18 13 7
v 9 13 4
v 13 13 4
v 18 13 4
v -12 13 3
v -10 13 3
v -7 13 3
v -5 13 3
v -2 13 3
v 0 13 3
v 13 13 3
v 18 13 3
v 13 14 7
v 18 14 7
v 13 14 4
v 18 14 4

# faces
f 3/4/1 2/4/1 1/4/1
f 4/4/1 2/4/1 3/4/1
f 7/4/1 6/4/1 5/4/1
f 8/4/1 6/4/1 7/4/1
f 11/3/1 10/3/1 9/3/1
f 12/3/1 10/3/1 11/3/1
f 16/1/1 14/1/1 13/1/1
f 17/1/1 14/1/1 16/1/1
f 19/1/1 16/1/1 15/1/1
f 19/1/1 18/1/1 17/1/1
f 19/1/1 17/1/1 16/1/1
f 20/1/1 18/1/1 19/1/1
f 25/1/1 22/1/1 21/1/1
f 26/1/1 22/1/1 25/1/1
f 27/1/1 24/1/1 23/1/1
f 28/1/1 24/1/1 27/1/1
f 31/1/1 30/1/1 29/1/1
f 32/1/1 30/1/1 31/1/1
f 37/2/1 34/2/1 33/2/1
f 38/2/1 36/2/1 35/2/1
f 39/2/1 37/2/1 33/2/1
f 40/2/1 36/2/1 38/2/1
f 41/2/1 39/2/1 33/2/1
f 41/2/1 40/2/1 39/2/1
f 42/2/1 36/2/1 40/2/1
f 42/2/1 40/2/1 41/2/1
f 45/1/1 44/1/1 43/1/1
f 46/1/1 44/1/1 45/1/1
f 51/2/1 48/2/1 47/2/1
f 51/2/1 50/2/1 49/2/1
f 51/2/1 49/2/1 48/2/1
f 52/2/1 50/2/1 51/2/1
f 57/2/1 54/2/1 53/2/1
f 57/2/1 56/2/1 55/2/1
f 57/2/1 55/2/1 54/2/1
f 58/2/1 56/2/1 57/2/1
f 61/5/1 60/5/1 59/5/1
f 62/5/1 60/5/1 61/5/1
f 63/5/1 61/5/1 59/5/1
f 64/5/1 60/5/1 62/5/1
f 65/5/1 63/5/1 59/5/1
f 65/5/1 64/5/1 63/5/1
f 66/5/1 60/5/1 64/5/1
f 66/5/1 64/5/1 65/5/1
f 69/3/1 68/3/1 67/3/1
f 70/3/1 68/3/1 69/3/1
f 73/3/1 72/3/1 71/3/1
f 74/3/1 72/3/1 73/3/1
f 79/3/1 76/3/1 75/3/1
f 80/3/1 76/3/1 79/3/1
f 81/3/1 78/3/1 77/3/1
f 82/3/1 78/3/1 81/3/1
f 86/3/1 84/3/1 83/3/1
f 87/3/1 84/3/1 86/3/1
f 89/3/1 86/3/1 85/3/1
f 90/3/1 86/3/1 89/3/1
f 91/3/1 88/3/1 87/3/1
f 92/3/1 88/3/1 91/3/1
f 97/3/1 94/3/1 93/3/1
f 98/3/1 94/3/1 97/3/1
f 99/3/1 96/3/1 95/3/1
f 100/3/1 96/3/1 99/3/1
f 101/3/1 99/3/1 98/3/1
f 102/3/1 99/3/1 101/3/1
f 107/3/1 104/3/1 103/3/1
f 108/3/1 104/3/1 107/3/1
f 109/3/1 106/3/1 105/3/1
f 110/3/1 106/3/1 109/3/1
f 111/1/2 112/1/2 113/1/2
f 113/1/2 112/1/2 114/1/2
f 116/2/2 117/2/2 119/2/2
f 117/2/2 118/2/2 119/2/2
f 115/2/2 116/2/2 119/2/2
f 119/2/2 118/2/2 120/2/2
f 121/1/2 122/1/2 123/1/2
f 123/1/2 122/1/2 124/1/2
f 125/1/2 126/1/2 127/1/2
f 127/1/2 126/1/2 128/1/2
f 125/1/2 127/1/2 129/1/2
f 128/1/2 126/1/2 130/1/2
f 125/1/2 129/1/2 131/1/2
f 129/1/2 130/1/2 131/1/2
f 130/1/2 126/1/2 132/1/2
f 131/1/2 130/1/2 132/1/2
f 133/2/2 134/2/2 137/2/2
f 135/2/2 136/2/2 137/2/2
f 134/2/2 135/2/2 137/2/2
f 137/2/2 136/2/2 138/2/2
f 139/2/2 140/2/2 143/2/2
f 141/2/2 142/2/2 144/2/2
f 139/2/2 143/2/2 145/2/2
f 144/2/2 142/2/2 146/2/2
f 139/2/2 145/2/2 147/2/2
f 145/2/2 146/2/2 147/2/2
f 146/2/2 142/2/2 148/2/2
f 147/2/2 146/2/2 148/2/2
f 149/5/2 150/5/2 153/5/2
f 153/5/2 150/5/2 154/5/2
f 151/5/2 152/5/2 155/5/2
f 155/5/2 152/5/2 156/5/2
f 157/5/2 158/5/2 160/5/2
f 160/5/2 158/5/2 161/5/2
f 159/5/2 160/5/2 163/5/2
f 161/5/2 162/5/2 163/5/2
f 160/5/2 161/5/2 163/5/2
f 163/5/2 162/5/2 164/5/2
f 165/4/2 166/4/2 167/4/2
f 167/4/2 166/4/2 168/4/2
f 169/3/2 170/3/2 172/3/2
f 172/3/2 170/3/2 173/3/2
f 173/3/2 170/3/2 174/3/2
f 174/3/2 170/3/2 175/3/2
f 171/3/2 172/3/2 178/3/2
f 172/3/2 173/3/2 178/3/2
f 178/3/2 173/3/2 179/3/2
f 173/5/2 174/5/2 180/5/2
f 179/3/2 173/3/2 180/3/2
f 175/3/2 176/3/2 181/3/2
f 180/5/2 174/5/2 181/5/2
f 174/3/2 175/3/2 181/3/2
f 181/3/2 176/3/2 182/3/2
f 182/3/2 176/3/2 183/3/2
f 177/3/2 178/3/2 185/3/2
f 178/3/2 179/3/2 185/3/2
f 179/5/2 180/5/2 186/5/2
f 185/3/2 179/3/2 186/3/2
f 180/5/2 181/5/2 186/5/2
f 181/5/2 182/5/2 186/5/2
f 183/3/2 184/3/2 187/3/2
f 186/5/2 182/5/2 187/5/2
f 182/3/2 183/3/2 187/3/2
f 187/3/2 184/3/2 188/3/2
f 177/3/2 185/3/2 189/3/2
f 185/5/2 186/5/2 189/5/2
f 187/5/2 188/5/2 189/5/2
f 186/5/2 187/5/2 189/5/2
f 189/5/2 188/5/2 190/5/2
f 190/5/2 188/5/2 191/5/2
f 188/3/2 184/3/2 192/3/2
f 191/5/2 188/5/2 192/5/2
f 177/3/2 189/3/2 193/3/2
f 189/3/2 190/3/2 193/3/2
f 193/3/2 190/3/2 194/3/2
f 190/5/2 191/5/2 195/5/2
f 194/3/2 190/3/2 195/3/2
f 195/5/2 191/5/2 196/5/2
f 196/5/2 191/5/2 197/5/2
f 191/3/2 192/3/2 198/3/2
f 197/5/2 191/5/2 198/5/2
f 192/3/2 184/3/2 199/3/2
f 198/3/2 192/3/2 199/3/2
f 199/3/2 184/3/2 200/3/2
f 194/3/2 195/3/2 201/3/2
f 195/3/2 196/3/2 201/3/2
f 201/3/2 196/3/2 202/3/2
f 196/5/2 197/5/2 203/5/2
f 202/3/2 196/3/2 203/3/2
f 197/3/2 198/3/2 204/3/2
f 203/5/2 197/5/2 204/5/2
f 198/3/2 199/3/2 204/3/2
f 204/3/2 199/3/2 205/3/2
f 205/3/2 199/3/2 206/3/2
f 202/3/2 203/3/2 207/3/2
f 204/3/2 205/3/2 207/3/2
f 203/3/2 204/3/2 207/3/2
f 207/3/2 205/3/2 208/3/2
f 211/3/3 210/3/3 209/3/3
f 212/3/3 210/3/3 211/3/3
f 215/2/3 214/2/3 213/2/3
f 216/2/3 214/2/3 215/2/3
f 217/2/3 215/2/3 213/2/3
f 219/2/3 217/2/3 213/2/3
f 219/2/3 218/2/3 217/2/3
f 220/2/3 218/2/3 219/2/3
f 221/2/3 219/2/3 213/2/3
f 223/2/3 221/2/3 213/2/3
f 223/2/3 222/2/3 221/2/3
f 224/2/3 222/2/3 223/2/3
f 228/3/3 226/3/3 225/3/3
f 229/3/3 226/3/3 228/3/3
f 231/3/3 228/3/3 227/3/3
f 231/3/3 230/3/3 229/3/3
f 231/3/3 229/3/3 228/3/3
f 232/3/3 230/3/3 231/3/3
f 233/3/3 231/3/3 227/3/3
f 234/3/3 231/3/3 233/3/3
f 235/3/3 230/3/3 232/3/3
f 236/3/3 230/3/3 235/3/3
f 240/4/3 238/4/3 237/4/3
f 241/4/3 238/4/3 240/4/3
f 241/4/3 240/4/3 239/4/3
f 246/1/3 244/1/3 243/1/3
f 247/1/3 244/1/3 246/1/3
f 249/4/3 241/4/3 239/4/3
f 250/3/3 242/3/3 241/3/3
f 250/4/3 241/4/3 249/4/3
f 251/3/3 242/3/3 250/3/3
f 252/1/3 248/1/3 247/1/3
f 252/1/3 246/1/3 245/1/3
f 252/1/3 247/1/3 246/1/3
f 254/1/3 252/1/3 245/1/3
f 254/1/3 253/1/3 252/1/3
f 255/1/3 253/1/3 254/1/3
f 256/1/3 253/1/3 255/1/3
f 257/1/3 253/1/3 256/1/3
f 258/1/3 253/1/3 257/1/3
f 259/1/3 253/1/3 258/1/3
f 264/5/3 261/5/3 260/5/3
f 265/5/3 261/5/3 264/5/3
f 266/5/3 261/5/3 265/5/3
f 267/4/3 262/4/3 261/4/3
f 267/5/3 261/5/3 266/5/3
f 268/4/3 262/4/3 267/4/3
f 269/4/3 262/4/3 268/4/3
f 270/3/3 263/3/3 262/3/3
f 270/4/3 262/4/3 269/4/3
f 272/3/3 270/3/3 269/3/3
f 273/3/3 263/3/3 270/3/3
f 273/3/3 270/3/3 272/3/3
f 275/3/3 273/3/3 272/3/3
f 275/3/3 274/3/3 273/3/3
f 275/3/3 272/3/3 271/3/3
f 276/3/3 274/3/3 275/3/3
f 278/3/3 275/3/3 271/3/3
f 279/3/3 275/3/3 278/3/3
f 280/3/3 274/3/3 276/3/3
f 281/3/3 274/3/3 280/3/3
f 283/3/3 278/3/3 277/3/3
f 284/3/3 278/3/3 283/3/3
f 285/3/3 282/3/3 281/3/3
f 286/3/3 282/3/3 285/3/3
f 289/1/3 288/1/3 287/1/3
f 290/1/3 288/1/3 289/1/3
f 293/4/3 292/4/3 291/4/3
f 294/4/3 292/4/3 293/4/3
f 297/5/3 296/5/3 295/5/3
f 298/5/3 296/5/3 297/5/3
f 299/1/4 300/1/4 301/1/4
f 301/1/4 300/1/4 302/1/4
f 303/4/4 304/4/4 305/4/4
f 305/4/4 304/4/4 306/4/4
f 307/5/4 308/5/4 309/5/4
f 309/5/4 308/5/4 310/5/4
f 311/4/4 312/4/4 314/4/4
f 314/4/4 312/4/4 315/4/4
f 313/4/4 314/4/4 315/4/4
f 317/1/4 318/1/4 320/1/4
f 320/1/4 318/1/4 321/1/4
f 313/4/4 315/4/4 323/4/4
f 315/3/4 316/3/4 324/3/4
f 323/4/4 315/4/4 324/4/4
f 324/3/4 316/3/4 325/3/4
f 321/1/4 322/1/4 326/1/4
f 319/1/4 320/1/4 326/1/4
f 320/1/4 321/1/4 326/1/4
f 319/1/4 326/1/4 328/1/4
f 326/1/4 327/1/4 328/1/4
f 328/1/4 327/1/4 329/1/4
f 329/1/4 327/1/4 330/1/4
f 330/1/4 327/1/4 331/1/4
f 331/1/4 327/1/4 332/1/4
f 332/1/4 327/1/4 333/1/4
f 334/5/4 335/5/4 338/5/4
f 338/5/4 335/5/4 339/5/4
f 339/5/4 335/5/4 340/5/4
f 335/4/4 336/4/4 341/4/4
f 340/5/4 335/5/4 341/5/4
f 341/4/4 336/4/4 342/4/4
f 342/4/4 336/4/4 343/4/4
f 336/3/4 337/3/4 344/3/4
f 343/4/4 336/4/4 344/4/4
f 343/3/4 344/3/4 346/3/4
f 344/3/4 337/3/4 347/3/4
f 346/3/4 344/3/4 347/3/4
f 346/3/4 347/3/4 349/3/4
f 347/3/4 348/3/4 349/3/4
f 345/3/4 346/3/4 349/3/4
f 349/3/4 348/3/4 350/3/4
f 345/3/4 349/3/4 352/3/4
f 352/3/4 349/3/4 353/3/4
f 350/3/4 348/3/4 354/3/4
f 354/3/4 348/3/4 355/3/4
f 351/3/4 352/3/4 357/3/4
f 357/3/4 352/3/4 358/3/4
f 355/3/4 356/3/4 359/3/4
f 359/3/4 356/3/4 360/3/4
f 361/2/4 362/2/4 363/2/4
f 363/2/4 362/2/4 364/2/4
f 361/2/4 363/2/4 365/2/4
f 361/2/4 365/2/4 367/2/4
f 365/2/4 366/2/4 367/2/4
f 367/2/4 366/2/4 368/2/4
f 361/2/4 367/2/4 369/2/4
f 361/2/4 369/2/4 371/2/4
f 369/2/4 370/2/4 371/2/4
f 371/2/4 370/2/4 372/2/4
f 373/3/4 374/3/4 376/3/4
f 376/3/4 374/3/4 377/3/4
f 375/3/4 376/3/4 379/3/4
f 377/3/4 378/3/4 379/3/4
f 376/3/4 377/3/4 379/3/4
f 379/3/4 378/3/4 380/3/4
f 375/3/4 379/3/4 381/3/4
f 381/3/4 379/3/4 382/3/4
f 380/3/4 378/3/4 383/3/4
f 383/3/4 378/3/4 384/3/4
f 385/3/4 386/3/4 387/3/4
f 387/3/4 386/3/4 388/3/4
f 392/1/5 390/1/5 389/1/5
f 393/1/5 392/1/5 391/1/5
f 394/1/5 390/1/5 392/1/5
f 394/1/5 392/1/5 393/1/5
f 395/1/5 390/1/5 394/1/5
f 396/1/5 390/1/5 395/1/5
f 399/1/5 398/1/5 397/1/5
f 400/1/5 398/1/5 399/1/5
f 403/1/5 402/1/5 401/1/5
f 404/1/5 402/1/5 403/1/5
f 409/5/5 408/5/5 407/5/5
f 411/5/5 409/5/5 407/5/5
f 411/5/5 410/5/5 409/5/5
f 412/5/5 410/5/5 411/5/5
f 413/1/5 406/1/5 405/1/5
f 414/1/5 406/1/5 413/1/5
f 415/5/5 411/5/5 407/5/5
f 416/5/5 411/5/5 415/5/5
f 419/5/5 418/5/5 417/5/5
f 420/5/5 418/5/5 419/5/5
f 423/5/5 422/5/5 421/5/5
f 424/5/5 422/5/5 423/5/5
f 427/1/5 426/1/5 425/1/5
f 428/1/5 426/1/5 427/1/5
f 431/4/5 430/4/5 429/4/5
f 432/4/5 430/4/5 431/4/5
f 435/3/5 434/3/5 433/3/5
f 436/3/5 434/3/5 435/3/5
f 442/2/5 438/2/5 437/2/5
f 443/2/5 438/2/5 442/2/5
f 444/2/5 438/2/5 443/2/5
f 445/2/5 438/2/5 444/2/5
f 449/3/5 440/3/5 439/3/5
f 450/3/5 440/3/5 449/3/5
f 451/4/5 442/4/5 441/4/5
f 451/4/5 443/4/5 442/4/5
f 452/4/5 443/4/5 451/4/5
f 453/4/5 443/4/5 452/4/5
f 454/4/5 445/4/5 444/4/5
f 455/4/5 445/4/5 454/4/5
f 456/4/5 447/4/5 446/4/5
f 457/4/5 447/4/5 456/4/5
f 458/3/5 449/3/5 448/3/5
f 459/3/5 449/3/5 458/3/5
f 461/2/5 455/2/5 454/2/5
f 461/2/5 453/2/5 452/2/5
f 461/2/5 454/2/5 453/2/5
f 462/2/5 455/2/5 461/2/5
f 463/3/5 460/3/5 459/3/5
f 464/3/5 460/3/5 463/3/5
f 469/3/5 466/3/5 465/3/5
f 470/3/5 466/3/5 469/3/5
f 475/3/5 468/3/5 467/3/5
f 476/3/5 468/3/5 475/3/5
f 477/4/5 472/4/5 471/4/5
f 478/4/5 472/4/5 477/4/5
f 479/3/5 474/3/5 473/3/5
f 480/3/5 474/3/5 479/3/5
f 483/3/5 482/3/5 481/3/5
f 484/3/5 482/3/5 483/3/5
f 487/3/5 486/3/5 485/3/5
f 488/3/5 486/3/5 487/3/5
f 489/1/6 490/1/6 491/1/6
f 491/1/6 490/1/6 492/1/6
f 495/4/6 496/4/6 497/4/6
f 497/4/6 496/4/6 498/4/6
f 493/1/6 494/1/6 499/1/6
f 499/1/6 494/1/6 500/1/6
f 501/4/6 502/4/6 503/4/6
f 503/4/6 502/4/6 504/4/6
f 505/3/6 506/3/6 513/3/6
f 513/3/6 506/3/6 514/3/6
f 507/2/6 508/2/6 517/2/6
f 517/2/6 508/2/6 518/2/6
f 509/2/6 510/2/6 519/2/6
f 519/2/6 510/2/6 520/2/6
f 511/3/6 512/3/6 523/3/6
f 523/3/6 512/3/6 524/3/6
f 515/3/6 516/3/6 525/3/6
f 525/3/6 516/3/6 526/3/6
f 517/3/6 518/3/6 527/3/6
f 527/3/6 518/3/6 528/3/6
f 519/3/6 520/3/6 529/3/6
f 529/3/6 520/3/6 530/3/6
f 521/3/6 522/3/6 531/3/6
f 531/3/6 522/3/6 532/3/6
f 527/2/6 528/2/6 535/2/6
f 535/2/6 528/2/6 536/2/6
f 529/2/6 530/2/6 537/2/6
f 537/2/6 530/2/6 538/2/6
f 533/3/6 534/3/6 539/3/6
f 539/3/6 534/3/6 540/3/6
f 541/3/6 542/3/6 543/3/6
f 543/3/6 542/3/6 544/3/6
f 551/3/6 552/3/6 554/3/6
f 554/3/6 552/3/6 555/3/6
f 553/3/6 554/3/6 556/3/6
f 556/3/6 554/3/6 557/3/6
f 545/2/6 546/2/6 559/2/6
f 559/2/6 546/2/6 560/2/6
f 547/2/6 548/2/6 561/2/6
f 561/2/6 548/2/6 562/2/6
f 549/2/6 550/2/6 563/2/6
f 563/2/6 550/2/6 564/2/6
f 557/3/6 558/3/6 565/3/6
f 565/3/6 558/3/6 566/3/6
f 567/3/6 568/3/6 569/3/6
f 569/3/6 568/3/6 570/3/6
