# MagicaVoxel @ Ephtracy

# group
g blaster3

# material
mtllib blaster3.mtl
usemtl palette

# normals
vn -1 0 0
vn 1 0 0
vn 0 0 1
vn 0 0 -1
vn 0 -1 0
vn 0 1 0

# texcoords
vt 0.841797 0.5
vt 0.845703 0.5
vt 0.849609 0.5
vt 0.978516 0.5
vt 0.982422 0.5
vt 0.986328 0.5

# verts
v -2 0 -0
v -2 0 -1
v -2 3 -0
v -2 3 -1
v -2 11 1
v -2 11 -0
v -2 11 -1
v -2 11 -2
v -2 14 1
v -2 14 -0
v -2 14 -1
v -2 14 -2
v -2 19 -0
v -2 19 -1
v -2 21 -0
v -2 21 -1
v -2 23 -0
v -2 23 -1
v -1 8 1
v -1 8 -0
v -1 8 -1
v -1 8 -2
v -1 9 1
v -1 9 -0
v -1 9 -1
v -1 9 -2
v -1 11 1
v -1 11 -0
v -1 11 -1
v -1 11 -2
v 1 7 -0
v 1 7 -1
v 1 8 -0
v 1 8 -1
v -1 11 1
v -1 11 -0
v -1 11 -1
v -1 11 -2
v -1 14 1
v -1 14 -0
v -1 14 -1
v -1 14 -2
v -1 21 -0
v -1 21 -1
v -1 23 -0
v -1 23 -1
v 0 0 -0
v 0 0 -1
v 0 1 -0
v 0 1 -1
v 0 4 -0
v 0 4 -1
v 0 8 1
v 0 8 -0
v 0 8 -1
v 0 8 -2
v 0 9 1
v 0 9 -0
v 0 9 -1
v 0 9 -2
v 0 11 1
v 0 11 -0
v 0 11 -1
v 0 11 -2
v 0 18 -0
v 0 18 -1
v 0 21 -0
v 0 21 -1
v 1 15 -0
v 1 15 -1
v 1 18 -0
v 1 18 -1
v 2 13 -0
v 2 13 -1
v 2 15 -0
v 2 15 -1
v 3 7 -0
v 3 7 -1
v 3 9 -0
v 3 9 -1
v 3 11 -0
v 3 11 -1
v 3 13 -0
v 3 13 -1
v -2 11 1
v -2 14 1
v -1 8 1
v -1 9 1
v -1 11 1
v -1 14 1
v 0 8 1
v 0 9 1
v 0 11 1
v -2 0 -0
v -2 3 -0
v -2 11 -0
v -2 14 -0
v -2 19 -0
v -2 21 -0
v -2 23 -0
v -1 0 -0
v -1 1 -0
v -1 3 -0
v -1 4 -0
v -1 8 -0
v -1 9 -0
v -1 11 -0
v -1 14 -0
v -1 15 -0
v -1 18 -0
v -1 19 -0
v -1 21 -0
v -1 23 -0
v 0 0 -0
v 0 1 -0
v 0 4 -0
v 0 8 -0
v 0 9 -0
v 0 11 -0
v 0 12 -0
v 0 14 -0
v 0 15 -0
v 0 18 -0
v 0 21 -0
v 1 7 -0
v 1 8 -0
v 1 9 -0
v 1 12 -0
v 1 13 -0
v 1 14 -0
v 1 15 -0
v 1 18 -0
v 2 7 -0
v 2 9 -0
v 2 11 -0
v 2 13 -0
v 2 15 -0
v 3 7 -0
v 3 9 -0
v 3 11 -0
v 3 13 -0
v -2 0 -1
v -2 3 -1
v -2 11 -1
v -2 14 -1
v -2 19 -1
v -2 21 -1
v -2 23 -1
v -1 0 -1
v -1 1 -1
v -1 3 -1
v -1 4 -1
v -1 8 -1
v -1 9 -1
v -1 11 -1
v -1 14 -1
v -1 15 -1
v -1 18 -1
v -1 19 -1
v -1 21 -1
v -1 23 -1
v 0 0 -1
v 0 1 -1
v 0 4 -1
v 0 8 -1
v 0 9 -1
v 0 11 -1
v 0 12 -1
v 0 14 -1
v 0 15 -1
v 0 18 -1
v 0 21 -1
v 1 7 -1
v 1 8 -1
v 1 9 -1
v 1 12 -1
v 1 13 -1
v 1 14 -1
v 1 15 -1
v 1 18 -1
v 2 7 -1
v 2 9 -1
v 2 11 -1
v 2 13 -1
v 2 15 -1
v 3 7 -1
v 3 9 -1
v 3 11 -1
v 3 13 -1
v -2 11 -2
v -2 14 -2
v -1 8 -2
v -1 9 -2
v -1 11 -2
v -1 14 -2
v 0 8 -2
v 0 9 -2
v 0 11 -2
v -2 0 -0
v -1 0 -0
v 0 0 -0
v -2 0 -1
v -1 0 -1
v 0 0 -1
v 1 7 -0
v 2 7 -0
v 3 7 -0
v 1 7 -1
v 2 7 -1
v 3 7 -1
v -1 8 1
v 0 8 1
v -1 8 -0
v 0 8 -0
v 1 8 -0
v -1 8 -1
v 0 8 -1
v 1 8 -1
v -1 8 -2
v 0 8 -2
v -2 11 1
v -1 11 1
v -2 11 -0
v -1 11 -0
v -2 11 -1
v -1 11 -1
v -2 11 -2
v -1 11 -2
v -1 11 1
v 0 11 1
v -1 11 -0
v 0 11 -0
v -1 11 -1
v 0 11 -1
v -1 11 -2
v 0 11 -2
v 2 13 -0
v 3 13 -0
v 2 13 -1
v 3 13 -1
v -2 14 1
v -1 14 1
v -2 14 -0
v -1 14 -0
v -2 14 -1
v -1 14 -1
v -2 14 -2
v -1 14 -2
v 1 15 -0
v 2 15 -0
v 1 15 -1
v 2 15 -1
v 0 18 -0
v 1 18 -0
v 0 18 -1
v 1 18 -1
v -1 21 -0
v 0 21 -0
v -1 21 -1
v 0 21 -1
v -2 23 -0
v -1 23 -0
v -2 23 -1
v -1 23 -1

# faces
f 3/5/1 2/5/1 1/5/1
f 4/5/1 2/5/1 3/5/1
f 6/6/1 4/6/1 3/6/1
f 7/6/1 4/6/1 6/6/1
f 9/6/1 7/6/1 6/6/1
f 9/6/1 8/6/1 7/6/1
f 9/6/1 6/6/1 5/6/1
f 10/6/1 8/6/1 9/6/1
f 11/6/1 8/6/1 10/6/1
f 12/6/1 8/6/1 11/6/1
f 13/6/1 11/6/1 10/6/1
f 14/6/1 11/6/1 13/6/1
f 15/1/1 14/1/1 13/1/1
f 16/1/1 14/1/1 15/1/1
f 17/3/1 16/3/1 15/3/1
f 18/3/1 16/3/1 17/3/1
f 23/5/1 20/5/1 19/5/1
f 24/5/1 20/5/1 23/5/1
f 25/5/1 22/5/1 21/5/1
f 26/5/1 22/5/1 25/5/1
f 27/6/1 24/6/1 23/6/1
f 28/6/1 24/6/1 27/6/1
f 29/6/1 26/6/1 25/6/1
f 30/6/1 26/6/1 29/6/1
f 33/3/1 32/3/1 31/3/1
f 34/3/1 32/3/1 33/3/1
f 35/6/2 36/6/2 39/6/2
f 39/6/2 36/6/2 40/6/2
f 37/6/2 38/6/2 41/6/2
f 41/6/2 38/6/2 42/6/2
f 43/3/2 44/3/2 45/3/2
f 45/3/2 44/3/2 46/3/2
f 47/6/2 48/6/2 49/6/2
f 49/6/2 48/6/2 50/6/2
f 49/4/2 50/4/2 51/4/2
f 51/4/2 50/4/2 52/4/2
f 51/5/2 52/5/2 54/5/2
f 54/5/2 52/5/2 55/5/2
f 53/5/2 54/5/2 57/5/2
f 57/5/2 54/5/2 58/5/2
f 55/5/2 56/5/2 59/5/2
f 59/5/2 56/5/2 60/5/2
f 57/6/2 58/6/2 61/6/2
f 61/6/2 58/6/2 62/6/2
f 59/6/2 60/6/2 63/6/2
f 63/6/2 60/6/2 64/6/2
f 65/2/2 66/2/2 67/2/2
f 67/2/2 66/2/2 68/2/2
f 69/2/2 70/2/2 71/2/2
f 71/2/2 70/2/2 72/2/2
f 73/3/2 74/3/2 75/3/2
f 75/3/2 74/3/2 76/3/2
f 77/1/2 78/1/2 79/1/2
f 79/1/2 78/1/2 80/1/2
f 79/3/2 80/3/2 81/3/2
f 81/3/2 80/3/2 82/3/2
f 81/1/2 82/1/2 83/1/2
f 83/1/2 82/1/2 84/1/2
f 89/6/3 86/6/3 85/6/3
f 90/6/3 86/6/3 89/6/3
f 91/5/3 88/5/3 87/5/3
f 92/6/3 89/6/3 88/6/3
f 92/5/3 88/5/3 91/5/3
f 93/6/3 89/6/3 92/6/3
f 101/5/3 95/5/3 94/5/3
f 102/5/3 95/5/3 101/5/3
f 103/6/3 96/6/3 95/6/3
f 103/5/3 95/5/3 102/5/3
f 104/6/3 96/6/3 103/6/3
f 105/6/3 96/6/3 104/6/3
f 106/6/3 96/6/3 105/6/3
f 107/6/3 96/6/3 106/6/3
f 108/6/3 98/6/3 97/6/3
f 109/6/3 98/6/3 108/6/3
f 110/6/3 98/6/3 109/6/3
f 111/1/3 99/1/3 98/1/3
f 111/6/3 98/6/3 110/6/3
f 112/3/3 100/3/3 99/3/3
f 112/1/3 99/1/3 111/1/3
f 113/3/3 100/3/3 112/3/3
f 114/6/3 102/6/3 101/6/3
f 115/4/3 103/4/3 102/4/3
f 115/6/3 102/6/3 114/6/3
f 115/4/3 104/4/3 103/4/3
f 116/5/3 105/5/3 104/5/3
f 116/4/3 104/4/3 115/4/3
f 117/5/3 105/5/3 116/5/3
f 119/6/3 108/6/3 107/6/3
f 119/6/3 109/6/3 108/6/3
f 120/6/3 109/6/3 119/6/3
f 121/6/3 109/6/3 120/6/3
f 122/3/3 110/3/3 109/3/3
f 122/6/3 109/6/3 121/6/3
f 123/2/3 111/2/3 110/2/3
f 123/3/3 110/3/3 122/3/3
f 123/2/3 112/2/3 111/2/3
f 124/2/3 112/2/3 123/2/3
f 126/6/3 120/6/3 119/6/3
f 126/6/3 118/6/3 117/6/3
f 126/6/3 119/6/3 118/6/3
f 127/6/3 120/6/3 126/6/3
f 128/3/3 121/3/3 120/3/3
f 128/6/3 120/6/3 127/6/3
f 129/3/3 121/3/3 128/3/3
f 130/2/3 122/2/3 121/2/3
f 130/3/3 121/3/3 129/3/3
f 130/2/3 123/2/3 122/2/3
f 131/2/3 123/2/3 130/2/3
f 132/2/3 123/2/3 131/2/3
f 133/3/3 127/3/3 126/3/3
f 133/3/3 126/3/3 125/3/3
f 134/2/3 129/2/3 128/2/3
f 134/3/3 127/3/3 133/3/3
f 134/2/3 128/2/3 127/2/3
f 135/2/3 129/2/3 134/2/3
f 136/3/3 130/3/3 129/3/3
f 136/2/3 129/2/3 135/2/3
f 136/3/3 131/3/3 130/3/3
f 137/3/3 131/3/3 136/3/3
f 138/1/3 134/1/3 133/1/3
f 139/3/3 135/3/3 134/3/3
f 139/1/3 134/1/3 138/1/3
f 140/1/3 136/1/3 135/1/3
f 140/3/3 135/3/3 139/3/3
f 141/1/3 136/1/3 140/1/3
f 142/5/4 143/5/4 149/5/4
f 149/5/4 143/5/4 150/5/4
f 143/6/4 144/6/4 151/6/4
f 150/5/4 143/5/4 151/5/4
f 151/6/4 144/6/4 152/6/4
f 152/6/4 144/6/4 153/6/4
f 153/6/4 144/6/4 154/6/4
f 154/6/4 144/6/4 155/6/4
f 145/6/4 146/6/4 156/6/4
f 156/6/4 146/6/4 157/6/4
f 157/6/4 146/6/4 158/6/4
f 146/1/4 147/1/4 159/1/4
f 158/6/4 146/6/4 159/6/4
f 147/3/4 148/3/4 160/3/4
f 159/1/4 147/1/4 160/1/4
f 160/3/4 148/3/4 161/3/4
f 149/6/4 150/6/4 162/6/4
f 150/4/4 151/4/4 163/4/4
f 162/6/4 150/6/4 163/6/4
f 151/4/4 152/4/4 163/4/4
f 152/5/4 153/5/4 164/5/4
f 163/4/4 152/4/4 164/4/4
f 164/5/4 153/5/4 165/5/4
f 155/6/4 156/6/4 167/6/4
f 156/6/4 157/6/4 167/6/4
f 167/6/4 157/6/4 168/6/4
f 168/6/4 157/6/4 169/6/4
f 157/3/4 158/3/4 170/3/4
f 169/6/4 157/6/4 170/6/4
f 158/2/4 159/2/4 171/2/4
f 170/3/4 158/3/4 171/3/4
f 159/2/4 160/2/4 171/2/4
f 171/2/4 160/2/4 172/2/4
f 167/6/4 168/6/4 174/6/4
f 165/6/4 166/6/4 174/6/4
f 166/6/4 167/6/4 174/6/4
f 174/6/4 168/6/4 175/6/4
f 168/3/4 169/3/4 176/3/4
f 175/6/4 168/6/4 176/6/4
f 176/3/4 169/3/4 177/3/4
f 169/2/4 170/2/4 178/2/4
f 177/3/4 169/3/4 178/3/4
f 170/2/4 171/2/4 178/2/4
f 178/2/4 171/2/4 179/2/4
f 179/2/4 171/2/4 180/2/4
f 174/3/4 175/3/4 181/3/4
f 173/3/4 174/3/4 181/3/4
f 176/2/4 177/2/4 182/2/4
f 181/3/4 175/3/4 182/3/4
f 175/2/4 176/2/4 182/2/4
f 182/2/4 177/2/4 183/2/4
f 177/3/4 178/3/4 184/3/4
f 183/2/4 177/2/4 184/2/4
f 178/3/4 179/3/4 184/3/4
f 184/3/4 179/3/4 185/3/4
f 181/1/4 182/1/4 186/1/4
f 182/3/4 183/3/4 187/3/4
f 186/1/4 182/1/4 187/1/4
f 183/1/4 184/1/4 188/1/4
f 187/3/4 183/3/4 188/3/4
f 188/1/4 184/1/4 189/1/4
f 190/6/4 191/6/4 194/6/4
f 194/6/4 191/6/4 195/6/4
f 192/5/4 193/5/4 196/5/4
f 193/6/4 194/6/4 197/6/4
f 196/5/4 193/5/4 197/5/4
f 197/6/4 194/6/4 198/6/4
f 202/5/5 200/5/5 199/5/5
f 203/6/5 201/6/5 200/6/5
f 203/5/5 200/5/5 202/5/5
f 204/6/5 201/6/5 203/6/5
f 208/3/5 206/3/5 205/3/5
f 209/1/5 207/1/5 206/1/5
f 209/3/5 206/3/5 208/3/5
f 210/1/5 207/1/5 209/1/5
f 213/5/5 212/5/5 211/5/5
f 214/5/5 212/5/5 213/5/5
f 217/6/5 215/6/5 214/6/5
f 218/6/5 215/6/5 217/6/5
f 219/5/5 217/5/5 216/5/5
f 220/5/5 217/5/5 219/5/5
f 223/6/5 222/6/5 221/6/5
f 224/6/5 222/6/5 223/6/5
f 227/6/5 226/6/5 225/6/5
f 228/6/5 226/6/5 227/6/5
f 229/6/6 230/6/6 231/6/6
f 231/6/6 230/6/6 232/6/6
f 233/6/6 234/6/6 235/6/6
f 235/6/6 234/6/6 236/6/6
f 237/1/6 238/1/6 239/1/6
f 239/1/6 238/1/6 240/1/6
f 241/6/6 242/6/6 243/6/6
f 243/6/6 242/6/6 244/6/6
f 245/6/6 246/6/6 247/6/6
f 247/6/6 246/6/6 248/6/6
f 249/3/6 250/3/6 251/3/6
f 251/3/6 250/3/6 252/3/6
f 253/2/6 254/2/6 255/2/6
f 255/2/6 254/2/6 256/2/6
f 257/2/6 258/2/6 259/2/6
f 259/2/6 258/2/6 260/2/6
f 261/3/6 262/3/6 263/3/6
f 263/3/6 262/3/6 264/3/6
