# MagicaVoxel @ Ephtracy

# group
g blaster60

# material
mtllib blaster60.mtl
usemtl palette

# normals
vn -1 0 0
vn 1 0 0
vn 0 0 1
vn 0 0 -1
vn 0 -1 0
vn 0 1 0

# texcoords
vt 0.841797 0.5
vt 0.962891 0.5
vt 0.966797 0.5
vt 0.970703 0.5
vt 0.982422 0.5
vt 0.986328 0.5
vt 0.990234 0.5

# verts
v -18 5 -1
v -18 5 -4
v -18 6 -0
v -18 6 -1
v -18 6 -4
v -18 6 -5
v -18 11 -0
v -18 11 -5
v -13 3 -1
v -13 3 -4
v -13 5 -1
v -13 5 -4
v -11 2 -1
v -11 2 -4
v -11 3 -1
v -11 3 -4
v -10 1 -1
v -10 1 -4
v -10 2 -1
v -10 2 -4
v -10 7 -2
v -10 7 -3
v -10 8 -2
v -10 8 -3
v -9 7 -1
v -9 7 -2
v -9 7 -3
v -9 7 -4
v -9 8 -1
v -9 8 -2
v -9 8 -3
v -9 8 -4
v -8 4 -2
v -8 4 -3
v -8 5 -2
v -8 5 -3
v -8 8 -2
v -8 8 -3
v -8 9 -2
v -8 9 -3
v -7 2 -2
v -7 2 -3
v -7 4 -2
v -7 4 -3
v -7 8 -1
v -7 8 -2
v -7 8 -3
v -7 8 -4
v -7 9 -1
v -7 9 -2
v -7 9 -3
v -7 9 -4
v -7 10 -2
v -7 10 -3
v -4 1 -1
v -4 1 -2
v -4 1 -3
v -4 1 -4
v -4 2 -1
v -4 2 -2
v -4 2 -3
v -4 2 -4
v -4 9 -1
v -4 9 -2
v -4 9 -3
v -4 9 -4
v -4 10 -1
v -4 10 -2
v -4 10 -3
v -4 10 -4
v -4 11 -2
v -4 11 -3
v -2 0 -1
v -2 0 -4
v -2 1 -1
v -2 1 -4
v -2 2 -1
v -2 2 -4
v -2 5 -1
v -2 5 -4
v -2 11 -2
v -2 11 -3
v -2 12 -2
v -2 12 -3
v 3 2 -1
v 3 2 -4
v 3 3 -1
v 3 3 -4
v 4 3 -1
v 4 3 -4
v 4 4 -1
v 4 4 -4
v 4 5 -2
v 4 5 -3
v 4 6 -1
v 4 6 -2
v 4 6 -3
v 4 6 -4
v 4 7 -1
v 4 7 -2
v 4 7 -3
v 4 7 -4
v 5 4 -1
v 5 4 -4
v 5 5 -1
v 5 5 -2
v 5 5 -3
v 5 5 -4
v 5 6 -1
v 5 6 -2
v 5 6 -3
v 5 6 -4
v 7 9 -1
v 7 9 -4
v 7 10 -1
v 7 10 -2
v 7 10 -3
v 7 10 -4
v 7 11 -2
v 7 11 -3
v -16 9 -0
v -16 9 -1
v -16 9 -4
v -16 9 -5
v -16 10 -1
v -16 10 -4
v -16 11 -0
v -16 11 -5
v -15 6 -0
v -15 6 -1
v -15 6 -4
v -15 6 -5
v -15 7 -1
v -15 7 -4
v -15 8 -1
v -15 8 -4
v -15 9 -0
v -15 9 -1
v -15 9 -4
v -15 9 -5
v -15 10 -1
v -15 10 -4
v -14 7 -1
v -14 7 -2
v -14 7 -3
v -14 7 -4
v -14 8 -1
v -14 8 -2
v -14 8 -3
v -14 8 -4
v -13 7 -2
v -13 7 -3
v -13 8 -2
v -13 8 -3
v -11 4 -1
v -11 4 -4
v -11 5 -1
v -11 5 -4
v -10 3 -1
v -10 3 -4
v -10 4 -1
v -10 4 -4
v -9 2 -1
v -9 2 -4
v -9 3 -1
v -9 3 -4
v -8 1 -1
v -8 1 -2
v -8 1 -3
v -8 1 -4
v -8 2 -1
v -8 2 -2
v -8 2 -3
v -8 2 -4
v -5 2 -2
v -5 2 -3
v -5 5 -2
v -5 5 -3
v 0 2 -1
v 0 2 -4
v 0 4 -2
v 0 4 -3
v 0 5 -1
v 0 5 -2
v 0 5 -3
v 0 5 -4
v 0 6 -1
v 0 6 -2
v 0 6 -3
v 0 6 -4
v 1 4 -2
v 1 4 -3
v 1 5 -2
v 1 5 -3
v 1 6 -1
v 1 6 -2
v 1 6 -3
v 1 6 -4
v 1 7 -1
v 1 7 -2
v 1 7 -3
v 1 7 -4
v 1 9 -1
v 1 9 -4
v 1 10 -1
v 1 10 -2
v 1 10 -3
v 1 10 -4
v 1 11 -2
v 1 11 -3
v 2 5 -2
v 2 5 -3
v 2 6 -2
v 2 6 -3
v 3 0 -1
v 3 0 -4
v 3 1 -1
v 3 1 -4
v 4 1 -1
v 4 1 -4
v 4 2 -1
v 4 2 -4
v 5 2 -1
v 5 2 -4
v 5 3 -1
v 5 3 -4
v 6 3 -1
v 6 3 -4
v 6 5 -1
v 6 5 -4
v 8 11 -2
v 8 11 -3
v 8 12 -2
v 8 12 -3
v 10 6 -1
v 10 6 -4
v 10 7 -1
v 10 7 -2
v 10 7 -3
v 10 7 -4
v 10 8 -1
v 10 8 -2
v 10 8 -3
v 10 8 -4
v 10 10 -2
v 10 10 -3
v 10 11 -2
v 10 11 -3
v 11 5 -1
v 11 5 -4
v 11 6 -1
v 11 6 -4
v 11 8 -1
v 11 8 -2
v 11 8 -3
v 11 8 -4
v 11 10 -1
v 11 10 -2
v 11 10 -3
v 11 10 -4
v 12 9 -2
v 12 9 -3
v 12 10 -2
v 12 10 -3
v 13 8 -2
v 13 8 -3
v 13 9 -2
v 13 9 -3
v 17 7 -2
v 17 7 -3
v 17 8 -2
v 17 8 -3
v -18 6 -0
v -18 11 -0
v -16 9 -0
v -16 11 -0
v -15 6 -0
v -15 9 -0
v -18 5 -1
v -18 6 -1
v -16 9 -1
v -16 10 -1
v -15 5 -1
v -15 6 -1
v -15 7 -1
v -15 8 -1
v -15 9 -1
v -15 10 -1
v -14 7 -1
v -14 8 -1
v -13 3 -1
v -13 5 -1
v -11 2 -1
v -11 3 -1
v -11 4 -1
v -11 5 -1
v -10 1 -1
v -10 2 -1
v -10 3 -1
v -10 4 -1
v -9 2 -1
v -9 3 -1
v -9 7 -1
v -9 8 -1
v -8 1 -1
v -8 2 -1
v -7 8 -1
v -7 9 -1
v -5 5 -1
v -5 7 -1
v -4 1 -1
v -4 2 -1
v -4 9 -1
v -4 10 -1
v -3 8 -1
v -3 9 -1
v -2 0 -1
v -2 1 -1
v -2 2 -1
v -2 5 -1
v -2 8 -1
v -2 9 -1
v -1 7 -1
v -1 8 -1
v -1 9 -1
v 0 0 -1
v 0 2 -1
v 0 5 -1
v 0 6 -1
v 0 8 -1
v 0 9 -1
v 1 6 -1
v 1 7 -1
v 1 9 -1
v 1 10 -1
v 3 0 -1
v 3 1 -1
v 3 2 -1
v 3 3 -1
v 4 1 -1
v 4 2 -1
v 4 3 -1
v 4 4 -1
v 4 6 -1
v 4 7 -1
v 5 2 -1
v 5 3 -1
v 5 4 -1
v 5 5 -1
v 5 6 -1
v 6 3 -1
v 6 5 -1
v 7 9 -1
v 7 10 -1
v 10 6 -1
v 10 7 -1
v 10 8 -1
v 11 5 -1
v 11 6 -1
v 11 8 -1
v 11 10 -1
v -14 7 -2
v -14 8 -2
v -13 7 -2
v -13 8 -2
v -10 7 -2
v -10 8 -2
v -9 7 -2
v -9 8 -2
v -8 1 -2
v -8 2 -2
v -8 4 -2
v -8 5 -2
v -8 8 -2
v -8 9 -2
v -7 1 -2
v -7 2 -2
v -7 4 -2
v -7 5 -2
v -7 8 -2
v -7 9 -2
v -7 10 -2
v -5 1 -2
v -5 2 -2
v -5 5 -2
v -4 1 -2
v -4 2 -2
v -4 9 -2
v -4 10 -2
v -4 11 -2
v -2 11 -2
v -2 12 -2
v 0 4 -2
v 0 5 -2
v 0 6 -2
v 1 4 -2
v 1 5 -2
v 1 6 -2
v 1 7 -2
v 1 10 -2
v 1 11 -2
v 2 5 -2
v 2 6 -2
v 4 5 -2
v 4 6 -2
v 4 7 -2
v 5 5 -2
v 5 6 -2
v 7 10 -2
v 7 11 -2
v 8 11 -2
v 8 12 -2
v 10 7 -2
v 10 8 -2
v 10 10 -2
v 10 11 -2
v 11 8 -2
v 11 10 -2
v 12 9 -2
v 12 10 -2
v 13 8 -2
v 13 9 -2
v 17 7 -2
v 17 8 -2
v -14 7 -3
v -14 8 -3
v -13 7 -3
v -13 8 -3
v -10 7 -3
v -10 8 -3
v -9 7 -3
v -9 8 -3
v -8 1 -3
v -8 2 -3
v -8 4 -3
v -8 5 -3
v -8 8 -3
v -8 9 -3
v -7 1 -3
v -7 2 -3
v -7 4 -3
v -7 5 -3
v -7 8 -3
v -7 9 -3
v -7 10 -3
v -5 1 -3
v -5 2 -3
v -5 5 -3
v -4 1 -3
v -4 2 -3
v -4 9 -3
v -4 10 -3
v -4 11 -3
v -2 11 -3
v -2 12 -3
v 0 4 -3
v 0 5 -3
v 0 6 -3
v 1 4 -3
v 1 5 -3
v 1 6 -3
v 1 7 -3
v 1 10 -3
v 1 11 -3
v 2 5 -3
v 2 6 -3
v 4 5 -3
v 4 6 -3
v 4 7 -3
v 5 5 -3
v 5 6 -3
v 7 10 -3
v 7 11 -3
v 8 11 -3
v 8 12 -3
v 10 7 -3
v 10 8 -3
v 10 10 -3
v 10 11 -3
v 11 8 -3
v 11 10 -3
v 12 9 -3
v 12 10 -3
v 13 8 -3
v 13 9 -3
v 17 7 -3
v 17 8 -3
v -18 5 -4
v -18 6 -4
v -16 9 -4
v -16 10 -4
v -15 5 -4
v -15 6 -4
v -15 7 -4
v -15 8 -4
v -15 9 -4
v -15 10 -4
v -14 7 -4
v -14 8 -4
v -13 3 -4
v -13 5 -4
v -11 2 -4
v -11 3 -4
v -11 4 -4
v -11 5 -4
v -10 1 -4
v -10 2 -4
v -10 3 -4
v -10 4 -4
v -9 2 -4
v -9 3 -4
v -9 7 -4
v -9 8 -4
v -8 1 -4
v -8 2 -4
v -7 8 -4
v -7 9 -4
v -5 5 -4
v -5 7 -4
v -4 1 -4
v -4 2 -4
v -4 9 -4
v -4 10 -4
v -3 8 -4
v -3 9 -4
v -2 0 -4
v -2 1 -4
v -2 2 -4
v -2 5 -4
v -2 8 -4
v -2 9 -4
v -1 7 -4
v -1 8 -4
v -1 9 -4
v 0 0 -4
v 0 2 -4
v 0 5 -4
v 0 6 -4
v 0 8 -4
v 0 9 -4
v 1 6 -4
v 1 7 -4
v 1 9 -4
v 1 10 -4
v 3 0 -4
v 3 1 -4
v 3 2 -4
v 3 3 -4
v 4 1 -4
v 4 2 -4
v 4 3 -4
v 4 4 -4
v 4 6 -4
v 4 7 -4
v 5 2 -4
v 5 3 -4
v 5 4 -4
v 5 5 -4
v 5 6 -4
v 6 3 -4
v 6 5 -4
v 7 9 -4
v 7 10 -4
v 10 6 -4
v 10 7 -4
v 10 8 -4
v 11 5 -4
v 11 6 -4
v 11 8 -4
v 11 10 -4
v -18 6 -5
v -18 11 -5
v -16 9 -5
v -16 11 -5
v -15 6 -5
v -15 9 -5
v -2 0 -1
v 0 0 -1
v 3 0 -1
v -2 0 -4
v 0 0 -4
v 3 0 -4
v -10 1 -1
v -8 1 -1
v -4 1 -1
v -2 1 -1
v 3 1 -1
v 4 1 -1
v -8 1 -2
v -7 1 -2
v -5 1 -2
v -4 1 -2
v -8 1 -3
v -7 1 -3
v -5 1 -3
v -4 1 -3
v -10 1 -4
v -8 1 -4
v -4 1 -4
v -2 1 -4
v 3 1 -4
v 4 1 -4
v -11 2 -1
v -10 2 -1
v 4 2 -1
v 5 2 -1
v -11 2 -4
v -10 2 -4
v 4 2 -4
v 5 2 -4
v -13 3 -1
v -11 3 -1
v 5 3 -1
v 6 3 -1
v -13 3 -4
v -11 3 -4
v 5 3 -4
v 6 3 -4
v -8 4 -2
v -7 4 -2
v 0 4 -2
v 1 4 -2
v -8 4 -3
v -7 4 -3
v 0 4 -3
v 1 4 -3
v -18 5 -1
v -15 5 -1
v -13 5 -1
v -11 5 -1
v -5 5 -1
v -2 5 -1
v 6 5 -1
v 11 5 -1
v -8 5 -2
v -7 5 -2
v -5 5 -2
v 1 5 -2
v 2 5 -2
v 4 5 -2
v 5 5 -2
v -8 5 -3
v -7 5 -3
v -5 5 -3
v 1 5 -3
v 2 5 -3
v 4 5 -3
v 5 5 -3
v -18 5 -4
v -15 5 -4
v -13 5 -4
v -11 5 -4
v -5 5 -4
v -2 5 -4
v 6 5 -4
v 11 5 -4
v -18 6 -0
v -15 6 -0
v -18 6 -1
v -15 6 -1
v 0 6 -1
v 1 6 -1
v 4 6 -1
v 5 6 -1
v 0 6 -2
v 1 6 -2
v 2 6 -2
v 4 6 -2
v 5 6 -2
v 0 6 -3
v 1 6 -3
v 2 6 -3
v 4 6 -3
v 5 6 -3
v -18 6 -4
v -15 6 -4
v 0 6 -4
v 1 6 -4
v 4 6 -4
v 5 6 -4
v -18 6 -5
v -15 6 -5
v 1 7 -1
v 4 7 -1
v 1 7 -2
v 4 7 -2
v 10 7 -2
v 17 7 -2
v 1 7 -3
v 4 7 -3
v 10 7 -3
v 17 7 -3
v 1 7 -4
v 4 7 -4
v 10 8 -1
v 11 8 -1
v 10 8 -2
v 11 8 -2
v 10 8 -3
v 11 8 -3
v 10 8 -4
v 11 8 -4
v 1 11 -2
v 7 11 -2
v 1 11 -3
v 7 11 -3
v -9 2 -1
v -8 2 -1
v -4 2 -1
v -2 2 -1
v 0 2 -1
v 3 2 -1
v -8 2 -2
v -7 2 -2
v -5 2 -2
v -4 2 -2
v -8 2 -3
v -7 2 -3
v -5 2 -3
v -4 2 -3
v -9 2 -4
v -8 2 -4
v -4 2 -4
v -2 2 -4
v 0 2 -4
v 3 2 -4
v -10 3 -1
v -9 3 -1
v 3 3 -1
v 4 3 -1
v -10 3 -4
v -9 3 -4
v 3 3 -4
v 4 3 -4
v -11 4 -1
v -10 4 -1
v 4 4 -1
v 5 4 -1
v -11 4 -4
v -10 4 -4
v 4 4 -4
v 5 4 -4
v 10 6 -1
v 11 6 -1
v 10 6 -4
v 11 6 -4
v -14 7 -1
v -9 7 -1
v -14 7 -2
v -13 7 -2
v -10 7 -2
v -9 7 -2
v -14 7 -3
v -13 7 -3
v -10 7 -3
v -9 7 -3
v -14 7 -4
v -9 7 -4
v -15 8 -1
v -14 8 -1
v -9 8 -1
v -7 8 -1
v -14 8 -2
v -13 8 -2
v -10 8 -2
v -9 8 -2
v -8 8 -2
v -7 8 -2
v 13 8 -2
v 17 8 -2
v -14 8 -3
v -13 8 -3
v -10 8 -3
v -9 8 -3
v -8 8 -3
v -7 8 -3
v 13 8 -3
v 17 8 -3
v -15 8 -4
v -14 8 -4
v -9 8 -4
v -7 8 -4
v -16 9 -0
v -15 9 -0
v -16 9 -1
v -15 9 -1
v -7 9 -1
v -4 9 -1
v 1 9 -1
v 7 9 -1
v -8 9 -2
v -7 9 -2
v -4 9 -2
v 12 9 -2
v 13 9 -2
v -8 9 -3
v -7 9 -3
v -4 9 -3
v 12 9 -3
v 13 9 -3
v -16 9 -4
v -15 9 -4
v -7 9 -4
v -4 9 -4
v 1 9 -4
v 7 9 -4
v -16 9 -5
v -15 9 -5
v -16 10 -1
v -15 10 -1
v -4 10 -1
v 1 10 -1
v 7 10 -1
v 11 10 -1
v -7 10 -2
v -4 10 -2
v 1 10 -2
v 7 10 -2
v 10 10 -2
v 11 10 -2
v 12 10 -2
v -7 10 -3
v -4 10 -3
v 1 10 -3
v 7 10 -3
v 10 10 -3
v 11 10 -3
v 12 10 -3
v -16 10 -4
v -15 10 -4
v -4 10 -4
v 1 10 -4
v 7 10 -4
v 11 10 -4
v -18 11 -0
v -16 11 -0
v -4 11 -2
v -2 11 -2
v 8 11 -2
v 10 11 -2
v -4 11 -3
v -2 11 -3
v 8 11 -3
v 10 11 -3
v -18 11 -5
v -16 11 -5
v -2 12 -2
v 8 12 -2
v -2 12 -3
v 8 12 -3

# faces
f 4/5/1 2/5/1 1/5/1
f 5/5/1 2/5/1 4/5/1
f 7/5/1 4/5/1 3/5/1
f 7/5/1 6/5/1 5/5/1
f 7/5/1 5/5/1 4/5/1
f 8/5/1 6/5/1 7/5/1
f 11/5/1 10/5/1 9/5/1
f 12/5/1 10/5/1 11/5/1
f 15/5/1 14/5/1 13/5/1
f 16/5/1 14/5/1 15/5/1
f 19/5/1 18/5/1 17/5/1
f 20/5/1 18/5/1 19/5/1
f 23/2/1 22/2/1 21/2/1
f 24/2/1 22/2/1 23/2/1
f 29/2/1 26/2/1 25/2/1
f 30/2/1 26/2/1 29/2/1
f 31/2/1 28/2/1 27/2/1
f 32/2/1 28/2/1 31/2/1
f 35/6/1 34/6/1 33/6/1
f 36/6/1 34/6/1 35/6/1
f 39/3/1 38/3/1 37/3/1
f 40/3/1 38/3/1 39/3/1
f 43/7/1 42/7/1 41/7/1
f 44/7/1 42/7/1 43/7/1
f 49/3/1 46/3/1 45/3/1
f 50/3/1 46/3/1 49/3/1
f 51/3/1 48/3/1 47/3/1
f 52/3/1 48/3/1 51/3/1
f 53/1/1 51/1/1 50/1/1
f 54/1/1 51/1/1 53/1/1
f 59/5/1 56/5/1 55/5/1
f 60/5/1 56/5/1 59/5/1
f 61/5/1 58/5/1 57/5/1
f 62/5/1 58/5/1 61/5/1
f 67/3/1 64/3/1 63/3/1
f 68/3/1 64/3/1 67/3/1
f 69/3/1 66/3/1 65/3/1
f 70/3/1 66/3/1 69/3/1
f 71/4/1 69/4/1 68/4/1
f 72/4/1 69/4/1 71/4/1
f 75/6/1 74/6/1 73/6/1
f 76/6/1 74/6/1 75/6/1
f 79/6/1 78/6/1 77/6/1
f 80/6/1 78/6/1 79/6/1
f 83/4/1 82/4/1 81/4/1
f 84/4/1 82/4/1 83/4/1
f 87/5/1 86/5/1 85/5/1
f 88/5/1 86/5/1 87/5/1
f 91/5/1 90/5/1 89/5/1
f 92/5/1 90/5/1 91/5/1
f 96/3/1 94/3/1 93/3/1
f 97/3/1 94/3/1 96/3/1
f 99/3/1 96/3/1 95/3/1
f 100/3/1 96/3/1 99/3/1
f 101/3/1 98/3/1 97/3/1
f 102/3/1 98/3/1 101/3/1
f 105/5/1 104/5/1 103/5/1
f 106/5/1 104/5/1 105/5/1
f 107/5/1 104/5/1 106/5/1
f 108/5/1 104/5/1 107/5/1
f 109/3/1 106/3/1 105/3/1
f 110/3/1 106/3/1 109/3/1
f 111/3/1 108/3/1 107/3/1
f 112/3/1 108/3/1 111/3/1
f 115/3/1 114/3/1 113/3/1
f 116/3/1 114/3/1 115/3/1
f 117/3/1 114/3/1 116/3/1
f 118/3/1 114/3/1 117/3/1
f 119/4/1 117/4/1 116/4/1
f 120/4/1 117/4/1 119/4/1
f 121/5/2 122/5/2 125/5/2
f 123/5/2 124/5/2 126/5/2
f 121/5/2 125/5/2 127/5/2
f 125/5/2 126/5/2 127/5/2
f 126/5/2 124/5/2 128/5/2
f 127/5/2 126/5/2 128/5/2
f 129/5/2 130/5/2 133/5/2
f 131/5/2 132/5/2 134/5/2
f 129/5/2 133/5/2 135/5/2
f 134/5/2 132/5/2 136/5/2
f 129/5/2 135/5/2 137/5/2
f 135/5/2 136/5/2 137/5/2
f 137/5/2 136/5/2 138/5/2
f 136/5/2 132/5/2 139/5/2
f 138/5/2 136/5/2 139/5/2
f 139/5/2 132/5/2 140/5/2
f 138/5/2 139/5/2 141/5/2
f 141/5/2 139/5/2 142/5/2
f 143/5/2 144/5/2 147/5/2
f 147/5/2 144/5/2 148/5/2
f 145/5/2 146/5/2 149/5/2
f 149/5/2 146/5/2 150/5/2
f 151/5/2 152/5/2 153/5/2
f 153/5/2 152/5/2 154/5/2
f 155/5/2 156/5/2 157/5/2
f 157/5/2 156/5/2 158/5/2
f 159/5/2 160/5/2 161/5/2
f 161/5/2 160/5/2 162/5/2
f 163/5/2 164/5/2 165/5/2
f 165/5/2 164/5/2 166/5/2
f 167/5/2 168/5/2 171/5/2
f 171/5/2 168/5/2 172/5/2
f 169/5/2 170/5/2 173/5/2
f 173/5/2 170/5/2 174/5/2
f 175/7/2 176/7/2 177/7/2
f 177/7/2 176/7/2 178/7/2
f 179/6/2 180/6/2 181/6/2
f 181/6/2 180/6/2 182/6/2
f 179/6/2 181/6/2 183/6/2
f 183/6/2 181/6/2 184/6/2
f 182/6/2 180/6/2 185/6/2
f 185/6/2 180/6/2 186/6/2
f 183/3/2 184/3/2 187/3/2
f 187/3/2 184/3/2 188/3/2
f 185/3/2 186/3/2 189/3/2
f 189/3/2 186/3/2 190/3/2
f 191/6/2 192/6/2 193/6/2
f 193/6/2 192/6/2 194/6/2
f 195/3/2 196/3/2 199/3/2
f 199/3/2 196/3/2 200/3/2
f 197/3/2 198/3/2 201/3/2
f 201/3/2 198/3/2 202/3/2
f 203/3/2 204/3/2 205/3/2
f 205/3/2 204/3/2 206/3/2
f 206/3/2 204/3/2 207/3/2
f 207/3/2 204/3/2 208/3/2
f 206/4/2 207/4/2 209/4/2
f 209/4/2 207/4/2 210/4/2
f 211/3/2 212/3/2 213/3/2
f 213/3/2 212/3/2 214/3/2
f 215/5/2 216/5/2 217/5/2
f 217/5/2 216/5/2 218/5/2
f 219/5/2 220/5/2 221/5/2
f 221/5/2 220/5/2 222/5/2
f 223/5/2 224/5/2 225/5/2
f 225/5/2 224/5/2 226/5/2
f 227/5/2 228/5/2 229/5/2
f 229/5/2 228/5/2 230/5/2
f 231/4/2 232/4/2 233/4/2
f 233/4/2 232/4/2 234/4/2
f 235/3/2 236/3/2 237/3/2
f 237/3/2 236/3/2 238/3/2
f 238/3/2 236/3/2 239/3/2
f 239/3/2 236/3/2 240/3/2
f 237/5/2 238/5/2 241/5/2
f 241/5/2 238/5/2 242/5/2
f 239/5/2 240/5/2 243/5/2
f 243/5/2 240/5/2 244/5/2
f 245/4/2 246/4/2 247/4/2
f 247/4/2 246/4/2 248/4/2
f 249/3/2 250/3/2 251/3/2
f 251/3/2 250/3/2 252/3/2
f 253/3/2 254/3/2 257/3/2
f 257/3/2 254/3/2 258/3/2
f 255/3/2 256/3/2 259/3/2
f 259/3/2 256/3/2 260/3/2
f 261/3/2 262/3/2 263/3/2
f 263/3/2 262/3/2 264/3/2
f 265/3/2 266/3/2 267/3/2
f 267/3/2 266/3/2 268/3/2
f 269/5/2 270/5/2 271/5/2
f 271/5/2 270/5/2 272/5/2
f 275/5/3 274/5/3 273/5/3
f 276/5/3 274/5/3 275/5/3
f 277/5/3 275/5/3 273/5/3
f 278/5/3 275/5/3 277/5/3
f 283/5/3 280/5/3 279/5/3
f 284/5/3 280/5/3 283/5/3
f 287/5/3 282/5/3 281/5/3
f 288/5/3 282/5/3 287/5/3
f 289/5/3 286/5/3 285/5/3
f 289/6/3 284/6/3 283/6/3
f 289/6/3 285/6/3 284/6/3
f 290/5/3 286/5/3 289/5/3
f 292/6/3 289/6/3 283/6/3
f 294/5/3 292/5/3 291/5/3
f 295/5/3 292/5/3 294/5/3
f 296/6/3 289/6/3 292/6/3
f 296/5/3 292/5/3 295/5/3
f 298/5/3 295/5/3 294/5/3
f 298/5/3 294/5/3 293/5/3
f 299/5/3 295/5/3 298/5/3
f 300/5/3 295/5/3 299/5/3
f 301/5/3 298/5/3 297/5/3
f 301/5/3 299/5/3 298/5/3
f 302/5/3 299/5/3 301/5/3
f 303/6/3 289/6/3 296/6/3
f 305/5/3 301/5/3 297/5/3
f 306/5/3 301/5/3 305/5/3
f 307/2/3 304/2/3 303/2/3
f 309/6/3 303/6/3 296/6/3
f 310/2/3 307/2/3 303/2/3
f 310/6/3 303/6/3 309/6/3
f 313/3/3 308/3/3 307/3/3
f 315/2/3 307/2/3 310/2/3
f 315/3/3 314/3/3 313/3/3
f 315/3/3 313/3/3 307/3/3
f 316/3/3 314/3/3 315/3/3
f 318/5/3 312/5/3 311/5/3
f 319/5/3 312/5/3 318/5/3
f 320/3/3 310/3/3 309/3/3
f 321/2/3 315/2/3 310/2/3
f 321/1/3 316/1/3 315/1/3
f 322/3/3 314/3/3 316/3/3
f 322/1/3 316/1/3 321/1/3
f 323/2/3 321/2/3 310/2/3
f 323/3/3 310/3/3 320/3/3
f 324/3/3 322/3/3 321/3/3
f 324/2/3 321/2/3 323/2/3
f 325/3/3 314/3/3 322/3/3
f 325/3/3 322/3/3 324/3/3
f 326/6/3 319/6/3 318/6/3
f 326/6/3 320/6/3 319/6/3
f 326/6/3 318/6/3 317/6/3
f 327/6/3 320/6/3 326/6/3
f 328/3/3 323/3/3 320/3/3
f 328/6/3 320/6/3 327/6/3
f 329/3/3 323/3/3 328/3/3
f 330/5/3 324/5/3 323/5/3
f 330/1/3 325/1/3 324/1/3
f 331/3/3 314/3/3 325/3/3
f 331/1/3 325/1/3 330/1/3
f 332/3/3 323/3/3 329/3/3
f 333/5/3 330/5/3 323/5/3
f 333/3/3 323/3/3 332/3/3
f 334/3/3 314/3/3 331/3/3
f 334/3/3 331/3/3 330/3/3
f 335/3/3 314/3/3 334/3/3
f 336/5/3 327/5/3 326/5/3
f 337/5/3 327/5/3 336/5/3
f 338/5/3 327/5/3 337/5/3
f 340/5/3 339/5/3 338/5/3
f 340/5/3 338/5/3 337/5/3
f 341/5/3 339/5/3 340/5/3
f 342/5/3 339/5/3 341/5/3
f 345/5/3 330/5/3 333/5/3
f 346/5/3 343/5/3 342/5/3
f 346/5/3 342/5/3 341/5/3
f 347/5/3 343/5/3 346/5/3
f 348/5/3 343/5/3 347/5/3
f 350/3/3 345/3/3 344/3/3
f 351/5/3 349/5/3 348/5/3
f 351/5/3 348/5/3 347/5/3
f 352/3/3 350/3/3 349/3/3
f 352/5/3 349/5/3 351/5/3
f 353/3/3 334/3/3 330/3/3
f 355/3/3 350/3/3 352/3/3
f 355/3/3 345/3/3 350/3/3
f 356/5/3 330/5/3 345/5/3
f 356/3/3 345/3/3 355/3/3
f 357/3/3 354/3/3 353/3/3
f 357/5/3 330/5/3 356/5/3
f 357/3/3 353/3/3 330/3/3
f 358/3/3 355/3/3 352/3/3
f 359/3/3 355/3/3 358/3/3
f 360/3/3 354/3/3 357/3/3
f 361/3/3 354/3/3 360/3/3
f 364/5/3 363/5/3 362/5/3
f 365/5/3 363/5/3 364/5/3
f 368/2/3 367/2/3 366/2/3
f 369/2/3 367/2/3 368/2/3
f 376/5/3 371/5/3 370/5/3
f 377/5/3 371/5/3 376/5/3
f 378/6/3 373/6/3 372/6/3
f 379/6/3 373/6/3 378/6/3
f 380/3/3 375/3/3 374/3/3
f 381/3/3 375/3/3 380/3/3
f 383/7/3 377/7/3 376/7/3
f 383/7/3 379/7/3 378/7/3
f 383/7/3 378/7/3 377/7/3
f 384/7/3 379/7/3 383/7/3
f 385/7/3 379/7/3 384/7/3
f 386/5/3 384/5/3 383/5/3
f 387/5/3 384/5/3 386/5/3
f 388/1/3 382/1/3 381/1/3
f 389/1/3 382/1/3 388/1/3
f 391/4/3 390/4/3 389/4/3
f 396/6/3 394/6/3 393/6/3
f 397/3/3 395/3/3 394/3/3
f 397/6/3 394/6/3 396/6/3
f 398/3/3 395/3/3 397/3/3
f 400/4/3 391/4/3 389/4/3
f 400/4/3 392/4/3 391/4/3
f 401/4/3 392/4/3 400/4/3
f 402/3/3 399/3/3 398/3/3
f 402/3/3 398/3/3 397/3/3
f 403/3/3 399/3/3 402/3/3
f 405/3/3 399/3/3 403/3/3
f 406/3/3 399/3/3 405/3/3
f 407/3/3 405/3/3 404/3/3
f 408/3/3 405/3/3 407/3/3
f 410/4/3 392/4/3 401/4/3
f 411/4/3 392/4/3 410/4/3
f 411/4/3 410/4/3 409/4/3
f 412/4/3 392/4/3 411/4/3
f 415/4/3 411/4/3 409/4/3
f 416/4/3 411/4/3 415/4/3
f 417/5/3 414/5/3 413/5/3
f 419/3/3 418/3/3 417/3/3
f 420/3/3 418/3/3 419/3/3
f 421/5/3 417/5/3 413/5/3
f 421/3/3 419/3/3 417/3/3
f 422/3/3 419/3/3 421/3/3
f 423/5/3 421/5/3 413/5/3
f 424/5/3 421/5/3 423/5/3
f 425/5/4 426/5/4 427/5/4
f 427/5/4 426/5/4 428/5/4
f 429/2/4 430/2/4 431/2/4
f 431/2/4 430/2/4 432/2/4
f 433/5/4 434/5/4 439/5/4
f 439/5/4 434/5/4 440/5/4
f 435/6/4 436/6/4 441/6/4
f 441/6/4 436/6/4 442/6/4
f 437/3/4 438/3/4 443/3/4
f 443/3/4 438/3/4 444/3/4
f 439/7/4 440/7/4 446/7/4
f 441/7/4 442/7/4 446/7/4
f 440/7/4 441/7/4 446/7/4
f 446/7/4 442/7/4 447/7/4
f 447/7/4 442/7/4 448/7/4
f 446/5/4 447/5/4 449/5/4
f 449/5/4 447/5/4 450/5/4
f 444/1/4 445/1/4 451/1/4
f 451/1/4 445/1/4 452/1/4
f 452/4/4 453/4/4 454/4/4
f 456/6/4 457/6/4 459/6/4
f 457/3/4 458/3/4 460/3/4
f 459/6/4 457/6/4 460/6/4
f 460/3/4 458/3/4 461/3/4
f 452/4/4 454/4/4 463/4/4
f 454/4/4 455/4/4 463/4/4
f 463/4/4 455/4/4 464/4/4
f 461/3/4 462/3/4 465/3/4
f 460/3/4 461/3/4 465/3/4
f 465/3/4 462/3/4 466/3/4
f 466/3/4 462/3/4 468/3/4
f 468/3/4 462/3/4 469/3/4
f 467/3/4 468/3/4 470/3/4
f 470/3/4 468/3/4 471/3/4
f 464/4/4 455/4/4 473/4/4
f 473/4/4 455/4/4 474/4/4
f 472/4/4 473/4/4 474/4/4
f 474/4/4 455/4/4 475/4/4
f 472/4/4 474/4/4 478/4/4
f 478/4/4 474/4/4 479/4/4
f 476/5/4 477/5/4 480/5/4
f 480/3/4 481/3/4 482/3/4
f 482/3/4 481/3/4 483/3/4
f 476/5/4 480/5/4 484/5/4
f 480/3/4 482/3/4 484/3/4
f 484/3/4 482/3/4 485/3/4
f 476/5/4 484/5/4 486/5/4
f 486/5/4 484/5/4 487/5/4
f 488/5/4 489/5/4 492/5/4
f 492/5/4 489/5/4 493/5/4
f 490/5/4 491/5/4 496/5/4
f 496/5/4 491/5/4 497/5/4
f 494/5/4 495/5/4 498/5/4
f 492/6/4 493/6/4 498/6/4
f 493/6/4 494/6/4 498/6/4
f 498/5/4 495/5/4 499/5/4
f 492/6/4 498/6/4 501/6/4
f 500/5/4 501/5/4 503/5/4
f 503/5/4 501/5/4 504/5/4
f 501/6/4 498/6/4 505/6/4
f 504/5/4 501/5/4 505/5/4
f 503/5/4 504/5/4 507/5/4
f 502/5/4 503/5/4 507/5/4
f 507/5/4 504/5/4 508/5/4
f 508/5/4 504/5/4 509/5/4
f 506/5/4 507/5/4 510/5/4
f 507/5/4 508/5/4 510/5/4
f 510/5/4 508/5/4 511/5/4
f 505/6/4 498/6/4 512/6/4
f 506/5/4 510/5/4 514/5/4
f 514/5/4 510/5/4 515/5/4
f 512/2/4 513/2/4 516/2/4
f 505/6/4 512/6/4 518/6/4
f 512/2/4 516/2/4 519/2/4
f 518/6/4 512/6/4 519/6/4
f 516/3/4 517/3/4 522/3/4
f 519/2/4 516/2/4 524/2/4
f 522/3/4 523/3/4 524/3/4
f 516/3/4 522/3/4 524/3/4
f 524/3/4 523/3/4 525/3/4
f 520/5/4 521/5/4 527/5/4
f 527/5/4 521/5/4 528/5/4
f 518/3/4 519/3/4 529/3/4
f 519/2/4 524/2/4 530/2/4
f 524/1/4 525/1/4 530/1/4
f 525/3/4 523/3/4 531/3/4
f 530/1/4 525/1/4 531/1/4
f 519/2/4 530/2/4 532/2/4
f 529/3/4 519/3/4 532/3/4
f 530/3/4 531/3/4 533/3/4
f 532/2/4 530/2/4 533/2/4
f 531/3/4 523/3/4 534/3/4
f 533/3/4 531/3/4 534/3/4
f 527/6/4 528/6/4 535/6/4
f 528/6/4 529/6/4 535/6/4
f 526/6/4 527/6/4 535/6/4
f 535/6/4 529/6/4 536/6/4
f 529/3/4 532/3/4 537/3/4
f 536/6/4 529/6/4 537/6/4
f 537/3/4 532/3/4 538/3/4
f 532/5/4 533/5/4 539/5/4
f 533/1/4 534/1/4 539/1/4
f 534/3/4 523/3/4 540/3/4
f 539/1/4 534/1/4 540/1/4
f 538/3/4 532/3/4 541/3/4
f 532/5/4 539/5/4 542/5/4
f 541/3/4 532/3/4 542/3/4
f 540/3/4 523/3/4 543/3/4
f 539/3/4 540/3/4 543/3/4
f 543/3/4 523/3/4 544/3/4
f 535/5/4 536/5/4 545/5/4
f 545/5/4 536/5/4 546/5/4
f 546/5/4 536/5/4 547/5/4
f 547/5/4 548/5/4 549/5/4
f 546/5/4 547/5/4 549/5/4
f 549/5/4 548/5/4 550/5/4
f 550/5/4 548/5/4 551/5/4
f 542/5/4 539/5/4 554/5/4
f 551/5/4 552/5/4 555/5/4
f 550/5/4 551/5/4 555/5/4
f 555/5/4 552/5/4 556/5/4
f 556/5/4 552/5/4 557/5/4
f 553/3/4 554/3/4 559/3/4
f 557/5/4 558/5/4 560/5/4
f 556/5/4 557/5/4 560/5/4
f 558/3/4 559/3/4 561/3/4
f 560/5/4 558/5/4 561/5/4
f 539/3/4 543/3/4 562/3/4
f 561/3/4 559/3/4 564/3/4
f 559/3/4 554/3/4 564/3/4
f 554/5/4 539/5/4 565/5/4
f 564/3/4 554/3/4 565/3/4
f 562/3/4 563/3/4 566/3/4
f 565/5/4 539/5/4 566/5/4
f 539/3/4 562/3/4 566/3/4
f 561/3/4 564/3/4 567/3/4
f 567/3/4 564/3/4 568/3/4
f 566/3/4 563/3/4 569/3/4
f 569/3/4 563/3/4 570/3/4
f 571/5/4 572/5/4 573/5/4
f 573/5/4 572/5/4 574/5/4
f 571/5/4 573/5/4 575/5/4
f 575/5/4 573/5/4 576/5/4
f 580/6/5 578/6/5 577/6/5
f 581/5/5 579/5/5 578/5/5
f 581/6/5 578/6/5 580/6/5
f 582/5/5 579/5/5 581/5/5
f 589/5/5 584/5/5 583/5/5
f 592/5/5 586/5/5 585/5/5
f 593/5/5 589/5/5 583/5/5
f 593/5/5 590/5/5 589/5/5
f 594/7/5 591/7/5 590/7/5
f 594/5/5 590/5/5 593/5/5
f 595/5/5 592/5/5 591/5/5
f 595/7/5 591/7/5 594/7/5
f 596/5/5 586/5/5 592/5/5
f 596/5/5 592/5/5 595/5/5
f 597/5/5 593/5/5 583/5/5
f 598/5/5 593/5/5 597/5/5
f 599/5/5 586/5/5 596/5/5
f 600/5/5 586/5/5 599/5/5
f 601/5/5 588/5/5 587/5/5
f 602/5/5 588/5/5 601/5/5
f 607/5/5 604/5/5 603/5/5
f 608/5/5 604/5/5 607/5/5
f 609/5/5 606/5/5 605/5/5
f 610/5/5 606/5/5 609/5/5
f 615/5/5 612/5/5 611/5/5
f 616/5/5 612/5/5 615/5/5
f 617/5/5 614/5/5 613/5/5
f 618/5/5 614/5/5 617/5/5
f 623/6/5 620/6/5 619/6/5
f 624/6/5 620/6/5 623/6/5
f 625/6/5 622/6/5 621/6/5
f 626/6/5 622/6/5 625/6/5
f 635/6/5 631/6/5 630/6/5
f 636/6/5 631/6/5 635/6/5
f 637/3/5 632/3/5 631/3/5
f 637/6/5 631/6/5 636/6/5
f 642/6/5 635/6/5 630/6/5
f 644/3/5 632/3/5 637/3/5
f 645/3/5 639/3/5 638/3/5
f 646/3/5 639/3/5 645/3/5
f 647/3/5 641/3/5 640/3/5
f 648/3/5 641/3/5 647/3/5
f 649/5/5 628/5/5 627/5/5
f 650/6/5 629/6/5 628/6/5
f 650/5/5 628/5/5 649/5/5
f 651/6/5 629/6/5 650/6/5
f 652/6/5 644/6/5 643/6/5
f 652/6/5 643/6/5 642/6/5
f 652/6/5 642/6/5 630/6/5
f 653/3/5 632/3/5 644/3/5
f 653/6/5 644/6/5 652/6/5
f 654/3/5 632/3/5 653/3/5
f 655/3/5 634/3/5 633/3/5
f 656/3/5 634/3/5 655/3/5
f 659/5/5 658/5/5 657/5/5
f 660/5/5 658/5/5 659/5/5
f 665/3/5 662/3/5 661/3/5
f 666/3/5 662/3/5 665/3/5
f 668/3/5 664/3/5 663/3/5
f 669/3/5 664/3/5 668/3/5
f 672/3/5 668/3/5 667/3/5
f 673/3/5 668/3/5 672/3/5
f 677/3/5 671/3/5 670/3/5
f 678/3/5 671/3/5 677/3/5
f 679/3/5 674/3/5 673/3/5
f 680/3/5 674/3/5 679/3/5
f 681/5/5 676/5/5 675/5/5
f 682/5/5 676/5/5 681/5/5
f 685/5/5 684/5/5 683/5/5
f 686/5/5 684/5/5 685/5/5
f 691/5/5 688/5/5 687/5/5
f 692/5/5 688/5/5 691/5/5
f 693/5/5 690/5/5 689/5/5
f 694/5/5 690/5/5 693/5/5
f 697/3/5 696/3/5 695/3/5
f 698/3/5 696/3/5 697/3/5
f 701/3/5 700/3/5 699/3/5
f 702/3/5 700/3/5 701/3/5
f 705/4/5 704/4/5 703/4/5
f 706/4/5 704/4/5 705/4/5
f 707/5/6 708/5/6 713/5/6
f 709/5/6 710/5/6 716/5/6
f 713/5/6 714/5/6 717/5/6
f 707/5/6 713/5/6 717/5/6
f 717/5/6 714/5/6 718/5/6
f 715/5/6 716/5/6 719/5/6
f 716/5/6 710/5/6 720/5/6
f 719/5/6 716/5/6 720/5/6
f 707/5/6 717/5/6 721/5/6
f 721/5/6 717/5/6 722/5/6
f 720/5/6 710/5/6 723/5/6
f 723/5/6 710/5/6 724/5/6
f 711/5/6 712/5/6 725/5/6
f 725/5/6 712/5/6 726/5/6
f 727/5/6 728/5/6 731/5/6
f 731/5/6 728/5/6 732/5/6
f 729/5/6 730/5/6 733/5/6
f 733/5/6 730/5/6 734/5/6
f 735/5/6 736/5/6 739/5/6
f 739/5/6 736/5/6 740/5/6
f 737/5/6 738/5/6 741/5/6
f 741/5/6 738/5/6 742/5/6
f 743/3/6 744/3/6 745/3/6
f 745/3/6 744/3/6 746/3/6
f 747/6/6 748/6/6 749/6/6
f 749/6/6 748/6/6 750/6/6
f 750/6/6 748/6/6 751/6/6
f 751/6/6 748/6/6 752/6/6
f 750/6/6 751/6/6 754/6/6
f 754/6/6 751/6/6 755/6/6
f 753/6/6 754/6/6 757/6/6
f 755/6/6 756/6/6 757/6/6
f 754/6/6 755/6/6 757/6/6
f 757/6/6 756/6/6 758/6/6
f 759/5/6 760/5/6 763/5/6
f 761/2/6 762/2/6 766/2/6
f 766/2/6 762/2/6 767/2/6
f 767/2/6 762/2/6 768/2/6
f 763/5/6 764/5/6 771/5/6
f 759/5/6 763/5/6 771/5/6
f 771/5/6 764/5/6 772/5/6
f 766/2/6 767/2/6 773/2/6
f 765/2/6 766/2/6 773/2/6
f 773/2/6 767/2/6 774/2/6
f 774/2/6 767/2/6 775/2/6
f 769/5/6 770/5/6 777/5/6
f 777/5/6 770/5/6 778/5/6
f 759/5/6 771/5/6 779/5/6
f 779/5/6 771/5/6 780/5/6
f 775/2/6 776/2/6 781/2/6
f 774/2/6 775/2/6 781/2/6
f 781/2/6 776/2/6 782/2/6
f 783/5/6 784/5/6 785/5/6
f 785/5/6 784/5/6 786/5/6
f 787/3/6 788/3/6 792/3/6
f 792/3/6 788/3/6 793/3/6
f 791/3/6 792/3/6 796/3/6
f 796/3/6 792/3/6 797/3/6
f 794/3/6 795/3/6 799/3/6
f 799/3/6 795/3/6 800/3/6
f 797/3/6 798/3/6 803/3/6
f 803/3/6 798/3/6 804/3/6
f 789/3/6 790/3/6 805/3/6
f 805/3/6 790/3/6 806/3/6
f 801/5/6 802/5/6 807/5/6
f 807/5/6 802/5/6 808/5/6
f 811/3/6 812/3/6 816/3/6
f 816/3/6 812/3/6 817/3/6
f 813/3/6 814/3/6 818/3/6
f 818/3/6 814/3/6 819/3/6
f 819/3/6 814/3/6 820/3/6
f 815/1/6 816/1/6 822/1/6
f 822/1/6 816/1/6 823/1/6
f 820/3/6 821/3/6 826/3/6
f 819/3/6 820/3/6 826/3/6
f 826/3/6 821/3/6 827/3/6
f 827/3/6 821/3/6 828/3/6
f 809/5/6 810/5/6 829/5/6
f 829/5/6 810/5/6 830/5/6
f 823/3/6 824/3/6 831/3/6
f 831/3/6 824/3/6 832/3/6
f 826/3/6 827/3/6 833/3/6
f 825/3/6 826/3/6 833/3/6
f 833/3/6 827/3/6 834/3/6
f 837/4/6 838/4/6 841/4/6
f 841/4/6 838/4/6 842/4/6
f 839/4/6 840/4/6 843/4/6
f 843/4/6 840/4/6 844/4/6
f 835/5/6 836/5/6 845/5/6
f 845/5/6 836/5/6 846/5/6
f 847/4/6 848/4/6 849/4/6
f 849/4/6 848/4/6 850/4/6
