# MagicaVoxel @ Ephtracy

# group
g blaster80

# material
mtllib blaster80.mtl
usemtl palette

# normals
vn -1 0 0
vn 1 0 0
vn 0 0 1
vn 0 0 -1
vn 0 -1 0
vn 0 1 0

# texcoords
vt 0.0449219 0.5
vt 0.705078 0.5
vt 0.712891 0.5
vt 0.716797 0.5
vt 0.958984 0.5
vt 0.966797 0.5
vt 0.978516 0.5
vt 0.982422 0.5

# verts
v -22 7 -3
v -22 7 -4
v -22 8 -3
v -22 8 -4
v -21 6 -2
v -21 6 -5
v -21 7 -3
v -21 7 -4
v -21 8 -3
v -21 8 -4
v -21 9 -2
v -21 9 -5
v -20 5 -3
v -20 5 -4
v -20 6 -3
v -20 6 -4
v -20 7 -1
v -20 7 -2
v -20 7 -5
v -20 7 -6
v -20 8 -1
v -20 8 -2
v -20 8 -5
v -20 8 -6
v -20 9 -3
v -20 9 -4
v -20 10 -3
v -20 10 -4
v -13 1 -3
v -13 1 -4
v -13 2 -3
v -13 2 -4
v -13 13 -3
v -13 13 -4
v -13 14 -3
v -13 14 -4
v -12 0 -3
v -12 0 -4
v -12 1 -2
v -12 1 -3
v -12 1 -4
v -12 1 -5
v -12 2 -2
v -12 2 -3
v -12 2 -4
v -12 2 -5
v -12 5 -2
v -12 5 -3
v -12 5 -4
v -12 5 -5
v -12 6 -3
v -12 6 -4
v -12 9 -3
v -12 9 -4
v -12 10 -2
v -12 10 -3
v -12 10 -4
v -12 10 -5
v -12 13 -2
v -12 13 -3
v -12 13 -4
v -12 13 -5
v -12 14 -2
v -12 14 -3
v -12 14 -4
v -12 14 -5
v -12 15 -3
v -12 15 -4
v -19 5 -3
v -19 5 -4
v -19 6 -2
v -19 6 -3
v -19 6 -4
v -19 6 -5
v -19 7 -1
v -19 7 -2
v -19 7 -5
v -19 7 -6
v -19 8 -1
v -19 8 -2
v -19 8 -5
v -19 8 -6
v -19 9 -2
v -19 9 -3
v -19 9 -4
v -19 9 -5
v -19 10 -3
v -19 10 -4
v -10 0 -3
v -10 0 -4
v -10 1 -2
v -10 1 -3
v -10 1 -4
v -10 1 -5
v -10 2 -2
v -10 2 -3
v -10 2 -4
v -10 2 -5
v -10 4 -3
v -10 4 -4
v -10 11 -3
v -10 11 -4
v -10 13 -2
v -10 13 -3
v -10 13 -4
v -10 13 -5
v -10 14 -2
v -10 14 -3
v -10 14 -4
v -10 14 -5
v -10 15 -3
v -10 15 -4
v -9 1 -3
v -9 1 -4
v -9 2 -3
v -9 2 -4
v -9 13 -3
v -9 13 -4
v -9 14 -3
v -9 14 -4
v 19 4 -3
v 19 4 -4
v 19 5 -2
v 19 5 -3
v 19 5 -4
v 19 5 -5
v 19 6 -2
v 19 6 -3
v 19 6 -4
v 19 6 -5
v 19 7 -2
v 19 7 -3
v 19 7 -4
v 19 7 -5
v 19 8 -2
v 19 8 -3
v 19 8 -4
v 19 8 -5
v 19 9 -2
v 19 9 -3
v 19 9 -4
v 19 9 -5
v 19 10 -2
v 19 10 -3
v 19 10 -4
v 19 10 -5
v 19 11 -3
v 19 11 -4
v 20 5 -3
v 20 5 -4
v 20 6 -3
v 20 6 -4
v 20 7 -2
v 20 7 -3
v 20 7 -4
v 20 7 -5
v 20 8 -2
v 20 8 -3
v 20 8 -4
v 20 8 -5
v 20 9 -3
v 20 9 -4
v 20 10 -3
v 20 10 -4
v 21 6 -3
v 21 6 -4
v 21 7 -3
v 21 7 -4
v 21 8 -3
v 21 8 -4
v 21 9 -3
v 21 9 -4
v 22 7 -3
v 22 7 -4
v 22 8 -3
v 22 8 -4
v -20 7 -1
v -20 8 -1
v -19 7 -1
v -19 8 -1
v -21 6 -2
v -21 9 -2
v -20 7 -2
v -20 8 -2
v -19 6 -2
v -19 7 -2
v -19 8 -2
v -19 9 -2
v -12 1 -2
v -12 2 -2
v -12 5 -2
v -12 10 -2
v -12 13 -2
v -12 14 -2
v -10 1 -2
v -10 2 -2
v -10 5 -2
v -10 6 -2
v -10 9 -2
v -10 10 -2
v -10 13 -2
v -10 14 -2
v -9 6 -2
v -9 7 -2
v -9 8 -2
v -9 9 -2
v 19 5 -2
v 19 6 -2
v 19 7 -2
v 19 8 -2
v 19 9 -2
v 19 10 -2
v 20 7 -2
v 20 8 -2
v -22 7 -3
v -22 8 -3
v -21 7 -3
v -21 8 -3
v -20 5 -3
v -20 6 -3
v -20 9 -3
v -20 10 -3
v -19 5 -3
v -19 6 -3
v -19 9 -3
v -19 10 -3
v -18 6 -3
v -18 9 -3
v -13 1 -3
v -13 2 -3
v -13 6 -3
v -13 9 -3
v -13 13 -3
v -13 14 -3
v -12 0 -3
v -12 1 -3
v -12 2 -3
v -12 5 -3
v -12 6 -3
v -12 9 -3
v -12 10 -3
v -12 13 -3
v -12 14 -3
v -12 15 -3
v -10 0 -3
v -10 1 -3
v -10 2 -3
v -10 4 -3
v -10 5 -3
v -10 10 -3
v -10 11 -3
v -10 13 -3
v -10 14 -3
v -10 15 -3
v -9 1 -3
v -9 2 -3
v -9 13 -3
v -9 14 -3
v 19 4 -3
v 19 5 -3
v 19 6 -3
v 19 7 -3
v 19 8 -3
v 19 9 -3
v 19 10 -3
v 19 11 -3
v 20 5 -3
v 20 6 -3
v 20 7 -3
v 20 8 -3
v 20 9 -3
v 20 10 -3
v 21 6 -3
v 21 7 -3
v 21 8 -3
v 21 9 -3
v 22 7 -3
v 22 8 -3
v -22 7 -4
v -22 8 -4
v -21 7 -4
v -21 8 -4
v -20 5 -4
v -20 6 -4
v -20 9 -4
v -20 10 -4
v -19 5 -4
v -19 6 -4
v -19 9 -4
v -19 10 -4
v -18 6 -4
v -18 9 -4
v -13 1 -4
v -13 2 -4
v -13 6 -4
v -13 9 -4
v -13 13 -4
v -13 14 -4
v -12 0 -4
v -12 1 -4
v -12 2 -4
v -12 5 -4
v -12 6 -4
v -12 9 -4
v -12 10 -4
v -12 13 -4
v -12 14 -4
v -12 15 -4
v -10 0 -4
v -10 1 -4
v -10 2 -4
v -10 4 -4
v -10 5 -4
v -10 10 -4
v -10 11 -4
v -10 13 -4
v -10 14 -4
v -10 15 -4
v -9 1 -4
v -9 2 -4
v -9 13 -4
v -9 14 -4
v 19 4 -4
v 19 5 -4
v 19 6 -4
v 19 7 -4
v 19 8 -4
v 19 9 -4
v 19 10 -4
v 19 11 -4
v 20 5 -4
v 20 6 -4
v 20 7 -4
v 20 8 -4
v 20 9 -4
v 20 10 -4
v 21 6 -4
v 21 7 -4
v 21 8 -4
v 21 9 -4
v 22 7 -4
v 22 8 -4
v -21 6 -5
v -21 9 -5
v -20 7 -5
v -20 8 -5
v -19 6 -5
v -19 7 -5
v -19 8 -5
v -19 9 -5
v -12 1 -5
v -12 2 -5
v -12 5 -5
v -12 10 -5
v -12 13 -5
v -12 14 -5
v -10 1 -5
v -10 2 -5
v -10 5 -5
v -10 6 -5
v -10 9 -5
v -10 10 -5
v -10 13 -5
v -10 14 -5
v -9 6 -5
v -9 7 -5
v -9 8 -5
v -9 9 -5
v 19 5 -5
v 19 6 -5
v 19 7 -5
v 19 8 -5
v 19 9 -5
v 19 10 -5
v 20 7 -5
v 20 8 -5
v -20 7 -6
v -20 8 -6
v -19 7 -6
v -19 8 -6
v -12 0 -3
v -10 0 -3
v -12 0 -4
v -10 0 -4
v -12 1 -2
v -10 1 -2
v -13 1 -3
v -12 1 -3
v -10 1 -3
v -9 1 -3
v -13 1 -4
v -12 1 -4
v -10 1 -4
v -9 1 -4
v -12 1 -5
v -10 1 -5
v -10 4 -3
v 19 4 -3
v -10 4 -4
v 19 4 -4
v -12 5 -2
v -10 5 -2
v 19 5 -2
v -20 5 -3
v -19 5 -3
v -12 5 -3
v -10 5 -3
v 19 5 -3
v 20 5 -3
v -20 5 -4
v -19 5 -4
v -12 5 -4
v -10 5 -4
v 19 5 -4
v 20 5 -4
v -12 5 -5
v -10 5 -5
v 19 5 -5
v -21 6 -2
v -19 6 -2
v -20 6 -3
v -19 6 -3
v -18 6 -3
v -13 6 -3
v -12 6 -3
v 20 6 -3
v 21 6 -3
v -20 6 -4
v -19 6 -4
v -18 6 -4
v -13 6 -4
v -12 6 -4
v 20 6 -4
v 21 6 -4
v -21 6 -5
v -19 6 -5
v -20 7 -1
v -19 7 -1
v -20 7 -2
v -19 7 -2
v 19 7 -2
v 20 7 -2
v -22 7 -3
v -21 7 -3
v 19 7 -3
v 20 7 -3
v 21 7 -3
v 22 7 -3
v -22 7 -4
v -21 7 -4
v 19 7 -4
v 20 7 -4
v 21 7 -4
v 22 7 -4
v -20 7 -5
v -19 7 -5
v 19 7 -5
v 20 7 -5
v -20 7 -6
v -19 7 -6
v -12 13 -2
v -10 13 -2
v -13 13 -3
v -12 13 -3
v -10 13 -3
v -9 13 -3
v -13 13 -4
v -12 13 -4
v -10 13 -4
v -9 13 -4
v -12 13 -5
v -10 13 -5
v -12 2 -2
v -10 2 -2
v -13 2 -3
v -12 2 -3
v -10 2 -3
v -9 2 -3
v -13 2 -4
v -12 2 -4
v -10 2 -4
v -9 2 -4
v -12 2 -5
v -10 2 -5
v -20 8 -1
v -19 8 -1
v -20 8 -2
v -19 8 -2
v 19 8 -2
v 20 8 -2
v -22 8 -3
v -21 8 -3
v 19 8 -3
v 20 8 -3
v 21 8 -3
v 22 8 -3
v -22 8 -4
v -21 8 -4
v 19 8 -4
v 20 8 -4
v 21 8 -4
v 22 8 -4
v -20 8 -5
v -19 8 -5
v 19 8 -5
v 20 8 -5
v -20 8 -6
v -19 8 -6
v -21 9 -2
v -19 9 -2
v -20 9 -3
v -19 9 -3
v -18 9 -3
v -13 9 -3
v -12 9 -3
v 20 9 -3
v 21 9 -3
v -20 9 -4
v -19 9 -4
v -18 9 -4
v -13 9 -4
v -12 9 -4
v 20 9 -4
v 21 9 -4
v -21 9 -5
v -19 9 -5
v -12 10 -2
v -10 10 -2
v 19 10 -2
v -20 10 -3
v -19 10 -3
v -12 10 -3
v -10 10 -3
v 19 10 -3
v 20 10 -3
v -20 10 -4
v -19 10 -4
v -12 10 -4
v -10 10 -4
v 19 10 -4
v 20 10 -4
v -12 10 -5
v -10 10 -5
v 19 10 -5
v -10 11 -3
v 19 11 -3
v -10 11 -4
v 19 11 -4
v -12 14 -2
v -10 14 -2
v -13 14 -3
v -12 14 -3
v -10 14 -3
v -9 14 -3
v -13 14 -4
v -12 14 -4
v -10 14 -4
v -9 14 -4
v -12 14 -5
v -10 14 -5
v -12 15 -3
v -10 15 -3
v -12 15 -4
v -10 15 -4

# faces
f 3/1/1 2/1/1 1/1/1
f 4/1/1 2/1/1 3/1/1
f 7/1/1 6/1/1 5/1/1
f 8/1/1 6/1/1 7/1/1
f 9/1/1 7/1/1 5/1/1
f 10/1/1 6/1/1 8/1/1
f 11/1/1 9/1/1 5/1/1
f 11/1/1 10/1/1 9/1/1
f 12/1/1 6/1/1 10/1/1
f 12/1/1 10/1/1 11/1/1
f 15/1/1 14/1/1 13/1/1
f 16/1/1 14/1/1 15/1/1
f 21/1/1 18/1/1 17/1/1
f 22/1/1 18/1/1 21/1/1
f 23/1/1 20/1/1 19/1/1
f 24/1/1 20/1/1 23/1/1
f 27/1/1 26/1/1 25/1/1
f 28/1/1 26/1/1 27/1/1
f 31/7/1 30/7/1 29/7/1
f 32/7/1 30/7/1 31/7/1
f 35/7/1 34/7/1 33/7/1
f 36/7/1 34/7/1 35/7/1
f 40/7/1 38/7/1 37/7/1
f 41/7/1 38/7/1 40/7/1
f 43/7/1 40/7/1 39/7/1
f 44/7/1 40/7/1 43/7/1
f 45/7/1 42/7/1 41/7/1
f 46/7/1 42/7/1 45/7/1
f 48/7/1 45/7/1 44/7/1
f 49/7/1 45/7/1 48/7/1
f 51/7/1 48/7/1 47/7/1
f 51/7/1 50/7/1 49/7/1
f 51/7/1 49/7/1 48/7/1
f 52/7/1 50/7/1 51/7/1
f 53/7/1 51/7/1 47/7/1
f 54/7/1 50/7/1 52/7/1
f 55/7/1 53/7/1 47/7/1
f 55/7/1 54/7/1 53/7/1
f 56/7/1 54/7/1 55/7/1
f 57/7/1 50/7/1 54/7/1
f 57/7/1 54/7/1 56/7/1
f 58/7/1 50/7/1 57/7/1
f 60/7/1 57/7/1 56/7/1
f 61/7/1 57/7/1 60/7/1
f 63/7/1 60/7/1 59/7/1
f 64/7/1 60/7/1 63/7/1
f 65/7/1 62/7/1 61/7/1
f 66/7/1 62/7/1 65/7/1
f 67/7/1 65/7/1 64/7/1
f 68/7/1 65/7/1 67/7/1
f 69/1/2 70/1/2 72/1/2
f 72/1/2 70/1/2 73/1/2
f 71/1/2 72/1/2 76/1/2
f 73/1/2 74/1/2 77/1/2
f 75/1/2 76/1/2 79/1/2
f 76/1/2 72/1/2 80/1/2
f 79/1/2 76/1/2 80/1/2
f 77/1/2 78/1/2 81/1/2
f 73/1/2 77/1/2 81/1/2
f 81/1/2 78/1/2 82/1/2
f 80/1/2 72/1/2 83/1/2
f 83/1/2 72/1/2 84/1/2
f 73/1/2 81/1/2 85/1/2
f 85/1/2 81/1/2 86/1/2
f 84/1/2 85/1/2 87/1/2
f 87/1/2 85/1/2 88/1/2
f 89/7/2 90/7/2 92/7/2
f 92/7/2 90/7/2 93/7/2
f 91/7/2 92/7/2 95/7/2
f 95/7/2 92/7/2 96/7/2
f 93/7/2 94/7/2 97/7/2
f 97/7/2 94/7/2 98/7/2
f 96/7/2 97/7/2 99/7/2
f 99/7/2 97/7/2 100/7/2
f 101/7/2 102/7/2 104/7/2
f 104/7/2 102/7/2 105/7/2
f 103/7/2 104/7/2 107/7/2
f 107/7/2 104/7/2 108/7/2
f 105/7/2 106/7/2 109/7/2
f 109/7/2 106/7/2 110/7/2
f 108/7/2 109/7/2 111/7/2
f 111/7/2 109/7/2 112/7/2
f 113/7/2 114/7/2 115/7/2
f 115/7/2 114/7/2 116/7/2
f 117/7/2 118/7/2 119/7/2
f 119/7/2 118/7/2 120/7/2
f 121/2/2 122/2/2 124/2/2
f 124/2/2 122/2/2 125/2/2
f 123/3/2 124/3/2 127/3/2
f 127/3/2 124/3/2 128/3/2
f 125/3/2 126/3/2 129/3/2
f 129/3/2 126/3/2 130/3/2
f 127/4/2 128/4/2 131/4/2
f 131/4/2 128/4/2 132/4/2
f 129/4/2 130/4/2 133/4/2
f 133/4/2 130/4/2 134/4/2
f 135/4/2 136/4/2 139/4/2
f 139/4/2 136/4/2 140/4/2
f 137/4/2 138/4/2 141/4/2
f 141/4/2 138/4/2 142/4/2
f 139/3/2 140/3/2 143/3/2
f 143/3/2 140/3/2 144/3/2
f 141/3/2 142/3/2 145/3/2
f 145/3/2 142/3/2 146/3/2
f 144/2/2 145/2/2 147/2/2
f 147/2/2 145/2/2 148/2/2
f 149/2/2 150/2/2 151/2/2
f 151/2/2 150/2/2 152/2/2
f 153/5/2 154/5/2 157/5/2
f 157/5/2 154/5/2 158/5/2
f 155/5/2 156/5/2 159/5/2
f 159/5/2 156/5/2 160/5/2
f 161/2/2 162/2/2 163/2/2
f 163/2/2 162/2/2 164/2/2
f 165/2/2 166/2/2 167/2/2
f 167/2/2 166/2/2 168/2/2
f 169/2/2 170/2/2 171/2/2
f 171/2/2 170/2/2 172/2/2
f 173/2/2 174/2/2 175/2/2
f 175/2/2 174/2/2 176/2/2
f 179/1/3 178/1/3 177/1/3
f 180/1/3 178/1/3 179/1/3
f 183/1/3 182/1/3 181/1/3
f 184/1/3 182/1/3 183/1/3
f 185/1/3 183/1/3 181/1/3
f 186/1/3 183/1/3 185/1/3
f 187/1/3 182/1/3 184/1/3
f 188/1/3 182/1/3 187/1/3
f 195/7/3 190/7/3 189/7/3
f 196/7/3 190/7/3 195/7/3
f 197/7/3 192/7/3 191/7/3
f 198/7/3 192/7/3 197/7/3
f 199/7/3 192/7/3 198/7/3
f 200/7/3 192/7/3 199/7/3
f 201/7/3 194/7/3 193/7/3
f 202/7/3 194/7/3 201/7/3
f 203/3/3 198/3/3 197/3/3
f 203/5/3 199/5/3 198/5/3
f 204/5/3 199/5/3 203/5/3
f 205/5/3 199/5/3 204/5/3
f 206/3/3 200/3/3 199/3/3
f 206/5/3 199/5/3 205/5/3
f 207/3/3 203/3/3 197/3/3
f 208/4/3 204/4/3 203/4/3
f 208/3/3 203/3/3 207/3/3
f 209/5/3 205/5/3 204/5/3
f 209/4/3 204/4/3 208/4/3
f 210/4/3 206/4/3 205/4/3
f 210/5/3 205/5/3 209/5/3
f 211/3/3 200/3/3 206/3/3
f 211/4/3 206/4/3 210/4/3
f 212/3/3 200/3/3 211/3/3
f 213/5/3 210/5/3 209/5/3
f 214/5/3 210/5/3 213/5/3
f 217/1/3 216/1/3 215/1/3
f 218/1/3 216/1/3 217/1/3
f 223/1/3 220/1/3 219/1/3
f 224/1/3 220/1/3 223/1/3
f 225/1/3 222/1/3 221/1/3
f 226/1/3 222/1/3 225/1/3
f 227/8/3 225/8/3 224/8/3
f 228/8/3 225/8/3 227/8/3
f 231/6/3 228/6/3 227/6/3
f 232/6/3 228/6/3 231/6/3
f 236/7/3 230/7/3 229/7/3
f 237/7/3 230/7/3 236/7/3
f 239/8/3 232/8/3 231/8/3
f 240/8/3 232/8/3 239/8/3
f 242/7/3 234/7/3 233/7/3
f 243/7/3 234/7/3 242/7/3
f 245/7/3 236/7/3 235/7/3
f 246/7/3 236/7/3 245/7/3
f 247/7/3 238/7/3 237/7/3
f 248/7/3 238/7/3 247/7/3
f 249/7/3 238/7/3 248/7/3
f 250/7/3 242/7/3 241/7/3
f 251/7/3 242/7/3 250/7/3
f 252/7/3 242/7/3 251/7/3
f 253/7/3 244/7/3 243/7/3
f 254/7/3 244/7/3 253/7/3
f 255/7/3 247/7/3 246/7/3
f 256/7/3 247/7/3 255/7/3
f 257/7/3 253/7/3 252/7/3
f 258/7/3 253/7/3 257/7/3
f 259/2/3 249/2/3 248/2/3
f 260/2/3 249/2/3 259/2/3
f 265/2/3 251/2/3 250/2/3
f 266/2/3 251/2/3 265/2/3
f 267/2/3 261/2/3 260/2/3
f 268/3/3 262/3/3 261/3/3
f 268/2/3 261/2/3 267/2/3
f 269/3/3 262/3/3 268/3/3
f 270/3/3 264/3/3 263/3/3
f 271/2/3 265/2/3 264/2/3
f 271/3/3 264/3/3 270/3/3
f 272/2/3 265/2/3 271/2/3
f 273/2/3 269/2/3 268/2/3
f 274/3/3 270/3/3 269/3/3
f 274/2/3 269/2/3 273/2/3
f 275/2/3 271/2/3 270/2/3
f 275/3/3 270/3/3 274/3/3
f 276/2/3 271/2/3 275/2/3
f 277/2/3 275/2/3 274/2/3
f 278/2/3 275/2/3 277/2/3
f 279/1/4 280/1/4 281/1/4
f 281/1/4 280/1/4 282/1/4
f 283/1/4 284/1/4 287/1/4
f 287/1/4 284/1/4 288/1/4
f 285/1/4 286/1/4 289/1/4
f 289/1/4 286/1/4 290/1/4
f 288/8/4 289/8/4 291/8/4
f 291/8/4 289/8/4 292/8/4
f 291/6/4 292/6/4 295/6/4
f 295/6/4 292/6/4 296/6/4
f 293/7/4 294/7/4 300/7/4
f 300/7/4 294/7/4 301/7/4
f 295/8/4 296/8/4 303/8/4
f 303/8/4 296/8/4 304/8/4
f 297/7/4 298/7/4 306/7/4
f 306/7/4 298/7/4 307/7/4
f 299/7/4 300/7/4 309/7/4
f 309/7/4 300/7/4 310/7/4
f 301/7/4 302/7/4 311/7/4
f 311/7/4 302/7/4 312/7/4
f 312/7/4 302/7/4 313/7/4
f 305/7/4 306/7/4 314/7/4
f 314/7/4 306/7/4 315/7/4
f 315/7/4 306/7/4 316/7/4
f 307/7/4 308/7/4 317/7/4
f 317/7/4 308/7/4 318/7/4
f 310/7/4 311/7/4 319/7/4
f 319/7/4 311/7/4 320/7/4
f 316/7/4 317/7/4 321/7/4
f 321/7/4 317/7/4 322/7/4
f 312/2/4 313/2/4 323/2/4
f 323/2/4 313/2/4 324/2/4
f 314/2/4 315/2/4 329/2/4
f 329/2/4 315/2/4 330/2/4
f 324/2/4 325/2/4 331/2/4
f 325/3/4 326/3/4 332/3/4
f 331/2/4 325/2/4 332/2/4
f 332/3/4 326/3/4 333/3/4
f 327/3/4 328/3/4 334/3/4
f 328/2/4 329/2/4 335/2/4
f 334/3/4 328/3/4 335/3/4
f 335/2/4 329/2/4 336/2/4
f 332/2/4 333/2/4 337/2/4
f 333/3/4 334/3/4 338/3/4
f 337/2/4 333/2/4 338/2/4
f 334/2/4 335/2/4 339/2/4
f 338/3/4 334/3/4 339/3/4
f 339/2/4 335/2/4 340/2/4
f 338/2/4 339/2/4 341/2/4
f 341/2/4 339/2/4 342/2/4
f 343/1/4 344/1/4 345/1/4
f 345/1/4 344/1/4 346/1/4
f 343/1/4 345/1/4 347/1/4
f 347/1/4 345/1/4 348/1/4
f 346/1/4 344/1/4 349/1/4
f 349/1/4 344/1/4 350/1/4
f 351/7/4 352/7/4 357/7/4
f 357/7/4 352/7/4 358/7/4
f 353/7/4 354/7/4 359/7/4
f 359/7/4 354/7/4 360/7/4
f 360/7/4 354/7/4 361/7/4
f 361/7/4 354/7/4 362/7/4
f 355/7/4 356/7/4 363/7/4
f 363/7/4 356/7/4 364/7/4
f 359/3/4 360/3/4 365/3/4
f 360/5/4 361/5/4 365/5/4
f 365/5/4 361/5/4 366/5/4
f 366/5/4 361/5/4 367/5/4
f 361/3/4 362/3/4 368/3/4
f 367/5/4 361/5/4 368/5/4
f 359/3/4 365/3/4 369/3/4
f 365/4/4 366/4/4 370/4/4
f 369/3/4 365/3/4 370/3/4
f 366/5/4 367/5/4 371/5/4
f 370/4/4 366/4/4 371/4/4
f 367/4/4 368/4/4 372/4/4
f 371/5/4 367/5/4 372/5/4
f 368/3/4 362/3/4 373/3/4
f 372/4/4 368/4/4 373/4/4
f 373/3/4 362/3/4 374/3/4
f 371/5/4 372/5/4 375/5/4
f 375/5/4 372/5/4 376/5/4
f 377/1/4 378/1/4 379/1/4
f 379/1/4 378/1/4 380/1/4
f 383/7/5 382/7/5 381/7/5
f 384/7/5 382/7/5 383/7/5
f 388/7/5 386/7/5 385/7/5
f 389/7/5 386/7/5 388/7/5
f 391/7/5 388/7/5 387/7/5
f 392/7/5 388/7/5 391/7/5
f 393/7/5 390/7/5 389/7/5
f 394/7/5 390/7/5 393/7/5
f 395/7/5 393/7/5 392/7/5
f 396/7/5 393/7/5 395/7/5
f 399/2/5 398/2/5 397/2/5
f 400/2/5 398/2/5 399/2/5
f 406/7/5 402/7/5 401/7/5
f 407/3/5 403/3/5 402/3/5
f 407/7/5 402/7/5 406/7/5
f 408/3/5 403/3/5 407/3/5
f 410/1/5 405/1/5 404/1/5
f 411/1/5 405/1/5 410/1/5
f 414/2/5 409/2/5 408/2/5
f 415/2/5 409/2/5 414/2/5
f 416/7/5 413/7/5 412/7/5
f 417/3/5 414/3/5 413/3/5
f 417/7/5 413/7/5 416/7/5
f 418/3/5 414/3/5 417/3/5
f 421/1/5 420/1/5 419/1/5
f 422/1/5 420/1/5 421/1/5
f 428/1/5 421/1/5 419/1/5
f 429/8/5 423/8/5 422/8/5
f 430/6/5 424/6/5 423/6/5
f 430/8/5 423/8/5 429/8/5
f 431/8/5 425/8/5 424/8/5
f 431/6/5 424/6/5 430/6/5
f 432/8/5 425/8/5 431/8/5
f 433/2/5 427/2/5 426/2/5
f 434/2/5 427/2/5 433/2/5
f 435/1/5 428/1/5 419/1/5
f 435/1/5 429/1/5 428/1/5
f 436/1/5 429/1/5 435/1/5
f 439/1/5 438/1/5 437/1/5
f 440/1/5 438/1/5 439/1/5
f 445/5/5 442/5/5 441/5/5
f 446/5/5 442/5/5 445/5/5
f 449/1/5 444/1/5 443/1/5
f 450/1/5 444/1/5 449/1/5
f 453/2/5 448/2/5 447/2/5
f 454/2/5 448/2/5 453/2/5
f 457/5/5 452/5/5 451/5/5
f 458/5/5 452/5/5 457/5/5
f 459/1/5 456/1/5 455/1/5
f 460/1/5 456/1/5 459/1/5
f 464/7/5 462/7/5 461/7/5
f 465/7/5 462/7/5 464/7/5
f 467/7/5 464/7/5 463/7/5
f 468/7/5 464/7/5 467/7/5
f 469/7/5 466/7/5 465/7/5
f 470/7/5 466/7/5 469/7/5
f 471/7/5 469/7/5 468/7/5
f 472/7/5 469/7/5 471/7/5
f 473/7/6 474/7/6 476/7/6
f 476/7/6 474/7/6 477/7/6
f 475/7/6 476/7/6 479/7/6
f 479/7/6 476/7/6 480/7/6
f 477/7/6 478/7/6 481/7/6
f 481/7/6 478/7/6 482/7/6
f 480/7/6 481/7/6 483/7/6
f 483/7/6 481/7/6 484/7/6
f 485/1/6 486/1/6 487/1/6
f 487/1/6 486/1/6 488/1/6
f 489/5/6 490/5/6 493/5/6
f 493/5/6 490/5/6 494/5/6
f 491/1/6 492/1/6 497/1/6
f 497/1/6 492/1/6 498/1/6
f 495/2/6 496/2/6 501/2/6
f 501/2/6 496/2/6 502/2/6
f 499/5/6 500/5/6 505/5/6
f 505/5/6 500/5/6 506/5/6
f 503/1/6 504/1/6 507/1/6
f 507/1/6 504/1/6 508/1/6
f 509/1/6 510/1/6 511/1/6
f 511/1/6 510/1/6 512/1/6
f 509/1/6 511/1/6 518/1/6
f 512/8/6 513/8/6 519/8/6
f 513/6/6 514/6/6 520/6/6
f 519/8/6 513/8/6 520/8/6
f 514/8/6 515/8/6 521/8/6
f 520/6/6 514/6/6 521/6/6
f 521/8/6 515/8/6 522/8/6
f 516/2/6 517/2/6 523/2/6
f 523/2/6 517/2/6 524/2/6
f 509/1/6 518/1/6 525/1/6
f 518/1/6 519/1/6 525/1/6
f 525/1/6 519/1/6 526/1/6
f 527/7/6 528/7/6 532/7/6
f 528/3/6 529/3/6 533/3/6
f 532/7/6 528/7/6 533/7/6
f 533/3/6 529/3/6 534/3/6
f 530/1/6 531/1/6 536/1/6
f 536/1/6 531/1/6 537/1/6
f 534/2/6 535/2/6 540/2/6
f 540/2/6 535/2/6 541/2/6
f 538/7/6 539/7/6 542/7/6
f 539/3/6 540/3/6 543/3/6
f 542/7/6 539/7/6 543/7/6
f 543/3/6 540/3/6 544/3/6
f 545/2/6 546/2/6 547/2/6
f 547/2/6 546/2/6 548/2/6
f 549/7/6 550/7/6 552/7/6
f 552/7/6 550/7/6 553/7/6
f 551/7/6 552/7/6 555/7/6
f 555/7/6 552/7/6 556/7/6
f 553/7/6 554/7/6 557/7/6
f 557/7/6 554/7/6 558/7/6
f 556/7/6 557/7/6 559/7/6
f 559/7/6 557/7/6 560/7/6
f 561/7/6 562/7/6 563/7/6
f 563/7/6 562/7/6 564/7/6
