# MagicaVoxel @ Ephtracy

# group
g blaster51

# material
mtllib blaster51.mtl
usemtl palette

# normals
vn -1 0 0
vn 1 0 0
vn 0 0 1
vn 0 0 -1
vn 0 -1 0
vn 0 1 0

# texcoords
vt 0.0917969 0.5
vt 0.970703 0.5
vt 0.974609 0.5
vt 0.986328 0.5

# verts
v -14 4 -0
v -14 4 -3
v -14 10 -0
v -14 10 -3
v -13 10 -0
v -13 10 -3
v -13 11 -0
v -13 11 -3
v -12 3 -0
v -12 3 -3
v -12 4 -0
v -12 4 -3
v -12 11 -0
v -12 11 -3
v -12 12 -0
v -12 12 -3
v -11 1 -0
v -11 1 -3
v -11 3 -0
v -11 3 -3
v -11 12 -0
v -11 12 -3
v -11 14 -0
v -11 14 -3
v -10 0 -0
v -10 0 -3
v -10 1 -0
v -10 1 -3
v -8 7 -0
v -8 7 -1
v -8 7 -2
v -8 7 -3
v -8 8 -0
v -8 8 -1
v -8 8 -2
v -8 8 -3
v -7 2 -0
v -7 2 -3
v -7 5 -0
v -7 5 -3
v -7 7 -0
v -7 7 -3
v -6 12 -1
v -6 12 -2
v -6 13 -1
v -6 13 -2
v -4 12 -1
v -4 12 -2
v -4 13 -1
v -4 13 -2
v -2 7 -1
v -2 7 -2
v -2 8 -1
v -2 8 -2
v -2 12 -1
v -2 12 -2
v -2 13 -1
v -2 13 -2
v -1 6 -0
v -1 6 -1
v -1 6 -2
v -1 6 -3
v -1 7 -1
v -1 7 -2
v -1 8 -0
v -1 8 -1
v -1 8 -2
v -1 8 -3
v 0 12 -1
v 0 12 -2
v 0 13 -1
v 0 13 -2
v 2 12 -1
v 2 12 -2
v 2 13 -1
v 2 13 -2
v 4 12 -1
v 4 12 -2
v 4 13 -1
v 4 13 -2
v 5 5 -0
v 5 5 -3
v 5 6 -0
v 5 6 -3
v 11 12 -1
v 11 12 -2
v 11 14 -1
v 11 14 -2
v 15 13 -1
v 15 13 -2
v 15 14 -1
v 15 14 -2
v -13 6 -0
v -13 6 -1
v -13 6 -2
v -13 6 -3
v -13 7 -0
v -13 7 -1
v -13 7 -2
v -13 7 -3
v -11 5 -0
v -11 5 -3
v -11 6 -0
v -11 6 -1
v -11 6 -2
v -11 6 -3
v -11 7 -1
v -11 7 -2
v -10 4 -0
v -10 4 -3
v -10 5 -0
v -10 5 -3
v -10 7 -0
v -10 7 -1
v -10 7 -2
v -10 7 -3
v -10 8 -0
v -10 8 -1
v -10 8 -2
v -10 8 -3
v -10 13 -0
v -10 13 -3
v -10 14 -0
v -10 14 -3
v -9 2 -0
v -9 2 -3
v -9 4 -0
v -9 4 -3
v -7 12 -0
v -7 12 -3
v -7 13 -0
v -7 13 -3
v -6 0 -0
v -6 0 -1
v -6 0 -2
v -6 0 -3
v -6 2 -0
v -6 2 -1
v -6 2 -2
v -6 2 -3
v -5 0 -1
v -5 0 -2
v -5 2 -0
v -5 2 -1
v -5 2 -2
v -5 2 -3
v -5 4 -1
v -5 4 -2
v -5 5 -0
v -5 5 -1
v -5 5 -2
v -5 5 -3
v -5 6 -0
v -5 6 -3
v -5 8 -0
v -5 8 -3
v -5 12 -1
v -5 12 -2
v -5 13 -1
v -5 13 -2
v -4 4 -1
v -4 4 -2
v -4 5 -1
v -4 5 -2
v -3 5 -0
v -3 5 -1
v -3 5 -2
v -3 5 -3
v -3 6 -0
v -3 6 -1
v -3 6 -2
v -3 6 -3
v -3 12 -1
v -3 12 -2
v -3 13 -1
v -3 13 -2
v -1 12 -1
v -1 12 -2
v -1 13 -1
v -1 13 -2
v 0 5 -1
v 0 5 -2
v 0 6 -1
v 0 6 -2
v 1 12 -1
v 1 12 -2
v 1 13 -1
v 1 13 -2
v 3 12 -1
v 3 12 -2
v 3 13 -1
v 3 13 -2
v 5 12 -1
v 5 12 -2
v 5 13 -1
v 5 13 -2
v 12 5 -0
v 12 5 -3
v 12 6 -0
v 12 6 -3
v 12 13 -1
v 12 13 -2
v 12 14 -1
v 12 14 -2
v 16 12 -1
v 16 12 -2
v 16 14 -1
v 16 14 -2
v 17 8 -0
v 17 8 -3
v 17 9 -0
v 17 9 -3
v 19 6 -0
v 19 6 -1
v 19 6 -2
v 19 6 -3
v 19 7 -1
v 19 7 -2
v 19 8 -0
v 19 8 -3
v 19 9 -0
v 19 9 -3
v 19 10 -1
v 19 10 -2
v 19 11 -1
v 19 11 -2
v 19 12 -0
v 19 12 -3
v 20 6 -1
v 20 6 -2
v 20 7 -1
v 20 7 -2
v 20 10 -1
v 20 10 -2
v 20 11 -1
v 20 11 -2
v -14 4 -0
v -14 10 -0
v -13 4 -0
v -13 6 -0
v -13 7 -0
v -13 10 -0
v -13 11 -0
v -12 3 -0
v -12 4 -0
v -12 10 -0
v -12 11 -0
v -12 12 -0
v -11 1 -0
v -11 3 -0
v -11 5 -0
v -11 6 -0
v -11 10 -0
v -11 11 -0
v -11 12 -0
v -11 14 -0
v -10 0 -0
v -10 1 -0
v -10 4 -0
v -10 5 -0
v -10 7 -0
v -10 8 -0
v -10 13 -0
v -10 14 -0
v -9 2 -0
v -9 4 -0
v -9 8 -0
v -9 10 -0
v -8 1 -0
v -8 2 -0
v -8 7 -0
v -8 8 -0
v -7 1 -0
v -7 2 -0
v -7 5 -0
v -7 7 -0
v -7 8 -0
v -7 9 -0
v -7 12 -0
v -7 13 -0
v -6 0 -0
v -6 2 -0
v -6 5 -0
v -6 9 -0
v -6 10 -0
v -5 2 -0
v -5 5 -0
v -5 6 -0
v -5 8 -0
v -5 9 -0
v -5 10 -0
v -4 9 -0
v -4 10 -0
v -3 5 -0
v -3 6 -0
v -3 9 -0
v -3 10 -0
v -2 9 -0
v -2 10 -0
v -1 6 -0
v -1 8 -0
v -1 9 -0
v -1 10 -0
v 0 9 -0
v 0 10 -0
v 1 9 -0
v 1 10 -0
v 3 9 -0
v 3 10 -0
v 5 5 -0
v 5 6 -0
v 12 5 -0
v 12 6 -0
v 17 6 -0
v 17 8 -0
v 17 9 -0
v 17 10 -0
v 17 12 -0
v 18 9 -0
v 18 10 -0
v 19 6 -0
v 19 8 -0
v 19 9 -0
v 19 12 -0
v -13 6 -1
v -13 7 -1
v -11 6 -1
v -11 7 -1
v -10 7 -1
v -10 8 -1
v -9 7 -1
v -9 8 -1
v -8 7 -1
v -8 8 -1
v -6 0 -1
v -6 2 -1
v -6 12 -1
v -6 13 -1
v -5 0 -1
v -5 2 -1
v -5 4 -1
v -5 5 -1
v -5 12 -1
v -5 13 -1
v -4 4 -1
v -4 5 -1
v -4 12 -1
v -4 13 -1
v -3 5 -1
v -3 6 -1
v -3 12 -1
v -3 13 -1
v -2 7 -1
v -2 8 -1
v -2 12 -1
v -2 13 -1
v -1 6 -1
v -1 7 -1
v -1 8 -1
v -1 12 -1
v -1 13 -1
v 0 5 -1
v 0 6 -1
v 0 12 -1
v 0 13 -1
v 1 12 -1
v 1 13 -1
v 2 12 -1
v 2 13 -1
v 3 12 -1
v 3 13 -1
v 4 12 -1
v 4 13 -1
v 5 12 -1
v 5 13 -1
v 11 12 -1
v 11 14 -1
v 12 13 -1
v 12 14 -1
v 15 13 -1
v 15 14 -1
v 16 12 -1
v 16 14 -1
v 19 6 -1
v 19 7 -1
v 19 10 -1
v 19 11 -1
v 20 6 -1
v 20 7 -1
v 20 10 -1
v 20 11 -1
v -13 6 -2
v -13 7 -2
v -11 6 -2
v -11 7 -2
v -10 7 -2
v -10 8 -2
v -9 7 -2
v -9 8 -2
v -8 7 -2
v -8 8 -2
v -6 0 -2
v -6 2 -2
v -6 12 -2
v -6 13 -2
v -5 0 -2
v -5 2 -2
v -5 4 -2
v -5 5 -2
v -5 12 -2
v -5 13 -2
v -4 4 -2
v -4 5 -2
v -4 12 -2
v -4 13 -2
v -3 5 -2
v -3 6 -2
v -3 12 -2
v -3 13 -2
v -2 7 -2
v -2 8 -2
v -2 12 -2
v -2 13 -2
v -1 6 -2
v -1 7 -2
v -1 8 -2
v -1 12 -2
v -1 13 -2
v 0 5 -2
v 0 6 -2
v 0 12 -2
v 0 13 -2
v 1 12 -2
v 1 13 -2
v 2 12 -2
v 2 13 -2
v 3 12 -2
v 3 13 -2
v 4 12 -2
v 4 13 -2
v 5 12 -2
v 5 13 -2
v 11 12 -2
v 11 14 -2
v 12 13 -2
v 12 14 -2
v 15 13 -2
v 15 14 -2
v 16 12 -2
v 16 14 -2
v 19 6 -2
v 19 7 -2
v 19 10 -2
v 19 11 -2
v 20 6 -2
v 20 7 -2
v 20 10 -2
v 20 11 -2
v -14 4 -3
v -14 10 -3
v -13 4 -3
v -13 6 -3
v -13 7 -3
v -13 10 -3
v -13 11 -3
v -12 3 -3
v -12 4 -3
v -12 10 -3
v -12 11 -3
v -12 12 -3
v -11 1 -3
v -11 3 -3
v -11 5 -3
v -11 6 -3
v -11 10 -3
v -11 11 -3
v -11 12 -3
v -11 14 -3
v -10 0 -3
v -10 1 -3
v -10 4 -3
v -10 5 -3
v -10 7 -3
v -10 8 -3
v -10 13 -3
v -10 14 -3
v -9 2 -3
v -9 4 -3
v -9 8 -3
v -9 10 -3
v -8 1 -3
v -8 2 -3
v -8 7 -3
v -8 8 -3
v -7 1 -3
v -7 2 -3
v -7 5 -3
v -7 7 -3
v -7 8 -3
v -7 9 -3
v -7 12 -3
v -7 13 -3
v -6 0 -3
v -6 2 -3
v -6 5 -3
v -6 9 -3
v -6 10 -3
v -5 2 -3
v -5 5 -3
v -5 6 -3
v -5 8 -3
v -5 9 -3
v -5 10 -3
v -4 9 -3
v -4 10 -3
v -3 5 -3
v -3 6 -3
v -3 9 -3
v -3 10 -3
v -2 9 -3
v -2 10 -3
v -1 6 -3
v -1 8 -3
v -1 9 -3
v -1 10 -3
v 0 9 -3
v 0 10 -3
v 1 9 -3
v 1 10 -3
v 3 9 -3
v 3 10 -3
v 5 5 -3
v 5 6 -3
v 12 5 -3
v 12 6 -3
v 17 6 -3
v 17 8 -3
v 17 9 -3
v 17 10 -3
v 17 12 -3
v 18 9 -3
v 18 10 -3
v 19 6 -3
v 19 8 -3
v 19 9 -3
v 19 12 -3
v -10 0 -0
v -6 0 -0
v -6 0 -1
v -5 0 -1
v -6 0 -2
v -5 0 -2
v -10 0 -3
v -6 0 -3
v -11 1 -0
v -10 1 -0
v -11 1 -3
v -10 1 -3
v -6 2 -0
v -5 2 -0
v -6 2 -1
v -5 2 -1
v -6 2 -2
v -5 2 -2
v -6 2 -3
v -5 2 -3
v -12 3 -0
v -11 3 -0
v -12 3 -3
v -11 3 -3
v -14 4 -0
v -13 4 -0
v -12 4 -0
v -5 4 -1
v -4 4 -1
v -5 4 -2
v -4 4 -2
v -14 4 -3
v -13 4 -3
v -12 4 -3
v -5 5 -0
v -3 5 -0
v 5 5 -0
v 12 5 -0
v -5 5 -1
v -4 5 -1
v -3 5 -1
v 0 5 -1
v -5 5 -2
v -4 5 -2
v -3 5 -2
v 0 5 -2
v -5 5 -3
v -3 5 -3
v 5 5 -3
v 12 5 -3
v -1 6 -0
v 5 6 -0
v 12 6 -0
v 17 6 -0
v 19 6 -0
v -1 6 -1
v 0 6 -1
v 19 6 -1
v 20 6 -1
v -1 6 -2
v 0 6 -2
v 19 6 -2
v 20 6 -2
v -1 6 -3
v 5 6 -3
v 12 6 -3
v 17 6 -3
v 19 6 -3
v -13 7 -0
v -10 7 -0
v -8 7 -0
v -7 7 -0
v -13 7 -1
v -11 7 -1
v -10 7 -1
v -9 7 -1
v -8 7 -1
v -2 7 -1
v -1 7 -1
v -13 7 -2
v -11 7 -2
v -10 7 -2
v -9 7 -2
v -8 7 -2
v -2 7 -2
v -1 7 -2
v -13 7 -3
v -10 7 -3
v -8 7 -3
v -7 7 -3
v -10 8 -0
v -9 8 -0
v -8 8 -0
v -5 8 -0
v -1 8 -0
v -10 8 -1
v -9 8 -1
v -8 8 -1
v -2 8 -1
v -1 8 -1
v -10 8 -2
v -9 8 -2
v -8 8 -2
v -2 8 -2
v -1 8 -2
v -10 8 -3
v -9 8 -3
v -8 8 -3
v -5 8 -3
v -1 8 -3
v 17 9 -0
v 18 9 -0
v 19 9 -0
v 17 9 -3
v 18 9 -3
v 19 9 -3
v 19 10 -1
v 20 10 -1
v 19 10 -2
v 20 10 -2
v -9 2 -0
v -8 2 -0
v -7 2 -0
v -9 2 -3
v -8 2 -3
v -7 2 -3
v -10 4 -0
v -9 4 -0
v -10 4 -3
v -9 4 -3
v -11 5 -0
v -10 5 -0
v -11 5 -3
v -10 5 -3
v -13 6 -0
v -11 6 -0
v -5 6 -0
v -3 6 -0
v -13 6 -1
v -11 6 -1
v -3 6 -1
v -1 6 -1
v -13 6 -2
v -11 6 -2
v -3 6 -2
v -1 6 -2
v -13 6 -3
v -11 6 -3
v -5 6 -3
v -3 6 -3
v 19 7 -1
v 20 7 -1
v 19 7 -2
v 20 7 -2
v 17 8 -0
v 19 8 -0
v 17 8 -3
v 19 8 -3
v -14 10 -0
v -13 10 -0
v -14 10 -3
v -13 10 -3
v -13 11 -0
v -12 11 -0
v 19 11 -1
v 20 11 -1
v 19 11 -2
v 20 11 -2
v -13 11 -3
v -12 11 -3
v -12 12 -0
v -11 12 -0
v -7 12 -0
v 17 12 -0
v 19 12 -0
v -6 12 -1
v -5 12 -1
v -4 12 -1
v -3 12 -1
v -2 12 -1
v -1 12 -1
v 0 12 -1
v 1 12 -1
v 2 12 -1
v 3 12 -1
v 4 12 -1
v 5 12 -1
v 11 12 -1
v 16 12 -1
v -6 12 -2
v -5 12 -2
v -4 12 -2
v -3 12 -2
v -2 12 -2
v -1 12 -2
v 0 12 -2
v 1 12 -2
v 2 12 -2
v 3 12 -2
v 4 12 -2
v 5 12 -2
v 11 12 -2
v 16 12 -2
v -12 12 -3
v -11 12 -3
v -7 12 -3
v 17 12 -3
v 19 12 -3
v -10 13 -0
v -7 13 -0
v -6 13 -1
v -5 13 -1
v -4 13 -1
v -3 13 -1
v -2 13 -1
v -1 13 -1
v 0 13 -1
v 1 13 -1
v 2 13 -1
v 3 13 -1
v 4 13 -1
v 5 13 -1
v 12 13 -1
v 15 13 -1
v -6 13 -2
v -5 13 -2
v -4 13 -2
v -3 13 -2
v -2 13 -2
v -1 13 -2
v 0 13 -2
v 1 13 -2
v 2 13 -2
v 3 13 -2
v 4 13 -2
v 5 13 -2
v 12 13 -2
v 15 13 -2
v -10 13 -3
v -7 13 -3
v -11 14 -0
v -10 14 -0
v 11 14 -1
v 12 14 -1
v 15 14 -1
v 16 14 -1
v 11 14 -2
v 12 14 -2
v 15 14 -2
v 16 14 -2
v -11 14 -3
v -10 14 -3

# faces
f 3/1/1 2/1/1 1/1/1
f 4/1/1 2/1/1 3/1/1
f 7/1/1 6/1/1 5/1/1
f 8/1/1 6/1/1 7/1/1
f 11/2/1 10/2/1 9/2/1
f 12/2/1 10/2/1 11/2/1
f 15/1/1 14/1/1 13/1/1
f 16/1/1 14/1/1 15/1/1
f 19/2/1 18/2/1 17/2/1
f 20/2/1 18/2/1 19/2/1
f 23/2/1 22/2/1 21/2/1
f 24/2/1 22/2/1 23/2/1
f 27/2/1 26/2/1 25/2/1
f 28/2/1 26/2/1 27/2/1
f 33/4/1 30/4/1 29/4/1
f 34/4/1 30/4/1 33/4/1
f 35/4/1 32/4/1 31/4/1
f 36/4/1 32/4/1 35/4/1
f 39/4/1 38/4/1 37/4/1
f 40/4/1 38/4/1 39/4/1
f 41/2/1 40/2/1 39/2/1
f 42/2/1 40/2/1 41/2/1
f 45/3/1 44/3/1 43/3/1
f 46/3/1 44/3/1 45/3/1
f 49/3/1 48/3/1 47/3/1
f 50/3/1 48/3/1 49/3/1
f 53/2/1 52/2/1 51/2/1
f 54/2/1 52/2/1 53/2/1
f 57/3/1 56/3/1 55/3/1
f 58/3/1 56/3/1 57/3/1
f 63/2/1 60/2/1 59/2/1
f 63/2/1 62/2/1 61/2/1
f 63/2/1 61/2/1 60/2/1
f 64/2/1 62/2/1 63/2/1
f 65/2/1 63/2/1 59/2/1
f 66/2/1 63/2/1 65/2/1
f 67/2/1 62/2/1 64/2/1
f 68/2/1 62/2/1 67/2/1
f 71/3/1 70/3/1 69/3/1
f 72/3/1 70/3/1 71/3/1
f 75/3/1 74/3/1 73/3/1
f 76/3/1 74/3/1 75/3/1
f 79/3/1 78/3/1 77/3/1
f 80/3/1 78/3/1 79/3/1
f 83/4/1 82/4/1 81/4/1
f 84/4/1 82/4/1 83/4/1
f 87/4/1 86/4/1 85/4/1
f 88/4/1 86/4/1 87/4/1
f 91/4/1 90/4/1 89/4/1
f 92/4/1 90/4/1 91/4/1
f 93/1/2 94/1/2 97/1/2
f 97/1/2 94/1/2 98/1/2
f 95/1/2 96/1/2 99/1/2
f 99/1/2 96/1/2 100/1/2
f 101/2/2 102/2/2 103/2/2
f 103/2/2 102/2/2 104/2/2
f 104/2/2 102/2/2 105/2/2
f 105/2/2 102/2/2 106/2/2
f 104/4/2 105/4/2 107/4/2
f 107/4/2 105/4/2 108/4/2
f 109/2/2 110/2/2 111/2/2
f 111/2/2 110/2/2 112/2/2
f 113/2/2 114/2/2 117/2/2
f 117/2/2 114/2/2 118/2/2
f 115/2/2 116/2/2 119/2/2
f 119/2/2 116/2/2 120/2/2
f 121/2/2 122/2/2 123/2/2
f 123/2/2 122/2/2 124/2/2
f 125/2/2 126/2/2 127/2/2
f 127/2/2 126/2/2 128/2/2
f 129/2/2 130/2/2 131/2/2
f 131/2/2 130/2/2 132/2/2
f 133/2/2 134/2/2 137/2/2
f 137/2/2 134/2/2 138/2/2
f 135/2/2 136/2/2 139/2/2
f 139/2/2 136/2/2 140/2/2
f 141/4/2 142/4/2 144/4/2
f 144/4/2 142/4/2 145/4/2
f 143/2/2 144/2/2 147/2/2
f 145/2/2 146/2/2 147/2/2
f 144/2/2 145/2/2 147/2/2
f 147/2/2 146/2/2 148/2/2
f 143/2/2 147/2/2 149/2/2
f 149/2/2 147/2/2 150/2/2
f 148/2/2 146/2/2 151/2/2
f 151/2/2 146/2/2 152/2/2
f 153/2/2 154/2/2 155/2/2
f 155/2/2 154/2/2 156/2/2
f 157/3/2 158/3/2 159/3/2
f 159/3/2 158/3/2 160/3/2
f 161/2/2 162/2/2 163/2/2
f 163/2/2 162/2/2 164/2/2
f 165/2/2 166/2/2 169/2/2
f 169/2/2 166/2/2 170/2/2
f 167/2/2 168/2/2 171/2/2
f 171/2/2 168/2/2 172/2/2
f 173/3/2 174/3/2 175/3/2
f 175/3/2 174/3/2 176/3/2
f 177/3/2 178/3/2 179/3/2
f 179/3/2 178/3/2 180/3/2
f 181/2/2 182/2/2 183/2/2
f 183/2/2 182/2/2 184/2/2
f 185/3/2 186/3/2 187/3/2
f 187/3/2 186/3/2 188/3/2
f 189/3/2 190/3/2 191/3/2
f 191/3/2 190/3/2 192/3/2
f 193/3/2 194/3/2 195/3/2
f 195/3/2 194/3/2 196/3/2
f 197/4/2 198/4/2 199/4/2
f 199/4/2 198/4/2 200/4/2
f 201/4/2 202/4/2 203/4/2
f 203/4/2 202/4/2 204/4/2
f 205/4/2 206/4/2 207/4/2
f 207/4/2 206/4/2 208/4/2
f 209/4/2 210/4/2 211/4/2
f 211/4/2 210/4/2 212/4/2
f 213/1/2 214/1/2 217/1/2
f 215/1/2 216/1/2 218/1/2
f 213/1/2 217/1/2 219/1/2
f 217/1/2 218/1/2 219/1/2
f 218/1/2 216/1/2 220/1/2
f 219/1/2 218/1/2 220/1/2
f 221/1/2 222/1/2 223/1/2
f 223/1/2 222/1/2 224/1/2
f 221/1/2 223/1/2 225/1/2
f 224/1/2 222/1/2 226/1/2
f 221/1/2 225/1/2 227/1/2
f 225/1/2 226/1/2 227/1/2
f 226/1/2 222/1/2 228/1/2
f 227/1/2 226/1/2 228/1/2
f 229/4/2 230/4/2 231/4/2
f 231/4/2 230/4/2 232/4/2
f 233/4/2 234/4/2 235/4/2
f 235/4/2 234/4/2 236/4/2
f 239/1/3 238/1/3 237/1/3
f 240/1/3 238/1/3 239/1/3
f 241/1/3 238/1/3 240/1/3
f 242/1/3 238/1/3 241/1/3
f 245/2/3 240/2/3 239/2/3
f 246/2/3 242/2/3 241/2/3
f 246/1/3 243/1/3 242/1/3
f 247/1/3 243/1/3 246/1/3
f 250/2/3 245/2/3 244/2/3
f 251/2/3 240/2/3 245/2/3
f 251/2/3 245/2/3 250/2/3
f 252/2/3 240/2/3 251/2/3
f 253/2/3 246/2/3 241/2/3
f 253/2/3 247/2/3 246/2/3
f 254/1/3 248/1/3 247/1/3
f 254/2/3 247/2/3 253/2/3
f 255/1/3 248/1/3 254/1/3
f 258/2/3 250/2/3 249/2/3
f 258/2/3 251/2/3 250/2/3
f 259/2/3 251/2/3 258/2/3
f 260/2/3 251/2/3 259/2/3
f 261/2/3 253/2/3 241/2/3
f 262/2/3 253/2/3 261/2/3
f 263/2/3 256/2/3 255/2/3
f 264/2/3 256/2/3 263/2/3
f 265/2/3 258/2/3 257/2/3
f 265/2/3 259/2/3 258/2/3
f 266/2/3 259/2/3 265/2/3
f 267/2/3 253/2/3 262/2/3
f 268/4/3 255/4/3 254/4/3
f 268/2/3 253/2/3 267/2/3
f 268/4/3 254/4/3 253/4/3
f 269/2/3 265/2/3 257/2/3
f 270/2/3 265/2/3 269/2/3
f 272/4/3 268/4/3 267/4/3
f 273/4/3 270/4/3 269/4/3
f 273/2/3 269/2/3 257/2/3
f 274/4/3 270/4/3 273/4/3
f 276/4/3 272/4/3 271/4/3
f 277/4/3 268/4/3 272/4/3
f 277/4/3 272/4/3 276/4/3
f 278/4/3 268/4/3 277/4/3
f 279/4/3 255/4/3 268/4/3
f 279/4/3 268/4/3 278/4/3
f 279/2/3 263/2/3 255/2/3
f 280/2/3 263/2/3 279/2/3
f 281/2/3 273/2/3 257/2/3
f 281/2/3 274/2/3 273/2/3
f 282/4/3 275/4/3 274/4/3
f 282/2/3 274/2/3 281/2/3
f 283/2/3 277/2/3 276/2/3
f 283/4/3 275/4/3 282/4/3
f 283/2/3 276/2/3 275/2/3
f 284/4/3 278/4/3 277/4/3
f 284/2/3 279/2/3 278/2/3
f 285/2/3 279/2/3 284/2/3
f 286/2/3 283/2/3 282/2/3
f 287/2/3 277/2/3 283/2/3
f 287/2/3 283/2/3 286/2/3
f 288/2/3 277/2/3 287/2/3
f 289/4/3 284/4/3 277/4/3
f 289/2/3 277/2/3 288/2/3
f 290/3/3 285/3/3 284/3/3
f 290/4/3 284/4/3 289/4/3
f 291/2/3 279/2/3 285/2/3
f 291/3/3 285/3/3 290/3/3
f 292/4/3 290/4/3 289/4/3
f 292/2/3 291/2/3 290/2/3
f 293/2/3 279/2/3 291/2/3
f 293/2/3 291/2/3 292/2/3
f 294/2/3 288/2/3 287/2/3
f 295/2/3 288/2/3 294/2/3
f 296/4/3 292/4/3 289/4/3
f 296/3/3 293/3/3 292/3/3
f 297/2/3 279/2/3 293/2/3
f 297/3/3 293/3/3 296/3/3
f 298/4/3 296/4/3 289/4/3
f 298/2/3 297/2/3 296/2/3
f 299/2/3 279/2/3 297/2/3
f 299/2/3 297/2/3 298/2/3
f 301/4/3 298/4/3 289/4/3
f 302/3/3 299/3/3 298/3/3
f 302/4/3 298/4/3 301/4/3
f 303/2/3 279/2/3 299/2/3
f 303/3/3 299/3/3 302/3/3
f 304/4/3 302/4/3 301/4/3
f 304/2/3 303/2/3 302/2/3
f 305/2/3 279/2/3 303/2/3
f 305/2/3 303/2/3 304/2/3
f 306/4/3 304/4/3 301/4/3
f 306/3/3 305/3/3 304/3/3
f 307/2/3 279/2/3 305/2/3
f 307/3/3 305/3/3 306/3/3
f 308/4/3 306/4/3 301/4/3
f 308/2/3 307/2/3 306/2/3
f 309/2/3 279/2/3 307/2/3
f 309/2/3 307/2/3 308/2/3
f 311/2/3 301/2/3 300/2/3
f 312/4/3 311/4/3 310/4/3
f 313/2/3 301/2/3 311/2/3
f 313/4/3 311/4/3 312/4/3
f 314/2/3 301/2/3 313/2/3
f 315/4/3 308/4/3 301/4/3
f 315/2/3 301/2/3 314/2/3
f 315/4/3 309/4/3 308/4/3
f 316/4/3 309/4/3 315/4/3
f 317/2/3 279/2/3 309/2/3
f 317/4/3 309/4/3 316/4/3
f 318/2/3 279/2/3 317/2/3
f 319/4/3 317/4/3 316/4/3
f 320/1/3 318/1/3 317/1/3
f 320/4/3 317/4/3 319/4/3
f 321/1/3 315/1/3 314/1/3
f 322/1/3 315/1/3 321/1/3
f 323/1/3 320/1/3 319/1/3
f 324/1/3 318/1/3 320/1/3
f 324/1/3 320/1/3 323/1/3
f 327/4/3 326/4/3 325/4/3
f 328/4/3 326/4/3 327/4/3
f 331/2/3 330/2/3 329/2/3
f 332/2/3 330/2/3 331/2/3
f 333/4/3 332/4/3 331/4/3
f 334/4/3 332/4/3 333/4/3
f 339/4/3 336/4/3 335/4/3
f 340/4/3 336/4/3 339/4/3
f 343/3/3 338/3/3 337/3/3
f 344/3/3 338/3/3 343/3/3
f 345/2/3 342/2/3 341/2/3
f 346/2/3 342/2/3 345/2/3
f 351/3/3 348/3/3 347/3/3
f 352/3/3 348/3/3 351/3/3
f 357/2/3 350/2/3 349/2/3
f 358/2/3 354/2/3 353/2/3
f 359/2/3 354/2/3 358/2/3
f 360/3/3 356/3/3 355/3/3
f 361/3/3 356/3/3 360/3/3
f 362/2/3 357/2/3 349/2/3
f 363/2/3 357/2/3 362/2/3
f 366/3/3 365/3/3 364/3/3
f 367/3/3 365/3/3 366/3/3
f 370/3/3 369/3/3 368/3/3
f 371/3/3 369/3/3 370/3/3
f 374/3/3 373/3/3 372/3/3
f 375/3/3 373/3/3 374/3/3
f 378/4/3 377/4/3 376/4/3
f 379/4/3 377/4/3 378/4/3
f 380/4/3 378/4/3 376/4/3
f 382/4/3 380/4/3 376/4/3
f 382/4/3 381/4/3 380/4/3
f 383/4/3 381/4/3 382/4/3
f 388/4/3 385/4/3 384/4/3
f 389/4/3 385/4/3 388/4/3
f 390/4/3 387/4/3 386/4/3
f 391/4/3 387/4/3 390/4/3
f 392/4/4 393/4/4 394/4/4
f 394/4/4 393/4/4 395/4/4
f 396/2/4 397/2/4 398/2/4
f 398/2/4 397/2/4 399/2/4
f 398/4/4 399/4/4 400/4/4
f 400/4/4 399/4/4 401/4/4
f 402/4/4 403/4/4 406/4/4
f 406/4/4 403/4/4 407/4/4
f 404/3/4 405/3/4 410/3/4
f 410/3/4 405/3/4 411/3/4
f 408/2/4 409/2/4 412/2/4
f 412/2/4 409/2/4 413/2/4
f 414/3/4 415/3/4 418/3/4
f 418/3/4 415/3/4 419/3/4
f 416/2/4 417/2/4 424/2/4
f 420/2/4 421/2/4 425/2/4
f 425/2/4 421/2/4 426/2/4
f 422/3/4 423/3/4 427/3/4
f 427/3/4 423/3/4 428/3/4
f 416/2/4 424/2/4 429/2/4
f 429/2/4 424/2/4 430/2/4
f 431/3/4 432/3/4 433/3/4
f 433/3/4 432/3/4 434/3/4
f 435/3/4 436/3/4 437/3/4
f 437/3/4 436/3/4 438/3/4
f 439/3/4 440/3/4 441/3/4
f 441/3/4 440/3/4 442/3/4
f 443/4/4 444/4/4 445/4/4
f 445/4/4 444/4/4 446/4/4
f 443/4/4 445/4/4 447/4/4
f 443/4/4 447/4/4 449/4/4
f 447/4/4 448/4/4 449/4/4
f 449/4/4 448/4/4 450/4/4
f 451/4/4 452/4/4 455/4/4
f 455/4/4 452/4/4 456/4/4
f 453/4/4 454/4/4 457/4/4
f 457/4/4 454/4/4 458/4/4
f 459/1/4 460/1/4 461/1/4
f 461/1/4 460/1/4 462/1/4
f 462/1/4 460/1/4 463/1/4
f 463/1/4 460/1/4 464/1/4
f 461/2/4 462/2/4 467/2/4
f 463/2/4 464/2/4 468/2/4
f 464/1/4 465/1/4 468/1/4
f 468/1/4 465/1/4 469/1/4
f 466/2/4 467/2/4 472/2/4
f 467/2/4 462/2/4 473/2/4
f 472/2/4 467/2/4 473/2/4
f 473/2/4 462/2/4 474/2/4
f 463/2/4 468/2/4 475/2/4
f 468/2/4 469/2/4 475/2/4
f 469/1/4 470/1/4 476/1/4
f 475/2/4 469/2/4 476/2/4
f 476/1/4 470/1/4 477/1/4
f 471/2/4 472/2/4 480/2/4
f 472/2/4 473/2/4 480/2/4
f 480/2/4 473/2/4 481/2/4
f 481/2/4 473/2/4 482/2/4
f 463/2/4 475/2/4 483/2/4
f 483/2/4 475/2/4 484/2/4
f 477/2/4 478/2/4 485/2/4
f 485/2/4 478/2/4 486/2/4
f 479/2/4 480/2/4 487/2/4
f 480/2/4 481/2/4 487/2/4
f 487/2/4 481/2/4 488/2/4
f 484/2/4 475/2/4 489/2/4
f 476/4/4 477/4/4 490/4/4
f 489/2/4 475/2/4 490/2/4
f 475/4/4 476/4/4 490/4/4
f 479/2/4 487/2/4 491/2/4
f 491/2/4 487/2/4 492/2/4
f 489/4/4 490/4/4 494/4/4
f 491/4/4 492/4/4 495/4/4
f 479/2/4 491/2/4 495/2/4
f 495/4/4 492/4/4 496/4/4
f 493/4/4 494/4/4 498/4/4
f 494/4/4 490/4/4 499/4/4
f 498/4/4 494/4/4 499/4/4
f 499/4/4 490/4/4 500/4/4
f 490/4/4 477/4/4 501/4/4
f 500/4/4 490/4/4 501/4/4
f 477/2/4 485/2/4 501/2/4
f 501/2/4 485/2/4 502/2/4
f 479/2/4 495/2/4 503/2/4
f 495/2/4 496/2/4 503/2/4
f 496/4/4 497/4/4 504/4/4
f 503/2/4 496/2/4 504/2/4
f 498/2/4 499/2/4 505/2/4
f 504/4/4 497/4/4 505/4/4
f 497/2/4 498/2/4 505/2/4
f 499/4/4 500/4/4 506/4/4
f 500/2/4 501/2/4 506/2/4
f 506/2/4 501/2/4 507/2/4
f 504/2/4 505/2/4 508/2/4
f 505/2/4 499/2/4 509/2/4
f 508/2/4 505/2/4 509/2/4
f 509/2/4 499/2/4 510/2/4
f 499/4/4 506/4/4 511/4/4
f 510/2/4 499/2/4 511/2/4
f 506/3/4 507/3/4 512/3/4
f 511/4/4 506/4/4 512/4/4
f 507/2/4 501/2/4 513/2/4
f 512/3/4 507/3/4 513/3/4
f 511/4/4 512/4/4 514/4/4
f 512/2/4 513/2/4 514/2/4
f 513/2/4 501/2/4 515/2/4
f 514/2/4 513/2/4 515/2/4
f 509/2/4 510/2/4 516/2/4
f 516/2/4 510/2/4 517/2/4
f 511/4/4 514/4/4 518/4/4
f 514/3/4 515/3/4 518/3/4
f 515/2/4 501/2/4 519/2/4
f 518/3/4 515/3/4 519/3/4
f 511/4/4 518/4/4 520/4/4
f 518/2/4 519/2/4 520/2/4
f 519/2/4 501/2/4 521/2/4
f 520/2/4 519/2/4 521/2/4
f 511/4/4 520/4/4 523/4/4
f 520/3/4 521/3/4 524/3/4
f 523/4/4 520/4/4 524/4/4
f 521/2/4 501/2/4 525/2/4
f 524/3/4 521/3/4 525/3/4
f 523/4/4 524/4/4 526/4/4
f 524/2/4 525/2/4 526/2/4
f 525/2/4 501/2/4 527/2/4
f 526/2/4 525/2/4 527/2/4
f 523/4/4 526/4/4 528/4/4
f 526/3/4 527/3/4 528/3/4
f 527/2/4 501/2/4 529/2/4
f 528/3/4 527/3/4 529/3/4
f 523/4/4 528/4/4 530/4/4
f 528/2/4 529/2/4 530/2/4
f 529/2/4 501/2/4 531/2/4
f 530/2/4 529/2/4 531/2/4
f 522/2/4 523/2/4 533/2/4
f 532/4/4 533/4/4 534/4/4
f 533/2/4 523/2/4 535/2/4
f 534/4/4 533/4/4 535/4/4
f 535/2/4 523/2/4 536/2/4
f 523/4/4 530/4/4 537/4/4
f 536/2/4 523/2/4 537/2/4
f 530/4/4 531/4/4 537/4/4
f 537/4/4 531/4/4 538/4/4
f 531/2/4 501/2/4 539/2/4
f 538/4/4 531/4/4 539/4/4
f 539/2/4 501/2/4 540/2/4
f 538/4/4 539/4/4 541/4/4
f 539/1/4 540/1/4 542/1/4
f 541/4/4 539/4/4 542/4/4
f 536/1/4 537/1/4 543/1/4
f 543/1/4 537/1/4 544/1/4
f 541/1/4 542/1/4 545/1/4
f 542/1/4 540/1/4 546/1/4
f 545/1/4 542/1/4 546/1/4
f 549/2/5 548/2/5 547/2/5
f 551/2/5 549/2/5 547/2/5
f 551/4/5 550/4/5 549/4/5
f 552/4/5 550/4/5 551/4/5
f 553/2/5 551/2/5 547/2/5
f 554/2/5 551/2/5 553/2/5
f 557/2/5 556/2/5 555/2/5
f 558/2/5 556/2/5 557/2/5
f 561/2/5 560/2/5 559/2/5
f 562/2/5 560/2/5 561/2/5
f 565/2/5 564/2/5 563/2/5
f 566/2/5 564/2/5 565/2/5
f 569/2/5 568/2/5 567/2/5
f 570/2/5 568/2/5 569/2/5
f 576/2/5 575/2/5 574/2/5
f 577/2/5 575/2/5 576/2/5
f 578/1/5 572/1/5 571/1/5
f 579/2/5 573/2/5 572/2/5
f 579/1/5 572/1/5 578/1/5
f 580/2/5 573/2/5 579/2/5
f 585/2/5 582/2/5 581/2/5
f 586/2/5 582/2/5 585/2/5
f 587/2/5 582/2/5 586/2/5
f 590/2/5 588/2/5 587/2/5
f 590/2/5 587/2/5 586/2/5
f 591/2/5 588/2/5 590/2/5
f 592/2/5 588/2/5 591/2/5
f 593/2/5 590/2/5 589/2/5
f 593/2/5 591/2/5 590/2/5
f 594/2/5 591/2/5 593/2/5
f 595/4/5 584/4/5 583/4/5
f 596/4/5 584/4/5 595/4/5
f 602/2/5 598/2/5 597/2/5
f 603/2/5 598/2/5 602/2/5
f 604/1/5 601/1/5 600/1/5
f 607/2/5 598/2/5 603/2/5
f 608/1/5 604/1/5 600/1/5
f 608/4/5 605/4/5 604/4/5
f 609/4/5 605/4/5 608/4/5
f 610/2/5 607/2/5 606/2/5
f 611/2/5 598/2/5 607/2/5
f 611/2/5 607/2/5 610/2/5
f 612/2/5 600/2/5 599/2/5
f 613/1/5 608/1/5 600/1/5
f 613/2/5 600/2/5 612/2/5
f 614/1/5 608/1/5 613/1/5
f 619/2/5 616/2/5 615/2/5
f 620/2/5 616/2/5 619/2/5
f 621/2/5 616/2/5 620/2/5
f 623/4/5 618/4/5 617/4/5
f 627/2/5 622/2/5 621/2/5
f 627/2/5 621/2/5 620/2/5
f 628/2/5 622/2/5 627/2/5
f 629/4/5 623/4/5 622/4/5
f 629/2/5 622/2/5 628/2/5
f 630/4/5 618/4/5 623/4/5
f 630/4/5 623/4/5 629/4/5
f 631/2/5 625/2/5 624/2/5
f 632/2/5 625/2/5 631/2/5
f 633/2/5 628/2/5 627/2/5
f 633/2/5 627/2/5 626/2/5
f 634/2/5 628/2/5 633/2/5
f 635/4/5 618/4/5 630/4/5
f 636/4/5 618/4/5 635/4/5
f 642/2/5 638/2/5 637/2/5
f 643/4/5 639/4/5 638/4/5
f 643/2/5 638/2/5 642/2/5
f 644/4/5 639/4/5 643/4/5
f 645/4/5 641/4/5 640/4/5
f 646/4/5 641/4/5 645/4/5
f 650/4/5 645/4/5 640/4/5
f 652/2/5 648/2/5 647/2/5
f 653/4/5 649/4/5 648/4/5
f 653/2/5 648/2/5 652/2/5
f 654/4/5 649/4/5 653/4/5
f 655/4/5 651/4/5 650/4/5
f 655/4/5 650/4/5 640/4/5
f 656/4/5 651/4/5 655/4/5
f 660/4/5 658/4/5 657/4/5
f 661/1/5 659/1/5 658/1/5
f 661/4/5 658/4/5 660/4/5
f 662/1/5 659/1/5 661/1/5
f 665/4/5 664/4/5 663/4/5
f 666/4/5 664/4/5 665/4/5
f 667/2/6 668/2/6 670/2/6
f 668/4/6 669/4/6 671/4/6
f 670/2/6 668/2/6 671/2/6
f 671/4/6 669/4/6 672/4/6
f 673/2/6 674/2/6 675/2/6
f 675/2/6 674/2/6 676/2/6
f 677/2/6 678/2/6 679/2/6
f 679/2/6 678/2/6 680/2/6
f 681/2/6 682/2/6 685/2/6
f 685/2/6 682/2/6 686/2/6
f 683/2/6 684/2/6 687/2/6
f 687/2/6 688/2/6 691/2/6
f 683/2/6 687/2/6 691/2/6
f 691/2/6 688/2/6 692/2/6
f 689/2/6 690/2/6 693/2/6
f 693/2/6 690/2/6 694/2/6
f 683/2/6 691/2/6 695/2/6
f 695/2/6 691/2/6 696/2/6
f 697/4/6 698/4/6 699/4/6
f 699/4/6 698/4/6 700/4/6
f 701/1/6 702/1/6 703/1/6
f 703/1/6 702/1/6 704/1/6
f 705/1/6 706/1/6 707/1/6
f 707/1/6 706/1/6 708/1/6
f 711/4/6 712/4/6 713/4/6
f 713/4/6 712/4/6 714/4/6
f 709/1/6 710/1/6 715/1/6
f 715/1/6 710/1/6 716/1/6
f 719/2/6 720/2/6 722/2/6
f 722/2/6 720/2/6 723/2/6
f 723/2/6 720/2/6 724/2/6
f 724/2/6 720/2/6 725/2/6
f 725/2/6 720/2/6 726/2/6
f 726/2/6 720/2/6 727/2/6
f 727/2/6 720/2/6 728/2/6
f 728/2/6 720/2/6 729/2/6
f 729/2/6 720/2/6 730/2/6
f 730/2/6 720/2/6 731/2/6
f 731/2/6 720/2/6 732/2/6
f 732/2/6 720/2/6 733/2/6
f 733/2/6 720/2/6 734/2/6
f 734/2/6 720/2/6 735/2/6
f 719/2/6 722/2/6 736/2/6
f 723/2/6 724/2/6 737/2/6
f 737/2/6 724/2/6 738/2/6
f 725/2/6 726/2/6 739/2/6
f 739/2/6 726/2/6 740/2/6
f 727/2/6 728/2/6 741/2/6
f 741/2/6 728/2/6 742/2/6
f 729/2/6 730/2/6 743/2/6
f 743/2/6 730/2/6 744/2/6
f 731/2/6 732/2/6 745/2/6
f 745/2/6 732/2/6 746/2/6
f 733/2/6 734/2/6 747/2/6
f 747/2/6 734/2/6 748/2/6
f 735/2/6 720/2/6 749/2/6
f 717/1/6 718/1/6 750/1/6
f 750/1/6 718/1/6 751/1/6
f 748/2/6 749/2/6 752/2/6
f 747/2/6 748/2/6 752/2/6
f 745/2/6 746/2/6 752/2/6
f 719/2/6 736/2/6 752/2/6
f 743/2/6 744/2/6 752/2/6
f 746/2/6 747/2/6 752/2/6
f 737/2/6 738/2/6 752/2/6
f 744/2/6 745/2/6 752/2/6
f 741/2/6 742/2/6 752/2/6
f 742/2/6 743/2/6 752/2/6
f 739/2/6 740/2/6 752/2/6
f 740/2/6 741/2/6 752/2/6
f 736/2/6 737/2/6 752/2/6
f 738/2/6 739/2/6 752/2/6
f 720/1/6 721/1/6 753/1/6
f 752/2/6 749/2/6 753/2/6
f 749/2/6 720/2/6 753/2/6
f 753/1/6 721/1/6 754/1/6
f 757/3/6 758/3/6 771/3/6
f 771/3/6 758/3/6 772/3/6
f 759/3/6 760/3/6 773/3/6
f 773/3/6 760/3/6 774/3/6
f 761/3/6 762/3/6 775/3/6
f 775/3/6 762/3/6 776/3/6
f 763/3/6 764/3/6 777/3/6
f 777/3/6 764/3/6 778/3/6
f 765/3/6 766/3/6 779/3/6
f 779/3/6 766/3/6 780/3/6
f 767/3/6 768/3/6 781/3/6
f 781/3/6 768/3/6 782/3/6
f 769/4/6 770/4/6 783/4/6
f 783/4/6 770/4/6 784/4/6
f 755/2/6 756/2/6 785/2/6
f 785/2/6 756/2/6 786/2/6
f 789/4/6 790/4/6 793/4/6
f 793/4/6 790/4/6 794/4/6
f 791/4/6 792/4/6 795/4/6
f 795/4/6 792/4/6 796/4/6
f 787/2/6 788/2/6 797/2/6
f 797/2/6 788/2/6 798/2/6
