# MagicaVoxel @ Ephtracy

# group
g blaster55

# material
mtllib blaster55.mtl
usemtl palette

# normals
vn -1 0 0
vn 1 0 0
vn 0 0 1
vn 0 0 -1
vn 0 -1 0
vn 0 1 0

# texcoords
vt 0.923828 0.5
vt 0.970703 0.5
vt 0.974609 0.5
vt 0.986328 0.5

# verts
v -12 4 -0
v -12 4 -3
v -12 10 -0
v -12 10 -3
v -11 10 -0
v -11 10 -3
v -11 11 -0
v -11 11 -3
v -10 3 -0
v -10 3 -3
v -10 4 -0
v -10 4 -3
v -10 11 -0
v -10 11 -3
v -10 12 -0
v -10 12 -3
v -9 1 -0
v -9 1 -3
v -9 3 -0
v -9 3 -3
v -9 12 -0
v -9 12 -3
v -9 13 -0
v -9 13 -3
v -8 0 -0
v -8 0 -3
v -8 1 -0
v -8 1 -3
v -5 2 -0
v -5 2 -3
v -5 4 -0
v -5 4 -3
v -4 4 -0
v -4 4 -3
v -4 5 -0
v -4 5 -3
v -3 5 -0
v -3 5 -3
v -3 6 -0
v -3 6 -3
v -2 6 -0
v -2 6 -3
v -2 7 -0
v -2 7 -3
v -1 7 -0
v -1 7 -3
v -1 8 -0
v -1 8 -3
v 1 5 -0
v 1 5 -3
v 1 6 -0
v 1 6 -3
v 5 12 -1
v 5 12 -2
v 5 14 -1
v 5 14 -2
v 9 13 -1
v 9 13 -2
v 9 14 -1
v 9 14 -2
v -11 6 -0
v -11 6 -1
v -11 6 -2
v -11 6 -3
v -11 7 -0
v -11 7 -1
v -11 7 -2
v -11 7 -3
v -9 5 -0
v -9 5 -3
v -9 6 -0
v -9 6 -1
v -9 6 -2
v -9 6 -3
v -9 7 -1
v -9 7 -2
v -8 4 -0
v -8 4 -3
v -8 5 -0
v -8 5 -3
v -8 7 -0
v -8 7 -1
v -8 7 -2
v -8 7 -3
v -8 8 -0
v -8 8 -1
v -8 8 -2
v -8 8 -3
v -7 2 -0
v -7 2 -3
v -7 4 -0
v -7 4 -3
v -5 7 -1
v -5 7 -2
v -5 8 -1
v -5 8 -2
v -5 12 -0
v -5 12 -3
v -5 13 -0
v -5 13 -3
v -4 0 -0
v -4 0 -1
v -4 0 -2
v -4 0 -3
v -4 2 -0
v -4 2 -1
v -4 2 -2
v -4 2 -3
v -3 0 -1
v -3 0 -2
v -3 2 -0
v -3 2 -1
v -3 2 -2
v -3 2 -3
v -3 3 -1
v -3 3 -2
v -3 4 -0
v -3 4 -1
v -3 4 -2
v -3 4 -3
v -2 3 -1
v -2 3 -2
v -2 4 -0
v -2 4 -1
v -2 4 -2
v -2 4 -3
v -2 5 -0
v -2 5 -1
v -2 5 -2
v -2 5 -3
v -1 4 -1
v -1 4 -2
v -1 5 -0
v -1 5 -1
v -1 5 -2
v -1 5 -3
v -1 6 -0
v -1 6 -1
v -1 6 -2
v -1 6 -3
v 0 5 -1
v 0 5 -2
v 0 6 -1
v 0 6 -2
v 6 5 -0
v 6 5 -3
v 6 6 -0
v 6 6 -3
v 6 13 -1
v 6 13 -2
v 6 14 -1
v 6 14 -2
v 10 8 -0
v 10 8 -3
v 10 9 -0
v 10 9 -3
v 10 12 -1
v 10 12 -2
v 10 14 -1
v 10 14 -2
v 11 6 -0
v 11 6 -3
v 11 8 -0
v 11 8 -3
v 13 9 -0
v 13 9 -3
v 13 10 -1
v 13 10 -2
v 13 11 -1
v 13 11 -2
v 13 12 -0
v 13 12 -3
v 14 10 -1
v 14 10 -2
v 14 11 -1
v 14 11 -2
v -12 4 -0
v -12 10 -0
v -11 4 -0
v -11 6 -0
v -11 7 -0
v -11 10 -0
v -11 11 -0
v -10 3 -0
v -10 4 -0
v -10 10 -0
v -10 11 -0
v -10 12 -0
v -9 1 -0
v -9 3 -0
v -9 5 -0
v -9 6 -0
v -9 10 -0
v -9 11 -0
v -9 12 -0
v -9 13 -0
v -8 0 -0
v -8 1 -0
v -8 4 -0
v -8 5 -0
v -8 7 -0
v -8 8 -0
v -7 2 -0
v -7 4 -0
v -7 8 -0
v -7 10 -0
v -6 1 -0
v -6 2 -0
v -5 1 -0
v -5 2 -0
v -5 4 -0
v -5 9 -0
v -5 12 -0
v -5 13 -0
v -4 0 -0
v -4 2 -0
v -4 4 -0
v -4 5 -0
v -4 9 -0
v -4 10 -0
v -3 2 -0
v -3 4 -0
v -3 5 -0
v -3 6 -0
v -3 9 -0
v -3 10 -0
v -2 4 -0
v -2 5 -0
v -2 6 -0
v -2 7 -0
v -2 9 -0
v -2 10 -0
v -1 5 -0
v -1 6 -0
v -1 7 -0
v -1 8 -0
v -1 9 -0
v -1 10 -0
v 1 5 -0
v 1 6 -0
v 1 9 -0
v 1 10 -0
v 6 5 -0
v 6 6 -0
v 10 6 -0
v 10 8 -0
v 10 9 -0
v 11 6 -0
v 11 8 -0
v 11 9 -0
v 11 10 -0
v 11 12 -0
v 13 9 -0
v 13 12 -0
v -11 6 -1
v -11 7 -1
v -9 6 -1
v -9 7 -1
v -8 7 -1
v -8 8 -1
v -7 7 -1
v -7 8 -1
v -5 7 -1
v -5 8 -1
v -4 0 -1
v -4 2 -1
v -3 0 -1
v -3 2 -1
v -3 3 -1
v -3 4 -1
v -2 3 -1
v -2 4 -1
v -2 5 -1
v -1 4 -1
v -1 5 -1
v -1 6 -1
v 0 5 -1
v 0 6 -1
v 5 12 -1
v 5 14 -1
v 6 13 -1
v 6 14 -1
v 9 13 -1
v 9 14 -1
v 10 12 -1
v 10 14 -1
v 13 10 -1
v 13 11 -1
v 14 10 -1
v 14 11 -1
v -11 6 -2
v -11 7 -2
v -9 6 -2
v -9 7 -2
v -8 7 -2
v -8 8 -2
v -7 7 -2
v -7 8 -2
v -5 7 -2
v -5 8 -2
v -4 0 -2
v -4 2 -2
v -3 0 -2
v -3 2 -2
v -3 3 -2
v -3 4 -2
v -2 3 -2
v -2 4 -2
v -2 5 -2
v -1 4 -2
v -1 5 -2
v -1 6 -2
v 0 5 -2
v 0 6 -2
v 5 12 -2
v 5 14 -2
v 6 13 -2
v 6 14 -2
v 9 13 -2
v 9 14 -2
v 10 12 -2
v 10 14 -2
v 13 10 -2
v 13 11 -2
v 14 10 -2
v 14 11 -2
v -12 4 -3
v -12 10 -3
v -11 4 -3
v -11 6 -3
v -11 7 -3
v -11 10 -3
v -11 11 -3
v -10 3 -3
v -10 4 -3
v -10 10 -3
v -10 11 -3
v -10 12 -3
v -9 1 -3
v -9 3 -3
v -9 5 -3
v -9 6 -3
v -9 10 -3
v -9 11 -3
v -9 12 -3
v -9 13 -3
v -8 0 -3
v -8 1 -3
v -8 4 -3
v -8 5 -3
v -8 7 -3
v -8 8 -3
v -7 2 -3
v -7 4 -3
v -7 8 -3
v -7 10 -3
v -6 1 -3
v -6 2 -3
v -5 1 -3
v -5 2 -3
v -5 4 -3
v -5 9 -3
v -5 12 -3
v -5 13 -3
v -4 0 -3
v -4 2 -3
v -4 4 -3
v -4 5 -3
v -4 9 -3
v -4 10 -3
v -3 2 -3
v -3 4 -3
v -3 5 -3
v -3 6 -3
v -3 9 -3
v -3 10 -3
v -2 4 -3
v -2 5 -3
v -2 6 -3
v -2 7 -3
v -2 9 -3
v -2 10 -3
v -1 5 -3
v -1 6 -3
v -1 7 -3
v -1 8 -3
v -1 9 -3
v -1 10 -3
v 1 5 -3
v 1 6 -3
v 1 9 -3
v 1 10 -3
v 6 5 -3
v 6 6 -3
v 10 6 -3
v 10 8 -3
v 10 9 -3
v 11 6 -3
v 11 8 -3
v 11 9 -3
v 11 10 -3
v 11 12 -3
v 13 9 -3
v 13 12 -3
v -8 0 -0
v -4 0 -0
v -4 0 -1
v -3 0 -1
v -4 0 -2
v -3 0 -2
v -8 0 -3
v -4 0 -3
v -9 1 -0
v -8 1 -0
v -9 1 -3
v -8 1 -3
v -4 2 -0
v -3 2 -0
v -4 2 -1
v -3 2 -1
v -4 2 -2
v -3 2 -2
v -4 2 -3
v -3 2 -3
v -10 3 -0
v -9 3 -0
v -3 3 -1
v -2 3 -1
v -3 3 -2
v -2 3 -2
v -10 3 -3
v -9 3 -3
v -12 4 -0
v -11 4 -0
v -10 4 -0
v -3 4 -0
v -2 4 -0
v -3 4 -1
v -2 4 -1
v -1 4 -1
v -3 4 -2
v -2 4 -2
v -1 4 -2
v -12 4 -3
v -11 4 -3
v -10 4 -3
v -3 4 -3
v -2 4 -3
v -2 5 -0
v -1 5 -0
v 1 5 -0
v 6 5 -0
v -2 5 -1
v -1 5 -1
v 0 5 -1
v -2 5 -2
v -1 5 -2
v 0 5 -2
v -2 5 -3
v -1 5 -3
v 1 5 -3
v 6 5 -3
v -1 6 -0
v 1 6 -0
v 6 6 -0
v 10 6 -0
v 11 6 -0
v -1 6 -1
v 0 6 -1
v -1 6 -2
v 0 6 -2
v -1 6 -3
v 1 6 -3
v 6 6 -3
v 10 6 -3
v 11 6 -3
v -11 7 -0
v -8 7 -0
v -11 7 -1
v -9 7 -1
v -8 7 -1
v -7 7 -1
v -5 7 -1
v -11 7 -2
v -9 7 -2
v -8 7 -2
v -7 7 -2
v -5 7 -2
v -11 7 -3
v -8 7 -3
v -8 8 -0
v -7 8 -0
v -1 8 -0
v -8 8 -1
v -7 8 -1
v -5 8 -1
v -8 8 -2
v -7 8 -2
v -5 8 -2
v -8 8 -3
v -7 8 -3
v -1 8 -3
v 10 9 -0
v 11 9 -0
v 13 9 -0
v 10 9 -3
v 11 9 -3
v 13 9 -3
v 13 10 -1
v 14 10 -1
v 13 10 -2
v 14 10 -2
v -7 2 -0
v -6 2 -0
v -5 2 -0
v -7 2 -3
v -6 2 -3
v -5 2 -3
v -8 4 -0
v -7 4 -0
v -5 4 -0
v -4 4 -0
v -8 4 -3
v -7 4 -3
v -5 4 -3
v -4 4 -3
v -9 5 -0
v -8 5 -0
v -4 5 -0
v -3 5 -0
v -9 5 -3
v -8 5 -3
v -4 5 -3
v -3 5 -3
v -11 6 -0
v -9 6 -0
v -3 6 -0
v -2 6 -0
v -11 6 -1
v -9 6 -1
v -11 6 -2
v -9 6 -2
v -11 6 -3
v -9 6 -3
v -3 6 -3
v -2 6 -3
v -2 7 -0
v -1 7 -0
v -2 7 -3
v -1 7 -3
v 10 8 -0
v 11 8 -0
v 10 8 -3
v 11 8 -3
v -12 10 -0
v -11 10 -0
v -12 10 -3
v -11 10 -3
v -11 11 -0
v -10 11 -0
v 13 11 -1
v 14 11 -1
v 13 11 -2
v 14 11 -2
v -11 11 -3
v -10 11 -3
v -10 12 -0
v -9 12 -0
v -5 12 -0
v 11 12 -0
v 13 12 -0
v 5 12 -1
v 10 12 -1
v 5 12 -2
v 10 12 -2
v -10 12 -3
v -9 12 -3
v -5 12 -3
v 11 12 -3
v 13 12 -3
v -9 13 -0
v -5 13 -0
v 6 13 -1
v 9 13 -1
v 6 13 -2
v 9 13 -2
v -9 13 -3
v -5 13 -3
v 5 14 -1
v 6 14 -1
v 9 14 -1
v 10 14 -1
v 5 14 -2
v 6 14 -2
v 9 14 -2
v 10 14 -2

# faces
f 3/1/1 2/1/1 1/1/1
f 4/1/1 2/1/1 3/1/1
f 7/1/1 6/1/1 5/1/1
f 8/1/1 6/1/1 7/1/1
f 11/2/1 10/2/1 9/2/1
f 12/2/1 10/2/1 11/2/1
f 15/1/1 14/1/1 13/1/1
f 16/1/1 14/1/1 15/1/1
f 19/2/1 18/2/1 17/2/1
f 20/2/1 18/2/1 19/2/1
f 23/2/1 22/2/1 21/2/1
f 24/2/1 22/2/1 23/2/1
f 27/2/1 26/2/1 25/2/1
f 28/2/1 26/2/1 27/2/1
f 31/4/1 30/4/1 29/4/1
f 32/4/1 30/4/1 31/4/1
f 35/2/1 34/2/1 33/2/1
f 36/2/1 34/2/1 35/2/1
f 39/2/1 38/2/1 37/2/1
f 40/2/1 38/2/1 39/2/1
f 43/2/1 42/2/1 41/2/1
f 44/2/1 42/2/1 43/2/1
f 47/2/1 46/2/1 45/2/1
f 48/2/1 46/2/1 47/2/1
f 51/4/1 50/4/1 49/4/1
f 52/4/1 50/4/1 51/4/1
f 55/4/1 54/4/1 53/4/1
f 56/4/1 54/4/1 55/4/1
f 59/4/1 58/4/1 57/4/1
f 60/4/1 58/4/1 59/4/1
f 61/1/2 62/1/2 65/1/2
f 65/1/2 62/1/2 66/1/2
f 63/1/2 64/1/2 67/1/2
f 67/1/2 64/1/2 68/1/2
f 69/2/2 70/2/2 71/2/2
f 71/2/2 70/2/2 72/2/2
f 72/2/2 70/2/2 73/2/2
f 73/2/2 70/2/2 74/2/2
f 72/4/2 73/4/2 75/4/2
f 75/4/2 73/4/2 76/4/2
f 77/2/2 78/2/2 79/2/2
f 79/2/2 78/2/2 80/2/2
f 81/2/2 82/2/2 85/2/2
f 85/2/2 82/2/2 86/2/2
f 83/2/2 84/2/2 87/2/2
f 87/2/2 84/2/2 88/2/2
f 89/2/2 90/2/2 91/2/2
f 91/2/2 90/2/2 92/2/2
f 93/4/2 94/4/2 95/4/2
f 95/4/2 94/4/2 96/4/2
f 97/2/2 98/2/2 99/2/2
f 99/2/2 98/2/2 100/2/2
f 101/2/2 102/2/2 105/2/2
f 105/2/2 102/2/2 106/2/2
f 103/2/2 104/2/2 107/2/2
f 107/2/2 104/2/2 108/2/2
f 109/4/2 110/4/2 112/4/2
f 112/4/2 110/4/2 113/4/2
f 111/2/2 112/2/2 115/2/2
f 113/2/2 114/2/2 115/2/2
f 112/2/2 113/2/2 115/2/2
f 115/2/2 114/2/2 116/2/2
f 111/2/2 115/2/2 117/2/2
f 117/2/2 115/2/2 118/2/2
f 116/2/2 114/2/2 119/2/2
f 119/2/2 114/2/2 120/2/2
f 121/2/2 122/2/2 124/2/2
f 124/2/2 122/2/2 125/2/2
f 123/2/2 124/2/2 127/2/2
f 127/2/2 124/2/2 128/2/2
f 125/2/2 126/2/2 129/2/2
f 129/2/2 126/2/2 130/2/2
f 131/2/2 132/2/2 134/2/2
f 134/2/2 132/2/2 135/2/2
f 133/2/2 134/2/2 137/2/2
f 137/2/2 134/2/2 138/2/2
f 135/2/2 136/2/2 139/2/2
f 139/2/2 136/2/2 140/2/2
f 141/2/2 142/2/2 143/2/2
f 143/2/2 142/2/2 144/2/2
f 145/4/2 146/4/2 147/4/2
f 147/4/2 146/4/2 148/4/2
f 149/4/2 150/4/2 151/4/2
f 151/4/2 150/4/2 152/4/2
f 153/4/2 154/4/2 155/4/2
f 155/4/2 154/4/2 156/4/2
f 157/4/2 158/4/2 159/4/2
f 159/4/2 158/4/2 160/4/2
f 161/1/2 162/1/2 163/1/2
f 163/1/2 162/1/2 164/1/2
f 165/1/2 166/1/2 167/1/2
f 167/1/2 166/1/2 168/1/2
f 165/1/2 167/1/2 169/1/2
f 168/1/2 166/1/2 170/1/2
f 165/1/2 169/1/2 171/1/2
f 169/1/2 170/1/2 171/1/2
f 170/1/2 166/1/2 172/1/2
f 171/1/2 170/1/2 172/1/2
f 173/4/2 174/4/2 175/4/2
f 175/4/2 174/4/2 176/4/2
f 179/1/3 178/1/3 177/1/3
f 180/1/3 178/1/3 179/1/3
f 181/1/3 178/1/3 180/1/3
f 182/1/3 178/1/3 181/1/3
f 185/2/3 180/2/3 179/2/3
f 186/2/3 182/2/3 181/2/3
f 186/1/3 183/1/3 182/1/3
f 187/1/3 183/1/3 186/1/3
f 190/2/3 185/2/3 184/2/3
f 191/2/3 180/2/3 185/2/3
f 191/2/3 185/2/3 190/2/3
f 192/2/3 180/2/3 191/2/3
f 193/2/3 186/2/3 181/2/3
f 193/2/3 187/2/3 186/2/3
f 194/1/3 188/1/3 187/1/3
f 194/2/3 187/2/3 193/2/3
f 195/1/3 188/1/3 194/1/3
f 198/2/3 190/2/3 189/2/3
f 198/2/3 191/2/3 190/2/3
f 199/2/3 191/2/3 198/2/3
f 200/2/3 191/2/3 199/2/3
f 201/2/3 193/2/3 181/2/3
f 202/2/3 193/2/3 201/2/3
f 203/2/3 198/2/3 197/2/3
f 203/2/3 199/2/3 198/2/3
f 204/2/3 199/2/3 203/2/3
f 205/2/3 193/2/3 202/2/3
f 206/4/3 195/4/3 194/4/3
f 206/2/3 193/2/3 205/2/3
f 206/4/3 194/4/3 193/4/3
f 207/2/3 203/2/3 197/2/3
f 208/2/3 203/2/3 207/2/3
f 209/2/3 207/2/3 197/2/3
f 209/4/3 208/4/3 207/4/3
f 210/4/3 208/4/3 209/4/3
f 212/4/3 206/4/3 205/4/3
f 213/4/3 195/4/3 206/4/3
f 213/4/3 206/4/3 212/4/3
f 213/2/3 196/2/3 195/2/3
f 214/2/3 196/2/3 213/2/3
f 215/2/3 209/2/3 197/2/3
f 215/2/3 210/2/3 209/2/3
f 216/4/3 211/4/3 210/4/3
f 216/2/3 210/2/3 215/2/3
f 217/4/3 211/4/3 216/4/3
f 219/4/3 212/4/3 205/4/3
f 219/2/3 213/2/3 212/2/3
f 220/2/3 213/2/3 219/2/3
f 221/2/3 218/2/3 217/2/3
f 221/2/3 217/2/3 216/2/3
f 222/2/3 218/2/3 221/2/3
f 223/2/3 218/2/3 222/2/3
f 225/3/3 220/3/3 219/3/3
f 225/4/3 219/4/3 205/4/3
f 226/2/3 213/2/3 220/2/3
f 226/3/3 220/3/3 225/3/3
f 227/2/3 224/2/3 223/2/3
f 227/2/3 223/2/3 222/2/3
f 228/2/3 224/2/3 227/2/3
f 229/2/3 224/2/3 228/2/3
f 231/4/3 225/4/3 205/4/3
f 231/2/3 226/2/3 225/2/3
f 232/2/3 213/2/3 226/2/3
f 232/2/3 226/2/3 231/2/3
f 233/2/3 230/2/3 229/2/3
f 233/2/3 229/2/3 228/2/3
f 234/2/3 230/2/3 233/2/3
f 235/2/3 230/2/3 234/2/3
f 236/4/3 231/4/3 205/4/3
f 237/3/3 232/3/3 231/3/3
f 237/4/3 231/4/3 236/4/3
f 238/2/3 213/2/3 232/2/3
f 238/3/3 232/3/3 237/3/3
f 240/2/3 235/2/3 234/2/3
f 240/2/3 236/2/3 235/2/3
f 241/4/3 237/4/3 236/4/3
f 241/2/3 238/2/3 237/2/3
f 242/2/3 213/2/3 238/2/3
f 242/2/3 238/2/3 241/2/3
f 243/4/3 240/4/3 239/4/3
f 244/2/3 236/2/3 240/2/3
f 244/4/3 240/4/3 243/4/3
f 245/2/3 236/2/3 244/2/3
f 246/4/3 241/4/3 236/4/3
f 246/2/3 236/2/3 245/2/3
f 246/4/3 242/4/3 241/4/3
f 247/4/3 242/4/3 246/4/3
f 248/1/3 246/1/3 245/1/3
f 249/1/3 246/1/3 248/1/3
f 250/4/3 242/4/3 247/4/3
f 251/2/3 213/2/3 242/2/3
f 251/4/3 242/4/3 250/4/3
f 252/2/3 213/2/3 251/2/3
f 253/1/3 251/1/3 250/1/3
f 253/1/3 252/1/3 251/1/3
f 254/1/3 252/1/3 253/1/3
f 257/4/3 256/4/3 255/4/3
f 258/4/3 256/4/3 257/4/3
f 261/2/3 260/2/3 259/2/3
f 262/2/3 260/2/3 261/2/3
f 263/4/3 262/4/3 261/4/3
f 264/4/3 262/4/3 263/4/3
f 267/4/3 266/4/3 265/4/3
f 268/4/3 266/4/3 267/4/3
f 271/2/3 270/2/3 269/2/3
f 272/2/3 270/2/3 271/2/3
f 274/2/3 273/2/3 272/2/3
f 275/2/3 273/2/3 274/2/3
f 277/2/3 276/2/3 275/2/3
f 278/2/3 276/2/3 277/2/3
f 281/4/3 280/4/3 279/4/3
f 282/4/3 280/4/3 281/4/3
f 283/4/3 281/4/3 279/4/3
f 285/4/3 283/4/3 279/4/3
f 285/4/3 284/4/3 283/4/3
f 286/4/3 284/4/3 285/4/3
f 289/4/3 288/4/3 287/4/3
f 290/4/3 288/4/3 289/4/3
f 291/4/4 292/4/4 293/4/4
f 293/4/4 292/4/4 294/4/4
f 295/2/4 296/2/4 297/2/4
f 297/2/4 296/2/4 298/2/4
f 297/4/4 298/4/4 299/4/4
f 299/4/4 298/4/4 300/4/4
f 301/4/4 302/4/4 303/4/4
f 303/4/4 302/4/4 304/4/4
f 305/2/4 306/2/4 307/2/4
f 307/2/4 306/2/4 308/2/4
f 308/2/4 309/2/4 310/2/4
f 310/2/4 309/2/4 311/2/4
f 311/2/4 312/2/4 313/2/4
f 313/2/4 312/2/4 314/2/4
f 315/4/4 316/4/4 317/4/4
f 317/4/4 316/4/4 318/4/4
f 315/4/4 317/4/4 319/4/4
f 315/4/4 319/4/4 321/4/4
f 319/4/4 320/4/4 321/4/4
f 321/4/4 320/4/4 322/4/4
f 323/4/4 324/4/4 325/4/4
f 325/4/4 324/4/4 326/4/4
f 327/1/4 328/1/4 329/1/4
f 329/1/4 328/1/4 330/1/4
f 330/1/4 328/1/4 331/1/4
f 331/1/4 328/1/4 332/1/4
f 329/2/4 330/2/4 335/2/4
f 331/2/4 332/2/4 336/2/4
f 332/1/4 333/1/4 336/1/4
f 336/1/4 333/1/4 337/1/4
f 334/2/4 335/2/4 340/2/4
f 335/2/4 330/2/4 341/2/4
f 340/2/4 335/2/4 341/2/4
f 341/2/4 330/2/4 342/2/4
f 331/2/4 336/2/4 343/2/4
f 336/2/4 337/2/4 343/2/4
f 337/1/4 338/1/4 344/1/4
f 343/2/4 337/2/4 344/2/4
f 344/1/4 338/1/4 345/1/4
f 339/2/4 340/2/4 348/2/4
f 340/2/4 341/2/4 348/2/4
f 348/2/4 341/2/4 349/2/4
f 349/2/4 341/2/4 350/2/4
f 331/2/4 343/2/4 351/2/4
f 351/2/4 343/2/4 352/2/4
f 347/2/4 348/2/4 353/2/4
f 348/2/4 349/2/4 353/2/4
f 353/2/4 349/2/4 354/2/4
f 352/2/4 343/2/4 355/2/4
f 344/4/4 345/4/4 356/4/4
f 355/2/4 343/2/4 356/2/4
f 343/4/4 344/4/4 356/4/4
f 347/2/4 353/2/4 357/2/4
f 357/2/4 353/2/4 358/2/4
f 347/2/4 357/2/4 359/2/4
f 357/4/4 358/4/4 359/4/4
f 359/4/4 358/4/4 360/4/4
f 355/4/4 356/4/4 362/4/4
f 356/4/4 345/4/4 363/4/4
f 362/4/4 356/4/4 363/4/4
f 345/2/4 346/2/4 363/2/4
f 363/2/4 346/2/4 364/2/4
f 347/2/4 359/2/4 365/2/4
f 359/2/4 360/2/4 365/2/4
f 360/4/4 361/4/4 366/4/4
f 365/2/4 360/2/4 366/2/4
f 366/4/4 361/4/4 367/4/4
f 355/4/4 362/4/4 369/4/4
f 362/2/4 363/2/4 369/2/4
f 369/2/4 363/2/4 370/2/4
f 367/2/4 368/2/4 371/2/4
f 366/2/4 367/2/4 371/2/4
f 371/2/4 368/2/4 372/2/4
f 372/2/4 368/2/4 373/2/4
f 369/3/4 370/3/4 375/3/4
f 355/4/4 369/4/4 375/4/4
f 370/2/4 363/2/4 376/2/4
f 375/3/4 370/3/4 376/3/4
f 373/2/4 374/2/4 377/2/4
f 372/2/4 373/2/4 377/2/4
f 377/2/4 374/2/4 378/2/4
f 378/2/4 374/2/4 379/2/4
f 355/4/4 375/4/4 381/4/4
f 375/2/4 376/2/4 381/2/4
f 376/2/4 363/2/4 382/2/4
f 381/2/4 376/2/4 382/2/4
f 379/2/4 380/2/4 383/2/4
f 378/2/4 379/2/4 383/2/4
f 383/2/4 380/2/4 384/2/4
f 384/2/4 380/2/4 385/2/4
f 355/4/4 381/4/4 386/4/4
f 381/3/4 382/3/4 387/3/4
f 386/4/4 381/4/4 387/4/4
f 382/2/4 363/2/4 388/2/4
f 387/3/4 382/3/4 388/3/4
f 384/2/4 385/2/4 390/2/4
f 385/2/4 386/2/4 390/2/4
f 386/4/4 387/4/4 391/4/4
f 387/2/4 388/2/4 391/2/4
f 388/2/4 363/2/4 392/2/4
f 391/2/4 388/2/4 392/2/4
f 389/4/4 390/4/4 393/4/4
f 390/2/4 386/2/4 394/2/4
f 393/4/4 390/4/4 394/4/4
f 394/2/4 386/2/4 395/2/4
f 386/4/4 391/4/4 396/4/4
f 395/2/4 386/2/4 396/2/4
f 391/4/4 392/4/4 396/4/4
f 396/4/4 392/4/4 397/4/4
f 395/1/4 396/1/4 398/1/4
f 398/1/4 396/1/4 399/1/4
f 397/4/4 392/4/4 400/4/4
f 392/2/4 363/2/4 401/2/4
f 400/4/4 392/4/4 401/4/4
f 401/2/4 363/2/4 402/2/4
f 400/1/4 401/1/4 403/1/4
f 401/1/4 402/1/4 403/1/4
f 403/1/4 402/1/4 404/1/4
f 407/2/5 406/2/5 405/2/5
f 409/2/5 407/2/5 405/2/5
f 409/4/5 408/4/5 407/4/5
f 410/4/5 408/4/5 409/4/5
f 411/2/5 409/2/5 405/2/5
f 412/2/5 409/2/5 411/2/5
f 415/2/5 414/2/5 413/2/5
f 416/2/5 414/2/5 415/2/5
f 419/2/5 418/2/5 417/2/5
f 420/2/5 418/2/5 419/2/5
f 423/2/5 422/2/5 421/2/5
f 424/2/5 422/2/5 423/2/5
f 429/2/5 428/2/5 427/2/5
f 430/2/5 428/2/5 429/2/5
f 431/2/5 426/2/5 425/2/5
f 432/2/5 426/2/5 431/2/5
f 438/2/5 437/2/5 436/2/5
f 439/2/5 437/2/5 438/2/5
f 442/2/5 440/2/5 439/2/5
f 443/2/5 440/2/5 442/2/5
f 444/1/5 434/1/5 433/1/5
f 445/2/5 435/2/5 434/2/5
f 445/1/5 434/1/5 444/1/5
f 446/2/5 435/2/5 445/2/5
f 447/2/5 442/2/5 441/2/5
f 448/2/5 442/2/5 447/2/5
f 453/2/5 450/2/5 449/2/5
f 454/2/5 450/2/5 453/2/5
f 457/2/5 455/2/5 454/2/5
f 458/2/5 455/2/5 457/2/5
f 459/2/5 457/2/5 456/2/5
f 460/2/5 457/2/5 459/2/5
f 461/4/5 452/4/5 451/4/5
f 462/4/5 452/4/5 461/4/5
f 468/2/5 464/2/5 463/2/5
f 469/2/5 464/2/5 468/2/5
f 471/2/5 464/2/5 469/2/5
f 472/2/5 471/2/5 470/2/5
f 473/2/5 464/2/5 471/2/5
f 473/2/5 471/2/5 472/2/5
f 474/2/5 466/2/5 465/2/5
f 475/1/5 467/1/5 466/1/5
f 475/2/5 466/2/5 474/2/5
f 476/1/5 467/1/5 475/1/5
f 479/2/5 478/2/5 477/2/5
f 480/2/5 478/2/5 479/2/5
f 481/2/5 478/2/5 480/2/5
f 485/2/5 481/2/5 480/2/5
f 485/2/5 482/2/5 481/2/5
f 486/2/5 482/2/5 485/2/5
f 487/4/5 483/4/5 482/4/5
f 487/2/5 482/2/5 486/2/5
f 488/4/5 483/4/5 487/4/5
f 489/2/5 486/2/5 485/2/5
f 489/2/5 485/2/5 484/2/5
f 490/2/5 486/2/5 489/2/5
f 494/2/5 492/2/5 491/2/5
f 495/4/5 493/4/5 492/4/5
f 495/2/5 492/2/5 494/2/5
f 496/4/5 493/4/5 495/4/5
f 499/4/5 493/4/5 496/4/5
f 500/2/5 498/2/5 497/2/5
f 501/4/5 499/4/5 498/4/5
f 501/2/5 498/2/5 500/2/5
f 502/4/5 493/4/5 499/4/5
f 502/4/5 499/4/5 501/4/5
f 506/4/5 504/4/5 503/4/5
f 507/1/5 505/1/5 504/1/5
f 507/4/5 504/4/5 506/4/5
f 508/1/5 505/1/5 507/1/5
f 511/4/5 510/4/5 509/4/5
f 512/4/5 510/4/5 511/4/5
f 513/2/6 514/2/6 516/2/6
f 514/4/6 515/4/6 517/4/6
f 516/2/6 514/2/6 517/2/6
f 517/4/6 515/4/6 518/4/6
f 519/2/6 520/2/6 523/2/6
f 523/2/6 520/2/6 524/2/6
f 521/4/6 522/4/6 525/4/6
f 525/4/6 522/4/6 526/4/6
f 527/2/6 528/2/6 531/2/6
f 531/2/6 528/2/6 532/2/6
f 529/2/6 530/2/6 533/2/6
f 533/2/6 530/2/6 534/2/6
f 535/2/6 536/2/6 539/2/6
f 539/2/6 536/2/6 540/2/6
f 541/2/6 542/2/6 543/2/6
f 543/2/6 542/2/6 544/2/6
f 537/2/6 538/2/6 545/2/6
f 545/2/6 538/2/6 546/2/6
f 547/2/6 548/2/6 549/2/6
f 549/2/6 548/2/6 550/2/6
f 551/1/6 552/1/6 553/1/6
f 553/1/6 552/1/6 554/1/6
f 555/1/6 556/1/6 557/1/6
f 557/1/6 556/1/6 558/1/6
f 561/4/6 562/4/6 563/4/6
f 563/4/6 562/4/6 564/4/6
f 559/1/6 560/1/6 565/1/6
f 565/1/6 560/1/6 566/1/6
f 569/2/6 570/2/6 572/2/6
f 572/2/6 570/2/6 573/2/6
f 569/2/6 572/2/6 574/2/6
f 573/2/6 570/2/6 575/2/6
f 567/1/6 568/1/6 576/1/6
f 576/1/6 568/1/6 577/1/6
f 574/2/6 575/2/6 578/2/6
f 569/2/6 574/2/6 578/2/6
f 570/1/6 571/1/6 579/1/6
f 578/2/6 575/2/6 579/2/6
f 575/2/6 570/2/6 579/2/6
f 579/1/6 571/1/6 580/1/6
f 583/4/6 584/4/6 585/4/6
f 585/4/6 584/4/6 586/4/6
f 581/2/6 582/2/6 587/2/6
f 587/2/6 582/2/6 588/2/6
f 589/4/6 590/4/6 593/4/6
f 593/4/6 590/4/6 594/4/6
f 591/4/6 592/4/6 595/4/6
f 595/4/6 592/4/6 596/4/6
