# MagicaVoxel @ Ephtracy

# group
g blaster9

# material
mtllib blaster9.mtl
usemtl palette

# normals
vn -1 0 0
vn 1 0 0
vn 0 0 1
vn 0 0 -1
vn 0 -1 0
vn 0 1 0

# texcoords
vt 0.724609 0.5
vt 0.884766 0.5
vt 0.888672 0.5
vt 0.943359 0.5
vt 0.970703 0.5
vt 0.978516 0.5
vt 0.982422 0.5
vt 0.986328 0.5
vt 0.990234 0.5

# verts
v -10 2 1
v -10 2 -0
v -10 3 1
v -10 3 -0
v -10 17 1
v -10 17 -0
v -10 18 1
v -10 18 -0
v -9 3 1
v -9 3 -0
v -9 4 1
v -9 4 -0
v -9 16 1
v -9 16 -0
v -9 17 1
v -9 17 -0
v -8 4 1
v -8 4 -0
v -8 5 1
v -8 5 -0
v -8 15 1
v -8 15 -0
v -8 16 1
v -8 16 -0
v -7 5 1
v -7 5 -0
v -7 6 1
v -7 6 -0
v -7 7 1
v -7 7 -0
v -7 13 1
v -7 13 -0
v -7 14 1
v -7 14 -0
v -7 15 1
v -7 15 -0
v -6 6 2
v -6 6 1
v -6 6 -0
v -6 6 -1
v -6 7 2
v -6 7 1
v -6 7 -0
v -6 7 -1
v -6 13 2
v -6 13 1
v -6 13 -0
v -6 13 -1
v -6 14 2
v -6 14 1
v -6 14 -0
v -6 14 -1
v -3 7 2
v -3 7 1
v -3 7 -0
v -3 7 -1
v -3 8 2
v -3 8 1
v -3 8 -0
v -3 8 -1
v -3 12 2
v -3 12 1
v -3 12 -0
v -3 12 -1
v -3 13 2
v -3 13 1
v -3 13 -0
v -3 13 -1
v -2 6 2
v -2 6 1
v -2 6 -0
v -2 6 -1
v -2 7 2
v -2 7 1
v -2 7 -0
v -2 7 -1
v -2 13 2
v -2 13 1
v -2 13 -0
v -2 13 -1
v -2 14 2
v -2 14 1
v -2 14 -0
v -2 14 -1
v 11 8 1
v 11 8 -0
v 11 9 1
v 11 9 -0
v 11 11 1
v 11 11 -0
v 11 12 1
v 11 12 -0
v -3 2 1
v -3 2 -0
v -3 3 1
v -3 3 -0
v -3 6 2
v -3 6 1
v -3 6 -0
v -3 6 -1
v -3 7 2
v -3 7 1
v -3 7 -0
v -3 7 -1
v -3 8 1
v -3 8 -0
v -3 12 1
v -3 12 -0
v -3 13 2
v -3 13 1
v -3 13 -0
v -3 13 -1
v -3 14 2
v -3 14 1
v -3 14 -0
v -3 14 -1
v -3 17 1
v -3 17 -0
v -3 18 1
v -3 18 -0
v 1 6 2
v 1 6 1
v 1 6 -0
v 1 6 -1
v 1 7 2
v 1 7 1
v 1 7 -0
v 1 7 -1
v 1 13 2
v 1 13 1
v 1 13 -0
v 1 13 -1
v 1 14 2
v 1 14 1
v 1 14 -0
v 1 14 -1
v 3 3 1
v 3 3 -0
v 3 4 1
v 3 4 -0
v 3 16 1
v 3 16 -0
v 3 17 1
v 3 17 -0
v 4 7 2
v 4 7 1
v 4 7 -0
v 4 7 -1
v 4 8 2
v 4 8 1
v 4 8 -0
v 4 8 -1
v 4 12 2
v 4 12 1
v 4 12 -0
v 4 12 -1
v 4 13 2
v 4 13 1
v 4 13 -0
v 4 13 -1
v 5 4 1
v 5 4 -0
v 5 5 1
v 5 5 -0
v 5 15 1
v 5 15 -0
v 5 16 1
v 5 16 -0
v 8 5 1
v 8 5 -0
v 8 6 1
v 8 6 -0
v 8 14 1
v 8 14 -0
v 8 15 1
v 8 15 -0
v 11 6 1
v 11 6 -0
v 11 7 1
v 11 7 -0
v 11 13 1
v 11 13 -0
v 11 14 1
v 11 14 -0
v 13 7 1
v 13 7 -0
v 13 8 1
v 13 8 -0
v 13 12 1
v 13 12 -0
v 13 13 1
v 13 13 -0
v 14 8 1
v 14 8 -0
v 14 9 1
v 14 9 -0
v 14 11 1
v 14 11 -0
v 14 12 1
v 14 12 -0
v -6 6 2
v -6 7 2
v -6 13 2
v -6 14 2
v -3 6 2
v -3 7 2
v -3 8 2
v -3 12 2
v -3 13 2
v -3 14 2
v -2 6 2
v -2 7 2
v -2 8 2
v -2 12 2
v -2 13 2
v -2 14 2
v -1 6 2
v -1 7 2
v -1 13 2
v -1 14 2
v 1 6 2
v 1 7 2
v 1 13 2
v 1 14 2
v 4 7 2
v 4 8 2
v 4 12 2
v 4 13 2
v -10 2 1
v -10 3 1
v -10 17 1
v -10 18 1
v -9 3 1
v -9 4 1
v -9 16 1
v -9 17 1
v -8 4 1
v -8 5 1
v -8 15 1
v -8 16 1
v -7 2 1
v -7 3 1
v -7 5 1
v -7 6 1
v -7 7 1
v -7 13 1
v -7 14 1
v -7 15 1
v -7 17 1
v -7 18 1
v -6 4 1
v -6 5 1
v -6 6 1
v -6 7 1
v -6 13 1
v -6 14 1
v -6 15 1
v -6 16 1
v -5 5 1
v -5 6 1
v -5 7 1
v -5 13 1
v -5 14 1
v -5 15 1
v -4 7 1
v -4 13 1
v -3 2 1
v -3 3 1
v -3 4 1
v -3 5 1
v -3 6 1
v -3 7 1
v -3 8 1
v -3 12 1
v -3 13 1
v -3 14 1
v -3 15 1
v -3 16 1
v -3 17 1
v -3 18 1
v -2 6 1
v -2 7 1
v -2 13 1
v -2 14 1
v -1 3 1
v -1 4 1
v -1 5 1
v -1 6 1
v -1 14 1
v -1 15 1
v -1 16 1
v -1 17 1
v 1 3 1
v 1 4 1
v 1 5 1
v 1 6 1
v 1 7 1
v 1 13 1
v 1 14 1
v 1 15 1
v 1 16 1
v 1 17 1
v 3 3 1
v 3 4 1
v 3 5 1
v 3 15 1
v 3 16 1
v 3 17 1
v 4 5 1
v 4 6 1
v 4 7 1
v 4 8 1
v 4 12 1
v 4 13 1
v 4 14 1
v 4 15 1
v 5 4 1
v 5 5 1
v 5 15 1
v 5 16 1
v 6 7 1
v 6 8 1
v 6 12 1
v 6 13 1
v 8 5 1
v 8 6 1
v 8 7 1
v 8 8 1
v 8 12 1
v 8 13 1
v 8 14 1
v 8 15 1
v 11 6 1
v 11 7 1
v 11 8 1
v 11 9 1
v 11 11 1
v 11 12 1
v 11 13 1
v 11 14 1
v 13 7 1
v 13 8 1
v 13 12 1
v 13 13 1
v 14 8 1
v 14 9 1
v 14 11 1
v 14 12 1
v -10 2 -0
v -10 3 -0
v -10 17 -0
v -10 18 -0
v -9 3 -0
v -9 4 -0
v -9 16 -0
v -9 17 -0
v -8 4 -0
v -8 5 -0
v -8 15 -0
v -8 16 -0
v -7 2 -0
v -7 3 -0
v -7 5 -0
v -7 6 -0
v -7 7 -0
v -7 13 -0
v -7 14 -0
v -7 15 -0
v -7 17 -0
v -7 18 -0
v -6 4 -0
v -6 5 -0
v -6 6 -0
v -6 7 -0
v -6 13 -0
v -6 14 -0
v -6 15 -0
v -6 16 -0
v -5 5 -0
v -5 6 -0
v -5 7 -0
v -5 13 -0
v -5 14 -0
v -5 15 -0
v -4 7 -0
v -4 13 -0
v -3 2 -0
v -3 3 -0
v -3 4 -0
v -3 5 -0
v -3 6 -0
v -3 7 -0
v -3 8 -0
v -3 12 -0
v -3 13 -0
v -3 14 -0
v -3 15 -0
v -3 16 -0
v -3 17 -0
v -3 18 -0
v -2 6 -0
v -2 7 -0
v -2 13 -0
v -2 14 -0
v -1 3 -0
v -1 4 -0
v -1 5 -0
v -1 6 -0
v -1 14 -0
v -1 15 -0
v -1 16 -0
v -1 17 -0
v 1 3 -0
v 1 4 -0
v 1 5 -0
v 1 6 -0
v 1 7 -0
v 1 13 -0
v 1 14 -0
v 1 15 -0
v 1 16 -0
v 1 17 -0
v 3 3 -0
v 3 4 -0
v 3 5 -0
v 3 15 -0
v 3 16 -0
v 3 17 -0
v 4 5 -0
v 4 6 -0
v 4 7 -0
v 4 8 -0
v 4 12 -0
v 4 13 -0
v 4 14 -0
v 4 15 -0
v 5 4 -0
v 5 5 -0
v 5 15 -0
v 5 16 -0
v 6 7 -0
v 6 8 -0
v 6 12 -0
v 6 13 -0
v 8 5 -0
v 8 6 -0
v 8 7 -0
v 8 8 -0
v 8 12 -0
v 8 13 -0
v 8 14 -0
v 8 15 -0
v 11 6 -0
v 11 7 -0
v 11 8 -0
v 11 9 -0
v 11 11 -0
v 11 12 -0
v 11 13 -0
v 11 14 -0
v 13 7 -0
v 13 8 -0
v 13 12 -0
v 13 13 -0
v 14 8 -0
v 14 9 -0
v 14 11 -0
v 14 12 -0
v -6 6 -1
v -6 7 -1
v -6 13 -1
v -6 14 -1
v -3 6 -1
v -3 7 -1
v -3 8 -1
v -3 12 -1
v -3 13 -1
v -3 14 -1
v -2 6 -1
v -2 7 -1
v -2 8 -1
v -2 12 -1
v -2 13 -1
v -2 14 -1
v -1 6 -1
v -1 7 -1
v -1 13 -1
v -1 14 -1
v 1 6 -1
v 1 7 -1
v 1 13 -1
v 1 14 -1
v 4 7 -1
v 4 8 -1
v 4 12 -1
v 4 13 -1
v -10 2 1
v -7 2 1
v -3 2 1
v -10 2 -0
v -7 2 -0
v -3 2 -0
v -3 3 1
v -1 3 1
v 1 3 1
v 3 3 1
v -3 3 -0
v -1 3 -0
v 1 3 -0
v 3 3 -0
v 3 4 1
v 5 4 1
v 3 4 -0
v 5 4 -0
v 5 5 1
v 8 5 1
v 5 5 -0
v 8 5 -0
v -6 6 2
v -3 6 2
v -2 6 2
v -1 6 2
v 1 6 2
v -6 6 1
v -5 6 1
v -3 6 1
v -2 6 1
v -1 6 1
v 1 6 1
v 8 6 1
v 11 6 1
v -6 6 -0
v -5 6 -0
v -3 6 -0
v -2 6 -0
v -1 6 -0
v 1 6 -0
v 8 6 -0
v 11 6 -0
v -6 6 -1
v -3 6 -1
v -2 6 -1
v -1 6 -1
v 1 6 -1
v -3 7 2
v -2 7 2
v 1 7 2
v 4 7 2
v -3 7 1
v -2 7 1
v 1 7 1
v 4 7 1
v 11 7 1
v 13 7 1
v -3 7 -0
v -2 7 -0
v 1 7 -0
v 4 7 -0
v 11 7 -0
v 13 7 -0
v -3 7 -1
v -2 7 -1
v 1 7 -1
v 4 7 -1
v 13 8 1
v 14 8 1
v 13 8 -0
v 14 8 -0
v 11 11 1
v 14 11 1
v 11 11 -0
v 14 11 -0
v -3 12 2
v -2 12 2
v 4 12 2
v -3 12 1
v 4 12 1
v 6 12 1
v 8 12 1
v 11 12 1
v -3 12 -0
v 4 12 -0
v 6 12 -0
v 8 12 -0
v 11 12 -0
v -3 12 -1
v -2 12 -1
v 4 12 -1
v -6 13 2
v -3 13 2
v -7 13 1
v -6 13 1
v -5 13 1
v -4 13 1
v -3 13 1
v -7 13 -0
v -6 13 -0
v -5 13 -0
v -4 13 -0
v -3 13 -0
v -6 13 -1
v -3 13 -1
v -8 15 1
v -7 15 1
v -8 15 -0
v -7 15 -0
v -9 16 1
v -8 16 1
v -9 16 -0
v -8 16 -0
v -10 17 1
v -9 17 1
v -10 17 -0
v -9 17 -0
v -10 3 1
v -9 3 1
v -10 3 -0
v -9 3 -0
v -9 4 1
v -8 4 1
v -9 4 -0
v -8 4 -0
v -8 5 1
v -7 5 1
v -8 5 -0
v -7 5 -0
v -6 7 2
v -3 7 2
v -7 7 1
v -6 7 1
v -5 7 1
v -4 7 1
v -3 7 1
v -7 7 -0
v -6 7 -0
v -5 7 -0
v -4 7 -0
v -3 7 -0
v -6 7 -1
v -3 7 -1
v -3 8 2
v -2 8 2
v 4 8 2
v -3 8 1
v 4 8 1
v 6 8 1
v 8 8 1
v 11 8 1
v -3 8 -0
v 4 8 -0
v 6 8 -0
v 8 8 -0
v 11 8 -0
v -3 8 -1
v -2 8 -1
v 4 8 -1
v 11 9 1
v 14 9 1
v 11 9 -0
v 14 9 -0
v 13 12 1
v 14 12 1
v 13 12 -0
v 14 12 -0
v -3 13 2
v -2 13 2
v 1 13 2
v 4 13 2
v -3 13 1
v -2 13 1
v 1 13 1
v 4 13 1
v 11 13 1
v 13 13 1
v -3 13 -0
v -2 13 -0
v 1 13 -0
v 4 13 -0
v 11 13 -0
v 13 13 -0
v -3 13 -1
v -2 13 -1
v 1 13 -1
v 4 13 -1
v -6 14 2
v -3 14 2
v -2 14 2
v -1 14 2
v 1 14 2
v -6 14 1
v -5 14 1
v -3 14 1
v -2 14 1
v -1 14 1
v 1 14 1
v 8 14 1
v 11 14 1
v -6 14 -0
v -5 14 -0
v -3 14 -0
v -2 14 -0
v -1 14 -0
v 1 14 -0
v 8 14 -0
v 11 14 -0
v -6 14 -1
v -3 14 -1
v -2 14 -1
v -1 14 -1
v 1 14 -1
v 5 15 1
v 8 15 1
v 5 15 -0
v 8 15 -0
v 3 16 1
v 5 16 1
v 3 16 -0
v 5 16 -0
v -3 17 1
v -1 17 1
v 1 17 1
v 3 17 1
v -3 17 -0
v -1 17 -0
v 1 17 -0
v 3 17 -0
v -10 18 1
v -7 18 1
v -3 18 1
v -10 18 -0
v -7 18 -0
v -3 18 -0

# faces
f 3/2/1 2/2/1 1/2/1
f 4/2/1 2/2/1 3/2/1
f 7/2/1 6/2/1 5/2/1
f 8/2/1 6/2/1 7/2/1
f 11/1/1 10/1/1 9/1/1
f 12/1/1 10/1/1 11/1/1
f 15/1/1 14/1/1 13/1/1
f 16/1/1 14/1/1 15/1/1
f 19/3/1 18/3/1 17/3/1
f 20/3/1 18/3/1 19/3/1
f 23/3/1 22/3/1 21/3/1
f 24/3/1 22/3/1 23/3/1
f 27/9/1 26/9/1 25/9/1
f 28/9/1 26/9/1 27/9/1
f 29/6/1 28/6/1 27/6/1
f 30/6/1 28/6/1 29/6/1
f 33/6/1 32/6/1 31/6/1
f 34/6/1 32/6/1 33/6/1
f 35/9/1 34/9/1 33/9/1
f 36/9/1 34/9/1 35/9/1
f 41/4/1 38/4/1 37/4/1
f 42/4/1 38/4/1 41/4/1
f 43/4/1 40/4/1 39/4/1
f 44/4/1 40/4/1 43/4/1
f 46/6/1 43/6/1 42/6/1
f 47/6/1 43/6/1 46/6/1
f 49/4/1 46/4/1 45/4/1
f 50/4/1 46/4/1 49/4/1
f 51/4/1 48/4/1 47/4/1
f 52/4/1 48/4/1 51/4/1
f 57/5/1 54/5/1 53/5/1
f 58/5/1 54/5/1 57/5/1
f 59/5/1 56/5/1 55/5/1
f 60/5/1 56/5/1 59/5/1
f 65/5/1 62/5/1 61/5/1
f 66/5/1 62/5/1 65/5/1
f 67/5/1 64/5/1 63/5/1
f 68/5/1 64/5/1 67/5/1
f 73/5/1 70/5/1 69/5/1
f 74/5/1 70/5/1 73/5/1
f 75/5/1 72/5/1 71/5/1
f 76/5/1 72/5/1 75/5/1
f 81/5/1 78/5/1 77/5/1
f 82/5/1 78/5/1 81/5/1
f 83/5/1 80/5/1 79/5/1
f 84/5/1 80/5/1 83/5/1
f 87/2/1 86/2/1 85/2/1
f 88/2/1 86/2/1 87/2/1
f 91/2/1 90/2/1 89/2/1
f 92/2/1 90/2/1 91/2/1
f 93/3/2 94/3/2 95/3/2
f 95/3/2 94/3/2 96/3/2
f 97/4/2 98/4/2 101/4/2
f 101/4/2 98/4/2 102/4/2
f 99/4/2 100/4/2 103/4/2
f 103/4/2 100/4/2 104/4/2
f 105/8/2 106/8/2 107/8/2
f 107/8/2 106/8/2 108/8/2
f 109/4/2 110/4/2 113/4/2
f 113/4/2 110/4/2 114/4/2
f 111/4/2 112/4/2 115/4/2
f 115/4/2 112/4/2 116/4/2
f 117/3/2 118/3/2 119/3/2
f 119/3/2 118/3/2 120/3/2
f 121/4/2 122/4/2 125/4/2
f 125/4/2 122/4/2 126/4/2
f 123/4/2 124/4/2 127/4/2
f 127/4/2 124/4/2 128/4/2
f 129/4/2 130/4/2 133/4/2
f 133/4/2 130/4/2 134/4/2
f 131/4/2 132/4/2 135/4/2
f 135/4/2 132/4/2 136/4/2
f 137/1/2 138/1/2 139/1/2
f 139/1/2 138/1/2 140/1/2
f 141/1/2 142/1/2 143/1/2
f 143/1/2 142/1/2 144/1/2
f 145/4/2 146/4/2 149/4/2
f 149/4/2 146/4/2 150/4/2
f 147/4/2 148/4/2 151/4/2
f 151/4/2 148/4/2 152/4/2
f 153/4/2 154/4/2 157/4/2
f 157/4/2 154/4/2 158/4/2
f 155/4/2 156/4/2 159/4/2
f 159/4/2 156/4/2 160/4/2
f 161/3/2 162/3/2 163/3/2
f 163/3/2 162/3/2 164/3/2
f 165/3/2 166/3/2 167/3/2
f 167/3/2 166/3/2 168/3/2
f 169/2/2 170/2/2 171/2/2
f 171/2/2 170/2/2 172/2/2
f 173/2/2 174/2/2 175/2/2
f 175/2/2 174/2/2 176/2/2
f 177/2/2 178/2/2 179/2/2
f 179/2/2 178/2/2 180/2/2
f 181/2/2 182/2/2 183/2/2
f 183/2/2 182/2/2 184/2/2
f 185/3/2 186/3/2 187/3/2
f 187/3/2 186/3/2 188/3/2
f 189/3/2 190/3/2 191/3/2
f 191/3/2 190/3/2 192/3/2
f 193/2/2 194/2/2 195/2/2
f 195/2/2 194/2/2 196/2/2
f 197/2/2 198/2/2 199/2/2
f 199/2/2 198/2/2 200/2/2
f 205/4/3 202/4/3 201/4/3
f 206/4/3 202/4/3 205/4/3
f 209/4/3 204/4/3 203/4/3
f 210/4/3 204/4/3 209/4/3
f 212/5/3 207/5/3 206/5/3
f 213/5/3 207/5/3 212/5/3
f 214/5/3 209/5/3 208/5/3
f 215/5/3 209/5/3 214/5/3
f 217/5/3 212/5/3 211/5/3
f 218/4/3 213/4/3 212/4/3
f 218/5/3 212/5/3 217/5/3
f 219/5/3 216/5/3 215/5/3
f 219/4/3 215/4/3 214/4/3
f 220/5/3 216/5/3 219/5/3
f 221/4/3 218/4/3 217/4/3
f 222/4/3 213/4/3 218/4/3
f 222/4/3 218/4/3 221/4/3
f 223/4/3 219/4/3 214/4/3
f 223/4/3 220/4/3 219/4/3
f 224/4/3 220/4/3 223/4/3
f 225/4/3 213/4/3 222/4/3
f 226/4/3 213/4/3 225/4/3
f 227/4/3 223/4/3 214/4/3
f 228/4/3 223/4/3 227/4/3
f 233/2/3 230/2/3 229/2/3
f 236/2/3 232/2/3 231/2/3
f 237/1/3 234/1/3 233/1/3
f 240/1/3 236/1/3 235/1/3
f 241/2/3 233/2/3 229/2/3
f 242/1/3 237/1/3 233/1/3
f 242/2/3 233/2/3 241/2/3
f 243/3/3 238/3/3 237/3/3
f 248/3/3 240/3/3 239/3/3
f 249/2/3 232/2/3 236/2/3
f 249/1/3 236/1/3 240/1/3
f 250/2/3 232/2/3 249/2/3
f 251/1/3 237/1/3 242/1/3
f 251/3/3 243/3/3 237/3/3
f 252/9/3 244/9/3 243/9/3
f 252/3/3 243/3/3 251/3/3
f 253/6/3 245/6/3 244/6/3
f 253/9/3 244/9/3 252/9/3
f 254/6/3 245/6/3 253/6/3
f 255/6/3 247/6/3 246/6/3
f 256/9/3 248/9/3 247/9/3
f 256/6/3 247/6/3 255/6/3
f 257/3/3 240/3/3 248/3/3
f 257/9/3 248/9/3 256/9/3
f 258/1/3 249/1/3 240/1/3
f 258/3/3 240/3/3 257/3/3
f 259/2/3 252/2/3 251/2/3
f 259/9/3 253/9/3 252/9/3
f 260/9/3 253/9/3 259/9/3
f 261/6/3 255/6/3 254/6/3
f 262/6/3 255/6/3 261/6/3
f 263/9/3 257/9/3 256/9/3
f 264/2/3 258/2/3 257/2/3
f 264/9/3 257/9/3 263/9/3
f 265/7/3 262/7/3 261/7/3
f 266/7/3 262/7/3 265/7/3
f 267/3/3 242/3/3 241/3/3
f 268/1/3 251/1/3 242/1/3
f 268/3/3 242/3/3 267/3/3
f 269/2/3 259/2/3 251/2/3
f 269/1/3 251/1/3 268/1/3
f 270/3/3 260/3/3 259/3/3
f 270/2/3 259/2/3 269/2/3
f 271/3/3 260/3/3 270/3/3
f 272/8/3 266/8/3 265/8/3
f 273/8/3 266/8/3 272/8/3
f 274/8/3 266/8/3 273/8/3
f 275/8/3 266/8/3 274/8/3
f 276/3/3 264/3/3 263/3/3
f 277/2/3 258/2/3 264/2/3
f 277/3/3 264/3/3 276/3/3
f 278/1/3 249/1/3 258/1/3
f 278/2/3 258/2/3 277/2/3
f 279/3/3 250/3/3 249/3/3
f 279/1/3 249/1/3 278/1/3
f 280/3/3 250/3/3 279/3/3
f 281/1/3 271/1/3 270/1/3
f 281/2/3 272/2/3 271/2/3
f 282/2/3 272/2/3 281/2/3
f 283/2/3 276/2/3 275/2/3
f 284/1/3 277/1/3 276/1/3
f 284/2/3 276/2/3 283/2/3
f 285/1/3 269/1/3 268/1/3
f 286/3/3 270/3/3 269/3/3
f 286/1/3 269/1/3 285/1/3
f 287/1/3 281/1/3 270/1/3
f 287/3/3 270/3/3 286/3/3
f 288/1/3 281/1/3 287/1/3
f 289/1/3 277/1/3 284/1/3
f 290/3/3 278/3/3 277/3/3
f 290/1/3 277/1/3 289/1/3
f 291/1/3 279/1/3 278/1/3
f 291/3/3 278/3/3 290/3/3
f 292/1/3 279/1/3 291/1/3
f 293/3/3 286/3/3 285/3/3
f 294/2/3 287/2/3 286/2/3
f 294/3/3 286/3/3 293/3/3
f 295/1/3 288/1/3 287/1/3
f 295/2/3 287/2/3 294/2/3
f 296/1/3 288/1/3 295/1/3
f 299/1/3 290/1/3 289/1/3
f 300/2/3 291/2/3 290/2/3
f 300/1/3 290/1/3 299/1/3
f 301/3/3 292/3/3 291/3/3
f 301/2/3 291/2/3 300/2/3
f 302/3/3 292/3/3 301/3/3
f 303/1/3 294/1/3 293/1/3
f 304/2/3 295/2/3 294/2/3
f 304/1/3 294/1/3 303/1/3
f 305/3/3 296/3/3 295/3/3
f 305/2/3 295/2/3 304/2/3
f 306/3/3 300/3/3 299/3/3
f 306/2/3 301/2/3 300/2/3
f 307/1/3 302/1/3 301/1/3
f 307/2/3 301/2/3 306/2/3
f 308/1/3 302/1/3 307/1/3
f 309/3/3 296/3/3 305/3/3
f 309/3/3 305/3/3 304/3/3
f 310/2/3 297/2/3 296/2/3
f 310/3/3 296/3/3 309/3/3
f 311/2/3 297/2/3 310/2/3
f 314/2/3 299/2/3 298/2/3
f 315/3/3 307/3/3 306/3/3
f 315/3/3 306/3/3 299/3/3
f 315/2/3 299/2/3 314/2/3
f 316/3/3 307/3/3 315/3/3
f 317/3/3 309/3/3 304/3/3
f 318/2/3 310/2/3 309/2/3
f 318/3/3 309/3/3 317/3/3
f 319/3/3 307/3/3 316/3/3
f 319/2/3 316/2/3 315/2/3
f 320/3/3 307/3/3 319/3/3
f 321/1/3 312/1/3 311/1/3
f 321/3/3 311/3/3 310/3/3
f 322/1/3 312/1/3 321/1/3
f 323/1/3 314/1/3 313/1/3
f 324/3/3 315/3/3 314/3/3
f 324/1/3 314/1/3 323/1/3
f 325/2/3 310/2/3 318/2/3
f 326/3/3 321/3/3 310/3/3
f 326/2/3 310/2/3 325/2/3
f 327/2/3 322/2/3 321/2/3
f 327/3/3 321/3/3 326/3/3
f 328/2/3 322/2/3 327/2/3
f 329/2/3 324/2/3 323/2/3
f 330/3/3 315/3/3 324/3/3
f 330/2/3 324/2/3 329/2/3
f 331/2/3 319/2/3 315/2/3
f 331/3/3 315/3/3 330/3/3
f 332/2/3 319/2/3 331/2/3
f 333/2/3 327/2/3 326/2/3
f 334/1/3 328/1/3 327/1/3
f 334/2/3 327/2/3 333/2/3
f 335/1/3 328/1/3 334/1/3
f 338/1/3 330/1/3 329/1/3
f 339/2/3 331/2/3 330/2/3
f 339/1/3 330/1/3 338/1/3
f 340/2/3 331/2/3 339/2/3
f 341/3/3 335/3/3 334/3/3
f 342/2/3 336/2/3 335/2/3
f 342/3/3 335/3/3 341/3/3
f 343/2/3 338/2/3 337/2/3
f 343/3/3 339/3/3 338/3/3
f 344/3/3 339/3/3 343/3/3
f 345/2/3 336/2/3 342/2/3
f 346/2/3 336/2/3 345/2/3
f 347/2/3 343/2/3 337/2/3
f 348/2/3 343/2/3 347/2/3
f 349/2/4 350/2/4 353/2/4
f 351/2/4 352/2/4 356/2/4
f 353/1/4 354/1/4 357/1/4
f 355/1/4 356/1/4 360/1/4
f 349/2/4 353/2/4 361/2/4
f 353/1/4 357/1/4 362/1/4
f 361/2/4 353/2/4 362/2/4
f 357/3/4 358/3/4 363/3/4
f 359/3/4 360/3/4 368/3/4
f 356/2/4 352/2/4 369/2/4
f 360/1/4 356/1/4 369/1/4
f 369/2/4 352/2/4 370/2/4
f 362/1/4 357/1/4 371/1/4
f 357/3/4 363/3/4 371/3/4
f 363/9/4 364/9/4 372/9/4
f 371/3/4 363/3/4 372/3/4
f 364/6/4 365/6/4 373/6/4
f 372/9/4 364/9/4 373/9/4
f 373/6/4 365/6/4 374/6/4
f 366/6/4 367/6/4 375/6/4
f 367/9/4 368/9/4 376/9/4
f 375/6/4 367/6/4 376/6/4
f 368/3/4 360/3/4 377/3/4
f 376/9/4 368/9/4 377/9/4
f 360/1/4 369/1/4 378/1/4
f 377/3/4 360/3/4 378/3/4
f 371/2/4 372/2/4 379/2/4
f 372/9/4 373/9/4 379/9/4
f 379/9/4 373/9/4 380/9/4
f 374/6/4 375/6/4 381/6/4
f 381/6/4 375/6/4 382/6/4
f 376/9/4 377/9/4 383/9/4
f 377/2/4 378/2/4 384/2/4
f 383/9/4 377/9/4 384/9/4
f 381/7/4 382/7/4 385/7/4
f 385/7/4 382/7/4 386/7/4
f 361/3/4 362/3/4 387/3/4
f 362/1/4 371/1/4 388/1/4
f 387/3/4 362/3/4 388/3/4
f 371/2/4 379/2/4 389/2/4
f 388/1/4 371/1/4 389/1/4
f 379/3/4 380/3/4 390/3/4
f 389/2/4 379/2/4 390/2/4
f 390/3/4 380/3/4 391/3/4
f 385/8/4 386/8/4 392/8/4
f 392/8/4 386/8/4 393/8/4
f 393/8/4 386/8/4 394/8/4
f 394/8/4 386/8/4 395/8/4
f 383/3/4 384/3/4 396/3/4
f 384/2/4 378/2/4 397/2/4
f 396/3/4 384/3/4 397/3/4
f 378/1/4 369/1/4 398/1/4
f 397/2/4 378/2/4 398/2/4
f 369/3/4 370/3/4 399/3/4
f 398/1/4 369/1/4 399/1/4
f 399/3/4 370/3/4 400/3/4
f 390/1/4 391/1/4 401/1/4
f 391/2/4 392/2/4 401/2/4
f 401/2/4 392/2/4 402/2/4
f 395/2/4 396/2/4 403/2/4
f 396/1/4 397/1/4 404/1/4
f 403/2/4 396/2/4 404/2/4
f 388/1/4 389/1/4 405/1/4
f 389/3/4 390/3/4 406/3/4
f 405/1/4 389/1/4 406/1/4
f 390/1/4 401/1/4 407/1/4
f 406/3/4 390/3/4 407/3/4
f 407/1/4 401/1/4 408/1/4
f 404/1/4 397/1/4 409/1/4
f 397/3/4 398/3/4 410/3/4
f 409/1/4 397/1/4 410/1/4
f 398/1/4 399/1/4 411/1/4
f 410/3/4 398/3/4 411/3/4
f 411/1/4 399/1/4 412/1/4
f 405/3/4 406/3/4 413/3/4
f 406/2/4 407/2/4 414/2/4
f 413/3/4 406/3/4 414/3/4
f 407/1/4 408/1/4 415/1/4
f 414/2/4 407/2/4 415/2/4
f 415/1/4 408/1/4 416/1/4
f 409/1/4 410/1/4 419/1/4
f 410/2/4 411/2/4 420/2/4
f 419/1/4 410/1/4 420/1/4
f 411/3/4 412/3/4 421/3/4
f 420/2/4 411/2/4 421/2/4
f 421/3/4 412/3/4 422/3/4
f 413/1/4 414/1/4 423/1/4
f 414/2/4 415/2/4 424/2/4
f 423/1/4 414/1/4 424/1/4
f 415/3/4 416/3/4 425/3/4
f 424/2/4 415/2/4 425/2/4
f 419/3/4 420/3/4 426/3/4
f 420/2/4 421/2/4 426/2/4
f 421/1/4 422/1/4 427/1/4
f 426/2/4 421/2/4 427/2/4
f 427/1/4 422/1/4 428/1/4
f 425/3/4 416/3/4 429/3/4
f 424/3/4 425/3/4 429/3/4
f 416/2/4 417/2/4 430/2/4
f 429/3/4 416/3/4 430/3/4
f 430/2/4 417/2/4 431/2/4
f 418/2/4 419/2/4 434/2/4
f 426/3/4 427/3/4 435/3/4
f 419/3/4 426/3/4 435/3/4
f 434/2/4 419/2/4 435/2/4
f 435/3/4 427/3/4 436/3/4
f 424/3/4 429/3/4 437/3/4
f 429/2/4 430/2/4 438/2/4
f 437/3/4 429/3/4 438/3/4
f 436/3/4 427/3/4 439/3/4
f 435/2/4 436/2/4 439/2/4
f 439/3/4 427/3/4 440/3/4
f 431/1/4 432/1/4 441/1/4
f 430/3/4 431/3/4 441/3/4
f 441/1/4 432/1/4 442/1/4
f 433/1/4 434/1/4 443/1/4
f 434/3/4 435/3/4 444/3/4
f 443/1/4 434/1/4 444/1/4
f 438/2/4 430/2/4 445/2/4
f 430/3/4 441/3/4 446/3/4
f 445/2/4 430/2/4 446/2/4
f 441/2/4 442/2/4 447/2/4
f 446/3/4 441/3/4 447/3/4
f 447/2/4 442/2/4 448/2/4
f 443/2/4 444/2/4 449/2/4
f 444/3/4 435/3/4 450/3/4
f 449/2/4 444/2/4 450/2/4
f 435/2/4 439/2/4 451/2/4
f 450/3/4 435/3/4 451/3/4
f 451/2/4 439/2/4 452/2/4
f 446/2/4 447/2/4 453/2/4
f 447/1/4 448/1/4 454/1/4
f 453/2/4 447/2/4 454/2/4
f 454/1/4 448/1/4 455/1/4
f 449/1/4 450/1/4 458/1/4
f 450/2/4 451/2/4 459/2/4
f 458/1/4 450/1/4 459/1/4
f 459/2/4 451/2/4 460/2/4
f 454/3/4 455/3/4 461/3/4
f 455/2/4 456/2/4 462/2/4
f 461/3/4 455/3/4 462/3/4
f 457/2/4 458/2/4 463/2/4
f 458/3/4 459/3/4 463/3/4
f 463/3/4 459/3/4 464/3/4
f 462/2/4 456/2/4 465/2/4
f 465/2/4 456/2/4 466/2/4
f 457/2/4 463/2/4 467/2/4
f 467/2/4 463/2/4 468/2/4
f 469/4/4 470/4/4 473/4/4
f 473/4/4 470/4/4 474/4/4
f 471/4/4 472/4/4 477/4/4
f 477/4/4 472/4/4 478/4/4
f 474/5/4 475/5/4 480/5/4
f 480/5/4 475/5/4 481/5/4
f 476/5/4 477/5/4 482/5/4
f 482/5/4 477/5/4 483/5/4
f 479/5/4 480/5/4 485/5/4
f 480/4/4 481/4/4 486/4/4
f 485/5/4 480/5/4 486/5/4
f 483/5/4 484/5/4 487/5/4
f 482/4/4 483/4/4 487/4/4
f 487/5/4 484/5/4 488/5/4
f 485/4/4 486/4/4 489/4/4
f 486/4/4 481/4/4 490/4/4
f 489/4/4 486/4/4 490/4/4
f 482/4/4 487/4/4 491/4/4
f 487/4/4 488/4/4 491/4/4
f 491/4/4 488/4/4 492/4/4
f 490/4/4 481/4/4 493/4/4
f 493/4/4 481/4/4 494/4/4
f 482/4/4 491/4/4 495/4/4
f 495/4/4 491/4/4 496/4/4
f 500/2/5 498/2/5 497/2/5
f 501/3/5 499/3/5 498/3/5
f 501/2/5 498/2/5 500/2/5
f 502/3/5 499/3/5 501/3/5
f 507/1/5 504/1/5 503/1/5
f 508/3/5 505/3/5 504/3/5
f 508/1/5 504/1/5 507/1/5
f 509/1/5 506/1/5 505/1/5
f 509/3/5 505/3/5 508/3/5
f 510/1/5 506/1/5 509/1/5
f 513/3/5 512/3/5 511/3/5
f 514/3/5 512/3/5 513/3/5
f 517/2/5 516/2/5 515/2/5
f 518/2/5 516/2/5 517/2/5
f 524/4/5 520/4/5 519/4/5
f 525/4/5 520/4/5 524/4/5
f 526/4/5 520/4/5 525/4/5
f 527/5/5 522/5/5 521/5/5
f 528/4/5 523/4/5 522/4/5
f 528/5/5 522/5/5 527/5/5
f 529/4/5 523/4/5 528/4/5
f 538/2/5 531/2/5 530/2/5
f 539/2/5 531/2/5 538/2/5
f 540/4/5 533/4/5 532/4/5
f 540/4/5 534/4/5 533/4/5
f 541/4/5 534/4/5 540/4/5
f 542/5/5 536/5/5 535/5/5
f 543/4/5 537/4/5 536/4/5
f 543/5/5 536/5/5 542/5/5
f 544/4/5 537/4/5 543/4/5
f 549/5/5 546/5/5 545/5/5
f 550/5/5 546/5/5 549/5/5
f 551/4/5 548/4/5 547/4/5
f 552/4/5 548/4/5 551/4/5
f 559/3/5 554/3/5 553/3/5
f 560/3/5 554/3/5 559/3/5
f 561/5/5 556/5/5 555/5/5
f 562/5/5 556/5/5 561/5/5
f 563/4/5 558/4/5 557/4/5
f 564/4/5 558/4/5 563/4/5
f 567/2/5 566/2/5 565/2/5
f 568/2/5 566/2/5 567/2/5
f 571/2/5 570/2/5 569/2/5
f 572/2/5 570/2/5 571/2/5
f 576/5/5 574/5/5 573/5/5
f 577/4/5 575/4/5 574/4/5
f 581/5/5 574/5/5 576/5/5
f 582/4/5 577/4/5 574/4/5
f 582/1/5 578/1/5 577/1/5
f 583/2/5 579/2/5 578/2/5
f 583/1/5 578/1/5 582/1/5
f 584/1/5 580/1/5 579/1/5
f 584/2/5 579/2/5 583/2/5
f 585/1/5 580/1/5 584/1/5
f 586/5/5 574/5/5 581/5/5
f 587/4/5 582/4/5 574/4/5
f 587/5/5 574/5/5 586/5/5
f 588/4/5 582/4/5 587/4/5
f 592/4/5 590/4/5 589/4/5
f 593/4/5 590/4/5 592/4/5
f 594/4/5 590/4/5 593/4/5
f 595/4/5 590/4/5 594/4/5
f 596/6/5 592/6/5 591/6/5
f 597/6/5 592/6/5 596/6/5
f 601/4/5 600/4/5 599/4/5
f 601/4/5 599/4/5 598/4/5
f 601/4/5 598/4/5 597/4/5
f 602/4/5 600/4/5 601/4/5
f 605/3/5 604/3/5 603/3/5
f 606/3/5 604/3/5 605/3/5
f 609/1/5 608/1/5 607/1/5
f 610/1/5 608/1/5 609/1/5
f 613/2/5 612/2/5 611/2/5
f 614/2/5 612/2/5 613/2/5
f 615/2/6 616/2/6 617/2/6
f 617/2/6 616/2/6 618/2/6
f 619/1/6 620/1/6 621/1/6
f 621/1/6 620/1/6 622/1/6
f 623/3/6 624/3/6 625/3/6
f 625/3/6 624/3/6 626/3/6
f 627/4/6 628/4/6 630/4/6
f 630/4/6 628/4/6 631/4/6
f 631/4/6 628/4/6 632/4/6
f 632/4/6 628/4/6 633/4/6
f 629/6/6 630/6/6 634/6/6
f 634/6/6 630/6/6 635/6/6
f 637/4/6 638/4/6 639/4/6
f 636/4/6 637/4/6 639/4/6
f 635/4/6 636/4/6 639/4/6
f 639/4/6 638/4/6 640/4/6
f 641/5/6 642/5/6 644/5/6
f 642/4/6 643/4/6 645/4/6
f 644/5/6 642/5/6 649/5/6
f 642/4/6 645/4/6 650/4/6
f 645/1/6 646/1/6 650/1/6
f 646/2/6 647/2/6 651/2/6
f 650/1/6 646/1/6 651/1/6
f 647/1/6 648/1/6 652/1/6
f 651/2/6 647/2/6 652/2/6
f 652/1/6 648/1/6 653/1/6
f 649/5/6 642/5/6 654/5/6
f 642/4/6 650/4/6 655/4/6
f 654/5/6 642/5/6 655/5/6
f 655/4/6 650/4/6 656/4/6
f 657/2/6 658/2/6 659/2/6
f 659/2/6 658/2/6 660/2/6
f 661/2/6 662/2/6 663/2/6
f 663/2/6 662/2/6 664/2/6
f 665/5/6 666/5/6 669/5/6
f 669/5/6 666/5/6 670/5/6
f 667/4/6 668/4/6 671/4/6
f 671/4/6 668/4/6 672/4/6
f 673/3/6 674/3/6 679/3/6
f 679/3/6 674/3/6 680/3/6
f 675/5/6 676/5/6 681/5/6
f 681/5/6 676/5/6 682/5/6
f 677/4/6 678/4/6 683/4/6
f 683/4/6 678/4/6 684/4/6
f 685/4/6 686/4/6 690/4/6
f 690/4/6 686/4/6 691/4/6
f 691/4/6 686/4/6 692/4/6
f 687/5/6 688/5/6 693/5/6
f 688/4/6 689/4/6 694/4/6
f 693/5/6 688/5/6 694/5/6
f 694/4/6 689/4/6 695/4/6
f 696/2/6 697/2/6 704/2/6
f 704/2/6 697/2/6 705/2/6
f 698/4/6 699/4/6 706/4/6
f 699/4/6 700/4/6 706/4/6
f 706/4/6 700/4/6 707/4/6
f 701/5/6 702/5/6 708/5/6
f 702/4/6 703/4/6 709/4/6
f 708/5/6 702/5/6 709/5/6
f 709/4/6 703/4/6 710/4/6
f 711/2/6 712/2/6 713/2/6
f 713/2/6 712/2/6 714/2/6
f 715/3/6 716/3/6 717/3/6
f 717/3/6 716/3/6 718/3/6
f 719/1/6 720/1/6 723/1/6
f 720/3/6 721/3/6 724/3/6
f 723/1/6 720/1/6 724/1/6
f 721/1/6 722/1/6 725/1/6
f 724/3/6 721/3/6 725/3/6
f 725/1/6 722/1/6 726/1/6
f 727/2/6 728/2/6 730/2/6
f 728/3/6 729/3/6 731/3/6
f 730/2/6 728/2/6 731/2/6
f 731/3/6 729/3/6 732/3/6
