# MagicaVoxel @ Ephtracy

# group
g blaster57

# material
mtllib blaster57.mtl
usemtl palette

# normals
vn -1 0 0
vn 1 0 0
vn 0 0 1
vn 0 0 -1
vn 0 -1 0
vn 0 1 0

# texcoords
vt 0.705078 0.5
vt 0.962891 0.5
vt 0.966797 0.5
vt 0.970703 0.5
vt 0.982422 0.5
vt 0.986328 0.5
vt 0.990234 0.5

# verts
v -18 5 -1
v -18 5 -4
v -18 9 -1
v -18 9 -4
v -17 9 -2
v -17 9 -3
v -17 10 -2
v -17 10 -3
v -15 5 -1
v -15 5 -4
v -15 7 -1
v -15 7 -4
v -15 8 -1
v -15 8 -4
v -15 9 -2
v -15 9 -3
v -15 10 -2
v -15 10 -3
v -14 10 -2
v -14 10 -3
v -14 11 -2
v -14 11 -3
v -13 3 -1
v -13 3 -4
v -13 5 -1
v -13 5 -4
v -11 2 -1
v -11 2 -4
v -11 3 -1
v -11 3 -4
v -10 1 -1
v -10 1 -4
v -10 2 -1
v -10 2 -4
v -10 7 -2
v -10 7 -3
v -10 8 -2
v -10 8 -3
v -9 7 -1
v -9 7 -2
v -9 7 -3
v -9 7 -4
v -9 8 -1
v -9 8 -2
v -9 8 -3
v -9 8 -4
v -8 8 -2
v -8 8 -3
v -8 9 -2
v -8 9 -3
v -7 2 -2
v -7 2 -3
v -7 5 -2
v -7 5 -3
v -7 8 -1
v -7 8 -2
v -7 8 -3
v -7 8 -4
v -7 9 -1
v -7 9 -2
v -7 9 -3
v -7 9 -4
v -7 10 -2
v -7 10 -3
v -4 2 -1
v -4 2 -2
v -4 2 -3
v -4 2 -4
v -4 3 -1
v -4 3 -2
v -4 3 -3
v -4 3 -4
v -4 9 -1
v -4 9 -2
v -4 9 -3
v -4 9 -4
v -4 10 -1
v -4 10 -2
v -4 10 -3
v -4 10 -4
v -4 11 -2
v -4 11 -3
v -2 0 -1
v -2 0 -4
v -2 2 -1
v -2 2 -4
v -2 3 -1
v -2 3 -4
v -2 5 -1
v -2 5 -4
v 3 6 -2
v 3 6 -3
v 3 7 -2
v 3 7 -3
v 4 3 -1
v 4 3 -4
v 4 4 -1
v 4 4 -4
v 4 6 -1
v 4 6 -2
v 4 6 -3
v 4 6 -4
v 4 7 -1
v 4 7 -2
v 4 7 -3
v 4 7 -4
v 5 4 -1
v 5 4 -4
v 5 5 -1
v 5 5 -4
v 5 6 -1
v 5 6 -4
v 7 9 -1
v 7 9 -4
v 7 10 -1
v 7 10 -2
v 7 10 -3
v 7 10 -4
v -16 5 -1
v -16 5 -4
v -16 8 -1
v -16 8 -4
v -16 9 -2
v -16 9 -3
v -16 10 -2
v -16 10 -3
v -15 8 -1
v -15 8 -2
v -15 8 -3
v -15 8 -4
v -15 9 -1
v -15 9 -2
v -15 9 -3
v -15 9 -4
v -14 7 -1
v -14 7 -4
v -14 8 -1
v -14 8 -2
v -14 8 -3
v -14 8 -4
v -14 9 -2
v -14 9 -3
v -13 9 -2
v -13 9 -3
v -13 10 -2
v -13 10 -3
v -12 10 -2
v -12 10 -3
v -12 11 -2
v -12 11 -3
v -11 4 -1
v -11 4 -4
v -11 5 -1
v -11 5 -4
v -10 3 -1
v -10 3 -4
v -10 4 -1
v -10 4 -4
v -9 2 -1
v -9 2 -4
v -9 3 -1
v -9 3 -4
v -8 1 -1
v -8 1 -2
v -8 1 -3
v -8 1 -4
v -8 2 -1
v -8 2 -2
v -8 2 -3
v -8 2 -4
v -5 1 -2
v -5 1 -3
v -5 2 -2
v -5 2 -3
v -5 3 -2
v -5 3 -3
v -5 5 -2
v -5 5 -3
v 0 0 -1
v 0 0 -4
v 0 1 -1
v 0 1 -4
v 0 3 -1
v 0 3 -4
v 0 5 -1
v 0 5 -4
v 0 6 -1
v 0 6 -4
v 1 6 -1
v 1 6 -2
v 1 6 -3
v 1 6 -4
v 1 7 -1
v 1 7 -2
v 1 7 -3
v 1 7 -4
v 1 9 -1
v 1 9 -4
v 1 10 -1
v 1 10 -2
v 1 10 -3
v 1 10 -4
v 2 6 -2
v 2 6 -3
v 2 7 -2
v 2 7 -3
v 4 1 -1
v 4 1 -4
v 4 2 -1
v 4 2 -4
v 5 2 -1
v 5 2 -4
v 5 3 -1
v 5 3 -4
v 6 3 -1
v 6 3 -4
v 6 5 -1
v 6 5 -4
v 9 10 -2
v 9 10 -3
v 9 11 -2
v 9 11 -3
v 10 6 -1
v 10 6 -4
v 10 7 -1
v 10 7 -2
v 10 7 -3
v 10 7 -4
v 10 8 -1
v 10 8 -2
v 10 8 -3
v 10 8 -4
v 10 9 -1
v 10 9 -4
v 11 5 -1
v 11 5 -4
v 11 6 -1
v 11 6 -4
v 11 7 -2
v 11 7 -3
v 11 8 -2
v 11 8 -3
v 11 9 -1
v 11 9 -4
v 11 10 -1
v 11 10 -4
v -18 5 -1
v -18 9 -1
v -16 5 -1
v -16 8 -1
v -15 5 -1
v -15 7 -1
v -15 8 -1
v -15 9 -1
v -14 7 -1
v -14 8 -1
v -13 3 -1
v -13 5 -1
v -11 2 -1
v -11 3 -1
v -11 4 -1
v -11 5 -1
v -10 1 -1
v -10 2 -1
v -10 3 -1
v -10 4 -1
v -9 2 -1
v -9 3 -1
v -9 7 -1
v -9 8 -1
v -8 1 -1
v -8 2 -1
v -7 8 -1
v -7 9 -1
v -5 5 -1
v -5 7 -1
v -4 2 -1
v -4 3 -1
v -4 9 -1
v -4 10 -1
v -3 8 -1
v -3 9 -1
v -2 0 -1
v -2 2 -1
v -2 3 -1
v -2 5 -1
v -2 8 -1
v -2 9 -1
v -1 7 -1
v -1 8 -1
v 0 0 -1
v 0 1 -1
v 0 3 -1
v 0 5 -1
v 0 6 -1
v 1 6 -1
v 1 7 -1
v 1 9 -1
v 1 10 -1
v 4 1 -1
v 4 2 -1
v 4 3 -1
v 4 4 -1
v 4 6 -1
v 4 7 -1
v 5 2 -1
v 5 3 -1
v 5 4 -1
v 5 5 -1
v 5 6 -1
v 6 3 -1
v 6 5 -1
v 7 9 -1
v 7 10 -1
v 10 6 -1
v 10 7 -1
v 10 8 -1
v 10 9 -1
v 11 5 -1
v 11 6 -1
v 11 9 -1
v 11 10 -1
v -17 9 -2
v -17 10 -2
v -16 9 -2
v -16 10 -2
v -15 8 -2
v -15 9 -2
v -15 10 -2
v -14 8 -2
v -14 9 -2
v -14 10 -2
v -14 11 -2
v -13 9 -2
v -13 10 -2
v -12 10 -2
v -12 11 -2
v -10 7 -2
v -10 8 -2
v -9 7 -2
v -9 8 -2
v -8 1 -2
v -8 2 -2
v -8 8 -2
v -8 9 -2
v -7 1 -2
v -7 2 -2
v -7 5 -2
v -7 8 -2
v -7 9 -2
v -7 10 -2
v -5 1 -2
v -5 2 -2
v -5 3 -2
v -5 5 -2
v -4 2 -2
v -4 3 -2
v -4 9 -2
v -4 10 -2
v -4 11 -2
v 1 6 -2
v 1 7 -2
v 1 10 -2
v 2 6 -2
v 2 7 -2
v 3 6 -2
v 3 7 -2
v 4 6 -2
v 4 7 -2
v 7 10 -2
v 9 10 -2
v 9 11 -2
v 10 7 -2
v 10 8 -2
v 11 7 -2
v 11 8 -2
v -17 9 -3
v -17 10 -3
v -16 9 -3
v -16 10 -3
v -15 8 -3
v -15 9 -3
v -15 10 -3
v -14 8 -3
v -14 9 -3
v -14 10 -3
v -14 11 -3
v -13 9 -3
v -13 10 -3
v -12 10 -3
v -12 11 -3
v -10 7 -3
v -10 8 -3
v -9 7 -3
v -9 8 -3
v -8 1 -3
v -8 2 -3
v -8 8 -3
v -8 9 -3
v -7 1 -3
v -7 2 -3
v -7 5 -3
v -7 8 -3
v -7 9 -3
v -7 10 -3
v -5 1 -3
v -5 2 -3
v -5 3 -3
v -5 5 -3
v -4 2 -3
v -4 3 -3
v -4 9 -3
v -4 10 -3
v -4 11 -3
v 1 6 -3
v 1 7 -3
v 1 10 -3
v 2 6 -3
v 2 7 -3
v 3 6 -3
v 3 7 -3
v 4 6 -3
v 4 7 -3
v 7 10 -3
v 9 10 -3
v 9 11 -3
v 10 7 -3
v 10 8 -3
v 11 7 -3
v 11 8 -3
v -18 5 -4
v -18 9 -4
v -16 5 -4
v -16 8 -4
v -15 5 -4
v -15 7 -4
v -15 8 -4
v -15 9 -4
v -14 7 -4
v -14 8 -4
v -13 3 -4
v -13 5 -4
v -11 2 -4
v -11 3 -4
v -11 4 -4
v -11 5 -4
v -10 1 -4
v -10 2 -4
v -10 3 -4
v -10 4 -4
v -9 2 -4
v -9 3 -4
v -9 7 -4
v -9 8 -4
v -8 1 -4
v -8 2 -4
v -7 8 -4
v -7 9 -4
v -5 5 -4
v -5 7 -4
v -4 2 -4
v -4 3 -4
v -4 9 -4
v -4 10 -4
v -3 8 -4
v -3 9 -4
v -2 0 -4
v -2 2 -4
v -2 3 -4
v -2 5 -4
v -2 8 -4
v -2 9 -4
v -1 7 -4
v -1 8 -4
v 0 0 -4
v 0 1 -4
v 0 3 -4
v 0 5 -4
v 0 6 -4
v 1 6 -4
v 1 7 -4
v 1 9 -4
v 1 10 -4
v 4 1 -4
v 4 2 -4
v 4 3 -4
v 4 4 -4
v 4 6 -4
v 4 7 -4
v 5 2 -4
v 5 3 -4
v 5 4 -4
v 5 5 -4
v 5 6 -4
v 6 3 -4
v 6 5 -4
v 7 9 -4
v 7 10 -4
v 10 6 -4
v 10 7 -4
v 10 8 -4
v 10 9 -4
v 11 5 -4
v 11 6 -4
v 11 9 -4
v 11 10 -4
v -2 0 -1
v 0 0 -1
v -2 0 -4
v 0 0 -4
v -10 1 -1
v -8 1 -1
v 0 1 -1
v 4 1 -1
v -8 1 -2
v -7 1 -2
v -5 1 -2
v -8 1 -3
v -7 1 -3
v -5 1 -3
v -10 1 -4
v -8 1 -4
v 0 1 -4
v 4 1 -4
v -11 2 -1
v -10 2 -1
v -4 2 -1
v -2 2 -1
v 4 2 -1
v 5 2 -1
v -5 2 -2
v -4 2 -2
v -5 2 -3
v -4 2 -3
v -11 2 -4
v -10 2 -4
v -4 2 -4
v -2 2 -4
v 4 2 -4
v 5 2 -4
v -13 3 -1
v -11 3 -1
v 5 3 -1
v 6 3 -1
v -13 3 -4
v -11 3 -4
v 5 3 -4
v 6 3 -4
v -18 5 -1
v -16 5 -1
v -15 5 -1
v -13 5 -1
v -11 5 -1
v -5 5 -1
v -2 5 -1
v 6 5 -1
v 11 5 -1
v -7 5 -2
v -5 5 -2
v -7 5 -3
v -5 5 -3
v -18 5 -4
v -16 5 -4
v -15 5 -4
v -13 5 -4
v -11 5 -4
v -5 5 -4
v -2 5 -4
v 6 5 -4
v 11 5 -4
v 0 6 -1
v 1 6 -1
v 4 6 -1
v 5 6 -1
v 1 6 -2
v 2 6 -2
v 3 6 -2
v 4 6 -2
v 1 6 -3
v 2 6 -3
v 3 6 -3
v 4 6 -3
v 0 6 -4
v 1 6 -4
v 4 6 -4
v 5 6 -4
v 1 7 -1
v 4 7 -1
v 1 7 -2
v 2 7 -2
v 3 7 -2
v 4 7 -2
v 10 7 -2
v 11 7 -2
v 1 7 -3
v 2 7 -3
v 3 7 -3
v 4 7 -3
v 10 7 -3
v 11 7 -3
v 1 7 -4
v 4 7 -4
v -16 8 -1
v -15 8 -1
v -16 8 -4
v -15 8 -4
v 10 9 -1
v 11 9 -1
v -14 9 -2
v -13 9 -2
v -14 9 -3
v -13 9 -3
v 10 9 -4
v 11 9 -4
v -13 10 -2
v -12 10 -2
v 1 10 -2
v 7 10 -2
v -13 10 -3
v -12 10 -3
v 1 10 -3
v 7 10 -3
v -9 2 -1
v -8 2 -1
v -8 2 -2
v -7 2 -2
v -8 2 -3
v -7 2 -3
v -9 2 -4
v -8 2 -4
v -10 3 -1
v -9 3 -1
v -4 3 -1
v -2 3 -1
v 0 3 -1
v 4 3 -1
v -5 3 -2
v -4 3 -2
v -5 3 -3
v -4 3 -3
v -10 3 -4
v -9 3 -4
v -4 3 -4
v -2 3 -4
v 0 3 -4
v 4 3 -4
v -11 4 -1
v -10 4 -1
v 4 4 -1
v 5 4 -1
v -11 4 -4
v -10 4 -4
v 4 4 -4
v 5 4 -4
v 10 6 -1
v 11 6 -1
v 10 6 -4
v 11 6 -4
v -14 7 -1
v -9 7 -1
v -10 7 -2
v -9 7 -2
v -10 7 -3
v -9 7 -3
v -14 7 -4
v -9 7 -4
v -15 8 -1
v -14 8 -1
v -9 8 -1
v -7 8 -1
v -15 8 -2
v -14 8 -2
v -10 8 -2
v -9 8 -2
v -8 8 -2
v -7 8 -2
v 10 8 -2
v 11 8 -2
v -15 8 -3
v -14 8 -3
v -10 8 -3
v -9 8 -3
v -8 8 -3
v -7 8 -3
v 10 8 -3
v 11 8 -3
v -15 8 -4
v -14 8 -4
v -9 8 -4
v -7 8 -4
v -18 9 -1
v -15 9 -1
v -7 9 -1
v -4 9 -1
v 1 9 -1
v 7 9 -1
v -17 9 -2
v -16 9 -2
v -15 9 -2
v -8 9 -2
v -7 9 -2
v -4 9 -2
v -17 9 -3
v -16 9 -3
v -15 9 -3
v -8 9 -3
v -7 9 -3
v -4 9 -3
v -18 9 -4
v -15 9 -4
v -7 9 -4
v -4 9 -4
v 1 9 -4
v 7 9 -4
v -4 10 -1
v 1 10 -1
v 7 10 -1
v 11 10 -1
v -17 10 -2
v -16 10 -2
v -15 10 -2
v -14 10 -2
v -7 10 -2
v -4 10 -2
v 1 10 -2
v 7 10 -2
v 9 10 -2
v -17 10 -3
v -16 10 -3
v -15 10 -3
v -14 10 -3
v -7 10 -3
v -4 10 -3
v 1 10 -3
v 7 10 -3
v 9 10 -3
v -4 10 -4
v 1 10 -4
v 7 10 -4
v 11 10 -4
v -14 11 -2
v -12 11 -2
v -4 11 -2
v 9 11 -2
v -14 11 -3
v -12 11 -3
v -4 11 -3
v 9 11 -3

# faces
f 3/5/1 2/5/1 1/5/1
f 4/5/1 2/5/1 3/5/1
f 7/5/1 6/5/1 5/5/1
f 8/5/1 6/5/1 7/5/1
f 11/6/1 10/6/1 9/6/1
f 12/6/1 10/6/1 11/6/1
f 13/5/1 12/5/1 11/5/1
f 14/5/1 12/5/1 13/5/1
f 17/5/1 16/5/1 15/5/1
f 18/5/1 16/5/1 17/5/1
f 21/5/1 20/5/1 19/5/1
f 22/5/1 20/5/1 21/5/1
f 25/5/1 24/5/1 23/5/1
f 26/5/1 24/5/1 25/5/1
f 29/5/1 28/5/1 27/5/1
f 30/5/1 28/5/1 29/5/1
f 33/5/1 32/5/1 31/5/1
f 34/5/1 32/5/1 33/5/1
f 37/2/1 36/2/1 35/2/1
f 38/2/1 36/2/1 37/2/1
f 43/2/1 40/2/1 39/2/1
f 44/2/1 40/2/1 43/2/1
f 45/2/1 42/2/1 41/2/1
f 46/2/1 42/2/1 45/2/1
f 49/3/1 48/3/1 47/3/1
f 50/3/1 48/3/1 49/3/1
f 53/7/1 52/7/1 51/7/1
f 54/7/1 52/7/1 53/7/1
f 59/3/1 56/3/1 55/3/1
f 60/3/1 56/3/1 59/3/1
f 61/3/1 58/3/1 57/3/1
f 62/3/1 58/3/1 61/3/1
f 63/1/1 61/1/1 60/1/1
f 64/1/1 61/1/1 63/1/1
f 69/5/1 66/5/1 65/5/1
f 70/5/1 66/5/1 69/5/1
f 71/5/1 68/5/1 67/5/1
f 72/5/1 68/5/1 71/5/1
f 77/3/1 74/3/1 73/3/1
f 78/3/1 74/3/1 77/3/1
f 79/3/1 76/3/1 75/3/1
f 80/3/1 76/3/1 79/3/1
f 81/4/1 79/4/1 78/4/1
f 82/4/1 79/4/1 81/4/1
f 85/6/1 84/6/1 83/6/1
f 86/6/1 84/6/1 85/6/1
f 89/6/1 88/6/1 87/6/1
f 90/6/1 88/6/1 89/6/1
f 93/3/1 92/3/1 91/3/1
f 94/3/1 92/3/1 93/3/1
f 97/5/1 96/5/1 95/5/1
f 98/5/1 96/5/1 97/5/1
f 103/3/1 100/3/1 99/3/1
f 104/3/1 100/3/1 103/3/1
f 105/3/1 102/3/1 101/3/1
f 106/3/1 102/3/1 105/3/1
f 109/5/1 108/5/1 107/5/1
f 110/5/1 108/5/1 109/5/1
f 111/3/1 110/3/1 109/3/1
f 112/3/1 110/3/1 111/3/1
f 115/3/1 114/3/1 113/3/1
f 116/3/1 114/3/1 115/3/1
f 117/3/1 114/3/1 116/3/1
f 118/3/1 114/3/1 117/3/1
f 119/5/2 120/5/2 121/5/2
f 121/5/2 120/5/2 122/5/2
f 123/5/2 124/5/2 125/5/2
f 125/5/2 124/5/2 126/5/2
f 127/5/2 128/5/2 131/5/2
f 131/5/2 128/5/2 132/5/2
f 129/5/2 130/5/2 133/5/2
f 133/5/2 130/5/2 134/5/2
f 135/5/2 136/5/2 137/5/2
f 137/5/2 136/5/2 138/5/2
f 138/5/2 136/5/2 139/5/2
f 139/5/2 136/5/2 140/5/2
f 138/5/2 139/5/2 141/5/2
f 141/5/2 139/5/2 142/5/2
f 143/5/2 144/5/2 145/5/2
f 145/5/2 144/5/2 146/5/2
f 147/5/2 148/5/2 149/5/2
f 149/5/2 148/5/2 150/5/2
f 151/5/2 152/5/2 153/5/2
f 153/5/2 152/5/2 154/5/2
f 155/5/2 156/5/2 157/5/2
f 157/5/2 156/5/2 158/5/2
f 159/5/2 160/5/2 161/5/2
f 161/5/2 160/5/2 162/5/2
f 163/5/2 164/5/2 167/5/2
f 167/5/2 164/5/2 168/5/2
f 165/5/2 166/5/2 169/5/2
f 169/5/2 166/5/2 170/5/2
f 171/7/2 172/7/2 173/7/2
f 173/7/2 172/7/2 174/7/2
f 175/7/2 176/7/2 177/7/2
f 177/7/2 176/7/2 178/7/2
f 179/6/2 180/6/2 181/6/2
f 181/6/2 180/6/2 182/6/2
f 183/6/2 184/6/2 185/6/2
f 185/6/2 184/6/2 186/6/2
f 185/3/2 186/3/2 187/3/2
f 187/3/2 186/3/2 188/3/2
f 189/3/2 190/3/2 193/3/2
f 193/3/2 190/3/2 194/3/2
f 191/3/2 192/3/2 195/3/2
f 195/3/2 192/3/2 196/3/2
f 197/3/2 198/3/2 199/3/2
f 199/3/2 198/3/2 200/3/2
f 200/3/2 198/3/2 201/3/2
f 201/3/2 198/3/2 202/3/2
f 203/3/2 204/3/2 205/3/2
f 205/3/2 204/3/2 206/3/2
f 207/5/2 208/5/2 209/5/2
f 209/5/2 208/5/2 210/5/2
f 211/5/2 212/5/2 213/5/2
f 213/5/2 212/5/2 214/5/2
f 215/5/2 216/5/2 217/5/2
f 217/5/2 216/5/2 218/5/2
f 219/4/2 220/4/2 221/4/2
f 221/4/2 220/4/2 222/4/2
f 223/3/2 224/3/2 225/3/2
f 225/3/2 224/3/2 226/3/2
f 226/3/2 224/3/2 227/3/2
f 227/3/2 224/3/2 228/3/2
f 225/5/2 226/5/2 229/5/2
f 229/5/2 226/5/2 230/5/2
f 227/5/2 228/5/2 231/5/2
f 231/5/2 228/5/2 232/5/2
f 229/3/2 230/3/2 233/3/2
f 230/3/2 231/3/2 233/3/2
f 231/3/2 232/3/2 233/3/2
f 233/3/2 232/3/2 234/3/2
f 235/3/2 236/3/2 237/3/2
f 237/3/2 236/3/2 238/3/2
f 239/5/2 240/5/2 241/5/2
f 241/5/2 240/5/2 242/5/2
f 243/3/2 244/3/2 245/3/2
f 245/3/2 244/3/2 246/3/2
f 249/5/3 248/5/3 247/5/3
f 250/5/3 248/5/3 249/5/3
f 253/5/3 248/5/3 250/5/3
f 254/5/3 248/5/3 253/5/3
f 255/6/3 252/6/3 251/6/3
f 255/5/3 253/5/3 252/5/3
f 256/5/3 253/5/3 255/5/3
f 258/6/3 255/6/3 251/6/3
f 260/5/3 258/5/3 257/5/3
f 261/5/3 258/5/3 260/5/3
f 262/6/3 255/6/3 258/6/3
f 262/5/3 258/5/3 261/5/3
f 264/5/3 261/5/3 260/5/3
f 264/5/3 260/5/3 259/5/3
f 265/5/3 261/5/3 264/5/3
f 266/5/3 261/5/3 265/5/3
f 267/5/3 264/5/3 263/5/3
f 267/5/3 265/5/3 264/5/3
f 268/5/3 265/5/3 267/5/3
f 269/6/3 255/6/3 262/6/3
f 271/5/3 267/5/3 263/5/3
f 272/5/3 267/5/3 271/5/3
f 273/2/3 270/2/3 269/2/3
f 275/6/3 269/6/3 262/6/3
f 276/2/3 273/2/3 269/2/3
f 276/6/3 269/6/3 275/6/3
f 279/3/3 274/3/3 273/3/3
f 281/3/3 279/3/3 273/3/3
f 281/3/3 280/3/3 279/3/3
f 281/2/3 273/2/3 276/2/3
f 282/3/3 280/3/3 281/3/3
f 284/5/3 278/5/3 277/5/3
f 285/5/3 278/5/3 284/5/3
f 286/3/3 276/3/3 275/3/3
f 287/2/3 281/2/3 276/2/3
f 287/6/3 282/6/3 281/6/3
f 288/3/3 280/3/3 282/3/3
f 288/6/3 282/6/3 287/6/3
f 289/2/3 287/2/3 276/2/3
f 289/3/3 276/3/3 286/3/3
f 290/3/3 288/3/3 287/3/3
f 290/2/3 287/2/3 289/2/3
f 291/6/3 285/6/3 284/6/3
f 291/6/3 286/6/3 285/6/3
f 291/6/3 284/6/3 283/6/3
f 292/6/3 286/6/3 291/6/3
f 293/6/3 286/6/3 292/6/3
f 294/3/3 289/3/3 286/3/3
f 294/6/3 286/6/3 293/6/3
f 295/3/3 289/3/3 294/3/3
f 296/3/3 289/3/3 295/3/3
f 297/5/3 290/5/3 289/5/3
f 297/3/3 289/3/3 296/3/3
f 298/3/3 288/3/3 290/3/3
f 298/3/3 280/3/3 288/3/3
f 299/3/3 280/3/3 298/3/3
f 300/5/3 293/5/3 292/5/3
f 301/5/3 293/5/3 300/5/3
f 302/5/3 293/5/3 301/5/3
f 305/5/3 290/5/3 297/5/3
f 306/5/3 303/5/3 302/5/3
f 306/5/3 302/5/3 301/5/3
f 307/5/3 303/5/3 306/5/3
f 308/5/3 303/5/3 307/5/3
f 310/3/3 305/3/3 304/3/3
f 311/5/3 309/5/3 308/5/3
f 311/5/3 308/5/3 307/5/3
f 312/3/3 310/3/3 309/3/3
f 312/5/3 309/5/3 311/5/3
f 313/3/3 298/3/3 290/3/3
f 315/3/3 310/3/3 312/3/3
f 315/3/3 305/3/3 310/3/3
f 316/5/3 290/5/3 305/5/3
f 316/3/3 305/3/3 315/3/3
f 317/3/3 314/3/3 313/3/3
f 317/5/3 290/5/3 316/5/3
f 317/3/3 313/3/3 290/3/3
f 318/3/3 314/3/3 317/3/3
f 319/3/3 315/3/3 312/3/3
f 320/3/3 315/3/3 319/3/3
f 321/3/3 314/3/3 318/3/3
f 322/3/3 314/3/3 321/3/3
f 325/5/3 324/5/3 323/5/3
f 326/5/3 324/5/3 325/5/3
f 330/5/3 328/5/3 327/5/3
f 330/5/3 329/5/3 328/5/3
f 331/5/3 329/5/3 330/5/3
f 332/5/3 329/5/3 331/5/3
f 334/5/3 332/5/3 331/5/3
f 334/5/3 333/5/3 332/5/3
f 335/5/3 333/5/3 334/5/3
f 336/5/3 333/5/3 335/5/3
f 337/5/3 333/5/3 336/5/3
f 340/2/3 339/2/3 338/2/3
f 341/2/3 339/2/3 340/2/3
f 346/5/3 343/5/3 342/5/3
f 347/5/3 343/5/3 346/5/3
f 349/3/3 345/3/3 344/3/3
f 350/3/3 345/3/3 349/3/3
f 352/7/3 348/7/3 347/7/3
f 352/7/3 347/7/3 346/7/3
f 353/7/3 348/7/3 352/7/3
f 354/7/3 348/7/3 353/7/3
f 355/7/3 348/7/3 354/7/3
f 356/5/3 354/5/3 353/5/3
f 357/5/3 354/5/3 356/5/3
f 358/1/3 351/1/3 350/1/3
f 359/1/3 351/1/3 358/1/3
f 363/4/3 360/4/3 359/4/3
f 364/3/3 362/3/3 361/3/3
f 365/3/3 362/3/3 364/3/3
f 368/3/3 367/3/3 366/3/3
f 369/3/3 367/3/3 368/3/3
f 370/4/3 360/4/3 363/4/3
f 371/4/3 360/4/3 370/4/3
f 372/4/3 360/4/3 371/4/3
f 375/5/3 374/5/3 373/5/3
f 376/5/3 374/5/3 375/5/3
f 377/5/4 378/5/4 379/5/4
f 379/5/4 378/5/4 380/5/4
f 381/5/4 382/5/4 384/5/4
f 382/5/4 383/5/4 384/5/4
f 384/5/4 383/5/4 385/5/4
f 385/5/4 383/5/4 386/5/4
f 385/5/4 386/5/4 388/5/4
f 386/5/4 387/5/4 388/5/4
f 388/5/4 387/5/4 389/5/4
f 389/5/4 387/5/4 390/5/4
f 390/5/4 387/5/4 391/5/4
f 392/2/4 393/2/4 394/2/4
f 394/2/4 393/2/4 395/2/4
f 396/5/4 397/5/4 400/5/4
f 400/5/4 397/5/4 401/5/4
f 398/3/4 399/3/4 403/3/4
f 403/3/4 399/3/4 404/3/4
f 401/7/4 402/7/4 406/7/4
f 400/7/4 401/7/4 406/7/4
f 406/7/4 402/7/4 407/7/4
f 407/7/4 402/7/4 408/7/4
f 408/7/4 402/7/4 409/7/4
f 407/5/4 408/5/4 410/5/4
f 410/5/4 408/5/4 411/5/4
f 404/1/4 405/1/4 412/1/4
f 412/1/4 405/1/4 413/1/4
f 413/4/4 414/4/4 417/4/4
f 415/3/4 416/3/4 418/3/4
f 418/3/4 416/3/4 419/3/4
f 420/3/4 421/3/4 422/3/4
f 422/3/4 421/3/4 423/3/4
f 417/4/4 414/4/4 424/4/4
f 424/4/4 414/4/4 425/4/4
f 425/4/4 414/4/4 426/4/4
f 427/5/4 428/5/4 429/5/4
f 429/5/4 428/5/4 430/5/4
f 431/5/4 432/5/4 433/5/4
f 433/5/4 432/5/4 434/5/4
f 434/5/4 432/5/4 437/5/4
f 437/5/4 432/5/4 438/5/4
f 435/6/4 436/6/4 439/6/4
f 436/5/4 437/5/4 439/5/4
f 439/5/4 437/5/4 440/5/4
f 435/6/4 439/6/4 442/6/4
f 441/5/4 442/5/4 444/5/4
f 444/5/4 442/5/4 445/5/4
f 442/6/4 439/6/4 446/6/4
f 445/5/4 442/5/4 446/5/4
f 444/5/4 445/5/4 448/5/4
f 443/5/4 444/5/4 448/5/4
f 448/5/4 445/5/4 449/5/4
f 449/5/4 445/5/4 450/5/4
f 447/5/4 448/5/4 451/5/4
f 448/5/4 449/5/4 451/5/4
f 451/5/4 449/5/4 452/5/4
f 446/6/4 439/6/4 453/6/4
f 447/5/4 451/5/4 455/5/4
f 455/5/4 451/5/4 456/5/4
f 453/2/4 454/2/4 457/2/4
f 446/6/4 453/6/4 459/6/4
f 453/2/4 457/2/4 460/2/4
f 459/6/4 453/6/4 460/6/4
f 457/3/4 458/3/4 463/3/4
f 457/3/4 463/3/4 465/3/4
f 463/3/4 464/3/4 465/3/4
f 460/2/4 457/2/4 465/2/4
f 465/3/4 464/3/4 466/3/4
f 461/5/4 462/5/4 468/5/4
f 468/5/4 462/5/4 469/5/4
f 459/3/4 460/3/4 470/3/4
f 460/2/4 465/2/4 471/2/4
f 465/6/4 466/6/4 471/6/4
f 466/3/4 464/3/4 472/3/4
f 471/6/4 466/6/4 472/6/4
f 460/2/4 471/2/4 473/2/4
f 470/3/4 460/3/4 473/3/4
f 471/3/4 472/3/4 474/3/4
f 473/2/4 471/2/4 474/2/4
f 468/6/4 469/6/4 475/6/4
f 469/6/4 470/6/4 475/6/4
f 467/6/4 468/6/4 475/6/4
f 475/6/4 470/6/4 476/6/4
f 476/6/4 470/6/4 477/6/4
f 470/3/4 473/3/4 478/3/4
f 477/6/4 470/6/4 478/6/4
f 478/3/4 473/3/4 479/3/4
f 479/3/4 473/3/4 480/3/4
f 473/5/4 474/5/4 481/5/4
f 480/3/4 473/3/4 481/3/4
f 474/3/4 472/3/4 482/3/4
f 472/3/4 464/3/4 482/3/4
f 482/3/4 464/3/4 483/3/4
f 476/5/4 477/5/4 484/5/4
f 484/5/4 477/5/4 485/5/4
f 485/5/4 477/5/4 486/5/4
f 481/5/4 474/5/4 489/5/4
f 486/5/4 487/5/4 490/5/4
f 485/5/4 486/5/4 490/5/4
f 490/5/4 487/5/4 491/5/4
f 491/5/4 487/5/4 492/5/4
f 488/3/4 489/3/4 494/3/4
f 492/5/4 493/5/4 495/5/4
f 491/5/4 492/5/4 495/5/4
f 493/3/4 494/3/4 496/3/4
f 495/5/4 493/5/4 496/5/4
f 474/3/4 482/3/4 497/3/4
f 496/3/4 494/3/4 499/3/4
f 494/3/4 489/3/4 499/3/4
f 489/5/4 474/5/4 500/5/4
f 499/3/4 489/3/4 500/3/4
f 497/3/4 498/3/4 501/3/4
f 500/5/4 474/5/4 501/5/4
f 474/3/4 497/3/4 501/3/4
f 501/3/4 498/3/4 502/3/4
f 496/3/4 499/3/4 503/3/4
f 503/3/4 499/3/4 504/3/4
f 502/3/4 498/3/4 505/3/4
f 505/3/4 498/3/4 506/3/4
f 509/6/5 508/6/5 507/6/5
f 510/6/5 508/6/5 509/6/5
f 515/5/5 512/5/5 511/5/5
f 518/5/5 515/5/5 511/5/5
f 518/5/5 516/5/5 515/5/5
f 519/7/5 517/7/5 516/7/5
f 519/5/5 516/5/5 518/5/5
f 520/7/5 517/7/5 519/7/5
f 521/5/5 518/5/5 511/5/5
f 522/5/5 518/5/5 521/5/5
f 523/5/5 514/5/5 513/5/5
f 524/5/5 514/5/5 523/5/5
f 532/5/5 528/5/5 527/5/5
f 533/5/5 532/5/5 531/5/5
f 534/5/5 528/5/5 532/5/5
f 534/5/5 532/5/5 533/5/5
f 535/5/5 526/5/5 525/5/5
f 536/5/5 526/5/5 535/5/5
f 537/5/5 528/5/5 534/5/5
f 538/5/5 528/5/5 537/5/5
f 539/5/5 530/5/5 529/5/5
f 540/5/5 530/5/5 539/5/5
f 545/5/5 542/5/5 541/5/5
f 546/5/5 542/5/5 545/5/5
f 547/5/5 544/5/5 543/5/5
f 548/5/5 544/5/5 547/5/5
f 558/6/5 554/6/5 553/6/5
f 559/3/5 555/3/5 554/3/5
f 559/6/5 554/6/5 558/6/5
f 560/6/5 558/6/5 553/6/5
f 561/3/5 555/3/5 559/3/5
f 562/5/5 550/5/5 549/5/5
f 563/5/5 550/5/5 562/5/5
f 564/6/5 552/6/5 551/6/5
f 565/6/5 552/6/5 564/6/5
f 566/6/5 561/6/5 560/6/5
f 566/6/5 560/6/5 553/6/5
f 567/3/5 555/3/5 561/3/5
f 567/6/5 561/6/5 566/6/5
f 568/3/5 555/3/5 567/3/5
f 569/3/5 557/3/5 556/3/5
f 570/3/5 557/3/5 569/3/5
f 575/3/5 572/3/5 571/3/5
f 578/3/5 574/3/5 573/3/5
f 579/3/5 576/3/5 575/3/5
f 579/3/5 575/3/5 571/3/5
f 580/3/5 576/3/5 579/3/5
f 581/3/5 578/3/5 577/3/5
f 582/3/5 574/3/5 578/3/5
f 582/3/5 578/3/5 581/3/5
f 583/3/5 579/3/5 571/3/5
f 584/3/5 579/3/5 583/3/5
f 585/3/5 574/3/5 582/3/5
f 586/3/5 574/3/5 585/3/5
f 589/5/5 588/5/5 587/5/5
f 590/5/5 588/5/5 589/5/5
f 591/5/5 588/5/5 590/5/5
f 592/5/5 588/5/5 591/5/5
f 596/5/5 591/5/5 590/5/5
f 597/5/5 591/5/5 596/5/5
f 599/5/5 594/5/5 593/5/5
f 600/5/5 594/5/5 599/5/5
f 601/5/5 598/5/5 597/5/5
f 601/5/5 596/5/5 595/5/5
f 601/5/5 597/5/5 596/5/5
f 602/5/5 598/5/5 601/5/5
f 605/5/5 604/5/5 603/5/5
f 606/5/5 604/5/5 605/5/5
f 611/5/5 610/5/5 609/5/5
f 612/5/5 610/5/5 611/5/5
f 613/3/5 608/3/5 607/3/5
f 614/3/5 608/3/5 613/3/5
f 619/5/5 616/5/5 615/5/5
f 620/5/5 616/5/5 619/5/5
f 621/4/5 618/4/5 617/4/5
f 622/4/5 618/4/5 621/4/5
f 623/5/6 624/5/6 625/5/6
f 623/5/6 625/5/6 627/5/6
f 625/5/6 626/5/6 627/5/6
f 627/5/6 626/5/6 628/5/6
f 623/5/6 627/5/6 629/5/6
f 629/5/6 627/5/6 630/5/6
f 633/5/6 634/5/6 638/5/6
f 637/5/6 638/5/6 639/5/6
f 638/5/6 634/5/6 640/5/6
f 639/5/6 638/5/6 640/5/6
f 631/5/6 632/5/6 641/5/6
f 641/5/6 632/5/6 642/5/6
f 640/5/6 634/5/6 643/5/6
f 643/5/6 634/5/6 644/5/6
f 635/5/6 636/5/6 645/5/6
f 645/5/6 636/5/6 646/5/6
f 647/5/6 648/5/6 651/5/6
f 651/5/6 648/5/6 652/5/6
f 649/5/6 650/5/6 653/5/6
f 653/5/6 650/5/6 654/5/6
f 655/3/6 656/3/6 657/3/6
f 657/3/6 656/3/6 658/3/6
f 659/6/6 660/6/6 661/6/6
f 661/6/6 660/6/6 662/6/6
f 659/6/6 661/6/6 663/6/6
f 659/6/6 663/6/6 665/6/6
f 663/6/6 664/6/6 665/6/6
f 665/6/6 664/6/6 666/6/6
f 667/5/6 668/5/6 671/5/6
f 671/5/6 668/5/6 672/5/6
f 669/2/6 670/2/6 674/2/6
f 674/2/6 670/2/6 675/2/6
f 675/2/6 670/2/6 676/2/6
f 673/2/6 674/2/6 681/2/6
f 674/2/6 675/2/6 681/2/6
f 681/2/6 675/2/6 682/2/6
f 682/2/6 675/2/6 683/2/6
f 677/5/6 678/5/6 685/5/6
f 685/5/6 678/5/6 686/5/6
f 679/5/6 680/5/6 687/5/6
f 687/5/6 680/5/6 688/5/6
f 683/2/6 684/2/6 689/2/6
f 682/2/6 683/2/6 689/2/6
f 689/2/6 684/2/6 690/2/6
f 691/5/6 692/5/6 697/5/6
f 697/5/6 692/5/6 698/5/6
f 698/5/6 692/5/6 699/5/6
f 693/3/6 694/3/6 701/3/6
f 701/3/6 694/3/6 702/3/6
f 691/5/6 697/5/6 703/5/6
f 698/5/6 699/5/6 704/5/6
f 704/5/6 699/5/6 705/5/6
f 700/3/6 701/3/6 706/3/6
f 706/3/6 701/3/6 707/3/6
f 691/5/6 703/5/6 709/5/6
f 704/5/6 705/5/6 709/5/6
f 703/5/6 704/5/6 709/5/6
f 709/5/6 705/5/6 710/5/6
f 707/3/6 708/3/6 711/3/6
f 711/3/6 708/3/6 712/3/6
f 695/3/6 696/3/6 713/3/6
f 713/3/6 696/3/6 714/3/6
f 715/3/6 716/3/6 724/3/6
f 724/3/6 716/3/6 725/3/6
f 717/3/6 718/3/6 726/3/6
f 726/3/6 718/3/6 727/3/6
f 719/5/6 720/5/6 728/5/6
f 728/5/6 720/5/6 729/5/6
f 721/5/6 722/5/6 730/5/6
f 730/5/6 722/5/6 731/5/6
f 723/1/6 724/1/6 732/1/6
f 732/1/6 724/1/6 733/1/6
f 727/3/6 718/3/6 736/3/6
f 733/3/6 734/3/6 737/3/6
f 737/3/6 734/3/6 738/3/6
f 735/3/6 736/3/6 739/3/6
f 736/3/6 718/3/6 740/3/6
f 739/3/6 736/3/6 740/3/6
f 741/5/6 742/5/6 745/5/6
f 745/5/6 742/5/6 746/5/6
f 743/4/6 744/4/6 747/4/6
f 747/4/6 744/4/6 748/4/6
