# MagicaVoxel @ Ephtracy

# group
g blaster72

# material
mtllib blaster72.mtl
usemtl palette

# normals
vn -1 0 0
vn 1 0 0
vn 0 0 1
vn 0 0 -1
vn 0 -1 0
vn 0 1 0

# texcoords
vt 0.841797 0.5
vt 0.974609 0.5
vt 0.986328 0.5
vt 0.990234 0.5

# verts
v -12 5 1
v -12 5 -2
v -12 9 1
v -12 9 -2
v -11 4 1
v -11 4 -2
v -11 5 1
v -11 5 -2
v -11 6 2
v -11 6 1
v -11 6 -2
v -11 6 -3
v -11 8 2
v -11 8 1
v -11 8 -2
v -11 8 -3
v -11 9 -0
v -11 9 -1
v -11 10 -0
v -11 10 -1
v -10 0 -0
v -10 0 -1
v -10 2 -0
v -10 2 -1
v -10 5 2
v -10 5 1
v -10 5 -2
v -10 5 -3
v -10 6 2
v -10 6 1
v -10 6 -2
v -10 6 -3
v -10 8 2
v -10 8 1
v -10 8 -2
v -10 8 -3
v -10 9 1
v -10 9 -0
v -10 9 -1
v -10 9 -2
v -10 10 2
v -10 10 1
v -10 10 -0
v -10 10 -1
v -10 10 -2
v -10 10 -3
v -10 11 1
v -10 11 -2
v -9 2 -0
v -9 2 -1
v -9 4 -0
v -9 4 -1
v -8 4 2
v -8 4 1
v -8 4 -2
v -8 4 -3
v -8 5 2
v -8 5 1
v -8 5 -2
v -8 5 -3
v -5 5 3
v -5 5 2
v -5 5 -3
v -5 5 -4
v -5 10 3
v -5 10 2
v -5 10 1
v -5 10 -2
v -5 10 -3
v -5 10 -4
v -5 11 2
v -5 11 1
v -5 11 -2
v -5 11 -3
v -1 4 2
v -1 4 -3
v -1 5 3
v -1 5 2
v -1 5 1
v -1 5 -0
v -1 5 -1
v -1 5 -2
v -1 5 -3
v -1 5 -4
v -1 6 2
v -1 6 1
v -1 6 -2
v -1 6 -3
v -1 7 2
v -1 7 -3
v -1 8 2
v -1 8 -3
v -1 9 2
v -1 9 1
v -1 9 -2
v -1 9 -3
v -1 10 3
v -1 10 2
v -1 10 1
v -1 10 -0
v -1 10 -1
v -1 10 -2
v -1 10 -3
v -1 10 -4
v -1 11 2
v -1 11 -3
v -7 0 -0
v -7 0 -1
v -7 4 -0
v -7 4 -1
v -3 4 2
v -3 4 1
v -3 4 -2
v -3 4 -3
v -3 5 3
v -3 5 2
v -3 5 1
v -3 5 -0
v -3 5 -1
v -3 5 -2
v -3 5 -3
v -3 5 -4
v -3 6 -0
v -3 6 -1
v -3 7 2
v -3 7 1
v -3 7 -0
v -3 7 -1
v -3 7 -2
v -3 7 -3
v -3 8 2
v -3 8 1
v -3 8 -0
v -3 8 -1
v -3 8 -2
v -3 8 -3
v -3 9 -0
v -3 9 -1
v -3 10 3
v -3 10 2
v -3 10 -0
v -3 10 -1
v -3 10 -3
v -3 10 -4
v -3 11 2
v -3 11 -3
v 2 4 2
v 2 4 -3
v 2 5 3
v 2 5 2
v 2 5 1
v 2 5 -0
v 2 5 -1
v 2 5 -2
v 2 5 -3
v 2 5 -4
v 2 6 2
v 2 6 1
v 2 6 -2
v 2 6 -3
v 2 7 2
v 2 7 -3
v 2 8 2
v 2 8 -3
v 2 9 2
v 2 9 1
v 2 9 -2
v 2 9 -3
v 2 10 3
v 2 10 2
v 2 10 1
v 2 10 -0
v 2 10 -1
v 2 10 -2
v 2 10 -3
v 2 10 -4
v 2 11 2
v 2 11 -3
v 4 5 -0
v 4 5 -1
v 4 6 -0
v 4 6 -1
v 4 7 2
v 4 7 1
v 4 7 -0
v 4 7 -1
v 4 7 -2
v 4 7 -3
v 4 8 2
v 4 8 1
v 4 8 -0
v 4 8 -1
v 4 8 -2
v 4 8 -3
v 4 9 -0
v 4 9 -1
v 4 10 -0
v 4 10 -1
v -5 5 3
v -5 10 3
v -3 5 3
v -3 10 3
v -1 5 3
v -1 10 3
v 2 5 3
v 2 10 3
v -11 6 2
v -11 8 2
v -10 5 2
v -10 6 2
v -10 8 2
v -10 10 2
v -8 4 2
v -8 5 2
v -8 10 2
v -5 4 2
v -5 5 2
v -5 10 2
v -5 11 2
v -3 4 2
v -3 5 2
v -3 7 2
v -3 8 2
v -3 10 2
v -3 11 2
v -1 4 2
v -1 5 2
v -1 7 2
v -1 8 2
v -1 10 2
v -1 11 2
v 2 4 2
v 2 5 2
v 2 7 2
v 2 8 2
v 2 10 2
v 2 11 2
v 4 7 2
v 4 8 2
v -12 5 1
v -12 9 1
v -11 4 1
v -11 5 1
v -11 6 1
v -11 8 1
v -10 5 1
v -10 6 1
v -10 8 1
v -10 9 1
v -10 10 1
v -10 11 1
v -8 4 1
v -8 5 1
v -8 10 1
v -8 11 1
v -5 10 1
v -5 11 1
v -11 9 -0
v -11 10 -0
v -10 0 -0
v -10 2 -0
v -10 9 -0
v -10 10 -0
v -9 2 -0
v -9 4 -0
v -7 0 -0
v -7 4 -0
v -3 5 -0
v -3 6 -0
v -3 7 -0
v -3 8 -0
v -3 9 -0
v -3 10 -0
v -1 5 -0
v -1 10 -0
v 2 5 -0
v 2 10 -0
v 4 5 -0
v 4 6 -0
v 4 7 -0
v 4 8 -0
v 4 9 -0
v 4 10 -0
v -3 7 -2
v -3 8 -2
v -1 5 -2
v -1 6 -2
v -1 9 -2
v -1 10 -2
v 2 5 -2
v 2 6 -2
v 2 9 -2
v 2 10 -2
v 4 7 -2
v 4 8 -2
v -1 6 -3
v -1 7 -3
v -1 8 -3
v -1 9 -3
v 2 6 -3
v 2 7 -3
v 2 8 -3
v 2 9 -3
v -1 6 2
v -1 7 2
v -1 8 2
v -1 9 2
v 2 6 2
v 2 7 2
v 2 8 2
v 2 9 2
v -3 7 1
v -3 8 1
v -1 5 1
v -1 6 1
v -1 9 1
v -1 10 1
v 2 5 1
v 2 6 1
v 2 9 1
v 2 10 1
v 4 7 1
v 4 8 1
v -11 9 -1
v -11 10 -1
v -10 0 -1
v -10 2 -1
v -10 9 -1
v -10 10 -1
v -9 2 -1
v -9 4 -1
v -7 0 -1
v -7 4 -1
v -3 5 -1
v -3 6 -1
v -3 7 -1
v -3 8 -1
v -3 9 -1
v -3 10 -1
v -1 5 -1
v -1 10 -1
v 2 5 -1
v 2 10 -1
v 4 5 -1
v 4 6 -1
v 4 7 -1
v 4 8 -1
v 4 9 -1
v 4 10 -1
v -12 5 -2
v -12 9 -2
v -11 4 -2
v -11 5 -2
v -11 6 -2
v -11 8 -2
v -10 5 -2
v -10 6 -2
v -10 8 -2
v -10 9 -2
v -10 10 -2
v -10 11 -2
v -8 4 -2
v -8 5 -2
v -8 10 -2
v -8 11 -2
v -5 10 -2
v -5 11 -2
v -11 6 -3
v -11 8 -3
v -10 5 -3
v -10 6 -3
v -10 8 -3
v -10 10 -3
v -8 4 -3
v -8 5 -3
v -8 10 -3
v -5 4 -3
v -5 5 -3
v -5 10 -3
v -5 11 -3
v -3 4 -3
v -3 5 -3
v -3 7 -3
v -3 8 -3
v -3 10 -3
v -3 11 -3
v -1 4 -3
v -1 5 -3
v -1 7 -3
v -1 8 -3
v -1 10 -3
v -1 11 -3
v 2 4 -3
v 2 5 -3
v 2 7 -3
v 2 8 -3
v 2 10 -3
v 2 11 -3
v 4 7 -3
v 4 8 -3
v -5 5 -4
v -5 10 -4
v -3 5 -4
v -3 10 -4
v -1 5 -4
v -1 10 -4
v 2 5 -4
v 2 10 -4
v -10 0 -0
v -7 0 -0
v -10 0 -1
v -7 0 -1
v -8 4 2
v -5 4 2
v -3 4 2
v -1 4 2
v 2 4 2
v -11 4 1
v -8 4 1
v -7 4 1
v -5 4 1
v -3 4 1
v -9 4 -0
v -7 4 -0
v -9 4 -1
v -7 4 -1
v -11 4 -2
v -8 4 -2
v -7 4 -2
v -5 4 -2
v -3 4 -2
v -8 4 -3
v -5 4 -3
v -3 4 -3
v -1 4 -3
v 2 4 -3
v -5 5 3
v -3 5 3
v -1 5 3
v 2 5 3
v -10 5 2
v -8 5 2
v -5 5 2
v -3 5 2
v -1 5 2
v 2 5 2
v -12 5 1
v -11 5 1
v -10 5 1
v -8 5 1
v -3 5 -0
v -1 5 -0
v 2 5 -0
v 4 5 -0
v -3 5 -1
v -1 5 -1
v 2 5 -1
v 4 5 -1
v -12 5 -2
v -11 5 -2
v -10 5 -2
v -8 5 -2
v -10 5 -3
v -8 5 -3
v -5 5 -3
v -3 5 -3
v -1 5 -3
v 2 5 -3
v -5 5 -4
v -3 5 -4
v -1 5 -4
v 2 5 -4
v -11 6 2
v -10 6 2
v -11 6 1
v -10 6 1
v -11 6 -2
v -10 6 -2
v -11 6 -3
v -10 6 -3
v -3 7 2
v -1 7 2
v 2 7 2
v 4 7 2
v -3 7 1
v 4 7 1
v -3 7 -0
v 4 7 -0
v -3 7 -1
v 4 7 -1
v -3 7 -2
v 4 7 -2
v -3 7 -3
v -1 7 -3
v 2 7 -3
v 4 7 -3
v -1 9 2
v 2 9 2
v -1 9 1
v 2 9 1
v -3 9 -0
v 4 9 -0
v -3 9 -1
v 4 9 -1
v -1 9 -2
v 2 9 -2
v -1 9 -3
v 2 9 -3
v -1 10 1
v 2 10 1
v -1 10 -0
v 2 10 -0
v -1 10 -1
v 2 10 -1
v -1 10 -2
v 2 10 -2
v -10 2 -0
v -9 2 -0
v -10 2 -1
v -9 2 -1
v -1 5 1
v 2 5 1
v -1 5 -0
v 2 5 -0
v -1 5 -1
v 2 5 -1
v -1 5 -2
v 2 5 -2
v -1 6 2
v 2 6 2
v -1 6 1
v 2 6 1
v -3 6 -0
v 4 6 -0
v -3 6 -1
v 4 6 -1
v -1 6 -2
v 2 6 -2
v -1 6 -3
v 2 6 -3
v -11 8 2
v -10 8 2
v -3 8 2
v -1 8 2
v 2 8 2
v 4 8 2
v -11 8 1
v -10 8 1
v -3 8 1
v 4 8 1
v -3 8 -0
v 4 8 -0
v -3 8 -1
v 4 8 -1
v -11 8 -2
v -10 8 -2
v -3 8 -2
v 4 8 -2
v -11 8 -3
v -10 8 -3
v -3 8 -3
v -1 8 -3
v 2 8 -3
v 4 8 -3
v -12 9 1
v -10 9 1
v -11 9 -0
v -10 9 -0
v -11 9 -1
v -10 9 -1
v -12 9 -2
v -10 9 -2
v -5 10 3
v -3 10 3
v -1 10 3
v 2 10 3
v -10 10 2
v -8 10 2
v -5 10 2
v -3 10 2
v -1 10 2
v 2 10 2
v -10 10 1
v -8 10 1
v -5 10 1
v -11 10 -0
v -10 10 -0
v -3 10 -0
v -1 10 -0
v 2 10 -0
v 4 10 -0
v -11 10 -1
v -10 10 -1
v -3 10 -1
v -1 10 -1
v 2 10 -1
v 4 10 -1
v -10 10 -2
v -8 10 -2
v -5 10 -2
v -10 10 -3
v -8 10 -3
v -5 10 -3
v -3 10 -3
v -1 10 -3
v 2 10 -3
v -5 10 -4
v -3 10 -4
v -1 10 -4
v 2 10 -4
v -5 11 2
v -3 11 2
v -1 11 2
v 2 11 2
v -10 11 1
v -8 11 1
v -5 11 1
v -10 11 -2
v -8 11 -2
v -5 11 -2
v -5 11 -3
v -3 11 -3
v -1 11 -3
v 2 11 -3

# faces
f 3/3/1 2/3/1 1/3/1
f 4/3/1 2/3/1 3/3/1
f 7/3/1 6/3/1 5/3/1
f 8/3/1 6/3/1 7/3/1
f 13/3/1 10/3/1 9/3/1
f 14/3/1 10/3/1 13/3/1
f 15/3/1 12/3/1 11/3/1
f 16/3/1 12/3/1 15/3/1
f 19/3/1 18/3/1 17/3/1
f 20/3/1 18/3/1 19/3/1
f 23/4/1 22/4/1 21/4/1
f 24/4/1 22/4/1 23/4/1
f 29/3/1 26/3/1 25/3/1
f 30/3/1 26/3/1 29/3/1
f 31/3/1 28/3/1 27/3/1
f 32/3/1 28/3/1 31/3/1
f 37/3/1 34/3/1 33/3/1
f 40/3/1 36/3/1 35/3/1
f 41/3/1 38/3/1 37/3/1
f 41/3/1 37/3/1 33/3/1
f 42/3/1 38/3/1 41/3/1
f 43/3/1 38/3/1 42/3/1
f 44/3/1 40/3/1 39/3/1
f 45/3/1 36/3/1 40/3/1
f 45/3/1 40/3/1 44/3/1
f 46/3/1 36/3/1 45/3/1
f 47/3/1 43/3/1 42/3/1
f 47/3/1 44/3/1 43/3/1
f 47/3/1 45/3/1 44/3/1
f 48/3/1 45/3/1 47/3/1
f 51/4/1 50/4/1 49/4/1
f 52/4/1 50/4/1 51/4/1
f 57/4/1 54/4/1 53/4/1
f 58/4/1 54/4/1 57/4/1
f 59/4/1 56/4/1 55/4/1
f 60/4/1 56/4/1 59/4/1
f 65/3/1 62/3/1 61/3/1
f 66/3/1 62/3/1 65/3/1
f 69/3/1 64/3/1 63/3/1
f 70/3/1 64/3/1 69/3/1
f 71/3/1 67/3/1 66/3/1
f 72/3/1 67/3/1 71/3/1
f 73/3/1 69/3/1 68/3/1
f 74/3/1 69/3/1 73/3/1
f 78/4/1 76/4/1 75/4/1
f 79/4/1 76/4/1 78/4/1
f 80/4/1 76/4/1 79/4/1
f 81/4/1 76/4/1 80/4/1
f 82/4/1 76/4/1 81/4/1
f 83/4/1 76/4/1 82/4/1
f 85/4/1 78/4/1 77/4/1
f 85/4/1 79/4/1 78/4/1
f 86/4/1 79/4/1 85/4/1
f 87/4/1 84/4/1 83/4/1
f 87/4/1 83/4/1 82/4/1
f 88/4/1 84/4/1 87/4/1
f 89/4/1 85/4/1 77/4/1
f 90/4/1 84/4/1 88/4/1
f 91/4/1 89/4/1 77/4/1
f 92/4/1 84/4/1 90/4/1
f 93/4/1 91/4/1 77/4/1
f 96/4/1 84/4/1 92/4/1
f 97/4/1 94/4/1 93/4/1
f 97/4/1 93/4/1 77/4/1
f 98/4/1 94/4/1 97/4/1
f 99/4/1 94/4/1 98/4/1
f 102/4/1 96/4/1 95/4/1
f 103/4/1 84/4/1 96/4/1
f 103/4/1 96/4/1 102/4/1
f 104/4/1 84/4/1 103/4/1
f 105/4/1 101/4/1 100/4/1
f 105/4/1 102/4/1 101/4/1
f 105/4/1 103/4/1 102/4/1
f 105/4/1 100/4/1 99/4/1
f 105/4/1 99/4/1 98/4/1
f 106/4/1 103/4/1 105/4/1
f 107/4/2 108/4/2 109/4/2
f 109/4/2 108/4/2 110/4/2
f 111/3/2 112/3/2 116/3/2
f 112/4/2 113/4/2 117/4/2
f 116/3/2 112/3/2 117/3/2
f 117/4/2 113/4/2 118/4/2
f 118/4/2 113/4/2 119/4/2
f 113/3/2 114/3/2 120/3/2
f 119/4/2 113/4/2 120/4/2
f 120/3/2 114/3/2 121/3/2
f 115/3/2 116/3/2 123/3/2
f 116/3/2 117/3/2 123/3/2
f 117/3/2 118/3/2 123/3/2
f 121/3/2 122/3/2 124/3/2
f 120/3/2 121/3/2 124/3/2
f 119/3/2 120/3/2 124/3/2
f 115/3/2 123/3/2 125/3/2
f 123/3/2 124/3/2 125/3/2
f 125/3/2 124/3/2 126/3/2
f 126/3/2 124/3/2 127/3/2
f 124/3/2 122/3/2 128/3/2
f 127/3/2 124/3/2 128/3/2
f 128/3/2 122/3/2 129/3/2
f 129/3/2 122/3/2 130/3/2
f 115/3/2 125/3/2 131/3/2
f 126/3/2 127/3/2 132/3/2
f 132/3/2 127/3/2 133/3/2
f 128/3/2 129/3/2 134/3/2
f 134/3/2 129/3/2 135/3/2
f 130/3/2 122/3/2 136/3/2
f 134/3/2 135/3/2 137/3/2
f 135/3/2 136/3/2 137/3/2
f 132/3/2 133/3/2 137/3/2
f 131/3/2 132/3/2 137/3/2
f 133/3/2 134/3/2 137/3/2
f 137/3/2 136/3/2 138/3/2
f 115/3/2 131/3/2 139/3/2
f 131/3/2 137/3/2 139/3/2
f 139/3/2 137/3/2 140/3/2
f 140/3/2 137/3/2 141/3/2
f 138/3/2 136/3/2 142/3/2
f 136/3/2 122/3/2 143/3/2
f 142/3/2 136/3/2 143/3/2
f 143/3/2 122/3/2 144/3/2
f 140/3/2 141/3/2 145/3/2
f 141/3/2 142/3/2 145/3/2
f 142/3/2 143/3/2 145/3/2
f 145/3/2 143/3/2 146/3/2
f 147/4/2 148/4/2 150/4/2
f 150/4/2 148/4/2 151/4/2
f 151/4/2 148/4/2 152/4/2
f 152/4/2 148/4/2 153/4/2
f 153/4/2 148/4/2 154/4/2
f 154/4/2 148/4/2 155/4/2
f 149/4/2 150/4/2 157/4/2
f 150/4/2 151/4/2 157/4/2
f 157/4/2 151/4/2 158/4/2
f 155/4/2 156/4/2 159/4/2
f 154/4/2 155/4/2 159/4/2
f 159/4/2 156/4/2 160/4/2
f 149/4/2 157/4/2 161/4/2
f 160/4/2 156/4/2 162/4/2
f 149/4/2 161/4/2 163/4/2
f 162/4/2 156/4/2 164/4/2
f 149/4/2 163/4/2 165/4/2
f 164/4/2 156/4/2 168/4/2
f 165/4/2 166/4/2 169/4/2
f 149/4/2 165/4/2 169/4/2
f 169/4/2 166/4/2 170/4/2
f 170/4/2 166/4/2 171/4/2
f 167/4/2 168/4/2 174/4/2
f 168/4/2 156/4/2 175/4/2
f 174/4/2 168/4/2 175/4/2
f 175/4/2 156/4/2 176/4/2
f 172/4/2 173/4/2 177/4/2
f 173/4/2 174/4/2 177/4/2
f 174/4/2 175/4/2 177/4/2
f 171/4/2 172/4/2 177/4/2
f 170/4/2 171/4/2 177/4/2
f 177/4/2 175/4/2 178/4/2
f 179/2/2 180/2/2 181/2/2
f 181/2/2 180/2/2 182/2/2
f 183/2/2 184/2/2 189/2/2
f 189/2/2 184/2/2 190/2/2
f 185/1/2 186/1/2 191/1/2
f 191/1/2 186/1/2 192/1/2
f 187/2/2 188/2/2 193/2/2
f 193/2/2 188/2/2 194/2/2
f 195/2/2 196/2/2 197/2/2
f 197/2/2 196/2/2 198/2/2
f 201/3/3 200/3/3 199/3/3
f 202/3/3 200/3/3 201/3/3
f 205/4/3 204/4/3 203/4/3
f 206/4/3 204/4/3 205/4/3
f 210/3/3 208/3/3 207/3/3
f 211/3/3 208/3/3 210/3/3
f 214/3/3 210/3/3 209/3/3
f 214/3/3 212/3/3 211/3/3
f 214/3/3 211/3/3 210/3/3
f 215/3/3 212/3/3 214/3/3
f 216/4/3 214/4/3 213/4/3
f 216/4/3 215/4/3 214/4/3
f 217/4/3 215/4/3 216/4/3
f 218/4/3 215/4/3 217/4/3
f 220/3/3 217/3/3 216/3/3
f 221/3/3 217/3/3 220/3/3
f 224/3/3 219/3/3 218/3/3
f 225/3/3 219/3/3 224/3/3
f 228/2/3 223/2/3 222/2/3
f 229/2/3 223/2/3 228/2/3
f 232/4/3 227/4/3 226/4/3
f 233/4/3 227/4/3 232/4/3
f 236/4/3 231/4/3 230/4/3
f 237/4/3 231/4/3 236/4/3
f 238/2/3 235/2/3 234/2/3
f 239/2/3 235/2/3 238/2/3
f 243/3/3 241/3/3 240/3/3
f 244/3/3 241/3/3 243/3/3
f 245/3/3 241/3/3 244/3/3
f 246/3/3 243/3/3 242/3/3
f 246/3/3 244/3/3 243/3/3
f 247/3/3 244/3/3 246/3/3
f 248/3/3 241/3/3 245/3/3
f 249/3/3 241/3/3 248/3/3
f 252/3/3 246/3/3 242/3/3
f 253/3/3 246/3/3 252/3/3
f 254/3/3 251/3/3 250/3/3
f 255/3/3 251/3/3 254/3/3
f 256/4/3 255/4/3 254/4/3
f 257/4/3 255/4/3 256/4/3
f 262/3/3 259/3/3 258/3/3
f 263/3/3 259/3/3 262/3/3
f 264/4/3 261/4/3 260/4/3
f 266/4/3 264/4/3 260/4/3
f 266/4/3 265/4/3 264/4/3
f 267/4/3 265/4/3 266/4/3
f 274/2/3 269/2/3 268/2/3
f 275/2/3 273/2/3 272/2/3
f 276/2/3 269/2/3 274/2/3
f 277/2/3 275/2/3 272/2/3
f 278/2/3 269/2/3 276/2/3
f 279/2/3 269/2/3 278/2/3
f 280/1/3 271/1/3 270/1/3
f 281/1/3 271/1/3 280/1/3
f 282/2/3 277/2/3 272/2/3
f 283/2/3 277/2/3 282/2/3
f 290/4/3 287/4/3 286/4/3
f 291/4/3 287/4/3 290/4/3
f 292/4/3 289/4/3 288/4/3
f 293/4/3 289/4/3 292/4/3
f 294/2/3 285/2/3 284/2/3
f 295/2/3 285/2/3 294/2/3
f 300/4/3 297/4/3 296/4/3
f 301/4/3 297/4/3 300/4/3
f 302/4/3 299/4/3 298/4/3
f 303/4/3 299/4/3 302/4/3
f 304/4/4 305/4/4 308/4/4
f 308/4/4 305/4/4 309/4/4
f 306/4/4 307/4/4 310/4/4
f 310/4/4 307/4/4 311/4/4
f 314/4/4 315/4/4 318/4/4
f 318/4/4 315/4/4 319/4/4
f 316/4/4 317/4/4 320/4/4
f 320/4/4 317/4/4 321/4/4
f 312/2/4 313/2/4 322/2/4
f 322/2/4 313/2/4 323/2/4
f 324/3/4 325/3/4 328/3/4
f 328/3/4 325/3/4 329/3/4
f 326/4/4 327/4/4 330/4/4
f 326/4/4 330/4/4 332/4/4
f 330/4/4 331/4/4 332/4/4
f 332/4/4 331/4/4 333/4/4
f 334/2/4 335/2/4 340/2/4
f 338/2/4 339/2/4 341/2/4
f 340/2/4 335/2/4 342/2/4
f 338/2/4 341/2/4 343/2/4
f 342/2/4 335/2/4 344/2/4
f 344/2/4 335/2/4 345/2/4
f 336/1/4 337/1/4 346/1/4
f 346/1/4 337/1/4 347/1/4
f 338/2/4 343/2/4 348/2/4
f 348/2/4 343/2/4 349/2/4
f 350/3/4 351/3/4 353/3/4
f 353/3/4 351/3/4 354/3/4
f 354/3/4 351/3/4 355/3/4
f 352/3/4 353/3/4 356/3/4
f 353/3/4 354/3/4 356/3/4
f 356/3/4 354/3/4 357/3/4
f 355/3/4 351/3/4 358/3/4
f 358/3/4 351/3/4 359/3/4
f 352/3/4 356/3/4 362/3/4
f 362/3/4 356/3/4 363/3/4
f 360/3/4 361/3/4 364/3/4
f 364/3/4 361/3/4 365/3/4
f 364/4/4 365/4/4 366/4/4
f 366/4/4 365/4/4 367/4/4
f 368/3/4 369/3/4 371/3/4
f 371/3/4 369/3/4 372/3/4
f 370/3/4 371/3/4 375/3/4
f 372/3/4 373/3/4 375/3/4
f 371/3/4 372/3/4 375/3/4
f 375/3/4 373/3/4 376/3/4
f 374/4/4 375/4/4 377/4/4
f 375/4/4 376/4/4 377/4/4
f 377/4/4 376/4/4 378/4/4
f 378/4/4 376/4/4 379/4/4
f 377/3/4 378/3/4 381/3/4
f 381/3/4 378/3/4 382/3/4
f 379/3/4 380/3/4 385/3/4
f 385/3/4 380/3/4 386/3/4
f 383/2/4 384/2/4 389/2/4
f 389/2/4 384/2/4 390/2/4
f 387/4/4 388/4/4 393/4/4
f 393/4/4 388/4/4 394/4/4
f 391/4/4 392/4/4 397/4/4
f 397/4/4 392/4/4 398/4/4
f 395/2/4 396/2/4 399/2/4
f 399/2/4 396/2/4 400/2/4
f 401/3/4 402/3/4 403/3/4
f 403/3/4 402/3/4 404/3/4
f 405/4/4 406/4/4 407/4/4
f 407/4/4 406/4/4 408/4/4
f 411/4/5 410/4/5 409/4/5
f 412/4/5 410/4/5 411/4/5
f 419/4/5 414/4/5 413/4/5
f 420/4/5 414/4/5 419/4/5
f 421/3/5 415/3/5 414/3/5
f 421/4/5 414/4/5 420/4/5
f 422/3/5 415/3/5 421/3/5
f 423/3/5 420/3/5 419/3/5
f 423/3/5 419/3/5 418/3/5
f 424/4/5 422/4/5 421/4/5
f 424/3/5 420/3/5 423/3/5
f 424/4/5 421/4/5 420/4/5
f 425/3/5 423/3/5 418/3/5
f 426/4/5 422/4/5 424/4/5
f 427/3/5 425/3/5 418/3/5
f 427/3/5 426/3/5 425/3/5
f 428/3/5 426/3/5 427/3/5
f 429/4/5 422/4/5 426/4/5
f 429/3/5 426/3/5 428/3/5
f 430/4/5 422/4/5 429/4/5
f 431/4/5 422/4/5 430/4/5
f 432/4/5 429/4/5 428/4/5
f 432/4/5 430/4/5 429/4/5
f 433/3/5 431/3/5 430/3/5
f 433/4/5 430/4/5 432/4/5
f 434/3/5 431/3/5 433/3/5
f 435/4/5 417/4/5 416/4/5
f 436/4/5 417/4/5 435/4/5
f 443/3/5 438/3/5 437/3/5
f 444/3/5 438/3/5 443/3/5
f 445/4/5 440/4/5 439/4/5
f 446/4/5 440/4/5 445/4/5
f 449/3/5 442/3/5 441/3/5
f 450/3/5 442/3/5 449/3/5
f 455/2/5 452/2/5 451/2/5
f 456/2/5 452/2/5 455/2/5
f 457/2/5 454/2/5 453/2/5
f 458/2/5 454/2/5 457/2/5
f 459/3/5 448/3/5 447/3/5
f 460/3/5 448/3/5 459/3/5
f 463/3/5 462/3/5 461/3/5
f 464/3/5 462/3/5 463/3/5
f 469/3/5 466/3/5 465/3/5
f 470/3/5 466/3/5 469/3/5
f 471/4/5 468/4/5 467/4/5
f 472/4/5 468/4/5 471/4/5
f 475/3/5 474/3/5 473/3/5
f 476/3/5 474/3/5 475/3/5
f 479/3/5 478/3/5 477/3/5
f 480/3/5 478/3/5 479/3/5
f 485/2/5 482/2/5 481/2/5
f 485/2/5 484/2/5 483/2/5
f 485/2/5 483/2/5 482/2/5
f 486/2/5 484/2/5 485/2/5
f 489/1/5 488/1/5 487/1/5
f 490/1/5 488/1/5 489/1/5
f 493/2/5 492/2/5 491/2/5
f 494/2/5 492/2/5 493/2/5
f 495/2/5 492/2/5 494/2/5
f 496/2/5 492/2/5 495/2/5
f 499/4/5 498/4/5 497/4/5
f 500/4/5 498/4/5 499/4/5
f 503/2/5 502/2/5 501/2/5
f 504/2/5 502/2/5 503/2/5
f 507/4/5 506/4/5 505/4/5
f 508/4/5 506/4/5 507/4/5
f 511/4/5 510/4/5 509/4/5
f 512/4/5 510/4/5 511/4/5
f 515/4/5 514/4/5 513/4/5
f 516/4/5 514/4/5 515/4/5
f 517/4/6 518/4/6 519/4/6
f 519/4/6 518/4/6 520/4/6
f 521/4/6 522/4/6 523/4/6
f 523/4/6 522/4/6 524/4/6
f 525/4/6 526/4/6 527/4/6
f 527/4/6 526/4/6 528/4/6
f 529/4/6 530/4/6 531/4/6
f 531/4/6 530/4/6 532/4/6
f 533/2/6 534/2/6 535/2/6
f 535/2/6 534/2/6 536/2/6
f 537/4/6 538/4/6 539/4/6
f 539/4/6 538/4/6 540/4/6
f 541/3/6 542/3/6 547/3/6
f 547/3/6 542/3/6 548/3/6
f 545/2/6 546/2/6 549/2/6
f 543/2/6 544/2/6 549/2/6
f 544/2/6 545/2/6 549/2/6
f 549/2/6 546/2/6 550/2/6
f 551/1/6 552/1/6 553/1/6
f 553/1/6 552/1/6 554/1/6
f 555/3/6 556/3/6 559/3/6
f 559/3/6 556/3/6 560/3/6
f 557/2/6 558/2/6 561/2/6
f 561/2/6 558/2/6 562/2/6
f 562/2/6 558/2/6 563/2/6
f 563/2/6 558/2/6 564/2/6
f 565/3/6 566/3/6 567/3/6
f 567/3/6 566/3/6 568/3/6
f 565/3/6 567/3/6 569/3/6
f 565/3/6 569/3/6 571/3/6
f 569/3/6 570/3/6 571/3/6
f 571/3/6 570/3/6 572/3/6
f 573/3/6 574/3/6 579/3/6
f 579/3/6 574/3/6 580/3/6
f 575/4/6 576/4/6 581/4/6
f 581/4/6 576/4/6 582/4/6
f 577/3/6 578/3/6 583/3/6
f 578/4/6 579/4/6 584/4/6
f 583/3/6 578/3/6 584/3/6
f 584/4/6 579/4/6 585/4/6
f 586/3/6 587/3/6 592/3/6
f 592/3/6 587/3/6 593/3/6
f 588/2/6 589/2/6 594/2/6
f 594/2/6 589/2/6 595/2/6
f 590/2/6 591/2/6 596/2/6
f 596/2/6 591/2/6 597/2/6
f 598/3/6 599/3/6 601/3/6
f 599/4/6 600/4/6 602/4/6
f 601/3/6 599/3/6 602/3/6
f 602/4/6 600/4/6 603/4/6
f 603/3/6 604/3/6 607/3/6
f 607/3/6 604/3/6 608/3/6
f 605/4/6 606/4/6 609/4/6
f 609/4/6 606/4/6 610/4/6
f 611/3/6 612/3/6 617/3/6
f 615/3/6 616/3/6 618/3/6
f 616/4/6 617/4/6 619/4/6
f 618/3/6 616/3/6 619/3/6
f 617/3/6 612/3/6 620/3/6
f 619/4/6 617/4/6 620/4/6
f 620/3/6 612/3/6 621/3/6
f 621/3/6 612/3/6 622/3/6
f 613/4/6 614/4/6 623/4/6
f 623/4/6 614/4/6 624/4/6
