# MagicaVoxel @ Ephtracy

# group
g blaster16

# material
mtllib blaster16.mtl
usemtl palette

# normals
vn -1 0 0
vn 1 0 0
vn 0 0 1
vn 0 0 -1
vn 0 -1 0
vn 0 1 0

# texcoords
vt 0.724609 0.5
vt 0.884766 0.5
vt 0.888672 0.5
vt 0.943359 0.5
vt 0.951172 0.5
vt 0.970703 0.5
vt 0.978516 0.5
vt 0.982422 0.5
vt 0.986328 0.5
vt 0.990234 0.5

# verts
v -4 40 1
v -4 40 -0
v -4 43 1
v -4 43 -0
v -3 23 1
v -3 23 -0
v -3 24 1
v -3 24 -0
v -3 26 2
v -3 26 -1
v -3 27 2
v -3 27 -1
v -3 33 2
v -3 33 1
v -3 33 -0
v -3 33 -1
v -3 35 1
v -3 35 -0
v -3 37 1
v -3 37 -0
v -3 40 1
v -3 40 -0
v -2 0 1
v -2 0 -0
v -2 4 1
v -2 4 -0
v -2 10 1
v -2 10 -0
v -2 16 1
v -2 16 -0
v -2 18 1
v -2 18 -0
v -2 21 2
v -2 21 -1
v -2 22 2
v -2 22 1
v -2 22 -0
v -2 22 -1
v -2 23 1
v -2 23 -0
v -2 24 2
v -2 24 1
v -2 24 -0
v -2 24 -1
v -2 26 2
v -2 26 -1
v -1 15 2
v -1 15 1
v -1 15 -0
v -1 15 -1
v -1 16 2
v -1 16 1
v -1 16 -0
v -1 16 -1
v -1 18 1
v -1 18 -0
v -1 19 1
v -1 19 -0
v -1 20 2
v -1 20 -1
v -1 21 2
v -1 21 -1
v -1 22 2
v -1 22 1
v -1 22 -0
v -1 22 -1
v -1 23 2
v -1 23 1
v -1 23 -0
v -1 23 -1
v 0 13 2
v 0 13 1
v 0 13 -0
v 0 13 -1
v 0 15 2
v 0 15 1
v 0 15 -0
v 0 15 -1
v 0 18 2
v 0 18 1
v 0 18 -0
v 0 18 -1
v 0 19 1
v 0 19 -0
v 0 20 2
v 0 20 -1
v 1 11 1
v 1 11 -0
v 1 12 1
v 1 12 -0
v 1 16 2
v 1 16 1
v 1 16 -0
v 1 16 -1
v 1 17 2
v 1 17 1
v 1 17 -0
v 1 17 -1
v 2 13 2
v 2 13 1
v 2 13 -0
v 2 13 -1
v 2 14 2
v 2 14 1
v 2 14 -0
v 2 14 -1
v 3 9 1
v 3 9 -0
v 3 12 1
v 3 12 -0
v -3 42 1
v -3 42 -0
v -3 43 1
v -3 43 -0
v -2 30 2
v -2 30 1
v -2 30 -0
v -2 30 -1
v -2 33 2
v -2 33 1
v -2 33 -0
v -2 33 -1
v -2 40 1
v -2 40 -0
v -2 42 1
v -2 42 -0
v -1 24 2
v -1 24 1
v -1 24 -0
v -1 24 -1
v -1 25 1
v -1 25 -0
v -1 26 1
v -1 26 -0
v -1 27 2
v -1 27 1
v -1 27 -0
v -1 27 -1
v -1 28 2
v -1 28 1
v -1 28 -0
v -1 28 -1
v -1 30 2
v -1 30 1
v -1 30 -0
v -1 30 -1
v -1 37 1
v -1 37 -0
v -1 40 1
v -1 40 -0
v 0 0 1
v 0 0 -0
v 0 2 1
v 0 2 -0
v 0 8 1
v 0 8 -0
v 0 11 1
v 0 11 -0
v 0 12 1
v 0 12 -0
v 0 21 2
v 0 21 1
v 0 21 -0
v 0 21 -1
v 0 23 2
v 0 23 1
v 0 23 -0
v 0 23 -1
v 0 34 1
v 0 34 -0
v 0 37 1
v 0 37 -0
v 1 13 2
v 1 13 1
v 1 13 -0
v 1 13 -1
v 1 14 2
v 1 14 1
v 1 14 -0
v 1 14 -1
v 1 18 2
v 1 18 1
v 1 18 -0
v 1 18 -1
v 1 21 2
v 1 21 1
v 1 21 -0
v 1 21 -1
v 1 32 1
v 1 32 -0
v 1 34 1
v 1 34 -0
v 2 11 1
v 2 11 -0
v 2 12 1
v 2 12 -0
v 2 14 2
v 2 14 1
v 2 14 -0
v 2 14 -1
v 2 17 2
v 2 17 1
v 2 17 -0
v 2 17 -1
v 2 27 1
v 2 27 -0
v 2 28 1
v 2 28 -0
v 2 30 1
v 2 30 -0
v 2 32 1
v 2 32 -0
v 3 13 2
v 3 13 1
v 3 13 -0
v 3 13 -1
v 3 14 2
v 3 14 1
v 3 14 -0
v 3 14 -1
v 3 23 1
v 3 23 -0
v 3 27 1
v 3 27 -0
v 4 9 1
v 4 9 -0
v 4 10 1
v 4 10 -0
v 4 21 1
v 4 21 -0
v 4 23 1
v 4 23 -0
v 5 10 1
v 5 10 -0
v 5 15 1
v 5 15 -0
v 5 18 1
v 5 18 -0
v 5 21 1
v 5 21 -0
v -3 26 2
v -3 27 2
v -3 33 2
v -2 21 2
v -2 22 2
v -2 24 2
v -2 26 2
v -2 27 2
v -2 28 2
v -2 30 2
v -2 33 2
v -1 15 2
v -1 16 2
v -1 20 2
v -1 21 2
v -1 22 2
v -1 23 2
v -1 24 2
v -1 27 2
v -1 28 2
v -1 30 2
v 0 13 2
v 0 15 2
v 0 16 2
v 0 18 2
v 0 20 2
v 0 21 2
v 0 23 2
v 1 13 2
v 1 14 2
v 1 15 2
v 1 16 2
v 1 17 2
v 1 18 2
v 1 21 2
v 2 13 2
v 2 14 2
v 2 17 2
v 3 13 2
v 3 14 2
v -4 40 1
v -4 43 1
v -3 23 1
v -3 24 1
v -3 33 1
v -3 35 1
v -3 37 1
v -3 40 1
v -3 42 1
v -3 43 1
v -2 0 1
v -2 4 1
v -2 10 1
v -2 16 1
v -2 18 1
v -2 22 1
v -2 23 1
v -2 24 1
v -2 30 1
v -2 33 1
v -2 35 1
v -2 37 1
v -2 40 1
v -2 42 1
v -1 0 1
v -1 2 1
v -1 4 1
v -1 8 1
v -1 10 1
v -1 11 1
v -1 15 1
v -1 16 1
v -1 17 1
v -1 18 1
v -1 19 1
v -1 22 1
v -1 23 1
v -1 24 1
v -1 25 1
v -1 26 1
v -1 27 1
v -1 28 1
v -1 30 1
v -1 33 1
v -1 37 1
v -1 40 1
v 0 0 1
v 0 2 1
v 0 8 1
v 0 11 1
v 0 12 1
v 0 13 1
v 0 15 1
v 0 16 1
v 0 17 1
v 0 18 1
v 0 19 1
v 0 21 1
v 0 23 1
v 0 24 1
v 0 25 1
v 0 26 1
v 0 28 1
v 0 30 1
v 0 32 1
v 0 33 1
v 0 34 1
v 0 37 1
v 1 11 1
v 1 12 1
v 1 13 1
v 1 14 1
v 1 16 1
v 1 17 1
v 1 18 1
v 1 21 1
v 1 23 1
v 1 24 1
v 1 26 1
v 1 28 1
v 1 30 1
v 1 32 1
v 1 34 1
v 2 11 1
v 2 12 1
v 2 13 1
v 2 14 1
v 2 17 1
v 2 21 1
v 2 23 1
v 2 27 1
v 2 28 1
v 2 30 1
v 2 32 1
v 3 9 1
v 3 12 1
v 3 13 1
v 3 14 1
v 3 17 1
v 3 23 1
v 3 27 1
v 4 9 1
v 4 10 1
v 4 13 1
v 4 15 1
v 4 18 1
v 4 21 1
v 4 23 1
v 5 10 1
v 5 15 1
v 5 18 1
v 5 21 1
v -4 40 -0
v -4 43 -0
v -3 23 -0
v -3 24 -0
v -3 33 -0
v -3 35 -0
v -3 37 -0
v -3 40 -0
v -3 42 -0
v -3 43 -0
v -2 0 -0
v -2 4 -0
v -2 10 -0
v -2 16 -0
v -2 18 -0
v -2 22 -0
v -2 23 -0
v -2 24 -0
v -2 30 -0
v -2 33 -0
v -2 35 -0
v -2 37 -0
v -2 40 -0
v -2 42 -0
v -1 0 -0
v -1 2 -0
v -1 4 -0
v -1 8 -0
v -1 10 -0
v -1 11 -0
v -1 15 -0
v -1 16 -0
v -1 17 -0
v -1 18 -0
v -1 19 -0
v -1 22 -0
v -1 23 -0
v -1 24 -0
v -1 25 -0
v -1 26 -0
v -1 27 -0
v -1 28 -0
v -1 30 -0
v -1 33 -0
v -1 37 -0
v -1 40 -0
v 0 0 -0
v 0 2 -0
v 0 8 -0
v 0 11 -0
v 0 12 -0
v 0 13 -0
v 0 15 -0
v 0 16 -0
v 0 17 -0
v 0 18 -0
v 0 19 -0
v 0 21 -0
v 0 23 -0
v 0 24 -0
v 0 25 -0
v 0 26 -0
v 0 28 -0
v 0 30 -0
v 0 32 -0
v 0 33 -0
v 0 34 -0
v 0 37 -0
v 1 11 -0
v 1 12 -0
v 1 13 -0
v 1 14 -0
v 1 16 -0
v 1 17 -0
v 1 18 -0
v 1 21 -0
v 1 23 -0
v 1 24 -0
v 1 26 -0
v 1 28 -0
v 1 30 -0
v 1 32 -0
v 1 34 -0
v 2 11 -0
v 2 12 -0
v 2 13 -0
v 2 14 -0
v 2 17 -0
v 2 21 -0
v 2 23 -0
v 2 27 -0
v 2 28 -0
v 2 30 -0
v 2 32 -0
v 3 9 -0
v 3 12 -0
v 3 13 -0
v 3 14 -0
v 3 17 -0
v 3 23 -0
v 3 27 -0
v 4 9 -0
v 4 10 -0
v 4 13 -0
v 4 15 -0
v 4 18 -0
v 4 21 -0
v 4 23 -0
v 5 10 -0
v 5 15 -0
v 5 18 -0
v 5 21 -0
v -3 26 -1
v -3 27 -1
v -3 33 -1
v -2 21 -1
v -2 22 -1
v -2 24 -1
v -2 26 -1
v -2 27 -1
v -2 28 -1
v -2 30 -1
v -2 33 -1
v -1 15 -1
v -1 16 -1
v -1 20 -1
v -1 21 -1
v -1 22 -1
v -1 23 -1
v -1 24 -1
v -1 27 -1
v -1 28 -1
v -1 30 -1
v 0 13 -1
v 0 15 -1
v 0 16 -1
v 0 18 -1
v 0 20 -1
v 0 21 -1
v 0 23 -1
v 1 13 -1
v 1 14 -1
v 1 15 -1
v 1 16 -1
v 1 17 -1
v 1 18 -1
v 1 21 -1
v 2 13 -1
v 2 14 -1
v 2 17 -1
v 3 13 -1
v 3 14 -1
v -2 0 1
v -1 0 1
v 0 0 1
v -2 0 -0
v -1 0 -0
v 0 0 -0
v 3 9 1
v 4 9 1
v 3 9 -0
v 4 9 -0
v 4 10 1
v 5 10 1
v 4 10 -0
v 5 10 -0
v 1 11 1
v 2 11 1
v 1 11 -0
v 2 11 -0
v 0 12 1
v 1 12 1
v 2 12 1
v 3 12 1
v 0 12 -0
v 1 12 -0
v 2 12 -0
v 3 12 -0
v 0 13 2
v 1 13 2
v 2 13 2
v 3 13 2
v 0 13 1
v 1 13 1
v 2 13 1
v 3 13 1
v 0 13 -0
v 1 13 -0
v 2 13 -0
v 3 13 -0
v 0 13 -1
v 1 13 -1
v 2 13 -1
v 3 13 -1
v 1 14 2
v 2 14 2
v 1 14 1
v 2 14 1
v 1 14 -0
v 2 14 -0
v 1 14 -1
v 2 14 -1
v -1 15 2
v 0 15 2
v -1 15 1
v 0 15 1
v -1 15 -0
v 0 15 -0
v -1 15 -1
v 0 15 -1
v 0 18 2
v 1 18 2
v 0 18 1
v 1 18 1
v 0 18 -0
v 1 18 -0
v 0 18 -1
v 1 18 -1
v -1 20 2
v 0 20 2
v -1 20 -1
v 0 20 -1
v -2 21 2
v -1 21 2
v -2 21 -1
v -1 21 -1
v -3 23 1
v -2 23 1
v -3 23 -0
v -2 23 -0
v -2 24 2
v -1 24 2
v -2 24 1
v -1 24 1
v -2 24 -0
v -1 24 -0
v -2 24 -1
v -1 24 -1
v -3 26 2
v -2 26 2
v -3 26 -1
v -2 26 -1
v -4 40 1
v -3 40 1
v -4 40 -0
v -3 40 -0
v 2 14 2
v 3 14 2
v 2 14 1
v 3 14 1
v 2 14 -0
v 3 14 -0
v 2 14 -1
v 3 14 -1
v -1 16 2
v 0 16 2
v 1 16 2
v -1 16 1
v 0 16 1
v 1 16 1
v -1 16 -0
v 0 16 -0
v 1 16 -0
v -1 16 -1
v 0 16 -1
v 1 16 -1
v 1 17 2
v 2 17 2
v 1 17 1
v 2 17 1
v 1 17 -0
v 2 17 -0
v 1 17 -1
v 2 17 -1
v -2 18 1
v -1 18 1
v -2 18 -0
v -1 18 -0
v -1 19 1
v 0 19 1
v -1 19 -0
v 0 19 -0
v 0 21 2
v 1 21 2
v 0 21 1
v 1 21 1
v 4 21 1
v 5 21 1
v 0 21 -0
v 1 21 -0
v 4 21 -0
v 5 21 -0
v 0 21 -1
v 1 21 -1
v -2 22 2
v -1 22 2
v -2 22 1
v -1 22 1
v -2 22 -0
v -1 22 -0
v -2 22 -1
v -1 22 -1
v -1 23 2
v 0 23 2
v -1 23 1
v 0 23 1
v 3 23 1
v 4 23 1
v -1 23 -0
v 0 23 -0
v 3 23 -0
v 4 23 -0
v -1 23 -1
v 0 23 -1
v -3 24 1
v -2 24 1
v -3 24 -0
v -2 24 -0
v 2 27 1
v 3 27 1
v 2 27 -0
v 3 27 -0
v -2 30 2
v -1 30 2
v -2 30 1
v -1 30 1
v -2 30 -0
v -1 30 -0
v -2 30 -1
v -1 30 -1
v 1 32 1
v 2 32 1
v 1 32 -0
v 2 32 -0
v -3 33 2
v -2 33 2
v -3 33 1
v -2 33 1
v -3 33 -0
v -2 33 -0
v -3 33 -1
v -2 33 -1
v 0 34 1
v 1 34 1
v 0 34 -0
v 1 34 -0
v -1 37 1
v 0 37 1
v -1 37 -0
v 0 37 -0
v -2 40 1
v -1 40 1
v -2 40 -0
v -1 40 -0
v -3 42 1
v -2 42 1
v -3 42 -0
v -2 42 -0
v -4 43 1
v -3 43 1
v -4 43 -0
v -3 43 -0

# faces
f 3/2/1 2/2/1 1/2/1
f 4/2/1 2/2/1 3/2/1
f 7/10/1 6/10/1 5/10/1
f 8/10/1 6/10/1 7/10/1
f 11/6/1 10/6/1 9/6/1
f 12/6/1 10/6/1 11/6/1
f 13/4/1 12/4/1 11/4/1
f 14/4/1 12/4/1 13/4/1
f 15/4/1 12/4/1 14/4/1
f 16/4/1 12/4/1 15/4/1
f 17/1/1 15/1/1 14/1/1
f 18/1/1 15/1/1 17/1/1
f 19/2/1 18/2/1 17/2/1
f 20/2/1 18/2/1 19/2/1
f 21/1/1 20/1/1 19/1/1
f 22/1/1 20/1/1 21/1/1
f 25/9/1 24/9/1 23/9/1
f 26/9/1 24/9/1 25/9/1
f 27/8/1 26/8/1 25/8/1
f 28/8/1 26/8/1 27/8/1
f 29/9/1 28/9/1 27/9/1
f 30/9/1 28/9/1 29/9/1
f 31/10/1 30/10/1 29/10/1
f 32/10/1 30/10/1 31/10/1
f 35/5/1 34/5/1 33/5/1
f 36/5/1 34/5/1 35/5/1
f 37/5/1 34/5/1 36/5/1
f 38/5/1 34/5/1 37/5/1
f 39/10/1 37/10/1 36/10/1
f 40/10/1 37/10/1 39/10/1
f 45/4/1 43/4/1 42/4/1
f 45/4/1 44/4/1 43/4/1
f 45/4/1 42/4/1 41/4/1
f 46/4/1 44/4/1 45/4/1
f 51/5/1 48/5/1 47/5/1
f 52/5/1 48/5/1 51/5/1
f 53/5/1 50/5/1 49/5/1
f 54/5/1 50/5/1 53/5/1
f 57/10/1 56/10/1 55/10/1
f 58/10/1 56/10/1 57/10/1
f 61/5/1 60/5/1 59/5/1
f 62/5/1 60/5/1 61/5/1
f 67/5/1 64/5/1 63/5/1
f 68/5/1 64/5/1 67/5/1
f 69/5/1 66/5/1 65/5/1
f 70/5/1 66/5/1 69/5/1
f 75/5/1 72/5/1 71/5/1
f 76/5/1 72/5/1 75/5/1
f 77/5/1 74/5/1 73/5/1
f 78/5/1 74/5/1 77/5/1
f 83/5/1 80/5/1 79/5/1
f 84/5/1 82/5/1 81/5/1
f 85/5/1 83/5/1 79/5/1
f 85/5/1 84/5/1 83/5/1
f 86/5/1 82/5/1 84/5/1
f 86/5/1 84/5/1 85/5/1
f 89/10/1 88/10/1 87/10/1
f 90/10/1 88/10/1 89/10/1
f 95/5/1 92/5/1 91/5/1
f 96/5/1 92/5/1 95/5/1
f 97/5/1 94/5/1 93/5/1
f 98/5/1 94/5/1 97/5/1
f 103/5/1 100/5/1 99/5/1
f 104/5/1 100/5/1 103/5/1
f 105/5/1 102/5/1 101/5/1
f 106/5/1 102/5/1 105/5/1
f 109/1/1 108/1/1 107/1/1
f 110/1/1 108/1/1 109/1/1
f 111/2/2 112/2/2 113/2/2
f 113/2/2 112/2/2 114/2/2
f 115/4/2 116/4/2 119/4/2
f 119/4/2 116/4/2 120/4/2
f 117/4/2 118/4/2 121/4/2
f 121/4/2 118/4/2 122/4/2
f 123/3/2 124/3/2 125/3/2
f 125/3/2 124/3/2 126/3/2
f 127/4/2 128/4/2 131/4/2
f 129/4/2 130/4/2 132/4/2
f 127/4/2 131/4/2 133/4/2
f 132/4/2 130/4/2 134/4/2
f 127/4/2 133/4/2 135/4/2
f 135/4/2 133/4/2 136/4/2
f 134/4/2 130/4/2 137/4/2
f 137/4/2 130/4/2 138/4/2
f 135/6/2 136/6/2 139/6/2
f 139/6/2 136/6/2 140/6/2
f 137/6/2 138/6/2 141/6/2
f 141/6/2 138/6/2 142/6/2
f 139/4/2 140/4/2 143/4/2
f 143/4/2 140/4/2 144/4/2
f 141/4/2 142/4/2 145/4/2
f 145/4/2 142/4/2 146/4/2
f 147/2/2 148/2/2 149/2/2
f 149/2/2 148/2/2 150/2/2
f 151/7/2 152/7/2 153/7/2
f 153/7/2 152/7/2 154/7/2
f 153/9/2 154/9/2 155/9/2
f 155/9/2 154/9/2 156/9/2
f 155/7/2 156/7/2 157/7/2
f 157/7/2 156/7/2 158/7/2
f 157/8/2 158/8/2 159/8/2
f 159/8/2 158/8/2 160/8/2
f 161/5/2 162/5/2 165/5/2
f 165/5/2 162/5/2 166/5/2
f 163/5/2 164/5/2 167/5/2
f 167/5/2 164/5/2 168/5/2
f 169/2/2 170/2/2 171/2/2
f 171/2/2 170/2/2 172/2/2
f 173/5/2 174/5/2 177/5/2
f 177/5/2 174/5/2 178/5/2
f 175/5/2 176/5/2 179/5/2
f 179/5/2 176/5/2 180/5/2
f 181/5/2 182/5/2 185/5/2
f 185/5/2 182/5/2 186/5/2
f 183/5/2 184/5/2 187/5/2
f 187/5/2 184/5/2 188/5/2
f 189/3/2 190/3/2 191/3/2
f 191/3/2 190/3/2 192/3/2
f 193/10/2 194/10/2 195/10/2
f 195/10/2 194/10/2 196/10/2
f 197/5/2 198/5/2 201/5/2
f 201/5/2 198/5/2 202/5/2
f 199/5/2 200/5/2 203/5/2
f 203/5/2 200/5/2 204/5/2
f 205/1/2 206/1/2 207/1/2
f 207/1/2 206/1/2 208/1/2
f 207/3/2 208/3/2 209/3/2
f 209/3/2 208/3/2 210/3/2
f 209/1/2 210/1/2 211/1/2
f 211/1/2 210/1/2 212/1/2
f 213/5/2 214/5/2 217/5/2
f 217/5/2 214/5/2 218/5/2
f 215/5/2 216/5/2 219/5/2
f 219/5/2 216/5/2 220/5/2
f 221/3/2 222/3/2 223/3/2
f 223/3/2 222/3/2 224/3/2
f 225/1/2 226/1/2 227/1/2
f 227/1/2 226/1/2 228/1/2
f 229/3/2 230/3/2 231/3/2
f 231/3/2 230/3/2 232/3/2
f 233/3/2 234/3/2 235/3/2
f 235/3/2 234/3/2 236/3/2
f 235/2/2 236/2/2 237/2/2
f 237/2/2 236/2/2 238/2/2
f 237/1/2 238/1/2 239/1/2
f 239/1/2 238/1/2 240/1/2
f 247/6/3 242/6/3 241/6/3
f 248/4/3 243/4/3 242/4/3
f 248/6/3 242/6/3 247/6/3
f 249/4/3 243/4/3 248/4/3
f 250/4/3 243/4/3 249/4/3
f 251/4/3 243/4/3 250/4/3
f 255/5/3 245/5/3 244/5/3
f 256/5/3 245/5/3 255/5/3
f 258/4/3 247/4/3 246/4/3
f 258/4/3 248/4/3 247/4/3
f 259/6/3 249/6/3 248/6/3
f 259/4/3 248/4/3 258/4/3
f 260/4/3 250/4/3 249/4/3
f 260/6/3 249/6/3 259/6/3
f 261/4/3 250/4/3 260/4/3
f 263/5/3 253/5/3 252/5/3
f 264/5/3 253/5/3 263/5/3
f 266/5/3 255/5/3 254/5/3
f 266/5/3 257/5/3 256/5/3
f 266/5/3 256/5/3 255/5/3
f 267/5/3 257/5/3 266/5/3
f 268/5/3 257/5/3 267/5/3
f 269/5/3 263/5/3 262/5/3
f 270/5/3 263/5/3 269/5/3
f 271/10/3 264/10/3 263/10/3
f 271/5/3 263/5/3 270/5/3
f 272/10/3 264/10/3 271/10/3
f 274/5/3 266/5/3 265/5/3
f 274/5/3 267/5/3 266/5/3
f 275/5/3 267/5/3 274/5/3
f 277/5/3 273/5/3 272/5/3
f 277/5/3 272/5/3 271/5/3
f 277/5/3 271/5/3 270/5/3
f 278/5/3 273/5/3 277/5/3
f 279/5/3 277/5/3 276/5/3
f 280/5/3 277/5/3 279/5/3
f 288/2/3 282/2/3 281/2/3
f 289/2/3 282/2/3 288/2/3
f 290/2/3 282/2/3 289/2/3
f 297/10/3 284/10/3 283/10/3
f 298/10/3 284/10/3 297/10/3
f 300/1/3 286/1/3 285/1/3
f 301/2/3 287/2/3 286/2/3
f 301/1/3 286/1/3 300/1/3
f 302/1/3 288/1/3 287/1/3
f 302/2/3 287/2/3 301/2/3
f 303/3/3 289/3/3 288/3/3
f 303/1/3 288/1/3 302/1/3
f 304/3/3 289/3/3 303/3/3
f 305/9/3 292/9/3 291/9/3
f 306/9/3 292/9/3 305/9/3
f 307/8/3 293/8/3 292/8/3
f 307/9/3 292/9/3 306/9/3
f 308/8/3 293/8/3 307/8/3
f 309/9/3 294/9/3 293/9/3
f 309/8/3 293/8/3 308/8/3
f 310/9/3 294/9/3 309/9/3
f 311/9/3 294/9/3 310/9/3
f 312/10/3 295/10/3 294/10/3
f 312/9/3 294/9/3 311/9/3
f 313/10/3 295/10/3 312/10/3
f 314/10/3 295/10/3 313/10/3
f 316/10/3 297/10/3 296/10/3
f 317/1/3 298/1/3 297/1/3
f 317/10/3 297/10/3 316/10/3
f 318/1/3 298/1/3 317/1/3
f 323/2/3 300/2/3 299/2/3
f 324/3/3 301/3/3 300/3/3
f 324/3/3 302/3/3 301/3/3
f 324/2/3 300/2/3 323/2/3
f 325/2/3 303/2/3 302/2/3
f 325/3/3 302/3/3 324/3/3
f 326/2/3 303/2/3 325/2/3
f 327/7/3 306/7/3 305/7/3
f 328/9/3 308/9/3 307/9/3
f 328/7/3 306/7/3 327/7/3
f 328/9/3 307/9/3 306/9/3
f 329/7/3 309/7/3 308/7/3
f 329/9/3 308/9/3 328/9/3
f 329/7/3 310/7/3 309/7/3
f 330/8/3 311/8/3 310/8/3
f 330/7/3 310/7/3 329/7/3
f 331/8/3 311/8/3 330/8/3
f 332/8/3 311/8/3 331/8/3
f 333/8/3 311/8/3 332/8/3
f 334/10/3 313/10/3 312/10/3
f 335/1/3 314/1/3 313/1/3
f 335/10/3 313/10/3 334/10/3
f 336/10/3 315/10/3 314/10/3
f 336/1/3 314/1/3 335/1/3
f 337/10/3 315/10/3 336/10/3
f 339/10/3 319/10/3 318/10/3
f 339/10/3 318/10/3 317/10/3
f 340/10/3 319/10/3 339/10/3
f 341/3/3 320/3/3 319/3/3
f 341/10/3 319/10/3 340/10/3
f 342/1/3 322/1/3 321/1/3
f 342/3/3 320/3/3 341/3/3
f 342/1/3 323/1/3 322/1/3
f 342/1/3 321/1/3 320/1/3
f 343/1/3 323/1/3 342/1/3
f 344/3/3 324/3/3 323/3/3
f 344/1/3 323/1/3 343/1/3
f 345/3/3 324/3/3 344/3/3
f 346/2/3 325/2/3 324/2/3
f 346/3/3 324/3/3 345/3/3
f 347/2/3 325/2/3 346/2/3
f 348/2/3 325/2/3 347/2/3
f 350/10/3 332/10/3 331/10/3
f 351/10/3 332/10/3 350/10/3
f 353/10/3 335/10/3 334/10/3
f 353/10/3 336/10/3 335/10/3
f 354/10/3 336/10/3 353/10/3
f 355/10/3 336/10/3 354/10/3
f 356/10/3 339/10/3 338/10/3
f 357/3/3 340/3/3 339/3/3
f 357/10/3 339/10/3 356/10/3
f 358/2/3 341/2/3 340/2/3
f 358/3/3 340/3/3 357/3/3
f 358/2/3 342/2/3 341/2/3
f 359/3/3 343/3/3 342/3/3
f 359/2/3 342/2/3 358/2/3
f 360/2/3 345/2/3 344/2/3
f 360/3/3 343/3/3 359/3/3
f 360/2/3 344/2/3 343/2/3
f 361/2/3 345/2/3 360/2/3
f 362/3/3 347/3/3 346/3/3
f 362/2/3 345/2/3 361/2/3
f 362/3/3 346/3/3 345/3/3
f 363/3/3 347/3/3 362/3/3
f 364/10/3 352/10/3 351/10/3
f 364/10/3 351/10/3 350/10/3
f 364/10/3 350/10/3 349/10/3
f 365/10/3 352/10/3 364/10/3
f 366/10/3 352/10/3 365/10/3
f 367/10/3 352/10/3 366/10/3
f 368/10/3 355/10/3 354/10/3
f 368/10/3 356/10/3 355/10/3
f 369/1/3 357/1/3 356/1/3
f 369/1/3 358/1/3 357/1/3
f 369/10/3 356/10/3 368/10/3
f 369/1/3 360/1/3 359/1/3
f 369/1/3 359/1/3 358/1/3
f 370/1/3 360/1/3 369/1/3
f 371/1/3 360/1/3 370/1/3
f 372/3/3 361/3/3 360/3/3
f 372/1/3 360/1/3 371/1/3
f 373/1/3 362/1/3 361/1/3
f 373/3/3 361/3/3 372/3/3
f 374/1/3 362/1/3 373/1/3
f 376/10/3 366/10/3 365/10/3
f 377/10/3 366/10/3 376/10/3
f 378/1/3 368/1/3 367/1/3
f 379/2/3 370/2/3 369/2/3
f 379/2/3 369/2/3 368/2/3
f 379/1/3 368/1/3 378/1/3
f 380/3/3 371/3/3 370/3/3
f 380/2/3 370/2/3 379/2/3
f 381/3/3 371/3/3 380/3/3
f 382/1/3 377/1/3 376/1/3
f 382/1/3 376/1/3 375/1/3
f 383/1/3 377/1/3 382/1/3
f 384/3/3 379/3/3 378/3/3
f 384/1/3 377/1/3 383/1/3
f 384/3/3 378/3/3 377/3/3
f 384/3/3 380/3/3 379/3/3
f 385/3/3 380/3/3 384/3/3
f 386/3/3 380/3/3 385/3/3
f 387/3/3 380/3/3 386/3/3
f 388/3/3 380/3/3 387/3/3
f 389/3/3 384/3/3 383/3/3
f 389/3/3 385/3/3 384/3/3
f 390/2/3 386/2/3 385/2/3
f 390/3/3 385/3/3 389/3/3
f 391/1/3 387/1/3 386/1/3
f 391/2/3 386/2/3 390/2/3
f 392/1/3 387/1/3 391/1/3
f 393/2/4 394/2/4 400/2/4
f 400/2/4 394/2/4 401/2/4
f 401/2/4 394/2/4 402/2/4
f 395/10/4 396/10/4 409/10/4
f 409/10/4 396/10/4 410/10/4
f 397/1/4 398/1/4 412/1/4
f 398/2/4 399/2/4 413/2/4
f 412/1/4 398/1/4 413/1/4
f 399/1/4 400/1/4 414/1/4
f 413/2/4 399/2/4 414/2/4
f 400/3/4 401/3/4 415/3/4
f 414/1/4 400/1/4 415/1/4
f 415/3/4 401/3/4 416/3/4
f 403/9/4 404/9/4 417/9/4
f 417/9/4 404/9/4 418/9/4
f 404/8/4 405/8/4 419/8/4
f 418/9/4 404/9/4 419/9/4
f 419/8/4 405/8/4 420/8/4
f 405/9/4 406/9/4 421/9/4
f 420/8/4 405/8/4 421/8/4
f 421/9/4 406/9/4 422/9/4
f 422/9/4 406/9/4 423/9/4
f 406/10/4 407/10/4 424/10/4
f 423/9/4 406/9/4 424/9/4
f 424/10/4 407/10/4 425/10/4
f 425/10/4 407/10/4 426/10/4
f 408/10/4 409/10/4 428/10/4
f 409/1/4 410/1/4 429/1/4
f 428/10/4 409/10/4 429/10/4
f 429/1/4 410/1/4 430/1/4
f 411/2/4 412/2/4 435/2/4
f 412/3/4 413/3/4 436/3/4
f 413/3/4 414/3/4 436/3/4
f 435/2/4 412/2/4 436/2/4
f 414/2/4 415/2/4 437/2/4
f 436/3/4 414/3/4 437/3/4
f 437/2/4 415/2/4 438/2/4
f 417/7/4 418/7/4 439/7/4
f 419/9/4 420/9/4 440/9/4
f 439/7/4 418/7/4 440/7/4
f 418/9/4 419/9/4 440/9/4
f 420/7/4 421/7/4 441/7/4
f 440/9/4 420/9/4 441/9/4
f 421/7/4 422/7/4 441/7/4
f 422/8/4 423/8/4 442/8/4
f 441/7/4 422/7/4 442/7/4
f 442/8/4 423/8/4 443/8/4
f 443/8/4 423/8/4 444/8/4
f 444/8/4 423/8/4 445/8/4
f 424/10/4 425/10/4 446/10/4
f 425/1/4 426/1/4 447/1/4
f 446/10/4 425/10/4 447/10/4
f 426/10/4 427/10/4 448/10/4
f 447/1/4 426/1/4 448/1/4
f 448/10/4 427/10/4 449/10/4
f 430/10/4 431/10/4 451/10/4
f 429/10/4 430/10/4 451/10/4
f 451/10/4 431/10/4 452/10/4
f 431/3/4 432/3/4 453/3/4
f 452/10/4 431/10/4 453/10/4
f 433/1/4 434/1/4 454/1/4
f 453/3/4 432/3/4 454/3/4
f 434/1/4 435/1/4 454/1/4
f 432/1/4 433/1/4 454/1/4
f 454/1/4 435/1/4 455/1/4
f 435/3/4 436/3/4 456/3/4
f 455/1/4 435/1/4 456/1/4
f 456/3/4 436/3/4 457/3/4
f 436/2/4 437/2/4 458/2/4
f 457/3/4 436/3/4 458/3/4
f 458/2/4 437/2/4 459/2/4
f 459/2/4 437/2/4 460/2/4
f 443/10/4 444/10/4 462/10/4
f 462/10/4 444/10/4 463/10/4
f 446/10/4 447/10/4 465/10/4
f 447/10/4 448/10/4 465/10/4
f 465/10/4 448/10/4 466/10/4
f 466/10/4 448/10/4 467/10/4
f 450/10/4 451/10/4 468/10/4
f 451/3/4 452/3/4 469/3/4
f 468/10/4 451/10/4 469/10/4
f 452/2/4 453/2/4 470/2/4
f 469/3/4 452/3/4 470/3/4
f 453/2/4 454/2/4 470/2/4
f 454/3/4 455/3/4 471/3/4
f 470/2/4 454/2/4 471/2/4
f 456/2/4 457/2/4 472/2/4
f 471/3/4 455/3/4 472/3/4
f 455/2/4 456/2/4 472/2/4
f 472/2/4 457/2/4 473/2/4
f 458/3/4 459/3/4 474/3/4
f 473/2/4 457/2/4 474/2/4
f 457/3/4 458/3/4 474/3/4
f 474/3/4 459/3/4 475/3/4
f 463/10/4 464/10/4 476/10/4
f 462/10/4 463/10/4 476/10/4
f 461/10/4 462/10/4 476/10/4
f 476/10/4 464/10/4 477/10/4
f 477/10/4 464/10/4 478/10/4
f 478/10/4 464/10/4 479/10/4
f 466/10/4 467/10/4 480/10/4
f 467/10/4 468/10/4 480/10/4
f 468/1/4 469/1/4 481/1/4
f 469/1/4 470/1/4 481/1/4
f 480/10/4 468/10/4 481/10/4
f 471/1/4 472/1/4 481/1/4
f 470/1/4 471/1/4 481/1/4
f 481/1/4 472/1/4 482/1/4
f 482/1/4 472/1/4 483/1/4
f 472/3/4 473/3/4 484/3/4
f 483/1/4 472/1/4 484/1/4
f 473/1/4 474/1/4 485/1/4
f 484/3/4 473/3/4 485/3/4
f 485/1/4 474/1/4 486/1/4
f 477/10/4 478/10/4 488/10/4
f 488/10/4 478/10/4 489/10/4
f 479/1/4 480/1/4 490/1/4
f 481/2/4 482/2/4 491/2/4
f 480/2/4 481/2/4 491/2/4
f 490/1/4 480/1/4 491/1/4
f 482/3/4 483/3/4 492/3/4
f 491/2/4 482/2/4 492/2/4
f 492/3/4 483/3/4 493/3/4
f 488/1/4 489/1/4 494/1/4
f 487/1/4 488/1/4 494/1/4
f 494/1/4 489/1/4 495/1/4
f 490/3/4 491/3/4 496/3/4
f 495/1/4 489/1/4 496/1/4
f 489/3/4 490/3/4 496/3/4
f 491/3/4 492/3/4 496/3/4
f 496/3/4 492/3/4 497/3/4
f 497/3/4 492/3/4 498/3/4
f 498/3/4 492/3/4 499/3/4
f 499/3/4 492/3/4 500/3/4
f 495/3/4 496/3/4 501/3/4
f 496/3/4 497/3/4 501/3/4
f 497/2/4 498/2/4 502/2/4
f 501/3/4 497/3/4 502/3/4
f 498/1/4 499/1/4 503/1/4
f 502/2/4 498/2/4 503/2/4
f 503/1/4 499/1/4 504/1/4
f 505/6/4 506/6/4 511/6/4
f 506/4/4 507/4/4 512/4/4
f 511/6/4 506/6/4 512/6/4
f 512/4/4 507/4/4 513/4/4
f 513/4/4 507/4/4 514/4/4
f 514/4/4 507/4/4 515/4/4
f 508/5/4 509/5/4 519/5/4
f 519/5/4 509/5/4 520/5/4
f 510/4/4 511/4/4 522/4/4
f 511/4/4 512/4/4 522/4/4
f 512/6/4 513/6/4 523/6/4
f 522/4/4 512/4/4 523/4/4
f 513/4/4 514/4/4 524/4/4
f 523/6/4 513/6/4 524/6/4
f 524/4/4 514/4/4 525/4/4
f 516/5/4 517/5/4 527/5/4
f 527/5/4 517/5/4 528/5/4
f 518/5/4 519/5/4 530/5/4
f 520/5/4 521/5/4 530/5/4
f 519/5/4 520/5/4 530/5/4
f 530/5/4 521/5/4 531/5/4
f 531/5/4 521/5/4 532/5/4
f 526/5/4 527/5/4 533/5/4
f 533/5/4 527/5/4 534/5/4
f 527/10/4 528/10/4 535/10/4
f 534/5/4 527/5/4 535/5/4
f 535/10/4 528/10/4 536/10/4
f 529/5/4 530/5/4 538/5/4
f 530/5/4 531/5/4 538/5/4
f 538/5/4 531/5/4 539/5/4
f 536/5/4 537/5/4 541/5/4
f 535/5/4 536/5/4 541/5/4
f 534/5/4 535/5/4 541/5/4
f 541/5/4 537/5/4 542/5/4
f 540/5/4 541/5/4 543/5/4
f 543/5/4 541/5/4 544/5/4
f 548/9/5 546/9/5 545/9/5
f 549/7/5 547/7/5 546/7/5
f 549/9/5 546/9/5 548/9/5
f 550/7/5 547/7/5 549/7/5
f 553/1/5 552/1/5 551/1/5
f 554/1/5 552/1/5 553/1/5
f 557/3/5 556/3/5 555/3/5
f 558/3/5 556/3/5 557/3/5
f 561/10/5 560/10/5 559/10/5
f 562/10/5 560/10/5 561/10/5
f 567/10/5 564/10/5 563/10/5
f 568/10/5 564/10/5 567/10/5
f 569/10/5 566/10/5 565/10/5
f 570/10/5 566/10/5 569/10/5
f 575/5/5 572/5/5 571/5/5
f 576/5/5 572/5/5 575/5/5
f 577/5/5 574/5/5 573/5/5
f 578/5/5 574/5/5 577/5/5
f 583/5/5 580/5/5 579/5/5
f 584/5/5 580/5/5 583/5/5
f 585/5/5 582/5/5 581/5/5
f 586/5/5 582/5/5 585/5/5
f 589/5/5 588/5/5 587/5/5
f 590/5/5 588/5/5 589/5/5
f 593/5/5 592/5/5 591/5/5
f 594/5/5 592/5/5 593/5/5
f 597/5/5 596/5/5 595/5/5
f 598/5/5 596/5/5 597/5/5
f 601/5/5 600/5/5 599/5/5
f 602/5/5 600/5/5 601/5/5
f 605/5/5 604/5/5 603/5/5
f 606/5/5 604/5/5 605/5/5
f 609/5/5 608/5/5 607/5/5
f 610/5/5 608/5/5 609/5/5
f 613/5/5 612/5/5 611/5/5
f 614/5/5 612/5/5 613/5/5
f 617/5/5 616/5/5 615/5/5
f 618/5/5 616/5/5 617/5/5
f 621/10/5 620/10/5 619/10/5
f 622/10/5 620/10/5 621/10/5
f 625/4/5 624/4/5 623/4/5
f 626/4/5 624/4/5 625/4/5
f 629/4/5 628/4/5 627/4/5
f 630/4/5 628/4/5 629/4/5
f 633/6/5 632/6/5 631/6/5
f 634/6/5 632/6/5 633/6/5
f 637/2/5 636/2/5 635/2/5
f 638/2/5 636/2/5 637/2/5
f 639/5/6 640/5/6 641/5/6
f 641/5/6 640/5/6 642/5/6
f 643/5/6 644/5/6 645/5/6
f 645/5/6 644/5/6 646/5/6
f 647/5/6 648/5/6 650/5/6
f 648/10/6 649/10/6 651/10/6
f 650/5/6 648/5/6 651/5/6
f 651/10/6 649/10/6 652/10/6
f 653/5/6 654/5/6 656/5/6
f 654/10/6 655/10/6 657/10/6
f 656/5/6 654/5/6 657/5/6
f 657/10/6 655/10/6 658/10/6
f 659/5/6 660/5/6 661/5/6
f 661/5/6 660/5/6 662/5/6
f 663/5/6 664/5/6 665/5/6
f 665/5/6 664/5/6 666/5/6
f 667/10/6 668/10/6 669/10/6
f 669/10/6 668/10/6 670/10/6
f 671/10/6 672/10/6 673/10/6
f 673/10/6 672/10/6 674/10/6
f 675/5/6 676/5/6 677/5/6
f 677/5/6 676/5/6 678/5/6
f 679/1/6 680/1/6 683/1/6
f 683/1/6 680/1/6 684/1/6
f 681/5/6 682/5/6 685/5/6
f 685/5/6 682/5/6 686/5/6
f 687/5/6 688/5/6 689/5/6
f 689/5/6 688/5/6 690/5/6
f 691/5/6 692/5/6 693/5/6
f 693/5/6 692/5/6 694/5/6
f 695/5/6 696/5/6 697/5/6
f 697/5/6 696/5/6 698/5/6
f 699/3/6 700/3/6 703/3/6
f 703/3/6 700/3/6 704/3/6
f 701/5/6 702/5/6 705/5/6
f 705/5/6 702/5/6 706/5/6
f 707/10/6 708/10/6 709/10/6
f 709/10/6 708/10/6 710/10/6
f 711/3/6 712/3/6 713/3/6
f 713/3/6 712/3/6 714/3/6
f 715/4/6 716/4/6 717/4/6
f 717/4/6 716/4/6 718/4/6
f 719/4/6 720/4/6 721/4/6
f 721/4/6 720/4/6 722/4/6
f 723/1/6 724/1/6 725/1/6
f 725/1/6 724/1/6 726/1/6
f 727/4/6 728/4/6 729/4/6
f 729/4/6 728/4/6 730/4/6
f 731/4/6 732/4/6 733/4/6
f 733/4/6 732/4/6 734/4/6
f 735/3/6 736/3/6 737/3/6
f 737/3/6 736/3/6 738/3/6
f 739/2/6 740/2/6 741/2/6
f 741/2/6 740/2/6 742/2/6
f 743/2/6 744/2/6 745/2/6
f 745/2/6 744/2/6 746/2/6
f 747/3/6 748/3/6 749/3/6
f 749/3/6 748/3/6 750/3/6
f 751/2/6 752/2/6 753/2/6
f 753/2/6 752/2/6 754/2/6
