# MagicaVoxel @ Ephtracy

# group
g blaster79

# material
mtllib blaster79.mtl
usemtl palette

# normals
vn -1 0 0
vn 1 0 0
vn 0 0 1
vn 0 0 -1
vn 0 -1 0
vn 0 1 0

# texcoords
vt 0.0214844 0.5
vt 0.0449219 0.5
vt 0.564453 0.5
vt 0.568359 0.5
vt 0.712891 0.5
vt 0.716797 0.5
vt 0.720703 0.5
vt 0.724609 0.5
vt 0.958984 0.5
vt 0.966797 0.5

# verts
v -4 12 -0
v -4 12 -1
v -4 14 -0
v -4 14 -1
v -4 49 -0
v -4 49 -1
v -4 51 -0
v -4 51 -1
v -4 53 -0
v -4 53 -1
v -4 55 -0
v -4 55 -1
v -4 56 -0
v -4 56 -1
v -4 57 -0
v -4 57 -1
v -2 0 1
v -2 0 -2
v -2 2 1
v -2 2 -0
v -2 2 -1
v -2 2 -2
v -2 3 -0
v -2 3 -1
v -2 11 -0
v -2 11 -1
v -2 12 -0
v -2 12 -1
v -2 56 -0
v -2 56 -1
v -2 57 -0
v -2 57 -1
v -1 55 -0
v -1 55 -1
v -1 56 -0
v -1 56 -1
v 0 53 -0
v 0 53 -1
v 0 55 -0
v 0 55 -1
v 1 0 1
v 1 0 -2
v 1 2 1
v 1 2 -0
v 1 2 -1
v 1 2 -2
v 1 3 -0
v 1 3 -1
v 1 11 -0
v 1 11 -1
v 1 12 -0
v 1 12 -1
v 1 51 -0
v 1 51 -1
v 1 53 -0
v 1 53 -1
v 2 49 -0
v 2 49 -1
v 2 51 -0
v 2 51 -1
v 3 12 -0
v 3 12 -1
v 3 14 -0
v 3 14 -1
v 3 49 -0
v 3 49 -1
v -2 0 1
v -2 2 1
v 1 0 1
v 1 2 1
v -4 12 -0
v -4 14 -0
v -4 49 -0
v -4 51 -0
v -4 53 -0
v -4 55 -0
v -4 56 -0
v -4 57 -0
v -3 14 -0
v -3 49 -0
v -3 51 -0
v -3 53 -0
v -3 55 -0
v -2 2 -0
v -2 3 -0
v -2 11 -0
v -2 12 -0
v -2 14 -0
v -2 49 -0
v -2 51 -0
v -2 53 -0
v -2 55 -0
v -2 56 -0
v -2 57 -0
v -1 14 -0
v -1 49 -0
v -1 51 -0
v -1 53 -0
v -1 55 -0
v -1 56 -0
v 0 14 -0
v 0 49 -0
v 0 51 -0
v 0 53 -0
v 0 55 -0
v 1 2 -0
v 1 3 -0
v 1 11 -0
v 1 12 -0
v 1 14 -0
v 1 49 -0
v 1 51 -0
v 1 53 -0
v 2 14 -0
v 2 49 -0
v 2 51 -0
v 3 12 -0
v 3 14 -0
v 3 49 -0
v -4 12 -1
v -4 14 -1
v -4 49 -1
v -4 51 -1
v -4 53 -1
v -4 55 -1
v -4 56 -1
v -4 57 -1
v -3 14 -1
v -3 49 -1
v -3 51 -1
v -3 53 -1
v -3 55 -1
v -2 2 -1
v -2 3 -1
v -2 11 -1
v -2 12 -1
v -2 14 -1
v -2 49 -1
v -2 51 -1
v -2 53 -1
v -2 55 -1
v -2 56 -1
v -2 57 -1
v -1 14 -1
v -1 49 -1
v -1 51 -1
v -1 53 -1
v -1 55 -1
v -1 56 -1
v 0 14 -1
v 0 49 -1
v 0 51 -1
v 0 53 -1
v 0 55 -1
v 1 2 -1
v 1 3 -1
v 1 11 -1
v 1 12 -1
v 1 14 -1
v 1 49 -1
v 1 51 -1
v 1 53 -1
v 2 14 -1
v 2 49 -1
v 2 51 -1
v 3 12 -1
v 3 14 -1
v 3 49 -1
v -2 0 -2
v -2 2 -2
v 1 0 -2
v 1 2 -2
v -2 0 1
v 1 0 1
v -2 0 -2
v 1 0 -2
v -4 12 -0
v -2 12 -0
v 1 12 -0
v 3 12 -0
v -4 12 -1
v -2 12 -1
v 1 12 -1
v 3 12 -1
v -2 2 1
v 1 2 1
v -2 2 -0
v 1 2 -0
v -2 2 -1
v 1 2 -1
v -2 2 -2
v 1 2 -2
v 2 49 -0
v 3 49 -0
v 2 49 -1
v 3 49 -1
v 1 51 -0
v 2 51 -0
v 1 51 -1
v 2 51 -1
v 0 53 -0
v 1 53 -0
v 0 53 -1
v 1 53 -1
v -1 55 -0
v 0 55 -0
v -1 55 -1
v 0 55 -1
v -2 56 -0
v -1 56 -0
v -2 56 -1
v -1 56 -1
v -4 57 -0
v -2 57 -0
v -4 57 -1
v -2 57 -1

# faces
f 3/2/1 2/2/1 1/2/1
f 4/2/1 2/2/1 3/2/1
f 5/8/1 4/8/1 3/8/1
f 6/8/1 4/8/1 5/8/1
f 7/7/1 6/7/1 5/7/1
f 8/7/1 6/7/1 7/7/1
f 9/6/1 8/6/1 7/6/1
f 10/6/1 8/6/1 9/6/1
f 11/5/1 10/5/1 9/5/1
f 12/5/1 10/5/1 11/5/1
f 13/3/1 12/3/1 11/3/1
f 14/3/1 12/3/1 13/3/1
f 15/9/1 14/9/1 13/9/1
f 16/9/1 14/9/1 15/9/1
f 19/2/1 18/2/1 17/2/1
f 20/2/1 18/2/1 19/2/1
f 21/2/1 18/2/1 20/2/1
f 22/2/1 18/2/1 21/2/1
f 23/1/1 21/1/1 20/1/1
f 24/1/1 21/1/1 23/1/1
f 25/10/1 24/10/1 23/10/1
f 26/10/1 24/10/1 25/10/1
f 27/1/1 26/1/1 25/1/1
f 28/1/1 26/1/1 27/1/1
f 29/9/2 30/9/2 31/9/2
f 31/9/2 30/9/2 32/9/2
f 33/9/2 34/9/2 35/9/2
f 35/9/2 34/9/2 36/9/2
f 37/9/2 38/9/2 39/9/2
f 39/9/2 38/9/2 40/9/2
f 41/2/2 42/2/2 43/2/2
f 43/2/2 42/2/2 44/2/2
f 44/2/2 42/2/2 45/2/2
f 45/2/2 42/2/2 46/2/2
f 44/1/2 45/1/2 47/1/2
f 47/1/2 45/1/2 48/1/2
f 47/10/2 48/10/2 49/10/2
f 49/10/2 48/10/2 50/10/2
f 49/1/2 50/1/2 51/1/2
f 51/1/2 50/1/2 52/1/2
f 53/9/2 54/9/2 55/9/2
f 55/9/2 54/9/2 56/9/2
f 57/9/2 58/9/2 59/9/2
f 59/9/2 58/9/2 60/9/2
f 61/2/2 62/2/2 63/2/2
f 63/2/2 62/2/2 64/2/2
f 63/9/2 64/9/2 65/9/2
f 65/9/2 64/9/2 66/9/2
f 69/2/3 68/2/3 67/2/3
f 70/2/3 68/2/3 69/2/3
f 79/2/3 72/2/3 71/2/3
f 79/8/3 73/8/3 72/8/3
f 80/7/3 74/7/3 73/7/3
f 80/8/3 73/8/3 79/8/3
f 81/6/3 75/6/3 74/6/3
f 81/7/3 74/7/3 80/7/3
f 82/5/3 76/5/3 75/5/3
f 82/6/3 75/6/3 81/6/3
f 83/3/3 77/3/3 76/3/3
f 83/5/3 76/5/3 82/5/3
f 87/2/3 79/2/3 71/2/3
f 88/7/3 80/7/3 79/7/3
f 88/2/3 79/2/3 87/2/3
f 89/6/3 81/6/3 80/6/3
f 89/7/3 80/7/3 88/7/3
f 90/5/3 82/5/3 81/5/3
f 90/6/3 81/6/3 89/6/3
f 91/4/3 83/4/3 82/4/3
f 91/5/3 82/5/3 90/5/3
f 92/3/3 77/3/3 83/3/3
f 92/4/3 83/4/3 91/4/3
f 93/9/3 78/9/3 77/9/3
f 93/3/3 77/3/3 92/3/3
f 94/9/3 78/9/3 93/9/3
f 95/6/3 89/6/3 88/6/3
f 95/2/3 88/2/3 87/2/3
f 96/5/3 90/5/3 89/5/3
f 96/6/3 89/6/3 95/6/3
f 97/4/3 91/4/3 90/4/3
f 97/5/3 90/5/3 96/5/3
f 98/3/3 92/3/3 91/3/3
f 98/4/3 91/4/3 97/4/3
f 99/9/3 93/9/3 92/9/3
f 99/3/3 92/3/3 98/3/3
f 100/9/3 93/9/3 99/9/3
f 101/2/3 95/2/3 87/2/3
f 101/5/3 96/5/3 95/5/3
f 102/4/3 97/4/3 96/4/3
f 102/5/3 96/5/3 101/5/3
f 103/3/3 98/3/3 97/3/3
f 103/4/3 97/4/3 102/4/3
f 104/9/3 99/9/3 98/9/3
f 104/3/3 98/3/3 103/3/3
f 105/9/3 99/9/3 104/9/3
f 106/1/3 85/1/3 84/1/3
f 107/10/3 86/10/3 85/10/3
f 107/1/3 85/1/3 106/1/3
f 108/1/3 87/1/3 86/1/3
f 108/10/3 86/10/3 107/10/3
f 109/2/3 101/2/3 87/2/3
f 109/1/3 87/1/3 108/1/3
f 110/4/3 102/4/3 101/4/3
f 110/2/3 101/2/3 109/2/3
f 111/3/3 103/3/3 102/3/3
f 111/4/3 102/4/3 110/4/3
f 112/9/3 104/9/3 103/9/3
f 112/3/3 103/3/3 111/3/3
f 113/9/3 104/9/3 112/9/3
f 114/3/3 111/3/3 110/3/3
f 114/2/3 110/2/3 109/2/3
f 115/9/3 112/9/3 111/9/3
f 115/3/3 111/3/3 114/3/3
f 116/9/3 112/9/3 115/9/3
f 117/2/3 114/2/3 109/2/3
f 118/9/3 115/9/3 114/9/3
f 118/2/3 114/2/3 117/2/3
f 119/9/3 115/9/3 118/9/3
f 120/2/4 121/2/4 128/2/4
f 121/8/4 122/8/4 128/8/4
f 122/7/4 123/7/4 129/7/4
f 128/8/4 122/8/4 129/8/4
f 123/6/4 124/6/4 130/6/4
f 129/7/4 123/7/4 130/7/4
f 124/5/4 125/5/4 131/5/4
f 130/6/4 124/6/4 131/6/4
f 125/3/4 126/3/4 132/3/4
f 131/5/4 125/5/4 132/5/4
f 120/2/4 128/2/4 136/2/4
f 128/7/4 129/7/4 137/7/4
f 136/2/4 128/2/4 137/2/4
f 129/6/4 130/6/4 138/6/4
f 137/7/4 129/7/4 138/7/4
f 130/5/4 131/5/4 139/5/4
f 138/6/4 130/6/4 139/6/4
f 131/4/4 132/4/4 140/4/4
f 139/5/4 131/5/4 140/5/4
f 132/3/4 126/3/4 141/3/4
f 140/4/4 132/4/4 141/4/4
f 126/9/4 127/9/4 142/9/4
f 141/3/4 126/3/4 142/3/4
f 142/9/4 127/9/4 143/9/4
f 137/6/4 138/6/4 144/6/4
f 136/2/4 137/2/4 144/2/4
f 138/5/4 139/5/4 145/5/4
f 144/6/4 138/6/4 145/6/4
f 139/4/4 140/4/4 146/4/4
f 145/5/4 139/5/4 146/5/4
f 140/3/4 141/3/4 147/3/4
f 146/4/4 140/4/4 147/4/4
f 141/9/4 142/9/4 148/9/4
f 147/3/4 141/3/4 148/3/4
f 148/9/4 142/9/4 149/9/4
f 136/2/4 144/2/4 150/2/4
f 144/5/4 145/5/4 150/5/4
f 145/4/4 146/4/4 151/4/4
f 150/5/4 145/5/4 151/5/4
f 146/3/4 147/3/4 152/3/4
f 151/4/4 146/4/4 152/4/4
f 147/9/4 148/9/4 153/9/4
f 152/3/4 147/3/4 153/3/4
f 153/9/4 148/9/4 154/9/4
f 133/1/4 134/1/4 155/1/4
f 134/10/4 135/10/4 156/10/4
f 155/1/4 134/1/4 156/1/4
f 135/1/4 136/1/4 157/1/4
f 156/10/4 135/10/4 157/10/4
f 136/2/4 150/2/4 158/2/4
f 157/1/4 136/1/4 158/1/4
f 150/4/4 151/4/4 159/4/4
f 158/2/4 150/2/4 159/2/4
f 151/3/4 152/3/4 160/3/4
f 159/4/4 151/4/4 160/4/4
f 152/9/4 153/9/4 161/9/4
f 160/3/4 152/3/4 161/3/4
f 161/9/4 153/9/4 162/9/4
f 159/3/4 160/3/4 163/3/4
f 158/2/4 159/2/4 163/2/4
f 160/9/4 161/9/4 164/9/4
f 163/3/4 160/3/4 164/3/4
f 164/9/4 161/9/4 165/9/4
f 158/2/4 163/2/4 166/2/4
f 163/9/4 164/9/4 167/9/4
f 166/2/4 163/2/4 167/2/4
f 167/9/4 164/9/4 168/9/4
f 169/2/4 170/2/4 171/2/4
f 171/2/4 170/2/4 172/2/4
f 175/2/5 174/2/5 173/2/5
f 176/2/5 174/2/5 175/2/5
f 181/2/5 178/2/5 177/2/5
f 182/2/5 178/2/5 181/2/5
f 183/2/5 180/2/5 179/2/5
f 184/2/5 180/2/5 183/2/5
f 185/2/6 186/2/6 187/2/6
f 187/2/6 186/2/6 188/2/6
f 189/2/6 190/2/6 191/2/6
f 191/2/6 190/2/6 192/2/6
f 193/9/6 194/9/6 195/9/6
f 195/9/6 194/9/6 196/9/6
f 197/9/6 198/9/6 199/9/6
f 199/9/6 198/9/6 200/9/6
f 201/9/6 202/9/6 203/9/6
f 203/9/6 202/9/6 204/9/6
f 205/9/6 206/9/6 207/9/6
f 207/9/6 206/9/6 208/9/6
f 209/9/6 210/9/6 211/9/6
f 211/9/6 210/9/6 212/9/6
f 213/9/6 214/9/6 215/9/6
f 215/9/6 214/9/6 216/9/6
