# MagicaVoxel @ Ephtracy

# group
g blaster0

# material
mtllib blaster0.mtl
usemtl palette

# normals
vn -1 0 0
vn 1 0 0
vn 0 0 1
vn 0 0 -1
vn 0 -1 0
vn 0 1 0

# texcoords
vt 0.962891 0.5
vt 0.974609 0.5
vt 0.986328 0.5
vt 0.990234 0.5

# verts
v -1 0 1
v -1 0 -0
v -1 0 -1
v -1 0 -2
v -1 6 1
v -1 6 -0
v -1 6 -1
v -1 6 -2
v -1 7 1
v -1 7 -0
v -1 7 -1
v -1 7 -2
v -1 8 -0
v -1 8 -1
v -1 9 -0
v -1 9 -1
v -1 10 -0
v -1 10 -1
v -1 11 -0
v -1 11 -1
v -1 12 -0
v -1 12 -1
v -1 13 -0
v -1 13 -1
v -1 19 -0
v -1 19 -1
v 0 8 -0
v 0 8 -1
v 0 9 -0
v 0 9 -1
v 0 10 -0
v 0 10 -1
v 0 11 -0
v 0 11 -1
v 0 12 -0
v 0 12 -1
v 0 13 -0
v 0 13 -1
v 0 18 -0
v 0 18 -1
v 0 19 -0
v 0 19 -1
v 1 0 1
v 1 0 -0
v 1 0 -1
v 1 0 -2
v 1 1 1
v 1 1 -0
v 1 1 -1
v 1 1 -2
v 1 17 -0
v 1 17 -1
v 1 18 -0
v 1 18 -1
v 2 1 1
v 2 1 -0
v 2 1 -1
v 2 1 -2
v 2 2 1
v 2 2 -0
v 2 2 -1
v 2 2 -2
v 2 3 1
v 2 3 -0
v 2 3 -1
v 2 3 -2
v 2 4 1
v 2 4 -0
v 2 4 -1
v 2 4 -2
v 2 5 1
v 2 5 -0
v 2 5 -1
v 2 5 -2
v 2 6 1
v 2 6 -0
v 2 6 -1
v 2 6 -2
v 2 7 1
v 2 7 -0
v 2 7 -1
v 2 7 -2
v 2 17 -0
v 2 17 -1
v -1 0 1
v -1 6 1
v -1 7 1
v 0 1 1
v 0 2 1
v 0 3 1
v 0 4 1
v 0 5 1
v 0 6 1
v 1 0 1
v 1 1 1
v 1 2 1
v 1 3 1
v 1 4 1
v 1 5 1
v 1 6 1
v 2 1 1
v 2 2 1
v 2 3 1
v 2 4 1
v 2 5 1
v 2 6 1
v 2 7 1
v -1 7 -0
v -1 8 -0
v -1 9 -0
v -1 10 -0
v -1 11 -0
v -1 12 -0
v -1 13 -0
v -1 19 -0
v 0 8 -0
v 0 9 -0
v 0 10 -0
v 0 11 -0
v 0 12 -0
v 0 13 -0
v 0 18 -0
v 0 19 -0
v 1 17 -0
v 1 18 -0
v 2 7 -0
v 2 17 -0
v -1 7 -1
v -1 8 -1
v -1 9 -1
v -1 10 -1
v -1 11 -1
v -1 12 -1
v -1 13 -1
v -1 19 -1
v 0 8 -1
v 0 9 -1
v 0 10 -1
v 0 11 -1
v 0 12 -1
v 0 13 -1
v 0 18 -1
v 0 19 -1
v 1 17 -1
v 1 18 -1
v 2 7 -1
v 2 17 -1
v -1 0 -2
v -1 6 -2
v -1 7 -2
v 0 1 -2
v 0 2 -2
v 0 3 -2
v 0 4 -2
v 0 5 -2
v 0 6 -2
v 1 0 -2
v 1 1 -2
v 1 2 -2
v 1 3 -2
v 1 4 -2
v 1 5 -2
v 1 6 -2
v 2 1 -2
v 2 2 -2
v 2 3 -2
v 2 4 -2
v 2 5 -2
v 2 6 -2
v 2 7 -2
v -1 0 1
v 1 0 1
v -1 0 -0
v 1 0 -0
v -1 0 -1
v 1 0 -1
v -1 0 -2
v 1 0 -2
v 1 1 1
v 2 1 1
v 1 1 -0
v 2 1 -0
v 1 1 -1
v 2 1 -1
v 1 1 -2
v 2 1 -2
v -1 9 -0
v 0 9 -0
v -1 9 -1
v 0 9 -1
v -1 11 -0
v 0 11 -0
v -1 11 -1
v 0 11 -1
v -1 13 -0
v 0 13 -0
v -1 13 -1
v 0 13 -1
v -1 7 1
v 2 7 1
v -1 7 -0
v 2 7 -0
v -1 7 -1
v 2 7 -1
v -1 7 -2
v 2 7 -2
v -1 8 -0
v 0 8 -0
v -1 8 -1
v 0 8 -1
v -1 10 -0
v 0 10 -0
v -1 10 -1
v 0 10 -1
v -1 12 -0
v 0 12 -0
v -1 12 -1
v 0 12 -1
v 1 17 -0
v 2 17 -0
v 1 17 -1
v 2 17 -1
v 0 18 -0
v 1 18 -0
v 0 18 -1
v 1 18 -1
v -1 19 -0
v 0 19 -0
v -1 19 -1
v 0 19 -1

# faces
f 5/3/1 2/3/1 1/3/1
f 6/1/1 3/1/1 2/1/1
f 6/3/1 2/3/1 5/3/1
f 7/3/1 4/3/1 3/3/1
f 7/1/1 3/1/1 6/1/1
f 8/3/1 4/3/1 7/3/1
f 9/2/1 6/2/1 5/2/1
f 9/2/1 7/2/1 6/2/1
f 9/2/1 8/2/1 7/2/1
f 10/2/1 8/2/1 9/2/1
f 11/2/1 8/2/1 10/2/1
f 12/2/1 8/2/1 11/2/1
f 13/1/1 11/1/1 10/1/1
f 14/1/1 11/1/1 13/1/1
f 17/1/1 16/1/1 15/1/1
f 18/1/1 16/1/1 17/1/1
f 21/1/1 20/1/1 19/1/1
f 22/1/1 20/1/1 21/1/1
f 25/1/1 24/1/1 23/1/1
f 26/1/1 24/1/1 25/1/1
f 29/1/1 28/1/1 27/1/1
f 30/1/1 28/1/1 29/1/1
f 33/1/1 32/1/1 31/1/1
f 34/1/1 32/1/1 33/1/1
f 37/1/1 36/1/1 35/1/1
f 38/1/1 36/1/1 37/1/1
f 39/1/2 40/1/2 41/1/2
f 41/1/2 40/1/2 42/1/2
f 43/3/2 44/3/2 47/3/2
f 44/1/2 45/1/2 48/1/2
f 47/3/2 44/3/2 48/3/2
f 45/3/2 46/3/2 49/3/2
f 48/1/2 45/1/2 49/1/2
f 49/3/2 46/3/2 50/3/2
f 51/1/2 52/1/2 53/1/2
f 53/1/2 52/1/2 54/1/2
f 55/3/2 56/3/2 59/3/2
f 56/1/2 57/1/2 60/1/2
f 59/3/2 56/3/2 60/3/2
f 57/3/2 58/3/2 61/3/2
f 60/1/2 57/1/2 61/1/2
f 61/3/2 58/3/2 62/3/2
f 59/2/2 60/2/2 63/2/2
f 60/2/2 61/2/2 63/2/2
f 61/2/2 62/2/2 63/2/2
f 63/2/2 62/2/2 64/2/2
f 64/2/2 62/2/2 65/2/2
f 65/2/2 62/2/2 66/2/2
f 63/3/2 64/3/2 67/3/2
f 64/1/2 65/1/2 68/1/2
f 67/3/2 64/3/2 68/3/2
f 65/3/2 66/3/2 69/3/2
f 68/1/2 65/1/2 69/1/2
f 69/3/2 66/3/2 70/3/2
f 67/2/2 68/2/2 71/2/2
f 68/2/2 69/2/2 71/2/2
f 69/2/2 70/2/2 71/2/2
f 71/2/2 70/2/2 72/2/2
f 72/2/2 70/2/2 73/2/2
f 73/2/2 70/2/2 74/2/2
f 71/3/2 72/3/2 75/3/2
f 72/1/2 73/1/2 76/1/2
f 75/3/2 72/3/2 76/3/2
f 73/3/2 74/3/2 77/3/2
f 76/1/2 73/1/2 77/1/2
f 77/3/2 74/3/2 78/3/2
f 75/2/2 76/2/2 79/2/2
f 76/2/2 77/2/2 79/2/2
f 77/2/2 78/2/2 79/2/2
f 79/2/2 78/2/2 80/2/2
f 80/2/2 78/2/2 81/2/2
f 81/2/2 78/2/2 82/2/2
f 80/1/2 81/1/2 83/1/2
f 83/1/2 81/1/2 84/1/2
f 88/3/3 86/3/3 85/3/3
f 89/3/3 86/3/3 88/3/3
f 90/3/3 86/3/3 89/3/3
f 91/3/3 86/3/3 90/3/3
f 92/3/3 86/3/3 91/3/3
f 93/2/3 87/2/3 86/2/3
f 93/3/3 86/3/3 92/3/3
f 94/3/3 88/3/3 85/3/3
f 95/4/3 89/4/3 88/4/3
f 95/3/3 88/3/3 94/3/3
f 96/3/3 90/3/3 89/3/3
f 96/4/3 89/4/3 95/4/3
f 97/4/3 91/4/3 90/4/3
f 97/3/3 90/3/3 96/3/3
f 98/3/3 92/3/3 91/3/3
f 98/4/3 91/4/3 97/4/3
f 99/4/3 93/4/3 92/4/3
f 99/3/3 92/3/3 98/3/3
f 100/2/3 87/2/3 93/2/3
f 100/4/3 93/4/3 99/4/3
f 101/3/3 96/3/3 95/3/3
f 102/2/3 97/2/3 96/2/3
f 102/3/3 96/3/3 101/3/3
f 103/3/3 98/3/3 97/3/3
f 103/2/3 97/2/3 102/2/3
f 104/2/3 99/2/3 98/2/3
f 104/3/3 98/3/3 103/3/3
f 105/3/3 100/3/3 99/3/3
f 105/2/3 99/2/3 104/2/3
f 106/2/3 87/2/3 100/2/3
f 106/3/3 100/3/3 105/3/3
f 107/2/3 87/2/3 106/2/3
f 116/1/3 109/1/3 108/1/3
f 117/1/3 111/1/3 110/1/3
f 118/1/3 111/1/3 117/1/3
f 119/1/3 113/1/3 112/1/3
f 120/1/3 113/1/3 119/1/3
f 121/1/3 115/1/3 114/1/3
f 122/1/3 115/1/3 121/1/3
f 123/1/3 115/1/3 122/1/3
f 124/1/3 120/1/3 119/1/3
f 124/1/3 118/1/3 117/1/3
f 124/1/3 122/1/3 121/1/3
f 124/1/3 121/1/3 120/1/3
f 124/1/3 117/1/3 116/1/3
f 124/1/3 119/1/3 118/1/3
f 125/1/3 122/1/3 124/1/3
f 126/1/3 116/1/3 108/1/3
f 126/1/3 124/1/3 116/1/3
f 127/1/3 124/1/3 126/1/3
f 128/1/4 129/1/4 136/1/4
f 130/1/4 131/1/4 137/1/4
f 137/1/4 131/1/4 138/1/4
f 132/1/4 133/1/4 139/1/4
f 139/1/4 133/1/4 140/1/4
f 134/1/4 135/1/4 141/1/4
f 141/1/4 135/1/4 142/1/4
f 142/1/4 135/1/4 143/1/4
f 139/1/4 140/1/4 144/1/4
f 137/1/4 138/1/4 144/1/4
f 141/1/4 142/1/4 144/1/4
f 140/1/4 141/1/4 144/1/4
f 136/1/4 137/1/4 144/1/4
f 138/1/4 139/1/4 144/1/4
f 144/1/4 142/1/4 145/1/4
f 128/1/4 136/1/4 146/1/4
f 136/1/4 144/1/4 146/1/4
f 146/1/4 144/1/4 147/1/4
f 148/3/4 149/3/4 151/3/4
f 151/3/4 149/3/4 152/3/4
f 152/3/4 149/3/4 153/3/4
f 153/3/4 149/3/4 154/3/4
f 154/3/4 149/3/4 155/3/4
f 149/2/4 150/2/4 156/2/4
f 155/3/4 149/3/4 156/3/4
f 148/3/4 151/3/4 157/3/4
f 151/4/4 152/4/4 158/4/4
f 157/3/4 151/3/4 158/3/4
f 152/3/4 153/3/4 159/3/4
f 158/4/4 152/4/4 159/4/4
f 153/4/4 154/4/4 160/4/4
f 159/3/4 153/3/4 160/3/4
f 154/3/4 155/3/4 161/3/4
f 160/4/4 154/4/4 161/4/4
f 155/4/4 156/4/4 162/4/4
f 161/3/4 155/3/4 162/3/4
f 156/2/4 150/2/4 163/2/4
f 162/4/4 156/4/4 163/4/4
f 158/3/4 159/3/4 164/3/4
f 159/2/4 160/2/4 165/2/4
f 164/3/4 159/3/4 165/3/4
f 160/3/4 161/3/4 166/3/4
f 165/2/4 160/2/4 166/2/4
f 161/2/4 162/2/4 167/2/4
f 166/3/4 161/3/4 167/3/4
f 162/3/4 163/3/4 168/3/4
f 167/2/4 162/2/4 168/2/4
f 163/2/4 150/2/4 169/2/4
f 168/3/4 163/3/4 169/3/4
f 169/2/4 150/2/4 170/2/4
f 173/3/5 172/3/5 171/3/5
f 174/3/5 172/3/5 173/3/5
f 175/1/5 174/1/5 173/1/5
f 176/1/5 174/1/5 175/1/5
f 177/3/5 176/3/5 175/3/5
f 178/3/5 176/3/5 177/3/5
f 181/3/5 180/3/5 179/3/5
f 182/3/5 180/3/5 181/3/5
f 183/1/5 182/1/5 181/1/5
f 184/1/5 182/1/5 183/1/5
f 185/3/5 184/3/5 183/3/5
f 186/3/5 184/3/5 185/3/5
f 189/1/5 188/1/5 187/1/5
f 190/1/5 188/1/5 189/1/5
f 193/1/5 192/1/5 191/1/5
f 194/1/5 192/1/5 193/1/5
f 197/1/5 196/1/5 195/1/5
f 198/1/5 196/1/5 197/1/5
f 199/2/6 200/2/6 201/2/6
f 201/2/6 200/2/6 202/2/6
f 203/2/6 204/2/6 205/2/6
f 205/2/6 204/2/6 206/2/6
f 207/1/6 208/1/6 209/1/6
f 209/1/6 208/1/6 210/1/6
f 211/1/6 212/1/6 213/1/6
f 213/1/6 212/1/6 214/1/6
f 215/1/6 216/1/6 217/1/6
f 217/1/6 216/1/6 218/1/6
f 219/1/6 220/1/6 221/1/6
f 221/1/6 220/1/6 222/1/6
f 223/1/6 224/1/6 225/1/6
f 225/1/6 224/1/6 226/1/6
f 227/1/6 228/1/6 229/1/6
f 229/1/6 228/1/6 230/1/6
